<svg width="257" height="243" viewBox="0 0 257 243" fill="none" xmlns="http://www.w3.org/2000/svg">
<g opacity="0.15" filter="url(#filter0_f_116_3379)">
<path d="M60 145.022C60 122.931 77.9086 105.022 100 105.022H157C179.091 105.022 197 122.931 197 145.022V166.022C197 174.859 189.837 182.022 181 182.022H76C67.1634 182.022 60 174.859 60 166.022V145.022Z" fill="#4864E1"/>
</g>
<g opacity="0.25" filter="url(#filter1_f_116_3379)">
<path d="M132 106.022C132 97.7377 138.716 91.022 147 91.022C155.284 91.022 162 97.7377 162 106.022V125.308C162 132.882 155.86 139.022 148.286 139.022H145.714C138.14 139.022 132 132.882 132 125.308V106.022Z" fill="#008768"/>
</g>
<g opacity="0.2" filter="url(#filter2_f_116_3379)">
<path d="M93 106.022C93 97.7377 99.7157 91.022 108 91.022C116.284 91.022 123 97.7377 123 106.022V125.308C123 132.882 116.86 139.022 109.286 139.022H106.714C99.1401 139.022 93 132.882 93 125.308V106.022Z" fill="#4864E1"/>
</g>
<mask id="mask0_116_3379" style="mask-type:alpha" maskUnits="userSpaceOnUse" x="65" y="42" width="125" height="108">
<path d="M65.998 115.776C65.998 75.0305 93.7564 42 127.998 42C162.24 42 189.998 75.0305 189.998 115.776C189.998 156.521 162.24 149.546 127.998 149.546C93.7564 149.546 65.998 156.521 65.998 115.776Z" fill="#D9D9D9" fill-opacity="0.1"/>
</mask>
<g mask="url(#mask0_116_3379)">
<rect x="39.7988" y="29.6221" width="39.9" height="39.9" rx="4.2" fill="#BABABA"/>
<rect x="85.2988" y="29.6221" width="39.9" height="39.9" rx="4.2" fill="#BABABA"/>
<rect x="130.799" y="29.6221" width="39.9" height="39.9" rx="4.2" fill="#BABABA"/>
<rect x="176.299" y="29.6221" width="39.9" height="39.9" rx="4.2" fill="#BABABA"/>
<rect x="39.7988" y="75.1221" width="39.9" height="39.9" rx="4.2" fill="#BABABA"/>
<rect x="85.2988" y="75.1221" width="39.9" height="39.9" rx="4.2" fill="#BABABA"/>
<rect x="130.799" y="75.1221" width="39.9" height="39.9" rx="4.2" fill="#BABABA"/>
<rect x="176.299" y="75.1221" width="39.9" height="39.9" rx="4.2" fill="#BABABA"/>
<rect x="39.7988" y="120.622" width="39.9" height="39.9" rx="4.2" fill="#BABABA"/>
<rect x="85.2988" y="120.622" width="39.9" height="39.9" rx="4.2" fill="#BABABA"/>
<rect x="130.799" y="120.622" width="39.9" height="39.9" rx="4.2" fill="#BABABA"/>
<rect x="176.299" y="120.622" width="39.9" height="39.9" rx="4.2" fill="#BABABA"/>
</g>
<rect width="13.3875" height="20.0169" rx="6.69374" transform="matrix(0.749435 -0.662078 0.665623 0.746288 137.909 135.342)" fill="#4864E1" stroke="#A6A6A6" stroke-width="1.2"/>
<rect x="116.116" y="76.4772" width="5.95745" height="19.9917" rx="2.97872" transform="rotate(-13.6289 116.116 76.4772)" fill="#FAFAFA" stroke="#A6A6A6" stroke-width="1.2"/>
<path d="M100.038 114.444C96.4039 99.4555 105.608 84.3588 120.597 80.7247C135.586 77.0906 150.682 86.2952 154.316 101.284L159.832 124.031C160.072 125.022 160.741 125.853 161.657 126.3L162.447 126.686C165.376 128.116 166.125 131.687 163.539 133.672C159.018 137.141 150.618 142.015 136.299 145.487C122.159 148.916 112.285 148.542 106.443 147.604C103.097 147.067 102.106 143.371 104.269 140.762L104.839 140.074C105.527 139.244 105.783 138.138 105.529 137.09L100.038 114.444Z" fill="#FAFAFA" stroke="#A6A6A6" stroke-width="1.2"/>
<path d="M112.543 137.584C113.987 137.714 115.782 137.787 117.941 137.724M153.783 127.534C150.443 129.731 144.287 132.884 133.946 135.391C128.838 136.629 124.522 137.271 120.965 137.556" stroke="#A6A6A6" stroke-width="1.2" stroke-linecap="round"/>
<path d="M114.61 125.546L115.156 123.425C116.132 123.654 117.389 123.907 118.84 124.1L118.267 126.451C118.016 127.48 116.967 128.104 115.944 127.831C114.947 127.565 114.352 126.547 114.61 125.546Z" fill="#EF4035"/>
<path d="M115.156 123.425L115.295 122.841L115.295 122.841L115.156 123.425ZM112.763 123.389C112.45 123.282 112.283 122.941 112.391 122.627C112.5 122.314 112.841 122.147 113.155 122.254L112.959 122.821L112.763 123.389ZM114.61 125.546L114.029 125.399L114.029 125.399L114.61 125.546ZM129.182 123.281C129.507 123.215 129.823 123.425 129.888 123.749C129.953 124.074 129.743 124.391 129.418 124.457L129.3 123.869L129.182 123.281ZM118.84 124.1L118.922 123.506L118.84 124.1ZM118.267 126.451L118.85 126.591L118.85 126.591L118.267 126.451ZM115.944 127.831L115.788 128.411L115.944 127.831ZM115.156 123.425L115.017 124.009C114.315 123.844 113.755 123.69 113.369 123.577C113.176 123.521 113.026 123.474 112.924 123.442C112.873 123.425 112.834 123.412 112.807 123.404C112.793 123.399 112.783 123.396 112.775 123.393C112.772 123.392 112.769 123.391 112.767 123.39C112.766 123.39 112.765 123.39 112.764 123.389C112.764 123.389 112.764 123.389 112.763 123.389C112.763 123.389 112.763 123.389 112.763 123.389C112.763 123.389 112.763 123.389 112.763 123.389C112.763 123.389 112.763 123.389 112.959 122.821C113.155 122.254 113.154 122.254 113.154 122.254C113.154 122.254 113.154 122.254 113.154 122.254C113.154 122.254 113.154 122.254 113.154 122.254C113.154 122.254 113.154 122.254 113.154 122.254C113.155 122.254 113.155 122.254 113.155 122.254C113.157 122.254 113.158 122.255 113.161 122.256C113.166 122.258 113.175 122.26 113.186 122.264C113.209 122.272 113.245 122.283 113.292 122.298C113.385 122.328 113.526 122.372 113.71 122.426C114.077 122.533 114.616 122.681 115.295 122.841L115.156 123.425ZM115.156 123.425L115.737 123.573L115.191 125.694L114.61 125.546L114.029 125.399L114.575 123.277L115.156 123.425ZM129.3 123.869L129.418 124.457C125.539 125.246 121.737 125.092 118.759 124.695L118.84 124.1L118.922 123.506C121.817 123.891 125.476 124.036 129.182 123.281L129.3 123.869ZM118.84 124.1L118.759 124.695C117.285 124.499 116.008 124.242 115.017 124.009L115.156 123.425L115.295 122.841C116.255 123.067 117.493 123.315 118.922 123.506L118.84 124.1ZM118.267 126.451L117.684 126.311L118.257 123.96L118.84 124.1L119.423 124.241L118.85 126.591L118.267 126.451ZM115.944 127.831L116.101 127.252C116.798 127.437 117.513 127.012 117.684 126.311L118.267 126.451L118.85 126.591C118.519 127.948 117.136 128.77 115.788 128.411L115.944 127.831ZM114.61 125.546L115.191 125.694C115.016 126.376 115.421 127.07 116.101 127.252L115.944 127.831L115.788 128.411C114.473 128.06 113.689 126.717 114.029 125.399L114.61 125.546Z" fill="#3B3B3B"/>
<path d="M113.666 112.542C113.425 112.316 113.045 112.328 112.818 112.57C112.591 112.811 112.602 113.191 112.844 113.418L113.255 112.98L113.666 112.542ZM115.476 115.891C115.717 116.117 116.097 116.105 116.324 115.863C116.551 115.621 116.539 115.242 116.298 115.015L115.887 115.453L115.476 115.891ZM116.252 113.316C116.48 113.076 116.471 112.696 116.231 112.468C115.991 112.24 115.611 112.251 115.382 112.491L115.817 112.904L116.252 113.316ZM112.89 115.116C112.662 115.357 112.671 115.737 112.911 115.965C113.151 116.192 113.531 116.182 113.759 115.942L113.325 115.529L112.89 115.116ZM113.255 112.98L112.844 113.418L115.476 115.891L115.887 115.453L116.298 115.015L113.666 112.542L113.255 112.98ZM115.817 112.904L115.382 112.491L112.89 115.116L113.325 115.529L113.759 115.942L116.252 113.316L115.817 112.904Z" fill="#3B3B3B"/>
<path d="M125.801 111.116C125.56 110.889 125.18 110.901 124.953 111.143C124.726 111.385 124.737 111.765 124.978 111.991L125.39 111.553L125.801 111.116ZM130.036 116.743C130.277 116.97 130.657 116.957 130.884 116.716C131.111 116.474 131.1 116.094 130.859 115.867L130.447 116.305L130.036 116.743ZM130.748 111.82C130.976 111.579 130.967 111.199 130.727 110.971C130.487 110.744 130.107 110.754 129.879 110.994L130.313 111.407L130.748 111.82ZM125.089 116.039C124.861 116.28 124.87 116.659 125.11 116.887C125.35 117.115 125.73 117.105 125.958 116.864L125.524 116.452L125.089 116.039ZM125.39 111.553L124.978 111.991L130.036 116.743L130.447 116.305L130.859 115.867L125.801 111.116L125.39 111.553ZM130.313 111.407L129.879 110.994L125.089 116.039L125.524 116.452L125.958 116.864L130.748 111.82L130.313 111.407Z" fill="#3B3B3B"/>
<defs>
<filter id="filter0_f_116_3379" x="0" y="45.022" width="257" height="197" filterUnits="userSpaceOnUse" color-interpolation-filters="sRGB">
<feFlood flood-opacity="0" result="BackgroundImageFix"/>
<feBlend mode="normal" in="SourceGraphic" in2="BackgroundImageFix" result="shape"/>
<feGaussianBlur stdDeviation="30" result="effect1_foregroundBlur_116_3379"/>
</filter>
<filter id="filter1_f_116_3379" x="72" y="31.022" width="150" height="168" filterUnits="userSpaceOnUse" color-interpolation-filters="sRGB">
<feFlood flood-opacity="0" result="BackgroundImageFix"/>
<feBlend mode="normal" in="SourceGraphic" in2="BackgroundImageFix" result="shape"/>
<feGaussianBlur stdDeviation="30" result="effect1_foregroundBlur_116_3379"/>
</filter>
<filter id="filter2_f_116_3379" x="33" y="31.022" width="150" height="168" filterUnits="userSpaceOnUse" color-interpolation-filters="sRGB">
<feFlood flood-opacity="0" result="BackgroundImageFix"/>
<feBlend mode="normal" in="SourceGraphic" in2="BackgroundImageFix" result="shape"/>
<feGaussianBlur stdDeviation="30" result="effect1_foregroundBlur_116_3379"/>
</filter>
</defs>
</svg>
