<svg width="200" height="216" viewBox="0 0 200 216" fill="none" xmlns="http://www.w3.org/2000/svg">
<mask id="mask0_2920_182278" style="mask-type:alpha" maskUnits="userSpaceOnUse" x="37" y="42" width="125" height="108">
<path d="M37.998 115.776C37.998 75.0305 65.7564 42 99.998 42C134.24 42 161.998 75.0305 161.998 115.776C161.998 156.521 134.24 149.546 99.998 149.546C65.7564 149.546 37.998 156.521 37.998 115.776Z" fill="#D9D9D9" fill-opacity="0.1"/>
</mask>
<g mask="url(#mask0_2920_182278)">
<rect x="11.7988" y="29.6221" width="39.9" height="39.9" rx="4.2" fill="#BABABA"/>
<rect x="57.2988" y="29.6221" width="39.9" height="39.9" rx="4.2" fill="#BABABA"/>
<rect x="102.799" y="29.6221" width="39.9" height="39.9" rx="4.2" fill="#BABABA"/>
<rect x="148.299" y="29.6221" width="39.9" height="39.9" rx="4.2" fill="#BABABA"/>
<rect x="11.7988" y="75.1221" width="39.9" height="39.9" rx="4.2" fill="#BABABA"/>
<rect x="57.2988" y="75.1221" width="39.9" height="39.9" rx="4.2" fill="#BABABA"/>
<rect x="102.799" y="75.1221" width="39.9" height="39.9" rx="4.2" fill="#BABABA"/>
<rect x="148.299" y="75.1221" width="39.9" height="39.9" rx="4.2" fill="#BABABA"/>
<rect x="11.7988" y="120.622" width="39.9" height="39.9" rx="4.2" fill="#BABABA"/>
<rect x="57.2988" y="120.622" width="39.9" height="39.9" rx="4.2" fill="#BABABA"/>
<rect x="102.799" y="120.622" width="39.9" height="39.9" rx="4.2" fill="#BABABA"/>
<rect x="148.299" y="120.622" width="39.9" height="39.9" rx="4.2" fill="#BABABA"/>
</g>
<path d="M124 80.022C127.314 80.022 129 82.7083 129 86.022V122.022C129 125.336 127.314 128.022 124 128.022L70 128.022C66.6863 128.022 65 125.336 65 122.022L65 86.022C65 82.7083 66.6863 80.022 70 80.022L124 80.022Z" fill="#FAFAFA"/>
<rect x="91" y="123.022" width="12.5" height="3.5" rx="1.75" fill="#F2F2F2"/>
<circle cx="92.75" cy="124.772" r="1" fill="#CCCCCC"/>
<circle cx="95.75" cy="124.772" r="1" fill="#CCCCCC"/>
<circle cx="98.75" cy="124.772" r="1" fill="#CCCCCC"/>
<circle cx="101.75" cy="124.772" r="1" fill="#CCCCCC"/>
<path d="M75.7037 128.022C76.5595 114.678 72.7671 106.088 70.1744 102.597C69.8272 102.13 70.017 101.429 70.5783 101.268C77.2541 99.3566 90.1354 97.1907 96.6805 101.632C101.399 104.834 103.599 112.674 104.487 119.522" stroke="#F2F2F2"/>
<path d="M98.3161 93.1392C97.6332 90.0806 95.1056 87.022 91.1453 87.022C87.1851 87.022 84.9992 89.7407 84.9992 92.7994C84.9992 96.7409 84.999 96.1978 84.999 98.2369C84.999 100.276 86.5366 102.145 88.0722 102.655C89.6077 103.165 92.681 102.995 95.243 102.995C98.4554 102.995 98.9991 100.266 98.999 98.5768C98.999 96.8875 98.6894 94.8109 98.3161 93.1392Z" fill="#FAFAFA" stroke="#E8E8E8" stroke-linejoin="round"/>
<path d="M78.7905 128.004C78.8856 122.199 76.8871 110.675 86.0286 105.91C91.9454 102.825 98.9127 107.332 101.983 112.724C105.44 118.796 104.549 123.417 106.091 128.018" stroke="#A6A6A6" stroke-linecap="round" stroke-linejoin="round"/>
<path d="M78.7905 128.004C78.8856 122.199 76.8871 110.675 86.0286 105.91C91.9454 102.825 98.9127 107.332 101.983 112.724C105.44 118.796 104.549 123.417 106.091 128.018" stroke="#E8E8E8" stroke-linecap="round" stroke-linejoin="round"/>
<path d="M92.3066 98.022C92.2481 99.1208 93.5579 99.5785 94.2014 98.9411" stroke="#DBDBDB" stroke-linecap="round"/>
<path d="M89 93.522C89 94.9027 90.1193 96.022 91.5 96.022C92.8807 96.022 94 94.9027 94 93.522V91.3553C94 90.6189 93.403 90.022 92.6667 90.022H90.3333C89.597 90.022 89 90.6189 89 91.3553V93.522Z" fill="#F2F2F2"/>
<path d="M96 93.522C96 94.9027 97.1193 96.022 98.5 96.022C99.8807 96.022 101 94.9027 101 93.522V91.3553C101 90.6189 100.403 90.022 99.6667 90.022H97.3333C96.597 90.022 96 90.6189 96 91.3553V93.522Z" fill="#F2F2F2"/>
<path d="M94 93.522V91.3553C94 90.6189 93.403 90.022 92.6667 90.022H90.3333C89.597 90.022 89 90.6189 89 91.3553V93.522C89 94.9027 90.1193 96.022 91.5 96.022C92.8807 96.022 94 94.9027 94 93.522ZM94 93.522C94.3333 93.1886 95.2 92.722 96 93.522M96 93.522V91.3553C96 90.6189 96.597 90.022 97.3333 90.022H99.6667C100.403 90.022 101 90.6189 101 91.3553V93.522C101 94.9027 99.8807 96.022 98.5 96.022C97.1193 96.022 96 94.9027 96 93.522Z" stroke="#BABABA" stroke-linecap="round"/>
<path d="M124 80.022C127.314 80.022 129 82.7083 129 86.022V122.022C129 125.336 127.314 128.022 124 128.022L70 128.022C66.6863 128.022 65 125.336 65 122.022L65 86.022C65 82.7083 66.6863 80.022 70 80.022L124 80.022Z" stroke="#A6A6A6"/>
<rect x="93" y="74.022" width="9" height="4" rx="2" fill="#BABABA"/>
<rect x="97" y="75.522" width="4" height="1" rx="0.5" fill="white"/>
<circle cx="95" cy="76.022" r="1" fill="white"/>
<path d="M139.588 115.943C147.353 122.356 147.353 131.976 148 142.237C147.715 147.462 138.658 155.769 104.834 147.572C104.361 147.457 104.025 147.013 104.064 146.527C104.744 137.967 106.298 131.446 111.118 124.28C117.157 115.302 131.823 109.531 139.588 115.943Z" fill="#FAFAFA"/>
<path d="M148 142.237C147.353 131.976 147.353 122.356 139.588 115.943C131.823 109.531 117.157 115.302 111.118 124.28C106.141 131.679 104.647 138.389 104 147.367" stroke="#A6A6A6" stroke-linecap="round" stroke-linejoin="round"/>
<path d="M118.73 99.986C119.378 94.8637 123.432 91.022 128.435 91.022C133.438 91.022 136.2 95.0353 136.2 99.986C136.2 104.937 136.2 102.547 136.2 105.108C136.2 107.67 134.257 109.718 132.317 110.359C130.377 110.999 125.849 111.511 122.613 111.511C119.376 111.511 118.082 109.791 118.082 107.67C118.082 105.548 118.082 105.108 118.73 99.986Z" fill="#FAFAFA" stroke="#A6A6A6" stroke-linejoin="round"/>
<path d="M121.902 104.428C121.713 104.157 121.339 104.09 121.067 104.28C120.795 104.47 120.729 104.844 120.918 105.116L121.41 104.772L121.902 104.428ZM127.06 105.12C127.252 104.85 127.189 104.475 126.919 104.283C126.65 104.091 126.275 104.154 126.083 104.424L126.571 104.772L127.06 105.12ZM121.41 104.772L120.918 105.116C121.623 106.124 122.834 106.586 123.982 106.586C125.131 106.586 126.344 106.124 127.06 105.12L126.571 104.772L126.083 104.424C125.645 105.038 124.843 105.386 123.982 105.386C123.121 105.386 122.328 105.038 121.902 104.428L121.41 104.772Z" fill="#A6A6A6"/>
<path d="M120.627 99.563C120.994 100.433 122.177 100.295 122.434 99.5615" stroke="#A6A6A6" stroke-width="1.2" stroke-linecap="round"/>
<path d="M125.419 99.5591C125.786 100.429 126.969 100.291 127.226 99.5575" stroke="#A6A6A6" stroke-width="1.2" stroke-linecap="round"/>
<path d="M133.476 99.9343L133.86 99.6118L133.86 99.6118L133.476 99.9343ZM132.661 100.802C132.403 100.903 132.275 101.193 132.375 101.449C132.475 101.705 132.766 101.831 133.024 101.73L132.843 101.266L132.661 100.802ZM133.666 99.5014L133.69 99.9992V99.9992L133.666 99.5014ZM133.753 100.261L134.137 99.9389L133.86 99.6118L133.476 99.9343L133.092 100.257L133.369 100.584L133.753 100.261ZM133.925 99.8698L133.465 99.6726L133.294 100.064L133.753 100.261L134.213 100.459L134.384 100.067L133.925 99.8698ZM133.753 100.261L133.294 100.064C133.138 100.42 132.924 100.7 132.661 100.802L132.843 101.266L133.024 101.73C133.669 101.478 134.025 100.886 134.213 100.459L133.753 100.261ZM133.666 99.5014L133.69 99.9992C133.522 100.008 133.393 99.8379 133.465 99.6726L133.925 99.8698L134.384 100.067C134.615 99.5419 134.205 98.9732 133.641 99.0035L133.666 99.5014ZM133.476 99.9343L133.86 99.6118C133.985 99.7596 133.885 99.9888 133.69 99.9992L133.666 99.5014L133.641 99.0035C133.008 99.0376 132.684 99.7759 133.092 100.257L133.476 99.9343Z" fill="#A6A6A6"/>
</svg>
