<svg width="257" height="243" viewBox="0 0 257 243" fill="none" xmlns="http://www.w3.org/2000/svg">
<g opacity="0.15" filter="url(#filter0_f_869_30988)">
<path d="M60 145.022C60 122.931 77.9086 105.022 100 105.022H157C179.091 105.022 197 122.931 197 145.022V166.022C197 174.859 189.837 182.022 181 182.022H76C67.1634 182.022 60 174.859 60 166.022V145.022Z" fill="#4864E1"/>
</g>
<g opacity="0.25" filter="url(#filter1_f_869_30988)">
<path d="M132 106.022C132 97.7377 138.716 91.022 147 91.022C155.284 91.022 162 97.7377 162 106.022V125.308C162 132.882 155.86 139.022 148.286 139.022H145.714C138.14 139.022 132 132.882 132 125.308V106.022Z" fill="#008768"/>
</g>
<g opacity="0.2" filter="url(#filter2_f_869_30988)">
<path d="M93 106.022C93 97.7377 99.7157 91.022 108 91.022C116.284 91.022 123 97.7377 123 106.022V125.308C123 132.882 116.86 139.022 109.286 139.022H106.714C99.1401 139.022 93 132.882 93 125.308V106.022Z" fill="#4864E1"/>
</g>
<mask id="mask0_869_30988" style="mask-type:alpha" maskUnits="userSpaceOnUse" x="65" y="42" width="125" height="108">
<path d="M65.998 115.776C65.998 75.0305 93.7564 42 127.998 42C162.24 42 189.998 75.0305 189.998 115.776C189.998 156.521 162.24 149.546 127.998 149.546C93.7564 149.546 65.998 156.521 65.998 115.776Z" fill="#D9D9D9" fill-opacity="0.1"/>
</mask>
<g mask="url(#mask0_869_30988)">
<rect x="39.7988" y="29.6221" width="39.9" height="39.9" rx="4.2" fill="#BABABA"/>
<rect x="85.2988" y="29.6221" width="39.9" height="39.9" rx="4.2" fill="#BABABA"/>
<rect x="130.799" y="29.6221" width="39.9" height="39.9" rx="4.2" fill="#BABABA"/>
<rect x="176.299" y="29.6221" width="39.9" height="39.9" rx="4.2" fill="#BABABA"/>
<rect x="39.7988" y="75.1221" width="39.9" height="39.9" rx="4.2" fill="#BABABA"/>
<rect x="85.2988" y="75.1221" width="39.9" height="39.9" rx="4.2" fill="#BABABA"/>
<rect x="130.799" y="75.1221" width="39.9" height="39.9" rx="4.2" fill="#BABABA"/>
<rect x="176.299" y="75.1221" width="39.9" height="39.9" rx="4.2" fill="#BABABA"/>
<rect x="39.7988" y="120.622" width="39.9" height="39.9" rx="4.2" fill="#BABABA"/>
<rect x="85.2988" y="120.622" width="39.9" height="39.9" rx="4.2" fill="#BABABA"/>
<rect x="130.799" y="120.622" width="39.9" height="39.9" rx="4.2" fill="#BABABA"/>
<rect x="176.299" y="120.622" width="39.9" height="39.9" rx="4.2" fill="#BABABA"/>
</g>
<path d="M152 80.022C155.314 80.022 157 82.7083 157 86.022V122.022C157 125.336 155.314 128.022 152 128.022L98 128.022C94.6863 128.022 93 125.336 93 122.022L93 86.022C93 82.7083 94.6863 80.022 98 80.022L152 80.022Z" fill="#FAFAFA"/>
<rect x="119" y="123.022" width="12.5" height="3.5" rx="1.75" fill="#DCE3F9"/>
<circle cx="120.75" cy="124.772" r="1" fill="#EF4035"/>
<circle cx="123.75" cy="124.772" r="1" fill="#B95C04"/>
<circle cx="126.75" cy="124.772" r="1" fill="#0098E7"/>
<circle cx="129.75" cy="124.772" r="1" fill="#009F65"/>
<path d="M103.704 128.022C104.56 114.678 100.767 106.088 98.1744 102.597C97.8272 102.13 98.017 101.429 98.5783 101.268C105.254 99.3566 118.135 97.1907 124.681 101.632C129.399 104.834 131.599 112.674 132.487 119.522" stroke="#F2F2F2"/>
<path d="M126.316 93.1392C125.633 90.0806 123.106 87.022 119.145 87.022C115.185 87.022 112.999 89.7407 112.999 92.7994C112.999 96.7409 112.999 96.1978 112.999 98.2369C112.999 100.276 114.537 102.145 116.072 102.655C117.608 103.165 120.681 102.995 123.243 102.995C126.455 102.995 126.999 100.266 126.999 98.5768C126.999 96.8875 126.689 94.8109 126.316 93.1392Z" fill="#FAFAFA" stroke="#E8E8E8" stroke-linejoin="round"/>
<path d="M106.791 128.004C106.886 122.199 104.887 110.675 114.029 105.91C119.945 102.825 126.913 107.332 129.983 112.724C133.44 118.796 132.549 123.417 134.091 128.018" stroke="#A6A6A6" stroke-linecap="round" stroke-linejoin="round"/>
<path d="M106.791 128.004C106.886 122.199 104.887 110.675 114.029 105.91C119.945 102.825 126.913 107.332 129.983 112.724C133.44 118.796 132.549 123.417 134.091 128.018" stroke="#E8E8E8" stroke-linecap="round" stroke-linejoin="round"/>
<path d="M120.307 98.022C120.248 99.1208 121.558 99.5785 122.201 98.9411" stroke="#DBDBDB" stroke-linecap="round"/>
<path d="M117 93.522C117 94.9027 118.119 96.022 119.5 96.022C120.881 96.022 122 94.9027 122 93.522V91.3553C122 90.6189 121.403 90.022 120.667 90.022H118.333C117.597 90.022 117 90.6189 117 91.3553V93.522Z" fill="#FAFAFA"/>
<path d="M124 93.522C124 94.9027 125.119 96.022 126.5 96.022C127.881 96.022 129 94.9027 129 93.522V91.3553C129 90.6189 128.403 90.022 127.667 90.022H125.333C124.597 90.022 124 90.6189 124 91.3553V93.522Z" fill="#FAFAFA"/>
<path d="M122 93.522V91.3553C122 90.6189 121.403 90.022 120.667 90.022H118.333C117.597 90.022 117 90.6189 117 91.3553V93.522C117 94.9027 118.119 96.022 119.5 96.022C120.881 96.022 122 94.9027 122 93.522ZM122 93.522C122.333 93.1886 123.2 92.722 124 93.522M124 93.522V91.3553C124 90.6189 124.597 90.022 125.333 90.022H127.667C128.403 90.022 129 90.6189 129 91.3553V93.522C129 94.9027 127.881 96.022 126.5 96.022C125.119 96.022 124 94.9027 124 93.522Z" stroke="#DBDBDB" stroke-linecap="round"/>
<path d="M152 80.022C155.314 80.022 157 82.7083 157 86.022V122.022C157 125.336 155.314 128.022 152 128.022L98 128.022C94.6863 128.022 93 125.336 93 122.022L93 86.022C93 82.7083 94.6863 80.022 98 80.022L152 80.022Z" stroke="#A6A6A6"/>
<rect x="121" y="74.022" width="9" height="4" rx="2" fill="#4864E1"/>
<rect x="125" y="75.522" width="4" height="1" rx="0.5" fill="white"/>
<circle cx="123" cy="76.022" r="1" fill="white"/>
<path d="M167.588 115.943C175.353 122.356 175.353 131.976 176 142.237C175.715 147.462 166.658 155.769 132.834 147.572C132.361 147.457 132.025 147.013 132.064 146.527C132.744 137.967 134.298 131.446 139.118 124.28C145.157 115.302 159.823 109.531 167.588 115.943Z" fill="#FAFAFA"/>
<path d="M176 142.237C175.353 131.976 175.353 122.356 167.588 115.943C159.823 109.531 145.157 115.302 139.118 124.28C134.141 131.679 132.647 138.389 132 147.367" stroke="#A6A6A6" stroke-linecap="round" stroke-linejoin="round"/>
<path d="M146.73 99.986C147.378 94.8637 151.432 91.022 156.435 91.022C161.438 91.022 164.2 95.0353 164.2 99.986C164.2 104.937 164.2 102.547 164.2 105.108C164.2 107.67 162.257 109.718 160.317 110.359C158.377 110.999 153.849 111.511 150.613 111.511C147.376 111.511 146.082 109.791 146.082 107.67C146.082 105.548 146.082 105.108 146.73 99.986Z" fill="#FAFAFA" stroke="#A6A6A6" stroke-linejoin="round"/>
<path d="M149.902 104.428C149.713 104.157 149.339 104.09 149.067 104.28C148.795 104.47 148.729 104.844 148.918 105.116L149.41 104.772L149.902 104.428ZM155.06 105.12C155.252 104.85 155.189 104.475 154.919 104.283C154.65 104.091 154.275 104.154 154.083 104.424L154.571 104.772L155.06 105.12ZM149.41 104.772L148.918 105.116C149.623 106.124 150.834 106.586 151.982 106.586C153.131 106.586 154.344 106.124 155.06 105.12L154.571 104.772L154.083 104.424C153.645 105.038 152.843 105.386 151.982 105.386C151.121 105.386 150.328 105.038 149.902 104.428L149.41 104.772Z" fill="#3B3B3B"/>
<path d="M148.627 99.563C148.994 100.433 150.177 100.295 150.434 99.5615" stroke="#3B3B3B" stroke-width="1.2" stroke-linecap="round"/>
<path d="M153.419 99.5591C153.786 100.429 154.969 100.291 155.226 99.5575" stroke="#3B3B3B" stroke-width="1.2" stroke-linecap="round"/>
<path d="M161.476 99.9343L161.86 99.6118L161.86 99.6118L161.476 99.9343ZM160.661 100.802C160.403 100.903 160.275 101.193 160.375 101.449C160.475 101.705 160.766 101.831 161.024 101.73L160.843 101.266L160.661 100.802ZM161.666 99.5014L161.69 99.9992V99.9992L161.666 99.5014ZM161.753 100.261L162.137 99.9389L161.86 99.6118L161.476 99.9343L161.092 100.257L161.369 100.584L161.753 100.261ZM161.925 99.8698L161.465 99.6726L161.294 100.064L161.753 100.261L162.213 100.459L162.384 100.067L161.925 99.8698ZM161.753 100.261L161.294 100.064C161.138 100.42 160.924 100.7 160.661 100.802L160.843 101.266L161.024 101.73C161.669 101.478 162.025 100.886 162.213 100.459L161.753 100.261ZM161.666 99.5014L161.69 99.9992C161.522 100.008 161.393 99.8379 161.465 99.6726L161.925 99.8698L162.384 100.067C162.615 99.5419 162.205 98.9732 161.641 99.0035L161.666 99.5014ZM161.476 99.9343L161.86 99.6118C161.985 99.7596 161.885 99.9888 161.69 99.9992L161.666 99.5014L161.641 99.0035C161.008 99.0376 160.684 99.7759 161.092 100.257L161.476 99.9343Z" fill="#A6A6A6"/>
<defs>
<filter id="filter0_f_869_30988" x="0" y="45.022" width="257" height="197" filterUnits="userSpaceOnUse" color-interpolation-filters="sRGB">
<feFlood flood-opacity="0" result="BackgroundImageFix"/>
<feBlend mode="normal" in="SourceGraphic" in2="BackgroundImageFix" result="shape"/>
<feGaussianBlur stdDeviation="30" result="effect1_foregroundBlur_869_30988"/>
</filter>
<filter id="filter1_f_869_30988" x="72" y="31.022" width="150" height="168" filterUnits="userSpaceOnUse" color-interpolation-filters="sRGB">
<feFlood flood-opacity="0" result="BackgroundImageFix"/>
<feBlend mode="normal" in="SourceGraphic" in2="BackgroundImageFix" result="shape"/>
<feGaussianBlur stdDeviation="30" result="effect1_foregroundBlur_869_30988"/>
</filter>
<filter id="filter2_f_869_30988" x="33" y="31.022" width="150" height="168" filterUnits="userSpaceOnUse" color-interpolation-filters="sRGB">
<feFlood flood-opacity="0" result="BackgroundImageFix"/>
<feBlend mode="normal" in="SourceGraphic" in2="BackgroundImageFix" result="shape"/>
<feGaussianBlur stdDeviation="30" result="effect1_foregroundBlur_869_30988"/>
</filter>
</defs>
</svg>
