<svg width="200" height="216" viewBox="0 0 200 216" fill="none" xmlns="http://www.w3.org/2000/svg">
<mask id="mask0_2920_182069" style="mask-type:alpha" maskUnits="userSpaceOnUse" x="37" y="42" width="125" height="108">
<path d="M37.998 115.776C37.998 75.0305 65.7564 42 99.998 42C134.24 42 161.998 75.0305 161.998 115.776C161.998 156.521 134.24 149.546 99.998 149.546C65.7564 149.546 37.998 156.521 37.998 115.776Z" fill="#D9D9D9" fill-opacity="0.1"/>
</mask>
<g mask="url(#mask0_2920_182069)">
<rect x="11.7988" y="29.6221" width="39.9" height="39.9" rx="4.2" fill="#BABABA"/>
<rect x="57.2988" y="29.6221" width="39.9" height="39.9" rx="4.2" fill="#BABABA"/>
<rect x="102.799" y="29.6221" width="39.9" height="39.9" rx="4.2" fill="#BABABA"/>
<rect x="148.299" y="29.6221" width="39.9" height="39.9" rx="4.2" fill="#BABABA"/>
<rect x="11.7988" y="75.1221" width="39.9" height="39.9" rx="4.2" fill="#BABABA"/>
<rect x="57.2988" y="75.1221" width="39.9" height="39.9" rx="4.2" fill="#BABABA"/>
<rect x="102.799" y="75.1221" width="39.9" height="39.9" rx="4.2" fill="#BABABA"/>
<rect x="148.299" y="75.1221" width="39.9" height="39.9" rx="4.2" fill="#BABABA"/>
<rect x="11.7988" y="120.622" width="39.9" height="39.9" rx="4.2" fill="#BABABA"/>
<rect x="57.2988" y="120.622" width="39.9" height="39.9" rx="4.2" fill="#BABABA"/>
<rect x="102.799" y="120.622" width="39.9" height="39.9" rx="4.2" fill="#BABABA"/>
<rect x="148.299" y="120.622" width="39.9" height="39.9" rx="4.2" fill="#BABABA"/>
</g>
<path d="M76.0069 116.905C79.5668 116.567 78.9076 110.838 65.5247 113.939C59.0089 115.448 52.7162 121.512 47.9512 127.622L61.3727 135.036C61.8963 134.071 62.4258 133.141 62.9536 132.273C67.5025 124.791 70.601 124.724 72.5787 124.252C74.5565 123.78 76.732 122.432 76.3365 121.488C76.02 120.734 75.1498 120.525 74.7543 120.515C75.7391 120.394 76.605 120.135 77.1276 119.601C77.8132 118.9 77.9187 117.242 76.0069 116.905Z" fill="#FAFAFA"/>
<path d="M61.3729 135.036L47.9514 127.622C47.2234 128.556 46.5311 129.49 45.8791 130.41C45.2168 131.344 44.5961 132.263 44.0219 133.149C43.555 133.87 43.1187 134.569 42.7158 135.239L47.2618 137.661L46.3665 139.452C45.8765 140.432 46.2643 141.626 47.2358 142.128L48.9676 143.022L48.281 144.392C47.7846 145.383 48.1856 146.59 49.1748 147.083L54.6229 149.798C54.9526 148.945 55.3771 147.887 55.8749 146.697C56.2764 145.737 56.7256 144.691 57.211 143.597C57.6082 142.701 58.0297 141.773 58.4693 140.833C58.898 139.917 59.3438 138.989 59.8011 138.07C60.3134 137.039 60.8401 136.019 61.3729 135.036Z" fill="#DBDBDB"/>
<path d="M45.8785 130.41C45.2162 131.344 44.5955 132.263 44.0213 133.149C43.5543 133.87 43.1181 134.57 42.7152 135.239C42.048 136.347 41.4723 137.371 41 138.271M76.0065 116.905C79.5664 116.567 78.9072 110.838 65.5243 113.939C59.0085 115.448 52.7158 121.512 47.9508 127.622M76.0065 116.905C74.2265 117.074 72.4465 116.568 72.1828 116.298M76.0065 116.905C77.9183 117.242 77.8128 118.9 77.1272 119.601C76.6046 120.135 75.7387 120.394 74.7539 120.515M72.7761 120.612C73.4449 120.612 74.1237 120.592 74.7539 120.515M74.7539 120.515C75.1494 120.525 76.0196 120.734 76.3361 121.488C76.7316 122.432 74.5561 123.78 72.5783 124.252C70.6006 124.724 67.5021 124.791 62.9532 132.273C62.4254 133.141 61.8959 134.071 61.3723 135.036M53.8555 152.022C53.8216 151.97 54.1051 151.136 54.6223 149.798M47.9508 127.622L61.3723 135.036M47.9508 127.622C47.2228 128.556 46.5305 129.49 45.8785 130.41M61.3723 135.036C60.8395 136.019 60.3128 137.039 59.8005 138.07M45.8785 130.41L59.8005 138.07M59.8005 138.07C59.3432 138.989 58.8974 139.917 58.4687 140.833M44.0213 133.149L58.4687 140.833M55.8743 146.697C56.2758 145.737 56.7249 144.691 57.2104 143.597C57.6076 142.701 58.0291 141.773 58.4687 140.833M42.7152 135.239L57.2104 143.597M47.5926 142.383L55.8743 146.697M55.8743 146.697C55.3765 147.887 54.952 148.945 54.6223 149.798M49.3725 147.304L54.6223 149.798" stroke="#A6A6A6" stroke-linecap="round" stroke-linejoin="round"/>
<path d="M99.7148 85.0187L110.036 93.3888L114.379 134.369C114.722 137.602 112.389 140.502 109.169 140.846L77.6852 144.21C74.4651 144.554 71.577 142.212 71.2343 138.979L66.5189 94.4863C66.1762 91.2531 68.5088 88.3532 71.7288 88.0091L99.7148 85.0187Z" fill="#FAFAFA" stroke="#A6A6A6"/>
<path d="M110.036 93.3888L99.7148 85.0188L100.286 90.4079C100.519 92.6047 102.488 94.1954 104.685 93.9606L110.036 93.3888Z" fill="#DBDBDB" stroke="#A6A6A6" stroke-linejoin="round"/>
<path d="M84.7357 117.244C84.5703 116.956 84.2034 116.857 83.9162 117.021C83.6291 117.186 83.5304 117.553 83.6959 117.84L84.2158 117.542L84.7357 117.244ZM98.6858 116.934C98.8153 116.629 98.6729 116.277 98.3678 116.147C98.0628 116.016 97.7105 116.158 97.581 116.462L98.1334 116.698L98.6858 116.934ZM84.2158 117.542L83.6959 117.84C84.3534 118.983 85.5448 119.741 86.8965 120.191C88.2554 120.644 89.8405 120.808 91.3927 120.714C92.9449 120.619 94.4985 120.265 95.7928 119.652C97.0802 119.042 98.1707 118.146 98.6858 116.934L98.1334 116.698L97.581 116.462C97.222 117.307 96.4144 118.029 95.2765 118.568C94.1456 119.103 92.7468 119.429 91.3167 119.516C89.8866 119.603 88.4593 119.448 87.2729 119.053C86.0792 118.656 85.1924 118.038 84.7357 117.244L84.2158 117.542Z" fill="#A6A6A6"/>
<path d="M94.469 113.245C94.3025 113.532 93.9353 113.629 93.6488 113.463C93.3623 113.297 93.265 112.93 93.4314 112.643L93.9502 112.944L94.469 113.245ZM99.3997 112.281C99.5991 112.546 99.5463 112.922 99.2817 113.122C99.0171 113.321 98.6409 113.269 98.4415 113.004L98.9206 112.643L99.3997 112.281ZM93.9502 112.944L93.4314 112.643C94.0206 111.628 95.2215 111.139 96.3322 111.071C97.4429 111.004 98.6936 111.345 99.3997 112.281L98.9206 112.643L98.4415 113.004C98.0637 112.504 97.2814 112.216 96.4039 112.269C95.5264 112.323 94.7841 112.702 94.469 113.245L93.9502 112.944Z" fill="#A6A6A6"/>
<path d="M83.5344 113.908C83.368 114.195 83.0008 114.293 82.7143 114.126C82.4278 113.96 82.3304 113.593 82.4969 113.306L83.0156 113.607L83.5344 113.908ZM88.4651 112.945C88.6645 113.209 88.6117 113.585 88.3471 113.785C88.0825 113.985 87.7063 113.932 87.5069 113.668L87.986 113.306L88.4651 112.945ZM83.0156 113.607L82.4969 113.306C83.086 112.292 84.287 111.802 85.3976 111.735C86.5083 111.668 87.7591 112.008 88.4651 112.945L87.986 113.306L87.5069 113.668C87.1292 113.167 86.3469 112.88 85.4694 112.933C84.5918 112.986 83.8495 113.366 83.5344 113.908L83.0156 113.607Z" fill="#A6A6A6"/>
<path d="M69.6886 117.106C66.331 116.67 63.8815 118.019 62.9102 119.223L66.331 123.022C68.1682 120.531 68.9284 121.091 71.209 120.531C73.4896 119.97 73.8056 117.64 69.6886 117.106Z" fill="#FAFAFA"/>
<path d="M62.9102 119.223C63.8815 118.019 66.331 116.67 69.6886 117.106C73.8056 117.64 73.4896 119.97 71.209 120.531C68.9284 121.091 68.1682 120.531 66.331 123.022" stroke="#A6A6A6" stroke-linecap="round" stroke-linejoin="round"/>
<path d="M128.033 123.543C127.902 125.567 130.518 123.878 136.083 126.947C140.602 129.439 143.307 134.427 144.308 141.835L158.083 140.856C156.649 132.486 153.812 126.672 151.601 123.543C147.541 117.796 137.196 110.884 135.825 112.181C134.881 113.074 137.458 114.606 138.379 115.707C136.218 114.248 131.185 111.785 129.928 113.039C128.671 114.292 133.268 116.238 134.843 117.796C132.417 116.434 126.852 114.659 126.065 116.63C125.279 118.598 131.827 119.83 134.123 122.628C132.137 122.258 128.138 121.923 128.033 123.543Z" fill="#FAFAFA"/>
<path d="M144.308 141.835C144.663 144.464 145 147.321 145 149.977L157 149.977C158.104 149.977 159.003 149.081 158.972 147.977C158.879 144.644 158.558 143.632 158.083 140.856L144.308 141.835Z" fill="#DBDBDB"/>
<path d="M145 151.522C145 147.022 144.54 143.553 144.308 141.835M144.308 141.835C143.307 134.427 140.602 129.439 136.083 126.947C130.518 123.878 127.902 125.567 128.033 123.543C128.138 121.923 132.137 122.258 134.123 122.628C131.827 119.83 125.279 118.598 126.065 116.63C126.852 114.659 132.417 116.434 134.843 117.796C133.268 116.238 128.671 114.292 129.928 113.039C131.185 111.785 136.218 114.248 138.379 115.707C137.458 114.606 134.881 113.074 135.825 112.181C137.196 110.884 147.541 117.796 151.601 123.543C153.812 126.672 156.649 132.486 158.083 140.856M144.308 141.835L158.083 140.856M158.083 140.856C158.412 142.777 158.667 144.833 158.824 147.022" stroke="#A6A6A6" stroke-width="1.2" stroke-linecap="round" stroke-linejoin="round"/>
<rect x="146" y="143.022" width="3.0082" height="3" rx="1.5" fill="#8F8F8F"/>
<path d="M147.075 144.093L147.935 144.95" stroke="#DBDBDB" stroke-width="0.2" stroke-linecap="round" stroke-linejoin="round"/>
<path d="M147.932 144.093L147.072 144.95" stroke="#DBDBDB" stroke-width="0.2" stroke-linecap="round" stroke-linejoin="round"/>
</svg>
