<svg width="257" height="243" viewBox="0 0 257 243" fill="none" xmlns="http://www.w3.org/2000/svg">
<g opacity="0.15" filter="url(#filter0_f_7572_105404)">
<path d="M60 145.022C60 122.931 77.9086 105.022 100 105.022H157C179.091 105.022 197 122.931 197 145.022V166.022C197 174.859 189.837 182.022 181 182.022H76C67.1634 182.022 60 174.859 60 166.022V145.022Z" fill="#4864E1"/>
</g>
<g opacity="0.25" filter="url(#filter1_f_7572_105404)">
<path d="M132 106.022C132 97.7377 138.716 91.022 147 91.022C155.284 91.022 162 97.7377 162 106.022V125.308C162 132.882 155.86 139.022 148.286 139.022H145.714C138.14 139.022 132 132.882 132 125.308V106.022Z" fill="#008768"/>
</g>
<g opacity="0.2" filter="url(#filter2_f_7572_105404)">
<path d="M93 106.022C93 97.7377 99.7157 91.022 108 91.022C116.284 91.022 123 97.7377 123 106.022V125.308C123 132.882 116.86 139.022 109.286 139.022H106.714C99.1401 139.022 93 132.882 93 125.308V106.022Z" fill="#4864E1"/>
</g>
<mask id="mask0_7572_105404" style="mask-type:alpha" maskUnits="userSpaceOnUse" x="65" y="42" width="125" height="108">
<path d="M65.998 115.776C65.998 75.0305 93.7564 42 127.998 42C162.24 42 189.998 75.0305 189.998 115.776C189.998 156.521 162.24 149.546 127.998 149.546C93.7564 149.546 65.998 156.521 65.998 115.776Z" fill="#D9D9D9" fill-opacity="0.1"/>
</mask>
<g mask="url(#mask0_7572_105404)">
<rect x="39.7988" y="29.6221" width="39.9" height="39.9" rx="4.2" fill="#BABABA"/>
<rect x="85.2988" y="29.6221" width="39.9" height="39.9" rx="4.2" fill="#BABABA"/>
<rect x="130.799" y="29.6221" width="39.9" height="39.9" rx="4.2" fill="#BABABA"/>
<rect x="176.299" y="29.6221" width="39.9" height="39.9" rx="4.2" fill="#BABABA"/>
<rect x="39.7988" y="75.1221" width="39.9" height="39.9" rx="4.2" fill="#BABABA"/>
<rect x="85.2988" y="75.1221" width="39.9" height="39.9" rx="4.2" fill="#BABABA"/>
<rect x="130.799" y="75.1221" width="39.9" height="39.9" rx="4.2" fill="#BABABA"/>
<rect x="176.299" y="75.1221" width="39.9" height="39.9" rx="4.2" fill="#BABABA"/>
<rect x="39.7988" y="120.622" width="39.9" height="39.9" rx="4.2" fill="#BABABA"/>
<rect x="85.2988" y="120.622" width="39.9" height="39.9" rx="4.2" fill="#BABABA"/>
<rect x="130.799" y="120.622" width="39.9" height="39.9" rx="4.2" fill="#BABABA"/>
<rect x="176.299" y="120.622" width="39.9" height="39.9" rx="4.2" fill="#BABABA"/>
</g>
<rect width="48" height="64" rx="6" transform="matrix(-1 0 0 1 158 73.022)" fill="#E8E8E8" stroke="#A6A6A6" stroke-width="1.2"/>
<rect width="48" height="64" rx="6" transform="matrix(-1 0 0 1 152 85.022)" fill="#F2F2F2" stroke="#A6A6A6" stroke-width="1.2"/>
<rect width="48" height="64" rx="6" transform="matrix(-1 0 0 1 146 79.022)" fill="#FAFAFA" stroke="#A6A6A6" stroke-width="1.2"/>
<path d="M131.564 105.598C131.798 105.363 132.178 105.363 132.413 105.598C132.647 105.832 132.648 106.212 132.415 106.446L131.989 106.022L131.564 105.598ZM127.925 110.946C127.691 111.181 127.311 111.181 127.076 110.946C126.842 110.712 126.841 110.332 127.074 110.098L127.5 110.522L127.925 110.946ZM127.066 106.446C126.831 106.212 126.83 105.832 127.064 105.598C127.298 105.363 127.678 105.363 127.913 105.598L127.489 106.022L127.066 106.446ZM132.423 110.098C132.658 110.332 132.659 110.712 132.425 110.946C132.191 111.181 131.811 111.181 131.576 110.946L132 110.522L132.423 110.098ZM131.989 106.022L132.415 106.446L127.925 110.946L127.5 110.522L127.074 110.098L131.564 105.598L131.989 106.022ZM127.489 106.022L127.913 105.598L132.423 110.098L132 110.522L131.576 110.946L127.066 106.446L127.489 106.022Z" fill="#3B3B3B"/>
<path d="M116.564 105.598C116.798 105.363 117.178 105.363 117.413 105.598C117.647 105.832 117.648 106.212 117.415 106.446L116.989 106.022L116.564 105.598ZM112.925 110.946C112.691 111.181 112.311 111.181 112.076 110.946C111.842 110.712 111.841 110.332 112.074 110.098L112.5 110.522L112.925 110.946ZM112.066 106.446C111.831 106.212 111.83 105.832 112.064 105.598C112.298 105.363 112.678 105.363 112.913 105.598L112.489 106.022L112.066 106.446ZM117.423 110.098C117.658 110.332 117.659 110.712 117.425 110.946C117.191 111.181 116.811 111.181 116.576 110.946L117 110.522L117.423 110.098ZM116.989 106.022L117.415 106.446L112.925 110.946L112.5 110.522L112.074 110.098L116.564 105.598L116.989 106.022ZM112.489 106.022L112.913 105.598L117.423 110.098L117 110.522L116.576 110.946L112.066 106.446L112.489 106.022Z" fill="#3B3B3B"/>
<path d="M127 119.022H115" stroke="#3B3B3B" stroke-width="1.2" stroke-linecap="round"/>
<path d="M113 142.98C113 138.049 117.003 134.022 121.957 134.022C126.945 134.022 131 138.101 131 143.065C131 147.995 126.997 152.022 122.043 152.022C117.056 152.022 113 147.943 113 142.98Z" fill="#EF4035" stroke="#A6A6A6"/>
<g clip-path="url(#clip0_7572_105404)">
<path d="M118.25 140.522H125.75M124.917 140.522V146.355C124.917 146.772 124.5 147.189 124.083 147.189H119.917C119.5 147.189 119.083 146.772 119.083 146.355V140.522M120.333 140.522V139.689C120.333 139.272 120.75 138.855 121.167 138.855H122.833C123.25 138.855 123.667 139.272 123.667 139.689V140.522M121.167 142.605V145.105M122.833 142.605V145.105" stroke="white" stroke-linecap="round" stroke-linejoin="round"/>
</g>
<defs>
<filter id="filter0_f_7572_105404" x="0" y="45.022" width="257" height="197" filterUnits="userSpaceOnUse" color-interpolation-filters="sRGB">
<feFlood flood-opacity="0" result="BackgroundImageFix"/>
<feBlend mode="normal" in="SourceGraphic" in2="BackgroundImageFix" result="shape"/>
<feGaussianBlur stdDeviation="30" result="effect1_foregroundBlur_7572_105404"/>
</filter>
<filter id="filter1_f_7572_105404" x="72" y="31.022" width="150" height="168" filterUnits="userSpaceOnUse" color-interpolation-filters="sRGB">
<feFlood flood-opacity="0" result="BackgroundImageFix"/>
<feBlend mode="normal" in="SourceGraphic" in2="BackgroundImageFix" result="shape"/>
<feGaussianBlur stdDeviation="30" result="effect1_foregroundBlur_7572_105404"/>
</filter>
<filter id="filter2_f_7572_105404" x="33" y="31.022" width="150" height="168" filterUnits="userSpaceOnUse" color-interpolation-filters="sRGB">
<feFlood flood-opacity="0" result="BackgroundImageFix"/>
<feBlend mode="normal" in="SourceGraphic" in2="BackgroundImageFix" result="shape"/>
<feGaussianBlur stdDeviation="30" result="effect1_foregroundBlur_7572_105404"/>
</filter>
<clipPath id="clip0_7572_105404">
<rect width="10" height="10" fill="white" transform="translate(117 138.022)"/>
</clipPath>
</defs>
</svg>
