<svg width="200" height="216" viewBox="0 0 200 216" fill="none" xmlns="http://www.w3.org/2000/svg">
<mask id="mask0_2920_181546" style="mask-type:alpha" maskUnits="userSpaceOnUse" x="37" y="42" width="125" height="108">
<path d="M37.998 115.776C37.998 75.0305 65.7564 42 99.998 42C134.24 42 161.998 75.0305 161.998 115.776C161.998 156.521 134.24 149.546 99.998 149.546C65.7564 149.546 37.998 156.521 37.998 115.776Z" fill="#D9D9D9" fill-opacity="0.1"/>
</mask>
<g mask="url(#mask0_2920_181546)">
<rect x="11.7988" y="29.6221" width="39.9" height="39.9" rx="4.2" fill="#BABABA"/>
<rect x="57.2988" y="29.6221" width="39.9" height="39.9" rx="4.2" fill="#BABABA"/>
<rect x="102.799" y="29.6221" width="39.9" height="39.9" rx="4.2" fill="#BABABA"/>
<rect x="148.299" y="29.6221" width="39.9" height="39.9" rx="4.2" fill="#BABABA"/>
<rect x="11.7988" y="75.1221" width="39.9" height="39.9" rx="4.2" fill="#BABABA"/>
<rect x="57.2988" y="75.1221" width="39.9" height="39.9" rx="4.2" fill="#BABABA"/>
<rect x="102.799" y="75.1221" width="39.9" height="39.9" rx="4.2" fill="#BABABA"/>
<rect x="148.299" y="75.1221" width="39.9" height="39.9" rx="4.2" fill="#BABABA"/>
<rect x="11.7988" y="120.622" width="39.9" height="39.9" rx="4.2" fill="#BABABA"/>
<rect x="57.2988" y="120.622" width="39.9" height="39.9" rx="4.2" fill="#BABABA"/>
<rect x="102.799" y="120.622" width="39.9" height="39.9" rx="4.2" fill="#BABABA"/>
<rect x="148.299" y="120.622" width="39.9" height="39.9" rx="4.2" fill="#BABABA"/>
</g>
<path d="M88.6789 74.2171L101.552 72.4079C107.021 71.6392 112.078 75.4497 112.847 80.9188L114.099 89.8312L110.138 90.3879L108.886 81.4755C108.425 78.1941 105.391 75.9078 102.109 76.3689L89.2356 78.1782C85.9541 78.6394 83.6679 81.6734 84.129 84.9548L85.3816 93.8673L81.4205 94.4239L80.168 85.5115C79.3993 80.0424 83.2098 74.9858 88.6789 74.2171Z" fill="#757575"/>
<rect x="134.616" y="84.9281" width="56" height="76" rx="6" transform="rotate(82 134.616 84.9281)" fill="#FAFAFA" stroke="#A6A6A6" stroke-linejoin="round"/>
<rect x="85.333" y="115.08" width="34" height="5" rx="2" transform="rotate(82 85.333 115.08)" fill="#F2F2F2" stroke="#A6A6A6" stroke-linejoin="round"/>
<rect x="119.992" y="110.209" width="34" height="5" rx="2" transform="rotate(82 119.992 110.209)" fill="#F2F2F2" stroke="#A6A6A6" stroke-linejoin="round"/>
<path d="M127.406 83.9217C131.781 83.3068 135.827 86.3552 136.442 90.7305L138.668 106.575C138.822 107.669 138.06 108.68 136.966 108.834L63.6863 119.132C62.5924 119.286 61.5811 118.524 61.4274 117.43L59.2006 101.586C58.5857 97.2107 61.6341 93.1654 66.0094 92.5505L127.406 83.9217Z" fill="#E8E8E8" stroke="#A6A6A6" stroke-linejoin="round"/>
<path d="M92.2662 110.529C92.1225 110.827 91.7639 110.953 91.4654 110.81C91.1668 110.666 91.0413 110.308 91.185 110.009L91.7256 110.269L92.2662 110.529ZM97.125 109.174C97.3453 109.421 97.3233 109.8 97.0759 110.021C96.8284 110.241 96.4492 110.22 96.2288 109.972L96.6769 109.573L97.125 109.174ZM91.7256 110.269L91.185 110.009C91.6941 108.951 92.8567 108.368 93.9616 108.213C95.0667 108.057 96.3444 108.297 97.125 109.174L96.6769 109.573L96.2288 109.972C95.8105 109.503 95.0032 109.278 94.1277 109.401C93.2522 109.524 92.5386 109.962 92.2662 110.529L91.7256 110.269Z" fill="#A6A6A6"/>
<path d="M103.159 108.998C103.015 109.297 102.657 109.422 102.358 109.279C102.059 109.135 101.934 108.777 102.078 108.478L102.618 108.738L103.159 108.998ZM108.018 107.643C108.238 107.89 108.216 108.269 107.968 108.49C107.721 108.711 107.342 108.689 107.121 108.441L107.57 108.042L108.018 107.643ZM102.618 108.738L102.078 108.478C102.587 107.42 103.749 106.837 104.854 106.682C105.959 106.526 107.237 106.766 108.018 107.643L107.57 108.042L107.121 108.441C106.703 107.972 105.896 107.747 105.02 107.87C104.145 107.993 103.431 108.432 103.159 108.998L102.618 108.738Z" fill="#A6A6A6"/>
<path d="M100.472 115.379C100.149 115.452 99.9463 115.774 100.019 116.097C100.092 116.42 100.414 116.623 100.737 116.549L100.605 115.964L100.472 115.379ZM99.9648 111.409C99.6367 111.455 99.4079 111.759 99.4537 112.087C99.4996 112.415 99.8028 112.644 100.131 112.597L100.048 112.003L99.9648 111.409ZM100.238 113.354C99.9099 113.4 99.6811 113.704 99.727 114.032C99.7728 114.36 100.076 114.589 100.404 114.542L100.321 113.948L100.238 113.354ZM100.605 115.964L100.737 116.549C101.756 116.318 102.279 115.486 102.164 114.669C102.109 114.274 101.902 113.897 101.551 113.643C101.197 113.385 100.74 113.283 100.238 113.354L100.321 113.948L100.404 114.542C100.645 114.509 100.778 114.565 100.846 114.614C100.917 114.666 100.963 114.744 100.976 114.837C100.989 114.931 100.968 115.037 100.901 115.13C100.837 115.219 100.711 115.325 100.472 115.379L100.605 115.964ZM100.321 113.948L100.404 114.542C100.911 114.471 101.322 114.241 101.587 113.888C101.848 113.542 101.934 113.121 101.874 112.731C101.751 111.924 101.013 111.262 99.9648 111.409L100.048 112.003L100.131 112.597C100.35 112.567 100.477 112.621 100.547 112.673C100.623 112.73 100.674 112.817 100.688 112.913C100.703 113.008 100.68 113.098 100.628 113.167C100.581 113.231 100.474 113.321 100.238 113.354L100.321 113.948Z" fill="#A6A6A6"/>
<rect x="82.7051" y="89.1943" width="33" height="7" rx="2" transform="rotate(82 82.7051 89.1943)" fill="#CCCCCC" stroke="#A6A6A6" stroke-linejoin="round"/>
<rect x="117.364" y="84.3232" width="33" height="7" rx="2" transform="rotate(82 117.364 84.3232)" fill="#CCCCCC" stroke="#A6A6A6" stroke-linejoin="round"/>
<rect x="130.265" y="121.642" width="22" height="31" rx="4" transform="rotate(8 130.265 121.642)" fill="#FAFAFA" stroke="#A6A6A6" stroke-linejoin="round"/>
<rect x="131.442" y="142.004" width="8" height="1" rx="0.5" transform="rotate(8 131.442 142.004)" fill="#A6A6A6"/>
<rect x="131.164" y="143.984" width="14" height="1" rx="0.5" transform="rotate(8 131.164 143.984)" fill="#A6A6A6"/>
<rect x="130.886" y="145.965" width="14" height="1" rx="0.5" transform="rotate(8 130.886 145.965)" fill="#A6A6A6"/>
<rect x="130.607" y="147.945" width="4" height="1" rx="0.5" transform="rotate(8 130.607 147.945)" fill="#A6A6A6"/>
<path d="M141.634 130.56C141.726 129.906 141.162 129.232 140.322 129.114C139.482 128.996 138.755 129.488 138.663 130.143C138.544 130.987 138.55 130.943 138.489 131.38C138.428 131.816 138.708 132.19 139.018 132.345C139.329 132.5 139.899 132.635 140.53 132.631C141.161 132.628 141.409 132.159 141.46 131.797C141.511 131.436 141.582 130.926 141.634 130.56Z" fill="#FAFAFA"/>
<path d="M141.634 130.56C141.726 129.906 141.162 129.232 140.322 129.114C139.482 128.996 138.755 129.488 138.663 130.143C138.544 130.987 138.55 130.943 138.489 131.38C138.428 131.816 138.708 132.19 139.018 132.345C139.329 132.5 139.899 132.635 140.53 132.631C141.161 132.628 141.409 132.159 141.46 131.797C141.511 131.436 141.582 130.926 141.634 130.56Z" fill="#A6A6A6"/>
<path d="M142.031 138.519L142.176 137.481C142.382 136.021 141.286 134.714 139.84 134.696C139.64 134.693 139.442 134.665 139.249 134.613C137.854 134.232 136.44 135.185 136.235 136.646L136.089 137.683" stroke="#A6A6A6" stroke-linecap="round" stroke-linejoin="round"/>
</svg>
