<svg width="257" height="243" viewBox="0 0 257 243" fill="none" xmlns="http://www.w3.org/2000/svg">
<g opacity="0.15" filter="url(#filter0_f_518_27951)">
<path d="M60 145.022C60 122.931 77.9086 105.022 100 105.022H157C179.091 105.022 197 122.931 197 145.022V166.022C197 174.859 189.837 182.022 181 182.022H76C67.1634 182.022 60 174.859 60 166.022V145.022Z" fill="#4864E1"/>
</g>
<g opacity="0.25" filter="url(#filter1_f_518_27951)">
<path d="M132 106.022C132 97.7377 138.716 91.022 147 91.022C155.284 91.022 162 97.7377 162 106.022V125.308C162 132.882 155.86 139.022 148.286 139.022H145.714C138.14 139.022 132 132.882 132 125.308V106.022Z" fill="#008768"/>
</g>
<g opacity="0.2" filter="url(#filter2_f_518_27951)">
<path d="M93 106.022C93 97.7377 99.7157 91.022 108 91.022C116.284 91.022 123 97.7377 123 106.022V125.308C123 132.882 116.86 139.022 109.286 139.022H106.714C99.1401 139.022 93 132.882 93 125.308V106.022Z" fill="#4864E1"/>
</g>
<mask id="mask0_518_27951" style="mask-type:alpha" maskUnits="userSpaceOnUse" x="65" y="42" width="125" height="108">
<path d="M65.998 115.776C65.998 75.0305 93.7564 42 127.998 42C162.24 42 189.998 75.0305 189.998 115.776C189.998 156.521 162.24 149.546 127.998 149.546C93.7564 149.546 65.998 156.521 65.998 115.776Z" fill="#D9D9D9" fill-opacity="0.1"/>
</mask>
<g mask="url(#mask0_518_27951)">
<rect x="39.7988" y="29.6221" width="39.9" height="39.9" rx="4.2" fill="#BABABA"/>
<rect x="85.2988" y="29.6221" width="39.9" height="39.9" rx="4.2" fill="#BABABA"/>
<rect x="130.799" y="29.6221" width="39.9" height="39.9" rx="4.2" fill="#BABABA"/>
<rect x="176.299" y="29.6221" width="39.9" height="39.9" rx="4.2" fill="#BABABA"/>
<rect x="39.7988" y="75.1221" width="39.9" height="39.9" rx="4.2" fill="#BABABA"/>
<rect x="85.2988" y="75.1221" width="39.9" height="39.9" rx="4.2" fill="#BABABA"/>
<rect x="130.799" y="75.1221" width="39.9" height="39.9" rx="4.2" fill="#BABABA"/>
<rect x="176.299" y="75.1221" width="39.9" height="39.9" rx="4.2" fill="#BABABA"/>
<rect x="39.7988" y="120.622" width="39.9" height="39.9" rx="4.2" fill="#BABABA"/>
<rect x="85.2988" y="120.622" width="39.9" height="39.9" rx="4.2" fill="#BABABA"/>
<rect x="130.799" y="120.622" width="39.9" height="39.9" rx="4.2" fill="#BABABA"/>
<rect x="176.299" y="120.622" width="39.9" height="39.9" rx="4.2" fill="#BABABA"/>
</g>
<path d="M129 62.022L139.5 65.522V71.022L129 67.322V62.022Z" fill="#EF4035" stroke="#A6A6A6" stroke-linejoin="round"/>
<path d="M132 64.8221L131.129 64.5607C131.065 64.5414 131 64.5895 131 64.6565V65.4221M132 66.7221L131.067 66.3955C131.027 66.3815 131 66.3436 131 66.3011V65.4221M131 65.4221L132 65.7221M135.5 65.922V67.8221M137.05 66.5021L136.35 66.2721M137.05 66.5021L137.8 66.7221M137.05 66.5021V68.3221M133 65.122L133.754 66.3284M133.754 66.3284L134.5 67.5221M133.754 66.3284L133 67.0722M133.754 66.3284L134.5 65.5922" stroke="white" stroke-width="0.5" stroke-linecap="round"/>
<path d="M119 69.522L146 78.522V141.522L119 132.522V69.522Z" fill="#595959" stroke="#A6A6A6" stroke-width="1.2" stroke-linejoin="round"/>
<path d="M146 143.522V78.522L143 77.522L110 85.522V150.522L113 151.522L146 143.522Z" fill="#FAFAFA"/>
<path d="M113 86.522L146 78.522M113 86.522V151.522M113 86.522L110 85.522M110 85.522V150.522L113 151.522L146 143.522V78.522L143 77.522L110 85.522Z" stroke="#A6A6A6" stroke-width="1.2" stroke-linejoin="round"/>
<path d="M125.613 116.842C126.193 117.777 127.53 117.404 127.693 116.513" stroke="#3B3B3B" stroke-width="1.2" stroke-linecap="round"/>
<path d="M131.099 115.975C131.679 116.91 133.015 116.537 133.179 115.646" stroke="#3B3B3B" stroke-width="1.2" stroke-linecap="round"/>
<path d="M126.879 124.555C128.201 121.618 132.789 120.775 135.106 123.044" stroke="#3B3B3B" stroke-width="1.2" stroke-linecap="round"/>
<path d="M124.297 120.769C124.148 119.843 125.234 118.72 125.234 118.72C125.234 118.72 126.617 119.448 126.765 120.373C126.864 120.987 126.391 121.573 125.709 121.682C125.027 121.791 124.395 121.382 124.297 120.769Z" fill="#0098E7"/>
<defs>
<filter id="filter0_f_518_27951" x="0" y="45.022" width="257" height="197" filterUnits="userSpaceOnUse" color-interpolation-filters="sRGB">
<feFlood flood-opacity="0" result="BackgroundImageFix"/>
<feBlend mode="normal" in="SourceGraphic" in2="BackgroundImageFix" result="shape"/>
<feGaussianBlur stdDeviation="30" result="effect1_foregroundBlur_518_27951"/>
</filter>
<filter id="filter1_f_518_27951" x="72" y="31.022" width="150" height="168" filterUnits="userSpaceOnUse" color-interpolation-filters="sRGB">
<feFlood flood-opacity="0" result="BackgroundImageFix"/>
<feBlend mode="normal" in="SourceGraphic" in2="BackgroundImageFix" result="shape"/>
<feGaussianBlur stdDeviation="30" result="effect1_foregroundBlur_518_27951"/>
</filter>
<filter id="filter2_f_518_27951" x="33" y="31.022" width="150" height="168" filterUnits="userSpaceOnUse" color-interpolation-filters="sRGB">
<feFlood flood-opacity="0" result="BackgroundImageFix"/>
<feBlend mode="normal" in="SourceGraphic" in2="BackgroundImageFix" result="shape"/>
<feGaussianBlur stdDeviation="30" result="effect1_foregroundBlur_518_27951"/>
</filter>
</defs>
</svg>
