<svg width="257" height="243" viewBox="0 0 257 243" fill="none" xmlns="http://www.w3.org/2000/svg">
<g opacity="0.15" filter="url(#filter0_f_501_21352)">
<path d="M60 145.022C60 122.931 77.9086 105.022 100 105.022H157C179.091 105.022 197 122.931 197 145.022V166.022C197 174.859 189.837 182.022 181 182.022H76C67.1634 182.022 60 174.859 60 166.022V145.022Z" fill="#4864E1"/>
</g>
<g opacity="0.25" filter="url(#filter1_f_501_21352)">
<path d="M132 106.022C132 97.7377 138.716 91.022 147 91.022C155.284 91.022 162 97.7377 162 106.022V125.308C162 132.882 155.86 139.022 148.286 139.022H145.714C138.14 139.022 132 132.882 132 125.308V106.022Z" fill="#008768"/>
</g>
<g opacity="0.2" filter="url(#filter2_f_501_21352)">
<path d="M93 106.022C93 97.7377 99.7157 91.022 108 91.022C116.284 91.022 123 97.7377 123 106.022V125.308C123 132.882 116.86 139.022 109.286 139.022H106.714C99.1401 139.022 93 132.882 93 125.308V106.022Z" fill="#4864E1"/>
</g>
<mask id="mask0_501_21352" style="mask-type:alpha" maskUnits="userSpaceOnUse" x="65" y="42" width="125" height="108">
<path d="M65.998 115.776C65.998 75.0305 93.7564 42 127.998 42C162.24 42 189.998 75.0305 189.998 115.776C189.998 156.521 162.24 149.546 127.998 149.546C93.7564 149.546 65.998 156.521 65.998 115.776Z" fill="#D9D9D9" fill-opacity="0.1"/>
</mask>
<g mask="url(#mask0_501_21352)">
<rect x="39.7988" y="29.6221" width="39.9" height="39.9" rx="4.2" fill="#BABABA"/>
<rect x="85.2988" y="29.6221" width="39.9" height="39.9" rx="4.2" fill="#BABABA"/>
<rect x="130.799" y="29.6221" width="39.9" height="39.9" rx="4.2" fill="#BABABA"/>
<rect x="176.299" y="29.6221" width="39.9" height="39.9" rx="4.2" fill="#BABABA"/>
<rect x="39.7988" y="75.1221" width="39.9" height="39.9" rx="4.2" fill="#BABABA"/>
<rect x="85.2988" y="75.1221" width="39.9" height="39.9" rx="4.2" fill="#BABABA"/>
<rect x="130.799" y="75.1221" width="39.9" height="39.9" rx="4.2" fill="#BABABA"/>
<rect x="176.299" y="75.1221" width="39.9" height="39.9" rx="4.2" fill="#BABABA"/>
<rect x="39.7988" y="120.622" width="39.9" height="39.9" rx="4.2" fill="#BABABA"/>
<rect x="85.2988" y="120.622" width="39.9" height="39.9" rx="4.2" fill="#BABABA"/>
<rect x="130.799" y="120.622" width="39.9" height="39.9" rx="4.2" fill="#BABABA"/>
<rect x="176.299" y="120.622" width="39.9" height="39.9" rx="4.2" fill="#BABABA"/>
</g>
<rect x="104" y="75.022" width="48" height="73" rx="6" fill="#FAFAFA" stroke="#A6A6A6" stroke-width="1.2"/>
<path d="M122 79.022C122 78.4697 122.448 78.022 123 78.022C123.552 78.022 124 78.4697 124 79.022C124 79.5743 123.552 80.022 123 80.022C122.448 80.022 122 79.5743 122 79.022Z" fill="#A6A6A6"/>
<path d="M125 79.022H130" stroke="#A6A6A6" stroke-linecap="round"/>
<path d="M123 144.022C123 143.47 123.448 143.022 124 143.022H132C132.552 143.022 133 143.47 133 144.022C133 144.574 132.552 145.022 132 145.022H124C123.448 145.022 123 144.574 123 144.022Z" fill="#A6A6A6"/>
<path d="M111 89.022C111 88.092 111 87.627 111.102 87.2455C111.38 86.2102 112.188 85.4016 113.224 85.1242C113.605 85.022 114.07 85.022 115 85.022C115.93 85.022 116.395 85.022 116.776 85.1242C117.812 85.4016 118.62 86.2102 118.898 87.2455C119 87.627 119 88.092 119 89.022C119 89.9519 119 90.4169 118.898 90.7984C118.62 91.8337 117.812 92.6423 116.776 92.9198C116.395 93.022 115.93 93.022 115 93.022C114.07 93.022 113.605 93.022 113.224 92.9198C112.188 92.6423 111.38 91.8337 111.102 90.7984C111 90.4169 111 89.9519 111 89.022Z" fill="#F2F2F2"/>
<path d="M124 89.022C124 88.092 124 87.627 124.102 87.2455C124.38 86.2102 125.188 85.4016 126.224 85.1242C126.605 85.022 127.07 85.022 128 85.022C128.93 85.022 129.395 85.022 129.776 85.1242C130.812 85.4016 131.62 86.2102 131.898 87.2455C132 87.627 132 88.092 132 89.022C132 89.9519 132 90.4169 131.898 90.7984C131.62 91.8337 130.812 92.6423 129.776 92.9198C129.395 93.022 128.93 93.022 128 93.022C127.07 93.022 126.605 93.022 126.224 92.9198C125.188 92.6423 124.38 91.8337 124.102 90.7984C124 90.4169 124 89.9519 124 89.022Z" fill="#F2F2F2"/>
<path d="M137 89.022C137 88.092 137 87.627 137.102 87.2455C137.38 86.2102 138.188 85.4016 139.224 85.1242C139.605 85.022 140.07 85.022 141 85.022C141.93 85.022 142.395 85.022 142.776 85.1242C143.812 85.4016 144.62 86.2102 144.898 87.2455C145 87.627 145 88.092 145 89.022C145 89.9519 145 90.4169 144.898 90.7984C144.62 91.8337 143.812 92.6423 142.776 92.9198C142.395 93.022 141.93 93.022 141 93.022C140.07 93.022 139.605 93.022 139.224 92.9198C138.188 92.6423 137.38 91.8337 137.102 90.7984C137 90.4169 137 89.9519 137 89.022Z" fill="#F2F2F2"/>
<path d="M111 102.022C111 101.092 111 100.627 111.102 100.246C111.38 99.2102 112.188 98.4016 113.224 98.1242C113.605 98.022 114.07 98.022 115 98.022C115.93 98.022 116.395 98.022 116.776 98.1242C117.812 98.4016 118.62 99.2102 118.898 100.246C119 100.627 119 101.092 119 102.022C119 102.952 119 103.417 118.898 103.798C118.62 104.834 117.812 105.642 116.776 105.92C116.395 106.022 115.93 106.022 115 106.022C114.07 106.022 113.605 106.022 113.224 105.92C112.188 105.642 111.38 104.834 111.102 103.798C111 103.417 111 102.952 111 102.022Z" fill="#F2F2F2"/>
<path d="M124 102.022C124 101.092 124 100.627 124.102 100.246C124.38 99.2102 125.188 98.4016 126.224 98.1242C126.605 98.022 127.07 98.022 128 98.022C128.93 98.022 129.395 98.022 129.776 98.1242C130.812 98.4016 131.62 99.2102 131.898 100.246C132 100.627 132 101.092 132 102.022C132 102.952 132 103.417 131.898 103.798C131.62 104.834 130.812 105.642 129.776 105.92C129.395 106.022 128.93 106.022 128 106.022C127.07 106.022 126.605 106.022 126.224 105.92C125.188 105.642 124.38 104.834 124.102 103.798C124 103.417 124 102.952 124 102.022Z" fill="#F2F2F2"/>
<path d="M137 102.022C137 101.092 137 100.627 137.102 100.246C137.38 99.2102 138.188 98.4016 139.224 98.1242C139.605 98.022 140.07 98.022 141 98.022C141.93 98.022 142.395 98.022 142.776 98.1242C143.812 98.4016 144.62 99.2102 144.898 100.246C145 100.627 145 101.092 145 102.022C145 102.952 145 103.417 144.898 103.798C144.62 104.834 143.812 105.642 142.776 105.92C142.395 106.022 141.93 106.022 141 106.022C140.07 106.022 139.605 106.022 139.224 105.92C138.188 105.642 137.38 104.834 137.102 103.798C137 103.417 137 102.952 137 102.022Z" fill="#F2F2F2"/>
<path d="M111 115.022C111 114.092 111 113.627 111.102 113.246C111.38 112.21 112.188 111.402 113.224 111.124C113.605 111.022 114.07 111.022 115 111.022C115.93 111.022 116.395 111.022 116.776 111.124C117.812 111.402 118.62 112.21 118.898 113.246C119 113.627 119 114.092 119 115.022C119 115.952 119 116.417 118.898 116.798C118.62 117.834 117.812 118.642 116.776 118.92C116.395 119.022 115.93 119.022 115 119.022C114.07 119.022 113.605 119.022 113.224 118.92C112.188 118.642 111.38 117.834 111.102 116.798C111 116.417 111 115.952 111 115.022Z" fill="#F2F2F2"/>
<path d="M124 115.022C124 114.092 124 113.627 124.102 113.246C124.38 112.21 125.188 111.402 126.224 111.124C126.605 111.022 127.07 111.022 128 111.022C128.93 111.022 129.395 111.022 129.776 111.124C130.812 111.402 131.62 112.21 131.898 113.246C132 113.627 132 114.092 132 115.022C132 115.952 132 116.417 131.898 116.798C131.62 117.834 130.812 118.642 129.776 118.92C129.395 119.022 128.93 119.022 128 119.022C127.07 119.022 126.605 119.022 126.224 118.92C125.188 118.642 124.38 117.834 124.102 116.798C124 116.417 124 115.952 124 115.022Z" fill="#F2F2F2"/>
<path d="M137 115.022C137 114.092 137 113.627 137.102 113.246C137.38 112.21 138.188 111.402 139.224 111.124C139.605 111.022 140.07 111.022 141 111.022C141.93 111.022 142.395 111.022 142.776 111.124C143.812 111.402 144.62 112.21 144.898 113.246C145 113.627 145 114.092 145 115.022C145 115.952 145 116.417 144.898 116.798C144.62 117.834 143.812 118.642 142.776 118.92C142.395 119.022 141.93 119.022 141 119.022C140.07 119.022 139.605 119.022 139.224 118.92C138.188 118.642 137.38 117.834 137.102 116.798C137 116.417 137 115.952 137 115.022Z" fill="#F2F2F2"/>
<path d="M111 128.022C111 127.092 111 126.627 111.102 126.246C111.38 125.21 112.188 124.402 113.224 124.124C113.605 124.022 114.07 124.022 115 124.022C115.93 124.022 116.395 124.022 116.776 124.124C117.812 124.402 118.62 125.21 118.898 126.246C119 126.627 119 127.092 119 128.022C119 128.952 119 129.417 118.898 129.798C118.62 130.834 117.812 131.642 116.776 131.92C116.395 132.022 115.93 132.022 115 132.022C114.07 132.022 113.605 132.022 113.224 131.92C112.188 131.642 111.38 130.834 111.102 129.798C111 129.417 111 128.952 111 128.022Z" fill="#F2F2F2"/>
<path d="M124 128.022C124 127.092 124 126.627 124.102 126.246C124.38 125.21 125.188 124.402 126.224 124.124C126.605 124.022 127.07 124.022 128 124.022C128.93 124.022 129.395 124.022 129.776 124.124C130.812 124.402 131.62 125.21 131.898 126.246C132 126.627 132 127.092 132 128.022C132 128.952 132 129.417 131.898 129.798C131.62 130.834 130.812 131.642 129.776 131.92C129.395 132.022 128.93 132.022 128 132.022C127.07 132.022 126.605 132.022 126.224 131.92C125.188 131.642 124.38 130.834 124.102 129.798C124 129.417 124 128.952 124 128.022Z" fill="#F2F2F2"/>
<path d="M137 128.022C137 127.092 137 126.627 137.102 126.246C137.38 125.21 138.188 124.402 139.224 124.124C139.605 124.022 140.07 124.022 141 124.022C141.93 124.022 142.395 124.022 142.776 124.124C143.812 124.402 144.62 125.21 144.898 126.246C145 126.627 145 127.092 145 128.022C145 128.952 145 129.417 144.898 129.798C144.62 130.834 143.812 131.642 142.776 131.92C142.395 132.022 141.93 132.022 141 132.022C140.07 132.022 139.605 132.022 139.224 131.92C138.188 131.642 137.38 130.834 137.102 129.798C137 129.417 137 128.952 137 128.022Z" fill="#F2F2F2"/>
<path d="M123.041 116.753C125.221 119.909 130.776 119.909 133.001 116.753" stroke="#3B3B3B" stroke-width="1.2" stroke-linecap="round"/>
<path d="M124.11 111.028C124.538 112.042 125.916 111.881 126.216 111.027" stroke="#3B3B3B" stroke-width="1.2" stroke-linecap="round"/>
<path d="M129.665 111.024C130.093 112.038 131.471 111.876 131.771 111.022" stroke="#3B3B3B" stroke-width="1.2" stroke-linecap="round"/>
<path d="M134 131.1C134 126.086 137.957 122.022 142.837 122.022H149.163C154.043 122.022 158 126.086 158 131.1V133.061C158 138.311 153.857 142.566 148.747 142.566C148.695 142.566 148.646 142.587 148.61 142.624L146.471 144.821C146.211 145.089 145.789 145.089 145.529 144.821L143.628 142.869C143.44 142.675 143.181 142.569 142.911 142.557C137.952 142.33 134 138.129 134 132.979V131.1Z" fill="#4864E1" stroke="#A6A6A6" stroke-width="1.2"/>
<path d="M140.667 132.294C140.667 131.538 141.264 130.925 142 130.925C142.737 130.925 143.334 131.538 143.334 132.294C143.334 133.051 142.737 133.664 142 133.664C141.264 133.664 140.667 133.051 140.667 132.294Z" fill="white"/>
<path d="M144.667 132.294C144.667 131.538 145.264 130.925 146 130.925C146.737 130.925 147.334 131.538 147.334 132.294C147.334 133.051 146.737 133.664 146 133.664C145.264 133.664 144.667 133.051 144.667 132.294Z" fill="white"/>
<path d="M148.667 132.294C148.667 131.538 149.264 130.925 150 130.925C150.737 130.925 151.334 131.538 151.334 132.294C151.334 133.051 150.737 133.664 150 133.664C149.264 133.664 148.667 133.051 148.667 132.294Z" fill="white"/>
<defs>
<filter id="filter0_f_501_21352" x="0" y="45.022" width="257" height="197" filterUnits="userSpaceOnUse" color-interpolation-filters="sRGB">
<feFlood flood-opacity="0" result="BackgroundImageFix"/>
<feBlend mode="normal" in="SourceGraphic" in2="BackgroundImageFix" result="shape"/>
<feGaussianBlur stdDeviation="30" result="effect1_foregroundBlur_501_21352"/>
</filter>
<filter id="filter1_f_501_21352" x="72" y="31.022" width="150" height="168" filterUnits="userSpaceOnUse" color-interpolation-filters="sRGB">
<feFlood flood-opacity="0" result="BackgroundImageFix"/>
<feBlend mode="normal" in="SourceGraphic" in2="BackgroundImageFix" result="shape"/>
<feGaussianBlur stdDeviation="30" result="effect1_foregroundBlur_501_21352"/>
</filter>
<filter id="filter2_f_501_21352" x="33" y="31.022" width="150" height="168" filterUnits="userSpaceOnUse" color-interpolation-filters="sRGB">
<feFlood flood-opacity="0" result="BackgroundImageFix"/>
<feBlend mode="normal" in="SourceGraphic" in2="BackgroundImageFix" result="shape"/>
<feGaussianBlur stdDeviation="30" result="effect1_foregroundBlur_501_21352"/>
</filter>
</defs>
</svg>
