<svg width="257" height="243" viewBox="0 0 257 243" fill="none" xmlns="http://www.w3.org/2000/svg">
<g opacity="0.15" filter="url(#filter0_f_2572_172843)">
<path d="M60 145.022C60 122.931 77.9086 105.022 100 105.022H157C179.091 105.022 197 122.931 197 145.022V166.022C197 174.859 189.837 182.022 181 182.022H76C67.1634 182.022 60 174.859 60 166.022V145.022Z" fill="#4864E1"/>
</g>
<g opacity="0.25" filter="url(#filter1_f_2572_172843)">
<path d="M132 106.022C132 97.7377 138.716 91.022 147 91.022C155.284 91.022 162 97.7377 162 106.022V125.308C162 132.882 155.86 139.022 148.286 139.022H145.714C138.14 139.022 132 132.882 132 125.308V106.022Z" fill="#008768"/>
</g>
<g opacity="0.2" filter="url(#filter2_f_2572_172843)">
<path d="M93 106.022C93 97.7377 99.7157 91.022 108 91.022C116.284 91.022 123 97.7377 123 106.022V125.308C123 132.882 116.86 139.022 109.286 139.022H106.714C99.1401 139.022 93 132.882 93 125.308V106.022Z" fill="#4864E1"/>
</g>
<mask id="mask0_2572_172843" style="mask-type:alpha" maskUnits="userSpaceOnUse" x="65" y="42" width="125" height="108">
<path d="M65.998 115.776C65.998 75.0305 93.7564 42 127.998 42C162.24 42 189.998 75.0305 189.998 115.776C189.998 156.521 162.24 149.546 127.998 149.546C93.7564 149.546 65.998 156.521 65.998 115.776Z" fill="#D9D9D9" fill-opacity="0.1"/>
</mask>
<g mask="url(#mask0_2572_172843)">
<rect x="39.7988" y="29.6221" width="39.9" height="39.9" rx="4.2" fill="#BABABA"/>
<rect x="85.2988" y="29.6221" width="39.9" height="39.9" rx="4.2" fill="#BABABA"/>
<rect x="130.799" y="29.6221" width="39.9" height="39.9" rx="4.2" fill="#BABABA"/>
<rect x="176.299" y="29.6221" width="39.9" height="39.9" rx="4.2" fill="#BABABA"/>
<rect x="39.7988" y="75.1221" width="39.9" height="39.9" rx="4.2" fill="#BABABA"/>
<rect x="85.2988" y="75.1221" width="39.9" height="39.9" rx="4.2" fill="#BABABA"/>
<rect x="130.799" y="75.1221" width="39.9" height="39.9" rx="4.2" fill="#BABABA"/>
<rect x="176.299" y="75.1221" width="39.9" height="39.9" rx="4.2" fill="#BABABA"/>
<rect x="39.7988" y="120.622" width="39.9" height="39.9" rx="4.2" fill="#BABABA"/>
<rect x="85.2988" y="120.622" width="39.9" height="39.9" rx="4.2" fill="#BABABA"/>
<rect x="130.799" y="120.622" width="39.9" height="39.9" rx="4.2" fill="#BABABA"/>
<rect x="176.299" y="120.622" width="39.9" height="39.9" rx="4.2" fill="#BABABA"/>
</g>
<path d="M130.915 70.8782C130.915 69.7736 131.81 68.8782 132.915 68.8782H137.665C138.77 68.8782 139.665 69.7736 139.665 70.8782V83.1638H130.915V70.8782Z" fill="#F2F2F2" stroke="#A6A6A6"/>
<path d="M160.085 92.1739C160.085 91.9323 160.281 91.7365 160.522 91.7365C160.764 91.7365 160.96 91.9323 160.96 92.1739V103.165H160.085V92.1739Z" fill="#A6A6A6"/>
<path d="M119.255 66.4595C119.255 66.2178 119.451 66.022 119.692 66.022C119.934 66.022 120.13 66.2178 120.13 66.4595V74.8219H119.255V66.4595Z" fill="#A6A6A6"/>
<path d="M116.337 72.1739C116.337 71.9323 116.533 71.7365 116.774 71.7365C117.016 71.7365 117.212 71.9323 117.212 72.1739V78.2507H116.337V72.1739Z" fill="#A6A6A6"/>
<path d="M113.414 79.5938C113.414 76.8323 115.653 74.5938 118.414 74.5938H137.58C140.342 74.5938 142.58 76.8323 142.58 79.5938V146.022H113.414V79.5938Z" fill="#F2F2F2" stroke="#A6A6A6"/>
<rect x="119.255" y="80.3075" width="17.4999" height="2.85713" rx="1.42856" fill="#A6A6A6"/>
<rect x="119.255" y="86.022" width="17.4999" height="2.85713" rx="1.42856" fill="#4864E1"/>
<rect x="119.255" y="91.7365" width="17.4999" height="2.85713" rx="1.42856" fill="#A6A6A6"/>
<rect x="119.255" y="97.45" width="17.4999" height="2.85713" rx="1.42856" fill="#4864E1"/>
<rect x="119.255" y="103.166" width="17.4999" height="2.85713" rx="1.42856" fill="#A6A6A6"/>
<rect x="119.255" y="108.878" width="17.4999" height="2.85713" rx="1.42856" fill="#A6A6A6"/>
<rect x="119.255" y="114.594" width="17.4999" height="2.85713" rx="1.42856" fill="#A6A6A6"/>
<rect x="119.255" y="120.307" width="17.4999" height="2.85713" rx="1.42856" fill="#A6A6A6"/>
<rect x="119.255" y="126.022" width="17.4999" height="2.85713" rx="1.42856" fill="#A6A6A6"/>
<rect x="119.255" y="131.736" width="17.4999" height="2.85713" rx="1.42856" fill="#4864E1"/>
<rect x="119.255" y="137.45" width="17.4999" height="2.85713" rx="1.42856" fill="#A6A6A6"/>
<path d="M93 105.234C93 102.986 95.38 101.537 97.3767 102.568L119.461 113.975C121.123 114.833 122.166 116.547 122.166 118.417V146.022H98C95.2386 146.022 93 143.783 93 141.022V105.234Z" fill="#F2F2F2" stroke="#A6A6A6"/>
<path d="M133.836 102.45C133.836 99.6885 136.075 97.45 138.836 97.45H157.002C160.316 97.45 163.002 100.136 163.002 103.45V140.021C163.002 143.335 160.316 146.021 157.002 146.021H133.836V102.45Z" fill="#F2F2F2" stroke="#A6A6A6"/>
<rect x="139.67" y="103.166" width="17.4999" height="2.85713" rx="1.42856" fill="#A6A6A6"/>
<rect x="139.67" y="108.878" width="17.4999" height="2.85713" rx="1.42856" fill="#4864E1"/>
<rect x="139.67" y="114.594" width="17.4999" height="2.85713" rx="1.42856" fill="#A6A6A6"/>
<rect x="139.67" y="120.307" width="17.4999" height="2.85713" rx="1.42856" fill="#A6A6A6"/>
<rect x="139.67" y="126.022" width="17.4999" height="2.85713" rx="1.42856" fill="#4864E1"/>
<rect x="139.67" y="131.736" width="17.4999" height="2.85713" rx="1.42856" fill="#A6A6A6"/>
<rect x="139.67" y="137.45" width="17.4999" height="2.85713" rx="1.42856" fill="#A6A6A6"/>
<rect x="98.8369" y="108.878" width="2.91664" height="2.85713" rx="1.42856" fill="#4864E1"/>
<rect x="98.8369" y="114.594" width="11.6666" height="2.85713" rx="1.42856" fill="#A6A6A6"/>
<rect x="98.8369" y="120.307" width="17.4999" height="2.85713" rx="1.42856" fill="#4864E1"/>
<rect x="98.8369" y="126.022" width="17.4999" height="2.85713" rx="1.42856" fill="#A6A6A6"/>
<rect x="98.8369" y="131.736" width="17.4999" height="2.85713" rx="1.42856" fill="#A6A6A6"/>
<rect x="98.8369" y="137.45" width="17.4999" height="2.85713" rx="1.42856" fill="#A6A6A6"/>
<path d="M119 145.979C119 141.049 122.984 137.022 127.915 137.022C132.879 137.022 136.915 141.101 136.915 146.065C136.915 150.995 132.93 155.022 128 155.022C123.036 155.022 119 150.943 119 145.979Z" fill="#B95C04" stroke="#A6A6A6"/>
<path d="M127.5 142.021C127.5 141.745 127.724 141.521 128 141.522C128.276 141.523 128.5 141.747 128.5 142.023L128 142.022L127.5 142.021ZM128.5 147.266C128.5 147.542 128.276 147.766 128 147.765C127.724 147.764 127.5 147.54 127.5 147.264L128 147.265L128.5 147.266ZM127.5 150.006C127.5 149.73 127.724 149.506 128 149.507C128.276 149.508 128.5 149.732 128.5 150.008L128 150.007L127.5 150.006ZM128.5 150.018C128.5 150.294 128.276 150.518 128 150.517C127.724 150.516 127.5 150.292 127.5 150.016L128 150.017L128.5 150.018ZM128 142.022L128.5 142.023L128.5 147.266L128 147.265L127.5 147.264L127.5 142.021L128 142.022ZM128 150.007L128.5 150.008L128.5 150.018L128 150.017L127.5 150.016L127.5 150.006L128 150.007Z" fill="white"/>
<defs>
<filter id="filter0_f_2572_172843" x="0" y="45.022" width="257" height="197" filterUnits="userSpaceOnUse" color-interpolation-filters="sRGB">
<feFlood flood-opacity="0" result="BackgroundImageFix"/>
<feBlend mode="normal" in="SourceGraphic" in2="BackgroundImageFix" result="shape"/>
<feGaussianBlur stdDeviation="30" result="effect1_foregroundBlur_2572_172843"/>
</filter>
<filter id="filter1_f_2572_172843" x="72" y="31.022" width="150" height="168" filterUnits="userSpaceOnUse" color-interpolation-filters="sRGB">
<feFlood flood-opacity="0" result="BackgroundImageFix"/>
<feBlend mode="normal" in="SourceGraphic" in2="BackgroundImageFix" result="shape"/>
<feGaussianBlur stdDeviation="30" result="effect1_foregroundBlur_2572_172843"/>
</filter>
<filter id="filter2_f_2572_172843" x="33" y="31.022" width="150" height="168" filterUnits="userSpaceOnUse" color-interpolation-filters="sRGB">
<feFlood flood-opacity="0" result="BackgroundImageFix"/>
<feBlend mode="normal" in="SourceGraphic" in2="BackgroundImageFix" result="shape"/>
<feGaussianBlur stdDeviation="30" result="effect1_foregroundBlur_2572_172843"/>
</filter>
</defs>
</svg>
