<svg width="257" height="243" viewBox="0 0 257 243" fill="none" xmlns="http://www.w3.org/2000/svg">
<g opacity="0.15" filter="url(#filter0_f_984_36480)">
<path d="M60 145.022C60 122.931 77.9086 105.022 100 105.022H157C179.091 105.022 197 122.931 197 145.022V166.022C197 174.859 189.837 182.022 181 182.022H76C67.1634 182.022 60 174.859 60 166.022V145.022Z" fill="#4864E1"/>
</g>
<g opacity="0.25" filter="url(#filter1_f_984_36480)">
<path d="M132 106.022C132 97.7377 138.716 91.022 147 91.022C155.284 91.022 162 97.7377 162 106.022V125.308C162 132.882 155.86 139.022 148.286 139.022H145.714C138.14 139.022 132 132.882 132 125.308V106.022Z" fill="#008768"/>
</g>
<g opacity="0.2" filter="url(#filter2_f_984_36480)">
<path d="M93 106.022C93 97.7377 99.7157 91.022 108 91.022C116.284 91.022 123 97.7377 123 106.022V125.308C123 132.882 116.86 139.022 109.286 139.022H106.714C99.1401 139.022 93 132.882 93 125.308V106.022Z" fill="#4864E1"/>
</g>
<mask id="mask0_984_36480" style="mask-type:alpha" maskUnits="userSpaceOnUse" x="65" y="42" width="125" height="108">
<path d="M65.998 115.776C65.998 75.0305 93.7564 42 127.998 42C162.24 42 189.998 75.0305 189.998 115.776C189.998 156.521 162.24 149.546 127.998 149.546C93.7564 149.546 65.998 156.521 65.998 115.776Z" fill="#D9D9D9" fill-opacity="0.1"/>
</mask>
<g mask="url(#mask0_984_36480)">
<rect x="39.7988" y="29.6221" width="39.9" height="39.9" rx="4.2" fill="#BABABA"/>
<rect x="85.2988" y="29.6221" width="39.9" height="39.9" rx="4.2" fill="#BABABA"/>
<rect x="130.799" y="29.6221" width="39.9" height="39.9" rx="4.2" fill="#BABABA"/>
<rect x="176.299" y="29.6221" width="39.9" height="39.9" rx="4.2" fill="#BABABA"/>
<rect x="39.7988" y="75.1221" width="39.9" height="39.9" rx="4.2" fill="#BABABA"/>
<rect x="85.2988" y="75.1221" width="39.9" height="39.9" rx="4.2" fill="#BABABA"/>
<rect x="130.799" y="75.1221" width="39.9" height="39.9" rx="4.2" fill="#BABABA"/>
<rect x="176.299" y="75.1221" width="39.9" height="39.9" rx="4.2" fill="#BABABA"/>
<rect x="39.7988" y="120.622" width="39.9" height="39.9" rx="4.2" fill="#BABABA"/>
<rect x="85.2988" y="120.622" width="39.9" height="39.9" rx="4.2" fill="#BABABA"/>
<rect x="130.799" y="120.622" width="39.9" height="39.9" rx="4.2" fill="#BABABA"/>
<rect x="176.299" y="120.622" width="39.9" height="39.9" rx="4.2" fill="#BABABA"/>
</g>
<path d="M152 80.022C155.314 80.022 157 82.7083 157 86.022V122.022C157 125.336 155.314 128.022 152 128.022L98 128.022C94.6863 128.022 93 125.336 93 122.022L93 86.022C93 82.7083 94.6863 80.022 98 80.022L152 80.022Z" fill="#FAFAFA"/>
<path d="M103.704 128.022C104.56 114.678 100.767 106.088 98.1744 102.597C97.8272 102.13 98.017 101.429 98.5783 101.268C105.254 99.3566 118.135 97.1907 124.681 101.632C129.399 104.834 131.599 112.674 132.487 119.522C132.759 121.621 133 126.022 132.5 128.022" stroke="#F2F2F2" stroke-linecap="round"/>
<path d="M152 80.022C155.314 80.022 157 82.7083 157 86.022V122.022C157 125.336 155.314 128.022 152 128.022L98 128.022C94.6863 128.022 93 125.336 93 122.022L93 86.022C93 82.7083 94.6863 80.022 98 80.022L152 80.022Z" stroke="#A6A6A6"/>
<rect x="121" y="74.022" width="9" height="4" rx="2" fill="#EF4035"/>
<rect x="125" y="75.522" width="4" height="1" rx="0.5" fill="white"/>
<circle cx="123" cy="76.022" r="1" fill="white"/>
<path d="M167.588 115.943C175.353 122.356 175.353 131.976 176 142.237C175.715 147.462 166.658 155.769 132.834 147.572C132.361 147.457 132.025 147.013 132.064 146.527C132.744 137.967 134.298 131.446 139.118 124.28C145.157 115.302 159.823 109.531 167.588 115.943Z" fill="#FAFAFA"/>
<path d="M176 142.237C175.353 131.976 175.353 122.356 167.588 115.943C159.823 109.531 145.157 115.302 139.118 124.28C134.141 131.679 132.647 138.389 132 147.367" stroke="#A6A6A6" stroke-linecap="round" stroke-linejoin="round"/>
<path d="M144.016 102.06C143.87 96.8991 147.287 92.4808 152.23 91.7131C157.174 90.9454 160.519 94.4875 161.279 99.3796C162.038 104.272 161.672 101.91 162.064 104.441C162.457 106.972 160.852 109.295 159.034 110.225C157.215 111.156 152.819 112.356 149.621 112.853C146.423 113.35 144.88 111.849 144.554 109.752C144.229 107.655 144.162 107.221 144.016 102.06Z" fill="#FAFAFA" stroke="#A6A6A6" stroke-linejoin="round"/>
<path d="M147.031 106.688C147.753 105.227 150.841 104.747 151.972 105.921" stroke="#3B3B3B" stroke-width="1.2" stroke-linecap="round"/>
<path d="M145.826 101.351C146.322 102.154 147.47 101.836 147.612 101.072" stroke="#3B3B3B" stroke-width="1.2" stroke-linecap="round"/>
<path d="M150.56 100.612C151.056 101.415 152.203 101.097 152.345 100.333" stroke="#3B3B3B" stroke-width="1.2" stroke-linecap="round"/>
<path d="M158.579 99.7467L158.909 99.3691L158.909 99.3691L158.579 99.7467ZM157.907 100.729C157.667 100.869 157.585 101.175 157.723 101.412C157.861 101.65 158.168 101.73 158.407 101.591L158.157 101.16L157.907 100.729ZM158.7 99.2897L158.8 99.7779V99.7779L158.7 99.2897ZM158.903 100.027L159.233 99.6497L158.909 99.3691L158.579 99.7467L158.249 100.124L158.573 100.405L158.903 100.027ZM159.012 99.614L158.528 99.4896L158.418 99.9029L158.903 100.027L159.387 100.152L159.497 99.7384L159.012 99.614ZM158.903 100.027L158.418 99.9029C158.319 100.278 158.151 100.588 157.907 100.729L158.157 101.16L158.407 101.591C159.006 101.243 159.267 100.603 159.387 100.152L158.903 100.027ZM158.7 99.2897L158.8 99.7779C158.636 99.8126 158.482 99.6641 158.528 99.4896L159.012 99.614L159.497 99.7384C159.643 99.1842 159.151 98.685 158.599 98.8015L158.7 99.2897ZM158.579 99.7467L158.909 99.3691C159.055 99.4959 158.991 99.7377 158.8 99.7779L158.7 99.2897L158.599 98.8015C157.978 98.9324 157.772 99.7116 158.249 100.124L158.579 99.7467Z" fill="#A6A6A6"/>
<path d="M119 126.979C119 122.049 122.984 118.022 127.915 118.022C132.879 118.022 136.915 122.101 136.915 127.065C136.915 131.995 132.93 136.022 128 136.022C123.036 136.022 119 131.943 119 126.979Z" fill="#4864E1" stroke="#A6A6A6"/>
<path d="M128.645 123.523C128.645 123.192 128.376 122.923 128.045 122.923C127.713 122.922 127.444 123.19 127.443 123.521L128.044 123.522L128.645 123.523ZM127.436 130.583C127.436 130.914 127.705 131.182 128.037 131.183C128.368 131.183 128.637 130.915 128.638 130.584L128.037 130.583L127.436 130.583ZM131.572 127.649C131.904 127.648 132.172 127.38 132.172 127.049C132.171 126.718 131.902 126.45 131.57 126.45L131.571 127.049L131.572 127.649ZM124.508 126.458C124.176 126.459 123.907 126.727 123.908 127.058C123.908 127.389 124.177 127.657 124.509 127.657L124.508 127.058L124.508 126.458ZM128.044 123.522L127.443 123.521L127.436 130.583L128.037 130.583L128.638 130.584L128.645 123.523L128.044 123.522ZM131.571 127.049L131.57 126.45L124.508 126.458L124.508 127.058L124.509 127.657L131.572 127.649L131.571 127.049Z" fill="white"/>
<defs>
<filter id="filter0_f_984_36480" x="0" y="45.022" width="257" height="197" filterUnits="userSpaceOnUse" color-interpolation-filters="sRGB">
<feFlood flood-opacity="0" result="BackgroundImageFix"/>
<feBlend mode="normal" in="SourceGraphic" in2="BackgroundImageFix" result="shape"/>
<feGaussianBlur stdDeviation="30" result="effect1_foregroundBlur_984_36480"/>
</filter>
<filter id="filter1_f_984_36480" x="72" y="31.022" width="150" height="168" filterUnits="userSpaceOnUse" color-interpolation-filters="sRGB">
<feFlood flood-opacity="0" result="BackgroundImageFix"/>
<feBlend mode="normal" in="SourceGraphic" in2="BackgroundImageFix" result="shape"/>
<feGaussianBlur stdDeviation="30" result="effect1_foregroundBlur_984_36480"/>
</filter>
<filter id="filter2_f_984_36480" x="33" y="31.022" width="150" height="168" filterUnits="userSpaceOnUse" color-interpolation-filters="sRGB">
<feFlood flood-opacity="0" result="BackgroundImageFix"/>
<feBlend mode="normal" in="SourceGraphic" in2="BackgroundImageFix" result="shape"/>
<feGaussianBlur stdDeviation="30" result="effect1_foregroundBlur_984_36480"/>
</filter>
</defs>
</svg>
