<svg width="257" height="243" viewBox="0 0 257 243" fill="none" xmlns="http://www.w3.org/2000/svg">
<g opacity="0.15" filter="url(#filter0_f_362_17806)">
<path d="M60 145.022C60 122.931 77.9086 105.022 100 105.022H157C179.091 105.022 197 122.931 197 145.022V166.022C197 174.859 189.837 182.022 181 182.022H76C67.1634 182.022 60 174.859 60 166.022V145.022Z" fill="#4864E1"/>
</g>
<g opacity="0.25" filter="url(#filter1_f_362_17806)">
<path d="M132 106.022C132 97.7377 138.716 91.022 147 91.022C155.284 91.022 162 97.7377 162 106.022V125.308C162 132.882 155.86 139.022 148.286 139.022H145.714C138.14 139.022 132 132.882 132 125.308V106.022Z" fill="#008768"/>
</g>
<g opacity="0.2" filter="url(#filter2_f_362_17806)">
<path d="M93 106.022C93 97.7377 99.7157 91.022 108 91.022C116.284 91.022 123 97.7377 123 106.022V125.308C123 132.882 116.86 139.022 109.286 139.022H106.714C99.1401 139.022 93 132.882 93 125.308V106.022Z" fill="#4864E1"/>
</g>
<mask id="mask0_362_17806" style="mask-type:alpha" maskUnits="userSpaceOnUse" x="65" y="42" width="125" height="108">
<path d="M65.998 115.776C65.998 75.0305 93.7564 42 127.998 42C162.24 42 189.998 75.0305 189.998 115.776C189.998 156.521 162.24 149.546 127.998 149.546C93.7564 149.546 65.998 156.521 65.998 115.776Z" fill="#D9D9D9" fill-opacity="0.1"/>
</mask>
<g mask="url(#mask0_362_17806)">
<rect x="39.7988" y="29.6221" width="39.9" height="39.9" rx="4.2" fill="#BABABA"/>
<rect x="85.2988" y="29.6221" width="39.9" height="39.9" rx="4.2" fill="#BABABA"/>
<rect x="130.799" y="29.6221" width="39.9" height="39.9" rx="4.2" fill="#BABABA"/>
<rect x="176.299" y="29.6221" width="39.9" height="39.9" rx="4.2" fill="#BABABA"/>
<rect x="39.7988" y="75.1221" width="39.9" height="39.9" rx="4.2" fill="#BABABA"/>
<rect x="85.2988" y="75.1221" width="39.9" height="39.9" rx="4.2" fill="#BABABA"/>
<rect x="130.799" y="75.1221" width="39.9" height="39.9" rx="4.2" fill="#BABABA"/>
<rect x="176.299" y="75.1221" width="39.9" height="39.9" rx="4.2" fill="#BABABA"/>
<rect x="39.7988" y="120.622" width="39.9" height="39.9" rx="4.2" fill="#BABABA"/>
<rect x="85.2988" y="120.622" width="39.9" height="39.9" rx="4.2" fill="#BABABA"/>
<rect x="130.799" y="120.622" width="39.9" height="39.9" rx="4.2" fill="#BABABA"/>
<rect x="176.299" y="120.622" width="39.9" height="39.9" rx="4.2" fill="#BABABA"/>
</g>
<rect width="48" height="64" rx="6" transform="matrix(-1 0 0 1 158 65.022)" fill="#E8E8E8" stroke="#A6A6A6" stroke-width="1.2"/>
<rect width="48" height="64" rx="6" transform="matrix(-1 0 0 1 152 77.022)" fill="#F2F2F2" stroke="#A6A6A6" stroke-width="1.2"/>
<rect width="48" height="64" rx="6" transform="matrix(-1 0 0 1 146 71.022)" fill="#FAFAFA" stroke="#A6A6A6" stroke-width="1.2"/>
<path d="M131.564 97.5977C131.798 97.3634 132.178 97.3634 132.413 97.5977C132.647 97.832 132.648 98.2119 132.415 98.4462L131.989 98.022L131.564 97.5977ZM127.925 102.946C127.691 103.181 127.311 103.181 127.076 102.946C126.842 102.712 126.841 102.332 127.074 102.098L127.5 102.522L127.925 102.946ZM127.066 98.4462C126.831 98.2119 126.83 97.832 127.064 97.5977C127.298 97.3634 127.678 97.3634 127.913 97.5977L127.489 98.022L127.066 98.4462ZM132.423 102.098C132.658 102.332 132.659 102.712 132.425 102.946C132.191 103.181 131.811 103.181 131.576 102.946L132 102.522L132.423 102.098ZM131.989 98.022L132.415 98.4462L127.925 102.946L127.5 102.522L127.074 102.098L131.564 97.5977L131.989 98.022ZM127.489 98.022L127.913 97.5977L132.423 102.098L132 102.522L131.576 102.946L127.066 98.4462L127.489 98.022Z" fill="#3B3B3B"/>
<path d="M116.564 97.5977C116.798 97.3634 117.178 97.3634 117.413 97.5977C117.647 97.832 117.648 98.2119 117.415 98.4462L116.989 98.022L116.564 97.5977ZM112.925 102.946C112.691 103.181 112.311 103.181 112.076 102.946C111.842 102.712 111.841 102.332 112.074 102.098L112.5 102.522L112.925 102.946ZM112.066 98.4462C111.831 98.2119 111.83 97.832 112.064 97.5977C112.298 97.3634 112.678 97.3634 112.913 97.5977L112.489 98.022L112.066 98.4462ZM117.423 102.098C117.658 102.332 117.659 102.712 117.425 102.946C117.191 103.181 116.811 103.181 116.576 102.946L117 102.522L117.423 102.098ZM116.989 98.022L117.415 98.4462L112.925 102.946L112.5 102.522L112.074 102.098L116.564 97.5977L116.989 98.022ZM112.489 98.022L112.913 97.5977L117.423 102.098L117 102.522L116.576 102.946L112.066 98.4462L112.489 98.022Z" fill="#3B3B3B"/>
<path d="M127 111.022H115" stroke="#3B3B3B" stroke-width="1.2" stroke-linecap="round"/>
<path d="M113.085 134.979C113.085 130.049 117.07 126.022 122 126.022C126.964 126.022 131 130.101 131 135.065C131 139.995 127.015 144.022 122.085 144.022C117.122 144.022 113.085 139.943 113.085 134.979Z" fill="#4864E1" stroke="#A6A6A6" stroke-width="1.2"/>
<path d="M122.636 132.172C122.636 131.841 122.367 131.573 122.036 131.573C121.704 131.572 121.435 131.84 121.434 132.171L122.035 132.172L122.636 132.172ZM121.429 137.82C121.429 138.151 121.697 138.42 122.029 138.42C122.361 138.421 122.63 138.153 122.63 137.822L122.03 137.821L121.429 137.82ZM124.858 135.593C125.189 135.593 125.458 135.324 125.458 134.993C125.457 134.662 125.188 134.394 124.856 134.394L124.857 134.994L124.858 135.593ZM119.206 134.401C118.874 134.401 118.606 134.67 118.606 135.001C118.606 135.332 118.876 135.6 119.207 135.6L119.207 135L119.206 134.401ZM122.035 132.172L121.434 132.171L121.429 137.82L122.03 137.821L122.63 137.822L122.636 132.172L122.035 132.172ZM124.857 134.994L124.856 134.394L119.206 134.401L119.207 135L119.207 135.6L124.858 135.593L124.857 134.994Z" fill="white"/>
<defs>
<filter id="filter0_f_362_17806" x="0" y="45.022" width="257" height="197" filterUnits="userSpaceOnUse" color-interpolation-filters="sRGB">
<feFlood flood-opacity="0" result="BackgroundImageFix"/>
<feBlend mode="normal" in="SourceGraphic" in2="BackgroundImageFix" result="shape"/>
<feGaussianBlur stdDeviation="30" result="effect1_foregroundBlur_362_17806"/>
</filter>
<filter id="filter1_f_362_17806" x="72" y="31.022" width="150" height="168" filterUnits="userSpaceOnUse" color-interpolation-filters="sRGB">
<feFlood flood-opacity="0" result="BackgroundImageFix"/>
<feBlend mode="normal" in="SourceGraphic" in2="BackgroundImageFix" result="shape"/>
<feGaussianBlur stdDeviation="30" result="effect1_foregroundBlur_362_17806"/>
</filter>
<filter id="filter2_f_362_17806" x="33" y="31.022" width="150" height="168" filterUnits="userSpaceOnUse" color-interpolation-filters="sRGB">
<feFlood flood-opacity="0" result="BackgroundImageFix"/>
<feBlend mode="normal" in="SourceGraphic" in2="BackgroundImageFix" result="shape"/>
<feGaussianBlur stdDeviation="30" result="effect1_foregroundBlur_362_17806"/>
</filter>
</defs>
</svg>
