<svg width="257" height="243" viewBox="0 0 257 243" fill="none" xmlns="http://www.w3.org/2000/svg">
<g opacity="0.15" filter="url(#filter0_f_670_25925)">
<path d="M60 145.022C60 122.931 77.9086 105.022 100 105.022H157C179.091 105.022 197 122.931 197 145.022V166.022C197 174.859 189.837 182.022 181 182.022H76C67.1634 182.022 60 174.859 60 166.022V145.022Z" fill="#4864E1"/>
</g>
<g opacity="0.25" filter="url(#filter1_f_670_25925)">
<path d="M132 106.022C132 97.7377 138.716 91.022 147 91.022C155.284 91.022 162 97.7377 162 106.022V125.308C162 132.882 155.86 139.022 148.286 139.022H145.714C138.14 139.022 132 132.882 132 125.308V106.022Z" fill="#008768"/>
</g>
<g opacity="0.2" filter="url(#filter2_f_670_25925)">
<path d="M93 106.022C93 97.7377 99.7157 91.022 108 91.022C116.284 91.022 123 97.7377 123 106.022V125.308C123 132.882 116.86 139.022 109.286 139.022H106.714C99.1401 139.022 93 132.882 93 125.308V106.022Z" fill="#4864E1"/>
</g>
<mask id="mask0_670_25925" style="mask-type:alpha" maskUnits="userSpaceOnUse" x="65" y="42" width="125" height="108">
<path d="M65.998 115.776C65.998 75.0305 93.7564 42 127.998 42C162.24 42 189.998 75.0305 189.998 115.776C189.998 156.521 162.24 149.546 127.998 149.546C93.7564 149.546 65.998 156.521 65.998 115.776Z" fill="#D9D9D9" fill-opacity="0.1"/>
</mask>
<g mask="url(#mask0_670_25925)">
<rect x="39.7988" y="29.6221" width="39.9" height="39.9" rx="4.2" fill="#BABABA"/>
<rect x="85.2988" y="29.6221" width="39.9" height="39.9" rx="4.2" fill="#BABABA"/>
<rect x="130.799" y="29.6221" width="39.9" height="39.9" rx="4.2" fill="#BABABA"/>
<rect x="176.299" y="29.6221" width="39.9" height="39.9" rx="4.2" fill="#BABABA"/>
<rect x="39.7988" y="75.1221" width="39.9" height="39.9" rx="4.2" fill="#BABABA"/>
<rect x="85.2988" y="75.1221" width="39.9" height="39.9" rx="4.2" fill="#BABABA"/>
<rect x="130.799" y="75.1221" width="39.9" height="39.9" rx="4.2" fill="#BABABA"/>
<rect x="176.299" y="75.1221" width="39.9" height="39.9" rx="4.2" fill="#BABABA"/>
<rect x="39.7988" y="120.622" width="39.9" height="39.9" rx="4.2" fill="#BABABA"/>
<rect x="85.2988" y="120.622" width="39.9" height="39.9" rx="4.2" fill="#BABABA"/>
<rect x="130.799" y="120.622" width="39.9" height="39.9" rx="4.2" fill="#BABABA"/>
<rect x="176.299" y="120.622" width="39.9" height="39.9" rx="4.2" fill="#BABABA"/>
</g>
<path d="M122 73.022L135 73.022C140.523 73.022 145 77.4991 145 83.022L145 92.022L141 92.022L141 83.022C141 79.7083 138.314 77.022 135 77.022L122 77.022C118.686 77.022 116 79.7083 116 83.022L116 92.022L112 92.022L112 83.022C112 77.4991 116.477 73.022 122 73.022Z" fill="#757575"/>
<rect x="166" y="90.022" width="56" height="76" rx="6" transform="rotate(90 166 90.022)" fill="#FAFAFA" stroke="#A6A6A6" stroke-linejoin="round"/>
<rect x="113" y="113.022" width="34" height="5" rx="2" transform="rotate(90 113 113.022)" fill="#F2F2F2" stroke="#A6A6A6" stroke-linejoin="round"/>
<rect x="148" y="113.022" width="34" height="5" rx="2" transform="rotate(90 148 113.022)" fill="#F2F2F2" stroke="#A6A6A6" stroke-linejoin="round"/>
<path d="M159 88.022C163.418 88.022 167 91.6037 167 96.022L167 112.022C167 113.127 166.105 114.022 165 114.022L91 114.022C89.8954 114.022 89 113.127 89 112.022L89 96.022C89 91.6037 92.5817 88.022 97 88.022L159 88.022Z" fill="#E8E8E8" stroke="#A6A6A6" stroke-linejoin="round"/>
<rect x="114" y="87.022" width="33" height="7" rx="2" transform="rotate(90 114 87.022)" fill="#CCCCCC" stroke="#A6A6A6" stroke-linejoin="round"/>
<rect x="149" y="87.022" width="33" height="7" rx="2" transform="rotate(90 149 87.022)" fill="#CCCCCC" stroke="#A6A6A6" stroke-linejoin="round"/>
<path d="M136.5 142.979C136.5 138.049 140.484 134.022 145.415 134.022C150.379 134.022 154.415 138.101 154.415 143.065C154.415 147.995 150.43 152.022 145.5 152.022C140.536 152.022 136.5 147.943 136.5 142.979Z" fill="#4864E1" stroke="#A6A6A6"/>
<path d="M146.145 139.523C146.145 139.192 145.876 138.923 145.545 138.923C145.213 138.922 144.944 139.19 144.943 139.521L145.544 139.522L146.145 139.523ZM144.936 146.583C144.936 146.914 145.205 147.182 145.537 147.183C145.868 147.183 146.137 146.915 146.138 146.584L145.537 146.583L144.936 146.583ZM149.072 143.649C149.404 143.648 149.672 143.38 149.672 143.049C149.671 142.718 149.402 142.45 149.07 142.45L149.071 143.049L149.072 143.649ZM142.008 142.458C141.676 142.459 141.407 142.727 141.408 143.058C141.408 143.389 141.677 143.657 142.009 143.657L142.008 143.058L142.008 142.458ZM145.544 139.522L144.943 139.521L144.936 146.583L145.537 146.583L146.138 146.584L146.145 139.523L145.544 139.522ZM149.071 143.049L149.07 142.45L142.008 142.458L142.008 143.058L142.009 143.657L149.072 143.649L149.071 143.049Z" fill="white"/>
<path d="M120.435 105.598C120.201 105.363 119.821 105.363 119.586 105.598C119.352 105.832 119.351 106.212 119.585 106.446L120.01 106.022L120.435 105.598ZM124.074 110.946C124.308 111.181 124.688 111.181 124.923 110.946C125.157 110.712 125.158 110.332 124.925 110.098L124.499 110.522L124.074 110.946ZM124.933 106.446C125.168 106.212 125.169 105.832 124.935 105.598C124.701 105.363 124.321 105.363 124.086 105.598L124.51 106.022L124.933 106.446ZM119.576 110.098C119.341 110.332 119.34 110.712 119.574 110.946C119.808 111.181 120.188 111.181 120.423 110.946L119.999 110.522L119.576 110.098ZM120.01 106.022L119.585 106.446L124.074 110.946L124.499 110.522L124.925 110.098L120.435 105.598L120.01 106.022ZM124.51 106.022L124.086 105.598L119.576 110.098L119.999 110.522L120.423 110.946L124.933 106.446L124.51 106.022Z" fill="#3B3B3B"/>
<path d="M132.435 105.598C132.201 105.363 131.821 105.363 131.586 105.598C131.352 105.832 131.351 106.212 131.585 106.446L132.01 106.022L132.435 105.598ZM136.074 110.946C136.308 111.181 136.688 111.181 136.923 110.946C137.157 110.712 137.158 110.332 136.925 110.098L136.499 110.522L136.074 110.946ZM136.933 106.446C137.168 106.212 137.169 105.832 136.935 105.598C136.701 105.363 136.321 105.363 136.086 105.598L136.51 106.022L136.933 106.446ZM131.576 110.098C131.341 110.332 131.34 110.712 131.574 110.946C131.808 111.181 132.188 111.181 132.423 110.946L131.999 110.522L131.576 110.098ZM132.01 106.022L131.585 106.446L136.074 110.946L136.499 110.522L136.925 110.098L132.435 105.598L132.01 106.022ZM136.51 106.022L136.086 105.598L131.576 110.098L131.999 110.522L132.423 110.946L136.933 106.446L136.51 106.022Z" fill="#3B3B3B"/>
<path d="M122 118.022H134" stroke="#3B3B3B" stroke-width="1.2" stroke-linecap="round"/>
<path d="M120.435 105.598C120.201 105.363 119.821 105.363 119.586 105.598C119.352 105.832 119.351 106.212 119.585 106.446L120.01 106.022L120.435 105.598ZM124.074 110.946C124.308 111.181 124.688 111.181 124.923 110.946C125.157 110.712 125.158 110.332 124.925 110.098L124.499 110.522L124.074 110.946ZM124.933 106.446C125.168 106.212 125.169 105.832 124.935 105.598C124.701 105.363 124.321 105.363 124.086 105.598L124.51 106.022L124.933 106.446ZM119.576 110.098C119.341 110.332 119.34 110.712 119.574 110.946C119.808 111.181 120.188 111.181 120.423 110.946L119.999 110.522L119.576 110.098ZM120.01 106.022L119.585 106.446L124.074 110.946L124.499 110.522L124.925 110.098L120.435 105.598L120.01 106.022ZM124.51 106.022L124.086 105.598L119.576 110.098L119.999 110.522L120.423 110.946L124.933 106.446L124.51 106.022Z" fill="#3B3B3B"/>
<path d="M132.435 105.598C132.201 105.363 131.821 105.363 131.586 105.598C131.352 105.832 131.351 106.212 131.585 106.446L132.01 106.022L132.435 105.598ZM136.074 110.946C136.308 111.181 136.688 111.181 136.923 110.946C137.157 110.712 137.158 110.332 136.925 110.098L136.499 110.522L136.074 110.946ZM136.933 106.446C137.168 106.212 137.169 105.832 136.935 105.598C136.701 105.363 136.321 105.363 136.086 105.598L136.51 106.022L136.933 106.446ZM131.576 110.098C131.341 110.332 131.34 110.712 131.574 110.946C131.808 111.181 132.188 111.181 132.423 110.946L131.999 110.522L131.576 110.098ZM132.01 106.022L131.585 106.446L136.074 110.946L136.499 110.522L136.925 110.098L132.435 105.598L132.01 106.022ZM136.51 106.022L136.086 105.598L131.576 110.098L131.999 110.522L132.423 110.946L136.933 106.446L136.51 106.022Z" fill="#3B3B3B"/>
<path d="M122 118.022H134" stroke="#3B3B3B" stroke-width="1.2" stroke-linecap="round"/>
<defs>
<filter id="filter0_f_670_25925" x="0" y="45.022" width="257" height="197" filterUnits="userSpaceOnUse" color-interpolation-filters="sRGB">
<feFlood flood-opacity="0" result="BackgroundImageFix"/>
<feBlend mode="normal" in="SourceGraphic" in2="BackgroundImageFix" result="shape"/>
<feGaussianBlur stdDeviation="30" result="effect1_foregroundBlur_670_25925"/>
</filter>
<filter id="filter1_f_670_25925" x="72" y="31.022" width="150" height="168" filterUnits="userSpaceOnUse" color-interpolation-filters="sRGB">
<feFlood flood-opacity="0" result="BackgroundImageFix"/>
<feBlend mode="normal" in="SourceGraphic" in2="BackgroundImageFix" result="shape"/>
<feGaussianBlur stdDeviation="30" result="effect1_foregroundBlur_670_25925"/>
</filter>
<filter id="filter2_f_670_25925" x="33" y="31.022" width="150" height="168" filterUnits="userSpaceOnUse" color-interpolation-filters="sRGB">
<feFlood flood-opacity="0" result="BackgroundImageFix"/>
<feBlend mode="normal" in="SourceGraphic" in2="BackgroundImageFix" result="shape"/>
<feGaussianBlur stdDeviation="30" result="effect1_foregroundBlur_670_25925"/>
</filter>
</defs>
</svg>
