<svg width="257" height="243" viewBox="0 0 257 243" fill="none" xmlns="http://www.w3.org/2000/svg">
<g opacity="0.15" filter="url(#filter0_f_860_33061)">
<path d="M60 145.022C60 122.931 77.9086 105.022 100 105.022H157C179.091 105.022 197 122.931 197 145.022V166.022C197 174.859 189.837 182.022 181 182.022H76C67.1634 182.022 60 174.859 60 166.022V145.022Z" fill="#4864E1"/>
</g>
<g opacity="0.25" filter="url(#filter1_f_860_33061)">
<path d="M132 106.022C132 97.7377 138.716 91.022 147 91.022C155.284 91.022 162 97.7377 162 106.022V125.308C162 132.882 155.86 139.022 148.286 139.022H145.714C138.14 139.022 132 132.882 132 125.308V106.022Z" fill="#008768"/>
</g>
<g opacity="0.2" filter="url(#filter2_f_860_33061)">
<path d="M93 106.022C93 97.7377 99.7157 91.022 108 91.022C116.284 91.022 123 97.7377 123 106.022V125.308C123 132.882 116.86 139.022 109.286 139.022H106.714C99.1401 139.022 93 132.882 93 125.308V106.022Z" fill="#4864E1"/>
</g>
<mask id="mask0_860_33061" style="mask-type:alpha" maskUnits="userSpaceOnUse" x="65" y="42" width="125" height="108">
<path d="M65.998 115.776C65.998 75.0305 93.7564 42 127.998 42C162.24 42 189.998 75.0305 189.998 115.776C189.998 156.521 162.24 149.546 127.998 149.546C93.7564 149.546 65.998 156.521 65.998 115.776Z" fill="#D9D9D9" fill-opacity="0.1"/>
</mask>
<g mask="url(#mask0_860_33061)">
<rect x="39.7988" y="29.6221" width="39.9" height="39.9" rx="4.2" fill="#BABABA"/>
<rect x="85.2988" y="29.6221" width="39.9" height="39.9" rx="4.2" fill="#BABABA"/>
<rect x="130.799" y="29.6221" width="39.9" height="39.9" rx="4.2" fill="#BABABA"/>
<rect x="176.299" y="29.6221" width="39.9" height="39.9" rx="4.2" fill="#BABABA"/>
<rect x="39.7988" y="75.1221" width="39.9" height="39.9" rx="4.2" fill="#BABABA"/>
<rect x="85.2988" y="75.1221" width="39.9" height="39.9" rx="4.2" fill="#BABABA"/>
<rect x="130.799" y="75.1221" width="39.9" height="39.9" rx="4.2" fill="#BABABA"/>
<rect x="176.299" y="75.1221" width="39.9" height="39.9" rx="4.2" fill="#BABABA"/>
<rect x="39.7988" y="120.622" width="39.9" height="39.9" rx="4.2" fill="#BABABA"/>
<rect x="85.2988" y="120.622" width="39.9" height="39.9" rx="4.2" fill="#BABABA"/>
<rect x="130.799" y="120.622" width="39.9" height="39.9" rx="4.2" fill="#BABABA"/>
<rect x="176.299" y="120.622" width="39.9" height="39.9" rx="4.2" fill="#BABABA"/>
</g>
<path d="M122 73.022L135 73.022C140.523 73.022 145 77.4991 145 83.022L145 92.022L141 92.022L141 83.022C141 79.7083 138.314 77.022 135 77.022L122 77.022C118.686 77.022 116 79.7083 116 83.022L116 92.022L112 92.022L112 83.022C112 77.4991 116.477 73.022 122 73.022Z" fill="#757575"/>
<rect x="166" y="90.022" width="56" height="76" rx="6" transform="rotate(90 166 90.022)" fill="#FAFAFA" stroke="#A6A6A6" stroke-linejoin="round"/>
<rect x="113" y="113.022" width="34" height="5" rx="2" transform="rotate(90 113 113.022)" fill="#F2F2F2" stroke="#A6A6A6" stroke-linejoin="round"/>
<rect x="148" y="113.022" width="34" height="5" rx="2" transform="rotate(90 148 113.022)" fill="#F2F2F2" stroke="#A6A6A6" stroke-linejoin="round"/>
<path d="M159 88.022C163.418 88.022 167 91.6037 167 96.022L167 112.022C167 113.127 166.105 114.022 165 114.022L91 114.022C89.8954 114.022 89 113.127 89 112.022L89 96.022C89 91.6037 92.5817 88.022 97 88.022L159 88.022Z" fill="#E8E8E8" stroke="#A6A6A6" stroke-linejoin="round"/>
<rect x="114" y="87.022" width="33" height="7" rx="2" transform="rotate(90 114 87.022)" fill="#CCCCCC" stroke="#A6A6A6" stroke-linejoin="round"/>
<rect x="149" y="87.022" width="33" height="7" rx="2" transform="rotate(90 149 87.022)" fill="#CCCCCC" stroke="#A6A6A6" stroke-linejoin="round"/>
<path d="M136.5 142.979C136.5 138.049 140.484 134.022 145.415 134.022C150.379 134.022 154.415 138.101 154.415 143.065C154.415 147.995 150.43 152.022 145.5 152.022C140.536 152.022 136.5 147.943 136.5 142.979Z" fill="#B95C04" stroke="#A6A6A6"/>
<path d="M145 139.021C145 138.745 145.224 138.521 145.5 138.522C145.776 138.523 146 138.747 146 139.023L145.5 139.022L145 139.021ZM146 144.266C146 144.542 145.776 144.766 145.5 144.765C145.224 144.764 145 144.54 145 144.264L145.5 144.265L146 144.266ZM145 147.006C145 146.73 145.224 146.506 145.5 146.507C145.776 146.508 146 146.732 146 147.008L145.5 147.007L145 147.006ZM146 147.018C146 147.294 145.776 147.518 145.5 147.517C145.224 147.516 145 147.292 145 147.016L145.5 147.017L146 147.018ZM145.5 139.022L146 139.023L146 144.266L145.5 144.265L145 144.264L145 139.021L145.5 139.022ZM145.5 147.007L146 147.008L146 147.018L145.5 147.017L145 147.016L145 147.006L145.5 147.007Z" fill="white"/>
<path d="M124.5 119.272C126 116.272 131 116.272 132.5 119.272" stroke="#3B3B3B" stroke-width="1.2" stroke-linecap="round"/>
<path d="M132 108.022C133.301 109.323 135.409 109.323 136.71 108.022" stroke="#3B3B3B" stroke-width="1.2" stroke-linecap="round" stroke-linejoin="round"/>
<path d="M124.521 108.022C123.22 109.323 121.111 109.323 119.811 108.022" stroke="#3B3B3B" stroke-width="1.2" stroke-linecap="round" stroke-linejoin="round"/>
<defs>
<filter id="filter0_f_860_33061" x="0" y="45.022" width="257" height="197" filterUnits="userSpaceOnUse" color-interpolation-filters="sRGB">
<feFlood flood-opacity="0" result="BackgroundImageFix"/>
<feBlend mode="normal" in="SourceGraphic" in2="BackgroundImageFix" result="shape"/>
<feGaussianBlur stdDeviation="30" result="effect1_foregroundBlur_860_33061"/>
</filter>
<filter id="filter1_f_860_33061" x="72" y="31.022" width="150" height="168" filterUnits="userSpaceOnUse" color-interpolation-filters="sRGB">
<feFlood flood-opacity="0" result="BackgroundImageFix"/>
<feBlend mode="normal" in="SourceGraphic" in2="BackgroundImageFix" result="shape"/>
<feGaussianBlur stdDeviation="30" result="effect1_foregroundBlur_860_33061"/>
</filter>
<filter id="filter2_f_860_33061" x="33" y="31.022" width="150" height="168" filterUnits="userSpaceOnUse" color-interpolation-filters="sRGB">
<feFlood flood-opacity="0" result="BackgroundImageFix"/>
<feBlend mode="normal" in="SourceGraphic" in2="BackgroundImageFix" result="shape"/>
<feGaussianBlur stdDeviation="30" result="effect1_foregroundBlur_860_33061"/>
</filter>
</defs>
</svg>
