<svg width="257" height="243" viewBox="0 0 257 243" fill="none" xmlns="http://www.w3.org/2000/svg">
<g opacity="0.15" filter="url(#filter0_f_732_27454)">
<path d="M60 145.022C60 122.931 77.9086 105.022 100 105.022H157C179.091 105.022 197 122.931 197 145.022V166.022C197 174.859 189.837 182.022 181 182.022H76C67.1634 182.022 60 174.859 60 166.022V145.022Z" fill="#4864E1"/>
</g>
<g opacity="0.25" filter="url(#filter1_f_732_27454)">
<path d="M132 106.022C132 97.7377 138.716 91.022 147 91.022C155.284 91.022 162 97.7377 162 106.022V125.308C162 132.882 155.86 139.022 148.286 139.022H145.714C138.14 139.022 132 132.882 132 125.308V106.022Z" fill="#008768"/>
</g>
<g opacity="0.2" filter="url(#filter2_f_732_27454)">
<path d="M93 106.022C93 97.7377 99.7157 91.022 108 91.022C116.284 91.022 123 97.7377 123 106.022V125.308C123 132.882 116.86 139.022 109.286 139.022H106.714C99.1401 139.022 93 132.882 93 125.308V106.022Z" fill="#4864E1"/>
</g>
<mask id="mask0_732_27454" style="mask-type:alpha" maskUnits="userSpaceOnUse" x="65" y="42" width="125" height="108">
<path d="M65.998 115.776C65.998 75.0305 93.7564 42 127.998 42C162.24 42 189.998 75.0305 189.998 115.776C189.998 156.521 162.24 149.546 127.998 149.546C93.7564 149.546 65.998 156.521 65.998 115.776Z" fill="#D9D9D9" fill-opacity="0.1"/>
</mask>
<g mask="url(#mask0_732_27454)">
<rect x="39.7988" y="29.6221" width="39.9" height="39.9" rx="4.2" fill="#BABABA"/>
<rect x="85.2988" y="29.6221" width="39.9" height="39.9" rx="4.2" fill="#BABABA"/>
<rect x="130.799" y="29.6221" width="39.9" height="39.9" rx="4.2" fill="#BABABA"/>
<rect x="176.299" y="29.6221" width="39.9" height="39.9" rx="4.2" fill="#BABABA"/>
<rect x="39.7988" y="75.1221" width="39.9" height="39.9" rx="4.2" fill="#BABABA"/>
<rect x="85.2988" y="75.1221" width="39.9" height="39.9" rx="4.2" fill="#BABABA"/>
<rect x="130.799" y="75.1221" width="39.9" height="39.9" rx="4.2" fill="#BABABA"/>
<rect x="176.299" y="75.1221" width="39.9" height="39.9" rx="4.2" fill="#BABABA"/>
<rect x="39.7988" y="120.622" width="39.9" height="39.9" rx="4.2" fill="#BABABA"/>
<rect x="85.2988" y="120.622" width="39.9" height="39.9" rx="4.2" fill="#BABABA"/>
<rect x="130.799" y="120.622" width="39.9" height="39.9" rx="4.2" fill="#BABABA"/>
<rect x="176.299" y="120.622" width="39.9" height="39.9" rx="4.2" fill="#BABABA"/>
</g>
<path d="M155.566 115.022C155.566 112.261 153.328 110.022 150.566 110.022H142.566V142.022H150.566C153.328 142.022 155.566 139.783 155.566 137.022V115.022Z" fill="#DBDBDB" stroke="#A6A6A6" stroke-linejoin="round"/>
<path d="M110.42 80.022L101 89.4417L101 136.022C101 139.273 103.636 142.022 106.888 142.022C106.888 142.022 147.315 142.022 150.566 142.022C147.32 142.022 144.566 140.391 144.566 136.022V85.9093C144.566 82.6578 141.931 80.022 138.679 80.022L110.42 80.022Z" fill="#FAFAFA" stroke="#A6A6A6" stroke-linejoin="round"/>
<path d="M101 89.4417L110.42 80.022V85.4417C110.42 87.6508 108.629 89.4417 106.42 89.4417H101Z" fill="#DBDBDB" stroke="#A6A6A6" stroke-linejoin="round"/>
<path d="M118.5 117.022C120 114.022 125 114.022 126.5 117.022" stroke="#3B3B3B" stroke-width="1.2" stroke-linecap="round"/>
<path d="M125.407 107.022C126.708 108.323 128.817 108.323 130.117 107.022" stroke="#3B3B3B" stroke-width="1.2" stroke-linecap="round" stroke-linejoin="round"/>
<path d="M119.521 107.022C118.22 108.323 116.111 108.323 114.811 107.022" stroke="#3B3B3B" stroke-width="1.2" stroke-linecap="round" stroke-linejoin="round"/>
<path d="M114.085 140.979C114.085 136.026 118.089 132.022 123.043 132.022C128.03 132.022 132.085 136.078 132.085 141.065C132.085 146.018 128.082 150.022 123.128 150.022C118.141 150.022 114.085 145.966 114.085 140.979Z" fill="#B95C04" stroke="#A6A6A6"/>
<path d="M123.5 137.023C123.5 136.747 123.276 136.523 123 136.522C122.724 136.521 122.5 136.745 122.5 137.021L123 137.022L123.5 137.023ZM122.5 142.264C122.5 142.54 122.724 142.764 123 142.765C123.276 142.766 123.5 142.542 123.5 142.266L123 142.265L122.5 142.264ZM123.5 145.008C123.5 144.732 123.276 144.508 123 144.507C122.724 144.506 122.5 144.73 122.5 145.006L123 145.007L123.5 145.008ZM122.5 145.016C122.5 145.292 122.724 145.516 123 145.517C123.276 145.518 123.5 145.294 123.5 145.018L123 145.017L122.5 145.016ZM123 137.022L122.5 137.021L122.5 142.264L123 142.265L123.5 142.266L123.5 137.023L123 137.022ZM123 145.007L122.5 145.006L122.5 145.016L123 145.017L123.5 145.018L123.5 145.008L123 145.007Z" fill="white"/>
<defs>
<filter id="filter0_f_732_27454" x="0" y="45.022" width="257" height="197" filterUnits="userSpaceOnUse" color-interpolation-filters="sRGB">
<feFlood flood-opacity="0" result="BackgroundImageFix"/>
<feBlend mode="normal" in="SourceGraphic" in2="BackgroundImageFix" result="shape"/>
<feGaussianBlur stdDeviation="30" result="effect1_foregroundBlur_732_27454"/>
</filter>
<filter id="filter1_f_732_27454" x="72" y="31.022" width="150" height="168" filterUnits="userSpaceOnUse" color-interpolation-filters="sRGB">
<feFlood flood-opacity="0" result="BackgroundImageFix"/>
<feBlend mode="normal" in="SourceGraphic" in2="BackgroundImageFix" result="shape"/>
<feGaussianBlur stdDeviation="30" result="effect1_foregroundBlur_732_27454"/>
</filter>
<filter id="filter2_f_732_27454" x="33" y="31.022" width="150" height="168" filterUnits="userSpaceOnUse" color-interpolation-filters="sRGB">
<feFlood flood-opacity="0" result="BackgroundImageFix"/>
<feBlend mode="normal" in="SourceGraphic" in2="BackgroundImageFix" result="shape"/>
<feGaussianBlur stdDeviation="30" result="effect1_foregroundBlur_732_27454"/>
</filter>
</defs>
</svg>
