<svg width="24" height="24" viewBox="0 0 24 24" fill="none" xmlns="http://www.w3.org/2000/svg">
<path d="M0 8C0 3.58172 3.58172 0 8 0H16C20.4183 0 24 3.58172 24 8V16C24 20.4183 20.4183 24 16 24H8C3.58172 24 0 20.4183 0 16V8Z" fill="#006699"/>
<path d="M8.17806 18.9997V9.55356H5.17688V18.9997H8.17806ZM6.67809 8.26405C7.72444 8.26405 8.37584 7.53872 8.37584 6.63224C8.35626 5.70509 7.72444 5 6.69801 5C5.67084 5 5 5.70509 5 6.63216C5 7.53864 5.65119 8.26398 6.65844 8.26398L6.67809 8.26405ZM9.83924 18.9997H12.8402V13.7251C12.8402 13.4431 12.8597 13.1605 12.939 12.9591C13.1559 12.3948 13.6497 11.8107 14.4789 11.8107C15.5646 11.8107 15.9991 12.6768 15.9991 13.9468V18.9997H19V13.5835C19 10.6822 17.5196 9.33208 15.5452 9.33208C13.9264 9.33208 13.2154 10.2787 12.8204 10.9234H12.8404V9.5539H9.83938C9.87855 10.44 9.83924 18.9997 9.83924 18.9997Z" fill="white"/>
</svg>
