<svg width="24" height="24" viewBox="0 0 24 24" fill="none" xmlns="http://www.w3.org/2000/svg">
<path d="M0 8C0 3.58172 3.58172 0 8 0H16C20.4183 0 24 3.58172 24 8V16C24 20.4183 20.4183 24 16 24H8C3.58172 24 0 20.4183 0 16V8Z" fill="#4864E1"/>
<path d="M10.5921 12.7047C10.8944 13.1093 11.2801 13.444 11.723 13.6863C12.166 13.9285 12.6558 14.0725 13.1592 14.1086C13.6627 14.1447 14.168 14.072 14.6409 13.8954C15.1138 13.7189 15.5432 13.4425 15.9 13.0852L18.0119 10.9712C18.6531 10.3066 19.0079 9.41662 18.9999 8.49279C18.9918 7.56896 18.6217 6.68525 17.9691 6.03198C17.3164 5.37871 16.4336 5.00816 15.5107 5.00013C14.5878 4.99211 13.6987 5.34725 13.0349 5.98906L11.824 7.19407M13.4079 11.2953C13.1056 10.8907 12.7199 10.556 12.277 10.3137C11.834 10.0715 11.3442 9.92746 10.8408 9.89136C10.3373 9.85527 9.83204 9.92798 9.35914 10.1046C8.88624 10.2811 8.45681 10.5575 8.09998 10.9148L5.98807 13.0288C5.3469 13.6934 4.99211 14.5834 5.00013 15.5072C5.00815 16.431 5.37833 17.3147 6.03094 17.968C6.68355 18.6213 7.56638 18.9918 8.48927 18.9999C9.41217 19.0079 10.3013 18.6528 10.9651 18.0109L12.1689 16.8059" stroke="white" stroke-width="1.5" stroke-linecap="round" stroke-linejoin="round"/>
</svg>
