<svg width="24" height="24" viewBox="0 0 24 24" fill="none" xmlns="http://www.w3.org/2000/svg">
<path d="M0 8C0 3.58172 3.58172 0 8 0H16C20.4183 0 24 3.58172 24 8V16C24 20.4183 20.4183 24 16 24H8C3.58172 24 0 20.4183 0 16V8Z" fill="#34AADF"/>
<path d="M4.8583 11.226C4.8583 11.226 11.0502 8.59183 13.1976 7.66425C14.0208 7.29325 16.8125 6.10593 16.8125 6.10593C16.8125 6.10593 18.101 5.58653 17.9936 6.84797C17.9578 7.36745 17.6715 9.1854 17.3852 11.1518C16.9557 13.9345 16.4904 16.9768 16.4904 16.9768C16.4904 16.9768 16.4188 17.8302 15.8104 17.9786C15.2019 18.127 14.1998 17.4592 14.0208 17.3108C13.8776 17.1995 11.3365 15.5299 10.4059 14.7136C10.1554 14.491 9.86908 14.0458 10.4417 13.5264C11.7302 12.302 13.2692 10.7808 14.1998 9.81617C14.6293 9.37093 15.0587 8.33209 13.2692 9.59354C10.7281 11.4116 8.22269 13.1182 8.22269 13.1182C8.22269 13.1182 7.65 13.4892 6.57629 13.1553C5.50252 12.8215 4.24982 12.3762 4.24982 12.3762C4.24982 12.3762 3.39091 11.8197 4.8583 11.226Z" fill="white"/>
</svg>
