<svg width="24" height="24" viewBox="0 0 24 24" fill="none" xmlns="http://www.w3.org/2000/svg">
<path d="M0 8C0 3.58172 3.58172 0 8 0H16C20.4183 0 24 3.58172 24 8V16C24 20.4183 20.4183 24 16 24H8C3.58172 24 0 20.4183 0 16V8Z" fill="#00D95F"/>
<path d="M5 19L6.00529 15.2685C5.19456 13.8149 4.93698 12.1186 5.27982 10.491C5.62266 8.86334 6.54293 7.41355 7.87174 6.40759C9.20055 5.40162 10.8488 4.90699 12.514 5.01445C14.1792 5.12194 15.7497 5.82429 16.9372 6.99265C18.1248 8.16101 18.8498 9.717 18.9791 11.3751C19.1085 13.0332 18.6336 14.6821 17.6415 16.0194C16.6494 17.3567 15.2068 18.2926 13.5783 18.6553C11.9497 19.018 10.2446 18.7833 8.77575 17.9942L5 19ZM8.95779 16.5978L9.19131 16.7358C10.2552 17.3644 11.4979 17.6244 12.7256 17.4756C13.9534 17.3267 15.0972 16.7772 15.9789 15.9128C16.8606 15.0484 17.4306 13.9176 17.6002 12.6966C17.7697 11.4756 17.5292 10.2329 16.9161 9.16239C16.3031 8.09184 15.3519 7.25345 14.2109 6.77792C13.0698 6.30236 11.803 6.21638 10.6078 6.53331C9.41261 6.85027 8.35619 7.55236 7.60315 8.53018C6.85011 9.50801 6.44276 10.7066 6.44459 11.9393C6.44361 12.9614 6.7272 13.9636 7.26386 14.8346L7.41031 15.0752L6.8483 17.1579L8.95779 16.5978Z" fill="white"/>
<path fill-rule="evenodd" clip-rule="evenodd" d="M14.6252 12.8974C14.4883 12.7874 14.3281 12.7099 14.1566 12.671C13.9851 12.632 13.807 12.6326 13.6358 12.6726C13.3785 12.7791 13.2123 13.1814 13.0461 13.3826C13.011 13.4308 12.9595 13.4646 12.9012 13.4777C12.8429 13.4908 12.7818 13.4822 12.7295 13.4536C11.7876 13.086 10.9982 12.4117 10.4893 11.5405C10.4459 11.4861 10.4254 11.4171 10.432 11.3479C10.4387 11.2788 10.472 11.2149 10.5249 11.1697C10.7103 10.9868 10.8465 10.7602 10.9207 10.511C10.9372 10.236 10.874 9.9622 10.7387 9.72208C10.634 9.38544 10.4349 9.08569 10.1648 8.85822C10.0255 8.79577 9.871 8.77484 9.72002 8.79794C9.56905 8.82103 9.42799 8.88718 9.31386 8.9884C9.11576 9.15874 8.95854 9.37121 8.85374 9.61013C8.74892 9.84906 8.69925 10.1084 8.70834 10.369C8.70892 10.5153 8.72756 10.661 8.76373 10.8029C8.85564 11.1437 8.99698 11.4692 9.18327 11.7693C9.31766 11.9992 9.46432 12.2217 9.62257 12.4359C10.1369 13.1396 10.7834 13.7371 11.5263 14.1952C11.899 14.428 12.2974 14.6172 12.7136 14.7592C13.1459 14.9546 13.6232 15.0295 14.0949 14.9762C14.3636 14.9357 14.6182 14.8299 14.8363 14.6683C15.0544 14.5066 15.2292 14.294 15.3455 14.0492C15.4139 13.9013 15.4346 13.736 15.4049 13.5759C15.3337 13.2485 14.8943 13.0552 14.6252 12.8974Z" fill="white"/>
</svg>
