<svg width="62" height="36" viewBox="0 0 62 36" fill="none" xmlns="http://www.w3.org/2000/svg">
<path d="M5.33301 5.77344L15.333 11.5469V-6.53267e-05L5.33301 5.77344ZM50.9997 5.77344C50.9997 8.71896 53.3875 11.1068 56.333 11.1068C59.2785 11.1068 61.6663 8.71896 61.6663 5.77344C61.6663 2.82792 59.2785 0.440104 56.333 0.440104C53.3875 0.440104 50.9997 2.82792 50.9997 5.77344ZM14.333 5.77344V6.77344H56.333V5.77344V4.77344H14.333V5.77344Z" fill="#4864E1"/>
<path d="M-0.00032568 29.7734C-0.00032568 32.719 2.38749 35.1068 5.33301 35.1068C8.27853 35.1068 10.6663 32.719 10.6663 29.7734C10.6663 26.8279 8.27853 24.4401 5.33301 24.4401C2.38749 24.4401 -0.00032568 26.8279 -0.00032568 29.7734ZM56.333 29.7734L46.333 23.9999V35.5469L56.333 29.7734ZM5.33301 29.7734V30.7734H47.333V29.7734V28.7734H5.33301V29.7734Z" fill="#008768"/>
</svg>
