<svg width="257" height="243" viewBox="0 0 257 243" fill="none" xmlns="http://www.w3.org/2000/svg">
<g opacity="0.15" filter="url(#filter0_f_7124_19564)">
<path d="M60 145.023C60 122.932 77.9086 105.023 100 105.023H157C179.091 105.023 197 122.932 197 145.023V166.023C197 174.86 189.837 182.023 181 182.023H76C67.1634 182.023 60 174.86 60 166.023V145.023Z" fill="#4864E1"/>
</g>
<g opacity="0.25" filter="url(#filter1_f_7124_19564)">
<path d="M132 106.023C132 97.7392 138.716 91.0234 147 91.0234C155.284 91.0234 162 97.7392 162 106.023V125.309C162 132.883 155.86 139.023 148.286 139.023H145.714C138.14 139.023 132 132.883 132 125.309V106.023Z" fill="#008768"/>
</g>
<g opacity="0.2" filter="url(#filter2_f_7124_19564)">
<path d="M93 106.023C93 97.7392 99.7157 91.0234 108 91.0234C116.284 91.0234 123 97.7392 123 106.023V125.309C123 132.883 116.86 139.023 109.286 139.023H106.714C99.1401 139.023 93 132.883 93 125.309V106.023Z" fill="#4864E1"/>
</g>
<mask id="mask0_7124_19564" style="mask-type:alpha" maskUnits="userSpaceOnUse" x="65" y="42" width="125" height="108">
<path d="M65.998 115.776C65.998 75.0305 93.7564 42 127.998 42C162.24 42 189.998 75.0305 189.998 115.776C189.998 156.521 162.24 149.546 127.998 149.546C93.7564 149.546 65.998 156.521 65.998 115.776Z" fill="#D9D9D9" fill-opacity="0.1"/>
</mask>
<g mask="url(#mask0_7124_19564)">
<rect x="39.7988" y="29.625" width="39.9" height="39.9" rx="4.2" fill="#BABABA"/>
<rect x="85.2988" y="29.625" width="39.9" height="39.9" rx="4.2" fill="#BABABA"/>
<rect x="130.799" y="29.625" width="39.9" height="39.9" rx="4.2" fill="#BABABA"/>
<rect x="176.299" y="29.625" width="39.9" height="39.9" rx="4.2" fill="#BABABA"/>
<rect x="39.7988" y="75.125" width="39.9" height="39.9" rx="4.2" fill="#BABABA"/>
<rect x="85.2988" y="75.125" width="39.9" height="39.9" rx="4.2" fill="#BABABA"/>
<rect x="130.799" y="75.125" width="39.9" height="39.9" rx="4.2" fill="#BABABA"/>
<rect x="176.299" y="75.125" width="39.9" height="39.9" rx="4.2" fill="#BABABA"/>
<rect x="39.7988" y="120.625" width="39.9" height="39.9" rx="4.2" fill="#BABABA"/>
<rect x="85.2988" y="120.625" width="39.9" height="39.9" rx="4.2" fill="#BABABA"/>
<rect x="130.799" y="120.625" width="39.9" height="39.9" rx="4.2" fill="#BABABA"/>
<rect x="176.299" y="120.625" width="39.9" height="39.9" rx="4.2" fill="#BABABA"/>
</g>
<defs>
<filter id="filter0_f_7124_19564" x="0" y="45.0234" width="257" height="197" filterUnits="userSpaceOnUse" color-interpolation-filters="sRGB">
<feFlood flood-opacity="0" result="BackgroundImageFix"/>
<feBlend mode="normal" in="SourceGraphic" in2="BackgroundImageFix" result="shape"/>
<feGaussianBlur stdDeviation="30" result="effect1_foregroundBlur_7124_19564"/>
</filter>
<filter id="filter1_f_7124_19564" x="72" y="31.0234" width="150" height="168" filterUnits="userSpaceOnUse" color-interpolation-filters="sRGB">
<feFlood flood-opacity="0" result="BackgroundImageFix"/>
<feBlend mode="normal" in="SourceGraphic" in2="BackgroundImageFix" result="shape"/>
<feGaussianBlur stdDeviation="30" result="effect1_foregroundBlur_7124_19564"/>
</filter>
<filter id="filter2_f_7124_19564" x="33" y="31.0234" width="150" height="168" filterUnits="userSpaceOnUse" color-interpolation-filters="sRGB">
<feFlood flood-opacity="0" result="BackgroundImageFix"/>
<feBlend mode="normal" in="SourceGraphic" in2="BackgroundImageFix" result="shape"/>
<feGaussianBlur stdDeviation="30" result="effect1_foregroundBlur_7124_19564"/>
</filter>
</defs>
</svg>
