<svg width="216" height="236" viewBox="0 0 216 236" fill="none" xmlns="http://www.w3.org/2000/svg">
<g opacity="0.15">
<g opacity="0.7">
<path d="M210.845 175.197V172.505L204.879 165.377L210.581 158.935V156.348H197.434V159.173H203.876C204.228 159.173 204.65 159.173 205.143 159.173C205.618 159.155 206.058 159.129 206.463 159.094L201.474 164.77V165.667L207.176 172.452C206.542 172.417 205.953 172.39 205.407 172.373C204.844 172.355 204.237 172.346 203.586 172.346H197.171V175.197H210.845Z" fill="#C6D2F7"/>
<path d="M213.052 116.192H207.136V110.45H203.517V116.192H197.601V119.811H203.517V125.622H207.136V119.811H213.052V116.192Z" fill="#C6D2F7"/>
<path d="M206.818 16.0739C207.399 16.7251 208.244 17.0507 209.352 17.0507C210.461 17.0507 211.306 16.7251 211.887 16.0739C212.468 15.4227 212.758 14.5603 212.758 13.4868C212.758 12.2548 212.468 11.3044 211.887 10.6357C211.306 9.94928 210.461 9.60609 209.352 9.60609C208.226 9.60609 207.373 9.94928 206.792 10.6357C206.211 11.3044 205.921 12.2548 205.921 13.4868C205.921 14.5603 206.22 15.4227 206.818 16.0739ZM199.558 9.84368L207.716 26H210.408L202.251 9.84368H199.558ZM211.121 13.4076C211.121 14.7275 210.532 15.3875 209.352 15.3875C208.138 15.3875 207.531 14.7275 207.531 13.4076C207.531 12.6684 207.68 12.1316 207.98 11.7972C208.261 11.4452 208.719 11.2692 209.352 11.2692C209.951 11.2692 210.4 11.4452 210.699 11.7972C210.98 12.1492 211.121 12.686 211.121 13.4076ZM198.054 25.2872C198.634 25.9384 199.479 26.264 200.588 26.264C201.697 26.264 202.55 25.9384 203.149 25.2872C203.729 24.636 204.02 23.7737 204.02 22.7001C204.02 21.4681 203.729 20.509 203.149 19.8226C202.55 19.1362 201.697 18.793 200.588 18.793C199.479 18.793 198.634 19.1362 198.054 19.8226C197.455 20.509 197.156 21.4681 197.156 22.7001C197.156 23.7737 197.455 24.636 198.054 25.2872ZM202.383 22.6209C202.383 23.9233 201.785 24.5744 200.588 24.5744C199.374 24.5744 198.766 23.9233 198.766 22.6209C198.766 21.8817 198.916 21.3449 199.215 21.0105C199.514 20.6586 199.972 20.4826 200.588 20.4826C201.204 20.4826 201.661 20.6586 201.961 21.0105C202.242 21.3449 202.383 21.8817 202.383 22.6209Z" fill="#C6D2F7"/>
<path d="M206.818 210.972C207.399 211.624 208.244 211.949 209.352 211.949C210.461 211.949 211.306 211.624 211.887 210.972C212.468 210.321 212.758 209.459 212.758 208.385C212.758 207.153 212.468 206.203 211.887 205.534C211.306 204.848 210.461 204.505 209.352 204.505C208.226 204.505 207.373 204.848 206.792 205.534C206.211 206.203 205.921 207.153 205.921 208.385C205.921 209.459 206.22 210.321 206.818 210.972ZM199.558 204.742L207.716 220.898H210.408L202.251 204.742H199.558ZM211.121 208.306C211.121 209.626 210.532 210.286 209.352 210.286C208.138 210.286 207.531 209.626 207.531 208.306C207.531 207.567 207.68 207.03 207.98 206.696C208.261 206.344 208.719 206.168 209.352 206.168C209.951 206.168 210.4 206.344 210.699 206.696C210.98 207.048 211.121 207.584 211.121 208.306ZM198.054 220.186C198.634 220.837 199.479 221.162 200.588 221.162C201.697 221.162 202.55 220.837 203.149 220.186C203.729 219.534 204.02 218.672 204.02 217.599C204.02 216.367 203.729 215.407 203.149 214.721C202.55 214.035 201.697 213.691 200.588 213.691C199.479 213.691 198.634 214.035 198.054 214.721C197.455 215.407 197.156 216.367 197.156 217.599C197.156 218.672 197.455 219.534 198.054 220.186ZM202.383 217.519C202.383 218.822 201.785 219.473 200.588 219.473C199.374 219.473 198.766 218.822 198.766 217.519C198.766 216.78 198.916 216.243 199.215 215.909C199.514 215.557 199.972 215.381 200.588 215.381C201.204 215.381 201.661 215.557 201.961 215.909C202.242 216.243 202.383 216.78 202.383 217.519Z" fill="#C6D2F7"/>
<path d="M199.113 75.4717C199.901 76.2781 201.072 76.8061 202.627 77.0556V79.3596H205.363V77.2284C207.168 77.1516 208.684 76.8541 209.913 76.3357V73.7437C209.145 74.0701 208.31 74.3293 207.408 74.5213C206.505 74.6941 205.632 74.7805 204.787 74.7805C202.291 74.7805 201.043 73.9357 201.043 72.2462C201.043 71.4782 201.36 70.883 201.993 70.4606C202.608 70.0383 203.702 69.6159 205.276 69.1935C206.544 68.8287 207.542 68.4351 208.271 68.0127C208.982 67.5711 209.491 67.0527 209.798 66.4576C210.105 65.8432 210.259 65.0656 210.259 64.1248C210.259 62.7425 209.855 61.6289 209.049 60.7841C208.223 59.9394 206.995 59.421 205.363 59.229V57.0114H202.627V59.2002C201.897 59.2386 201.196 59.3154 200.525 59.4306C199.833 59.5458 199.286 59.6802 198.883 59.8338V62.4257C200.285 61.8881 201.705 61.6193 203.145 61.6193C204.297 61.6193 205.248 61.7921 205.996 62.1377C206.745 62.4641 207.12 63.1169 207.12 64.096C207.12 64.7872 206.841 65.3248 206.284 65.7088C205.728 66.0928 204.72 66.4576 203.26 66.8032C201.84 67.1487 200.745 67.5711 199.977 68.0703C199.19 68.5503 198.653 69.1263 198.365 69.7983C198.057 70.451 197.904 71.2574 197.904 72.2174C197.904 73.5805 198.307 74.6653 199.113 75.4717Z" fill="#C6D2F7"/>
</g>
<g opacity="0.7">
<path d="M172.445 50.4492V47.7565L166.479 40.6287L172.181 34.1873V31.6002H159.034V34.4249H165.476C165.828 34.4249 166.25 34.4249 166.743 34.4249C167.218 34.4073 167.658 34.3809 168.063 34.3457L163.073 40.0215V40.9191L168.775 47.7037C168.142 47.6685 167.552 47.6421 167.007 47.6245C166.443 47.6069 165.836 47.5981 165.185 47.5981H158.77V50.4492H172.445Z" fill="#C6D2F7"/>
<path d="M174.052 138.745H168.136V133.003H164.517V138.745H158.601V142.364H164.517V148.175H168.136V142.364H174.052V138.745Z" fill="#C6D2F7"/>
<path d="M168.017 87.5231C168.598 88.1743 169.443 88.4999 170.552 88.4999C171.66 88.4999 172.505 88.1743 173.086 87.5231C173.667 86.8719 173.957 86.0096 173.957 84.936C173.957 83.704 173.667 82.7537 173.086 82.0849C172.505 81.3985 171.66 81.0553 170.552 81.0553C169.425 81.0553 168.572 81.3985 167.991 82.0849C167.41 82.7537 167.12 83.704 167.12 84.936C167.12 86.0096 167.419 86.8719 168.017 87.5231ZM160.758 81.2929L168.915 97.4492H171.608L163.45 81.2929H160.758ZM172.32 84.8568C172.32 86.1768 171.731 86.8367 170.552 86.8367C169.337 86.8367 168.73 86.1768 168.73 84.8568C168.73 84.1176 168.88 83.5808 169.179 83.2464C169.46 82.8945 169.918 82.7185 170.552 82.7185C171.15 82.7185 171.599 82.8945 171.898 83.2464C172.18 83.5984 172.32 84.1352 172.32 84.8568ZM159.253 96.7364C159.834 97.3876 160.678 97.7132 161.787 97.7132C162.896 97.7132 163.749 97.3876 164.348 96.7364C164.929 96.0853 165.219 95.2229 165.219 94.1493C165.219 92.9174 164.929 91.9582 164.348 91.2718C163.749 90.5854 162.896 90.2422 161.787 90.2422C160.678 90.2422 159.834 90.5854 159.253 91.2718C158.654 91.9582 158.355 92.9174 158.355 94.1493C158.355 95.2229 158.654 96.0853 159.253 96.7364ZM163.582 94.0701C163.582 95.3725 162.984 96.0237 161.787 96.0237C160.573 96.0237 159.966 95.3725 159.966 94.0701C159.966 93.3309 160.115 92.7942 160.414 92.4598C160.714 92.1078 161.171 91.9318 161.787 91.9318C162.403 91.9318 162.861 92.1078 163.16 92.4598C163.441 92.7942 163.582 93.3309 163.582 94.0701Z" fill="#C6D2F7"/>
<path d="M160.713 193.923C161.5 194.729 162.671 195.257 164.226 195.507V197.811H166.962V195.68C168.767 195.603 170.284 195.305 171.513 194.787V192.195C170.745 192.521 169.909 192.78 169.007 192.972C168.105 193.145 167.231 193.232 166.386 193.232C163.89 193.232 162.643 192.387 162.643 190.697C162.643 189.929 162.959 189.334 163.593 188.912C164.207 188.489 165.302 188.067 166.876 187.645C168.143 187.28 169.142 186.886 169.871 186.464C170.581 186.022 171.09 185.504 171.397 184.909C171.705 184.294 171.858 183.517 171.858 182.576C171.858 181.194 171.455 180.08 170.649 179.235C169.823 178.391 168.594 177.872 166.962 177.68V175.463H164.226V177.651C163.497 177.69 162.796 177.767 162.124 177.882C161.433 177.997 160.886 178.131 160.483 178.285V180.877C161.884 180.339 163.305 180.07 164.745 180.07C165.897 180.07 166.847 180.243 167.596 180.589C168.345 180.915 168.719 181.568 168.719 182.547C168.719 183.238 168.441 183.776 167.884 184.16C167.327 184.544 166.319 184.909 164.86 185.254C163.439 185.6 162.345 186.022 161.577 186.521C160.79 187.001 160.252 187.577 159.964 188.249C159.657 188.902 159.503 189.709 159.503 190.669C159.503 192.032 159.907 193.116 160.713 193.923Z" fill="#C6D2F7"/>
</g>
<g opacity="0.5">
<path d="M132.845 175.197V172.505L126.879 165.377L132.581 158.935V156.348H119.434V159.173H125.876C126.228 159.173 126.65 159.173 127.143 159.173C127.618 159.155 128.058 159.129 128.463 159.094L123.474 164.77V165.667L129.176 172.452C128.542 172.417 127.953 172.39 127.407 172.373C126.844 172.355 126.237 172.346 125.586 172.346H119.171V175.197H132.845Z" fill="#67EEC7"/>
<path d="M135.052 116.192H129.136V110.45H125.517V116.192H119.601V119.811H125.517V125.622H129.136V119.811H135.052V116.192Z" fill="#67EEC7"/>
<path d="M128.818 16.0739C129.399 16.7251 130.244 17.0507 131.352 17.0507C132.461 17.0507 133.306 16.7251 133.887 16.0739C134.468 15.4227 134.758 14.5603 134.758 13.4868C134.758 12.2548 134.468 11.3044 133.887 10.6357C133.306 9.94928 132.461 9.60609 131.352 9.60609C130.226 9.60609 129.373 9.94928 128.792 10.6357C128.211 11.3044 127.921 12.2548 127.921 13.4868C127.921 14.5603 128.22 15.4227 128.818 16.0739ZM121.558 9.84368L129.716 26H132.408L124.251 9.84368H121.558ZM133.121 13.4076C133.121 14.7275 132.532 15.3875 131.352 15.3875C130.138 15.3875 129.531 14.7275 129.531 13.4076C129.531 12.6684 129.68 12.1316 129.98 11.7972C130.261 11.4452 130.719 11.2692 131.352 11.2692C131.951 11.2692 132.4 11.4452 132.699 11.7972C132.98 12.1492 133.121 12.686 133.121 13.4076ZM120.054 25.2872C120.634 25.9384 121.479 26.264 122.588 26.264C123.697 26.264 124.55 25.9384 125.149 25.2872C125.729 24.636 126.02 23.7737 126.02 22.7001C126.02 21.4681 125.729 20.509 125.149 19.8226C124.55 19.1362 123.697 18.793 122.588 18.793C121.479 18.793 120.634 19.1362 120.054 19.8226C119.455 20.509 119.156 21.4681 119.156 22.7001C119.156 23.7737 119.455 24.636 120.054 25.2872ZM124.383 22.6209C124.383 23.9233 123.785 24.5744 122.588 24.5744C121.374 24.5744 120.766 23.9233 120.766 22.6209C120.766 21.8817 120.916 21.3449 121.215 21.0105C121.514 20.6586 121.972 20.4826 122.588 20.4826C123.204 20.4826 123.661 20.6586 123.961 21.0105C124.242 21.3449 124.383 21.8817 124.383 22.6209Z" fill="#67EEC7"/>
<path d="M128.818 210.972C129.399 211.624 130.244 211.949 131.352 211.949C132.461 211.949 133.306 211.624 133.887 210.972C134.468 210.321 134.758 209.459 134.758 208.385C134.758 207.153 134.468 206.203 133.887 205.534C133.306 204.848 132.461 204.505 131.352 204.505C130.226 204.505 129.373 204.848 128.792 205.534C128.211 206.203 127.921 207.153 127.921 208.385C127.921 209.459 128.22 210.321 128.818 210.972ZM121.558 204.742L129.716 220.898H132.408L124.251 204.742H121.558ZM133.121 208.306C133.121 209.626 132.532 210.286 131.352 210.286C130.138 210.286 129.531 209.626 129.531 208.306C129.531 207.567 129.68 207.03 129.98 206.696C130.261 206.344 130.719 206.168 131.352 206.168C131.951 206.168 132.4 206.344 132.699 206.696C132.98 207.048 133.121 207.584 133.121 208.306ZM120.054 220.186C120.634 220.837 121.479 221.162 122.588 221.162C123.697 221.162 124.55 220.837 125.149 220.186C125.729 219.534 126.02 218.672 126.02 217.599C126.02 216.367 125.729 215.407 125.149 214.721C124.55 214.035 123.697 213.691 122.588 213.691C121.479 213.691 120.634 214.035 120.054 214.721C119.455 215.407 119.156 216.367 119.156 217.599C119.156 218.672 119.455 219.534 120.054 220.186ZM124.383 217.519C124.383 218.822 123.785 219.473 122.588 219.473C121.374 219.473 120.766 218.822 120.766 217.519C120.766 216.78 120.916 216.243 121.215 215.909C121.514 215.557 121.972 215.381 122.588 215.381C123.204 215.381 123.661 215.557 123.961 215.909C124.242 216.243 124.383 216.78 124.383 217.519Z" fill="#67EEC7"/>
<path d="M121.113 75.4717C121.901 76.2781 123.072 76.8061 124.627 77.0556V79.3596H127.363V77.2284C129.168 77.1516 130.684 76.8541 131.913 76.3357V73.7437C131.145 74.0701 130.31 74.3293 129.408 74.5213C128.505 74.6941 127.632 74.7805 126.787 74.7805C124.291 74.7805 123.043 73.9357 123.043 72.2462C123.043 71.4782 123.36 70.883 123.993 70.4606C124.608 70.0383 125.702 69.6159 127.276 69.1935C128.544 68.8287 129.542 68.4351 130.271 68.0127C130.982 67.5711 131.491 67.0527 131.798 66.4576C132.105 65.8432 132.259 65.0656 132.259 64.1248C132.259 62.7425 131.855 61.6289 131.049 60.7841C130.223 59.9394 128.995 59.421 127.363 59.229V57.0114H124.627V59.2002C123.897 59.2386 123.196 59.3154 122.525 59.4306C121.833 59.5458 121.286 59.6802 120.883 59.8338V62.4257C122.285 61.8881 123.705 61.6193 125.145 61.6193C126.297 61.6193 127.248 61.7921 127.996 62.1377C128.745 62.4641 129.12 63.1169 129.12 64.096C129.12 64.7872 128.841 65.3248 128.284 65.7088C127.728 66.0928 126.72 66.4576 125.26 66.8032C123.84 67.1487 122.745 67.5711 121.977 68.0703C121.19 68.5503 120.653 69.1263 120.365 69.7983C120.057 70.451 119.904 71.2574 119.904 72.2174C119.904 73.5805 120.307 74.6653 121.113 75.4717Z" fill="#67EEC7"/>
</g>
<g opacity="0.2">
<path d="M94.4449 50.4492V47.7565L88.4787 40.6287L94.1809 34.1873V31.6002H81.0341V34.4249H87.4755C87.8275 34.4249 88.2499 34.4249 88.7427 34.4249C89.2179 34.4073 89.6578 34.3809 90.0626 34.3457L85.0732 40.0215V40.9191L90.7754 47.7037C90.1418 47.6685 89.5523 47.6421 89.0067 47.6245C88.4435 47.6069 87.8363 47.5981 87.1851 47.5981H80.7701V50.4492H94.4449Z" fill="#67EEC7"/>
<path d="M96.052 138.745H90.1361V133.003H86.517V138.745H80.6012V142.364H86.517V148.175H90.1361V142.364H96.052V138.745Z" fill="#67EEC7"/>
<path d="M90.0173 87.5231C90.5981 88.1743 91.4429 88.4999 92.5517 88.4999C93.6604 88.4999 94.5052 88.1743 95.086 87.5231C95.6668 86.8719 95.9572 86.0096 95.9572 84.936C95.9572 83.704 95.6668 82.7537 95.086 82.0849C94.5052 81.3985 93.6604 81.0553 92.5517 81.0553C91.4253 81.0553 90.5717 81.3985 89.9909 82.0849C89.4102 82.7537 89.1198 83.704 89.1198 84.936C89.1198 86.0096 89.419 86.8719 90.0173 87.5231ZM82.7576 81.2929L90.9149 97.4492H93.6076L85.4503 81.2929H82.7576ZM94.3204 84.8568C94.3204 86.1768 93.7308 86.8367 92.5517 86.8367C91.3373 86.8367 90.7301 86.1768 90.7301 84.8568C90.7301 84.1176 90.8797 83.5808 91.1789 83.2464C91.4605 82.8945 91.9181 82.7185 92.5517 82.7185C93.15 82.7185 93.5988 82.8945 93.898 83.2464C94.1796 83.5984 94.3204 84.1352 94.3204 84.8568ZM81.2528 96.7364C81.8336 97.3876 82.6784 97.7132 83.7871 97.7132C84.8959 97.7132 85.7495 97.3876 86.3478 96.7364C86.9286 96.0853 87.219 95.2229 87.219 94.1493C87.219 92.9174 86.9286 91.9582 86.3478 91.2718C85.7495 90.5854 84.8959 90.2422 83.7871 90.2422C82.6784 90.2422 81.8336 90.5854 81.2528 91.2718C80.6544 91.9582 80.3552 92.9174 80.3552 94.1493C80.3552 95.2229 80.6544 96.0853 81.2528 96.7364ZM85.5823 94.0701C85.5823 95.3725 84.9839 96.0237 83.7871 96.0237C82.5728 96.0237 81.9656 95.3725 81.9656 94.0701C81.9656 93.3309 82.1152 92.7942 82.4144 92.4598C82.7136 92.1078 83.1711 91.9318 83.7871 91.9318C84.4031 91.9318 84.8607 92.1078 85.1599 92.4598C85.4415 92.7942 85.5823 93.3309 85.5823 94.0701Z" fill="#67EEC7"/>
<path d="M82.713 193.923C83.5001 194.729 84.6713 195.257 86.2265 195.507V197.811H88.9624V195.68C90.7671 195.603 92.2839 195.305 93.5126 194.787V192.195C92.7447 192.521 91.9095 192.78 91.0071 192.972C90.1047 193.145 89.2312 193.232 88.3864 193.232C85.8905 193.232 84.6425 192.387 84.6425 190.697C84.6425 189.929 84.9593 189.334 85.5929 188.912C86.2073 188.489 87.3016 188.067 88.876 187.645C90.1431 187.28 91.1415 186.886 91.8711 186.464C92.5815 186.022 93.0903 185.504 93.3975 184.909C93.7046 184.294 93.8582 183.517 93.8582 182.576C93.8582 181.194 93.455 180.08 92.6487 179.235C91.8231 178.391 90.5943 177.872 88.9624 177.68V175.463H86.2265V177.651C85.4969 177.69 84.7961 177.767 84.1241 177.882C83.4329 177.997 82.8858 178.131 82.4826 178.285V180.877C83.8841 180.339 85.3049 180.07 86.7448 180.07C87.8968 180.07 88.8472 180.243 89.596 180.589C90.3447 180.915 90.7191 181.568 90.7191 182.547C90.7191 183.238 90.4407 183.776 89.884 184.16C89.3272 184.544 88.3192 184.909 86.86 185.254C85.4393 185.6 84.3449 186.022 83.5769 186.521C82.7898 187.001 82.2522 187.577 81.9642 188.249C81.657 188.902 81.5034 189.709 81.5034 190.669C81.5034 192.032 81.9066 193.116 82.713 193.923Z" fill="#67EEC7"/>
</g>
<g opacity="0.1">
<path d="M54.8453 175.197V172.505L48.8791 165.377L54.5813 158.935V156.348H41.4345V159.173H47.8759C48.2279 159.173 48.6503 159.173 49.1431 159.173C49.6183 159.155 50.0582 159.129 50.463 159.094L45.4736 164.77V165.667L51.1758 172.452C50.5422 172.417 49.9526 172.39 49.4071 172.373C48.8439 172.355 48.2367 172.346 47.5855 172.346H41.1705V175.197H54.8453Z" fill="#67EEC7"/>
<path d="M57.052 116.192H51.1361V110.45H47.517V116.192H41.6012V119.811H47.517V125.622H51.1361V119.811H57.052V116.192Z" fill="#67EEC7"/>
<path d="M50.8181 16.0739C51.3989 16.7251 52.2437 17.0507 53.3524 17.0507C54.4612 17.0507 55.306 16.7251 55.8868 16.0739C56.4676 15.4227 56.7579 14.5603 56.7579 13.4868C56.7579 12.2548 56.4676 11.3044 55.8868 10.6357C55.306 9.94928 54.4612 9.60609 53.3524 9.60609C52.2261 9.60609 51.3725 9.94928 50.7917 10.6357C50.2109 11.3044 49.9205 12.2548 49.9205 13.4868C49.9205 14.5603 50.2197 15.4227 50.8181 16.0739ZM43.5583 9.84368L51.7157 26H54.4084L46.2511 9.84368H43.5583ZM55.1212 13.4076C55.1212 14.7275 54.5316 15.3875 53.3524 15.3875C52.1381 15.3875 51.5309 14.7275 51.5309 13.4076C51.5309 12.6684 51.6805 12.1316 51.9797 11.7972C52.2613 11.4452 52.7189 11.2692 53.3524 11.2692C53.9508 11.2692 54.3996 11.4452 54.6988 11.7972C54.9804 12.1492 55.1212 12.686 55.1212 13.4076ZM42.0536 25.2872C42.6344 25.9384 43.4791 26.264 44.5879 26.264C45.6967 26.264 46.5502 25.9384 47.1486 25.2872C47.7294 24.636 48.0198 23.7737 48.0198 22.7001C48.0198 21.4681 47.7294 20.509 47.1486 19.8226C46.5502 19.1362 45.6967 18.793 44.5879 18.793C43.4791 18.793 42.6344 19.1362 42.0536 19.8226C41.4552 20.509 41.156 21.4681 41.156 22.7001C41.156 23.7737 41.4552 24.636 42.0536 25.2872ZM46.3831 22.6209C46.3831 23.9233 45.7847 24.5744 44.5879 24.5744C43.3735 24.5744 42.7664 23.9233 42.7664 22.6209C42.7664 21.8817 42.916 21.3449 43.2151 21.0105C43.5143 20.6586 43.9719 20.4826 44.5879 20.4826C45.2039 20.4826 45.6615 20.6586 45.9607 21.0105C46.2423 21.3449 46.3831 21.8817 46.3831 22.6209Z" fill="#67EEC7"/>
<path d="M50.8181 210.972C51.3989 211.624 52.2437 211.949 53.3524 211.949C54.4612 211.949 55.306 211.624 55.8868 210.972C56.4676 210.321 56.7579 209.459 56.7579 208.385C56.7579 207.153 56.4676 206.203 55.8868 205.534C55.306 204.848 54.4612 204.505 53.3524 204.505C52.2261 204.505 51.3725 204.848 50.7917 205.534C50.2109 206.203 49.9205 207.153 49.9205 208.385C49.9205 209.459 50.2197 210.321 50.8181 210.972ZM43.5583 204.742L51.7157 220.898H54.4084L46.2511 204.742H43.5583ZM55.1212 208.306C55.1212 209.626 54.5316 210.286 53.3524 210.286C52.1381 210.286 51.5309 209.626 51.5309 208.306C51.5309 207.567 51.6805 207.03 51.9797 206.696C52.2613 206.344 52.7189 206.168 53.3524 206.168C53.9508 206.168 54.3996 206.344 54.6988 206.696C54.9804 207.048 55.1212 207.584 55.1212 208.306ZM42.0536 220.186C42.6344 220.837 43.4791 221.162 44.5879 221.162C45.6967 221.162 46.5502 220.837 47.1486 220.186C47.7294 219.534 48.0198 218.672 48.0198 217.599C48.0198 216.367 47.7294 215.407 47.1486 214.721C46.5502 214.035 45.6967 213.691 44.5879 213.691C43.4791 213.691 42.6344 214.035 42.0536 214.721C41.4552 215.407 41.156 216.367 41.156 217.599C41.156 218.672 41.4552 219.534 42.0536 220.186ZM46.3831 217.519C46.3831 218.822 45.7847 219.473 44.5879 219.473C43.3735 219.473 42.7664 218.822 42.7664 217.519C42.7664 216.78 42.916 216.243 43.2151 215.909C43.5143 215.557 43.9719 215.381 44.5879 215.381C45.2039 215.381 45.6615 215.557 45.9607 215.909C46.2423 216.243 46.3831 216.78 46.3831 217.519Z" fill="#67EEC7"/>
<path d="M43.1134 75.4717C43.9005 76.2781 45.0717 76.8061 46.6269 77.0556V79.3596H49.3628V77.2284C51.1675 77.1516 52.6843 76.8541 53.913 76.3357V73.7437C53.1451 74.0701 52.3099 74.3293 51.4075 74.5213C50.5051 74.6941 49.6316 74.7805 48.7868 74.7805C46.2909 74.7805 45.0429 73.9357 45.0429 72.2462C45.0429 71.4782 45.3597 70.883 45.9933 70.4606C46.6077 70.0383 47.702 69.6159 49.2764 69.1935C50.5435 68.8287 51.5419 68.4351 52.2715 68.0127C52.9819 67.5711 53.4907 67.0527 53.7978 66.4576C54.105 65.8432 54.2586 65.0656 54.2586 64.1248C54.2586 62.7425 53.8554 61.6289 53.0491 60.7841C52.2235 59.9394 50.9947 59.421 49.3628 59.229V57.0114H46.6269V59.2002C45.8973 59.2386 45.1965 59.3154 44.5245 59.4306C43.8333 59.5458 43.2862 59.6802 42.883 59.8338V62.4257C44.2845 61.8881 45.7053 61.6193 47.1452 61.6193C48.2972 61.6193 49.2476 61.7921 49.9964 62.1377C50.7451 62.4641 51.1195 63.1169 51.1195 64.096C51.1195 64.7872 50.8411 65.3248 50.2843 65.7088C49.7276 66.0928 48.7196 66.4576 47.2604 66.8032C45.8397 67.1487 44.7453 67.5711 43.9773 68.0703C43.1902 68.5503 42.6526 69.1263 42.3646 69.7983C42.0574 70.451 41.9038 71.2574 41.9038 72.2174C41.9038 73.5805 42.307 74.6653 43.1134 75.4717Z" fill="#67EEC7"/>
</g>
<g opacity="0.05">
<path d="M16.4449 50.4492V47.7565L10.4787 40.6287L16.1809 34.1873V31.6002H3.03411V34.4249H9.47551C9.8275 34.4249 10.2499 34.4249 10.7427 34.4249C11.2179 34.4073 11.6578 34.3809 12.0626 34.3457L7.07319 40.0215V40.9191L12.7754 47.7037C12.1418 47.6685 11.5523 47.6421 11.0067 47.6245C10.4435 47.6069 9.8363 47.5981 9.18512 47.5981H2.77011V50.4492H16.4449Z" fill="#67EEC7"/>
<path d="M18.052 138.745H12.1361V133.003H8.51705V138.745H2.60122V142.364H8.51705V148.175H12.1361V142.364H18.052V138.745Z" fill="#67EEC7"/>
<path d="M12.0173 87.5231C12.5981 88.1743 13.4429 88.4999 14.5517 88.4999C15.6604 88.4999 16.5052 88.1743 17.086 87.5231C17.6668 86.8719 17.9572 86.0096 17.9572 84.936C17.9572 83.704 17.6668 82.7537 17.086 82.0849C16.5052 81.3985 15.6604 81.0553 14.5517 81.0553C13.4253 81.0553 12.5717 81.3985 11.9909 82.0849C11.4102 82.7537 11.1198 83.704 11.1198 84.936C11.1198 86.0096 11.419 86.8719 12.0173 87.5231ZM4.75756 81.2929L12.9149 97.4492H15.6076L7.45028 81.2929H4.75756ZM16.3204 84.8568C16.3204 86.1768 15.7308 86.8367 14.5517 86.8367C13.3373 86.8367 12.7301 86.1768 12.7301 84.8568C12.7301 84.1176 12.8797 83.5808 13.1789 83.2464C13.4605 82.8945 13.9181 82.7185 14.5517 82.7185C15.15 82.7185 15.5988 82.8945 15.898 83.2464C16.1796 83.5984 16.3204 84.1352 16.3204 84.8568ZM3.2528 96.7364C3.83358 97.3876 4.67836 97.7132 5.78713 97.7132C6.89589 97.7132 7.74947 97.3876 8.34785 96.7364C8.92863 96.0853 9.21902 95.2229 9.21902 94.1493C9.21902 92.9174 8.92863 91.9582 8.34785 91.2718C7.74947 90.5854 6.89589 90.2422 5.78713 90.2422C4.67836 90.2422 3.83358 90.5854 3.2528 91.2718C2.65442 91.9582 2.35523 92.9174 2.35523 94.1493C2.35523 95.2229 2.65442 96.0853 3.2528 96.7364ZM7.58227 94.0701C7.58227 95.3725 6.98389 96.0237 5.78713 96.0237C4.57276 96.0237 3.96558 95.3725 3.96558 94.0701C3.96558 93.3309 4.11518 92.7942 4.41437 92.4598C4.71356 92.1078 5.17114 91.9318 5.78713 91.9318C6.40311 91.9318 6.86069 92.1078 7.15988 92.4598C7.44148 92.7942 7.58227 93.3309 7.58227 94.0701Z" fill="#67EEC7"/>
<path d="M4.71297 193.923C5.50014 194.729 6.67131 195.257 8.22646 195.507V197.811H10.9624V195.68C12.7671 195.603 14.2839 195.305 15.5126 194.787V192.195C14.7447 192.521 13.9095 192.78 13.0071 192.972C12.1047 193.145 11.2312 193.232 10.3864 193.232C7.89047 193.232 6.64251 192.387 6.64251 190.697C6.64251 189.929 6.9593 189.334 7.59288 188.912C8.20726 188.489 9.30163 188.067 10.876 187.645C12.1431 187.28 13.1415 186.886 13.8711 186.464C14.5815 186.022 15.0903 185.504 15.3975 184.909C15.7046 184.294 15.8582 183.517 15.8582 182.576C15.8582 181.194 15.455 180.08 14.6487 179.235C13.8231 178.391 12.5943 177.872 10.9624 177.68V175.463H8.22646V177.651C7.49689 177.69 6.79611 177.767 6.12413 177.882C5.43295 177.997 4.88576 178.131 4.48258 178.285V180.877C5.88413 180.339 7.30489 180.07 8.74485 180.07C9.89681 180.07 10.8472 180.243 11.596 180.589C12.3447 180.915 12.7191 181.568 12.7191 182.547C12.7191 183.238 12.4407 183.776 11.884 184.16C11.3272 184.544 10.3192 184.909 8.86004 185.254C7.43929 185.6 6.34492 186.022 5.57694 186.521C4.78977 187.001 4.25218 187.577 3.96419 188.249C3.657 188.902 3.5034 189.709 3.5034 190.669C3.5034 192.032 3.90659 193.116 4.71297 193.923Z" fill="#67EEC7"/>
</g>
</g>
</svg>
