<svg width="216" height="236" viewBox="0 0 216 236" fill="none" xmlns="http://www.w3.org/2000/svg">
<g opacity="0.15">
<g opacity="0.7">
<path d="M5.1547 175.197V172.505L11.1209 165.377L5.4187 158.935V156.348H18.5655V159.173H12.1241C11.7721 159.173 11.3497 159.173 10.8569 159.173C10.3817 159.155 9.94176 159.129 9.53697 159.094L14.5264 164.77V165.667L8.82419 172.452C9.45777 172.417 10.0474 172.39 10.5929 172.373C11.1561 172.355 11.7633 172.346 12.4145 172.346H18.8295V175.197H5.1547Z" fill="#C6D2F7"/>
<path d="M2.94804 116.192H8.86386V110.45H12.483V116.192H18.3988V119.811H12.483V125.622H8.86386V119.811H2.94804V116.192Z" fill="#C6D2F7"/>
<path d="M9.18188 16.0739C8.6011 16.7251 7.75632 17.0507 6.64755 17.0507C5.53879 17.0507 4.69401 16.7251 4.11323 16.0739C3.53245 15.4227 3.24206 14.5603 3.24206 13.4868C3.24206 12.2548 3.53245 11.3044 4.11323 10.6357C4.69401 9.94928 5.53879 9.60609 6.64755 9.60609C7.77392 9.60609 8.6275 9.94928 9.20828 10.6357C9.78906 11.3044 10.0795 12.2548 10.0795 13.4868C10.0795 14.5603 9.78026 15.4227 9.18188 16.0739ZM16.4417 9.84368L8.28431 26H5.59159L13.7489 9.84368H16.4417ZM4.87881 13.4076C4.87881 14.7275 5.46839 15.3875 6.64755 15.3875C7.86192 15.3875 8.4691 14.7275 8.4691 13.4076C8.4691 12.6684 8.3195 12.1316 8.02031 11.7972C7.73872 11.4452 7.28114 11.2692 6.64755 11.2692C6.04917 11.2692 5.60039 11.4452 5.30119 11.7972C5.0196 12.1492 4.87881 12.686 4.87881 13.4076ZM17.9464 25.2872C17.3656 25.9384 16.5209 26.264 15.4121 26.264C14.3033 26.264 13.4498 25.9384 12.8514 25.2872C12.2706 24.636 11.9802 23.7737 11.9802 22.7001C11.9802 21.4681 12.2706 20.509 12.8514 19.8226C13.4498 19.1362 14.3033 18.793 15.4121 18.793C16.5209 18.793 17.3656 19.1362 17.9464 19.8226C18.5448 20.509 18.844 21.4681 18.844 22.7001C18.844 23.7737 18.5448 24.636 17.9464 25.2872ZM13.6169 22.6209C13.6169 23.9233 14.2153 24.5744 15.4121 24.5744C16.6265 24.5744 17.2336 23.9233 17.2336 22.6209C17.2336 21.8817 17.084 21.3449 16.7849 21.0105C16.4857 20.6586 16.0281 20.4826 15.4121 20.4826C14.7961 20.4826 14.3385 20.6586 14.0393 21.0105C13.7577 21.3449 13.6169 21.8817 13.6169 22.6209Z" fill="#C6D2F7"/>
<path d="M9.18188 210.972C8.6011 211.624 7.75632 211.949 6.64755 211.949C5.53879 211.949 4.69401 211.624 4.11323 210.972C3.53245 210.321 3.24206 209.459 3.24206 208.385C3.24206 207.153 3.53245 206.203 4.11323 205.534C4.69401 204.848 5.53879 204.505 6.64755 204.505C7.77392 204.505 8.6275 204.848 9.20828 205.534C9.78906 206.203 10.0795 207.153 10.0795 208.385C10.0795 209.459 9.78026 210.321 9.18188 210.972ZM16.4417 204.742L8.28431 220.898H5.59159L13.7489 204.742H16.4417ZM4.87881 208.306C4.87881 209.626 5.46839 210.286 6.64755 210.286C7.86192 210.286 8.4691 209.626 8.4691 208.306C8.4691 207.567 8.3195 207.03 8.02031 206.696C7.73872 206.344 7.28114 206.168 6.64755 206.168C6.04917 206.168 5.60039 206.344 5.30119 206.696C5.0196 207.048 4.87881 207.584 4.87881 208.306ZM17.9464 220.186C17.3656 220.837 16.5209 221.162 15.4121 221.162C14.3033 221.162 13.4498 220.837 12.8514 220.186C12.2706 219.534 11.9802 218.672 11.9802 217.599C11.9802 216.367 12.2706 215.407 12.8514 214.721C13.4498 214.035 14.3033 213.691 15.4121 213.691C16.5209 213.691 17.3656 214.035 17.9464 214.721C18.5448 215.407 18.844 216.367 18.844 217.599C18.844 218.672 18.5448 219.534 17.9464 220.186ZM13.6169 217.519C13.6169 218.822 14.2153 219.473 15.4121 219.473C16.6265 219.473 17.2336 218.822 17.2336 217.519C17.2336 216.78 17.084 216.243 16.7849 215.909C16.4857 215.557 16.0281 215.381 15.4121 215.381C14.7961 215.381 14.3385 215.557 14.0393 215.909C13.7577 216.243 13.6169 216.78 13.6169 217.519Z" fill="#C6D2F7"/>
<path d="M16.8866 75.4717C16.0995 76.2781 14.9283 76.8061 13.3731 77.0556V79.3596H10.6372V77.2284C8.83248 77.1516 7.31573 76.8541 6.08696 76.3357V73.7437C6.85494 74.0701 7.69011 74.3293 8.59249 74.5213C9.49486 74.6941 10.3684 74.7805 11.2132 74.7805C13.7091 74.7805 14.9571 73.9357 14.9571 72.2462C14.9571 71.4782 14.6403 70.883 14.0067 70.4606C13.3923 70.0383 12.298 69.6159 10.7236 69.1935C9.45646 68.8287 8.45809 68.4351 7.72851 68.0127C7.01813 67.5711 6.50935 67.0527 6.20216 66.4576C5.89497 65.8432 5.74137 65.0656 5.74137 64.1248C5.74137 62.7425 6.14456 61.6289 6.95094 60.7841C7.77651 59.9394 9.00528 59.421 10.6372 59.229V57.0114H13.3731V59.2002C14.1027 59.2386 14.8035 59.3154 15.4755 59.4306C16.1667 59.5458 16.7138 59.6802 17.117 59.8338V62.4257C15.7155 61.8881 14.2947 61.6193 12.8548 61.6193C11.7028 61.6193 10.7524 61.7921 10.0036 62.1377C9.25487 62.4641 8.88048 63.1169 8.88048 64.096C8.88048 64.7872 9.15887 65.3248 9.71565 65.7088C10.2724 66.0928 11.2804 66.4576 12.7396 66.8032C14.1603 67.1487 15.2547 67.5711 16.0227 68.0703C16.8098 68.5503 17.3474 69.1263 17.6354 69.7983C17.9426 70.451 18.0962 71.2574 18.0962 72.2174C18.0962 73.5805 17.693 74.6653 16.8866 75.4717Z" fill="#C6D2F7"/>
</g>
<g opacity="0.7">
<path d="M43.5551 50.4492V47.7565L49.5213 40.6287L43.8191 34.1873V31.6002H56.9659V34.4249H50.5245C50.1725 34.4249 49.7501 34.4249 49.2573 34.4249C48.7821 34.4073 48.3422 34.3809 47.9374 34.3457L52.9268 40.0215V40.9191L47.2246 47.7037C47.8582 47.6685 48.4477 47.6421 48.9933 47.6245C49.5565 47.6069 50.1637 47.5981 50.8149 47.5981H57.2299V50.4492H43.5551Z" fill="#C6D2F7"/>
<path d="M41.948 138.745H47.8639V133.003H51.483V138.745H57.3988V142.364H51.483V148.175H47.8639V142.364H41.948V138.745Z" fill="#C6D2F7"/>
<path d="M47.9827 87.5231C47.4019 88.1743 46.5571 88.4999 45.4483 88.4999C44.3396 88.4999 43.4948 88.1743 42.914 87.5231C42.3332 86.8719 42.0428 86.0096 42.0428 84.936C42.0428 83.704 42.3332 82.7537 42.914 82.0849C43.4948 81.3985 44.3396 81.0553 45.4483 81.0553C46.5747 81.0553 47.4283 81.3985 48.0091 82.0849C48.5898 82.7537 48.8802 83.704 48.8802 84.936C48.8802 86.0096 48.581 86.8719 47.9827 87.5231ZM55.2424 81.2929L47.0851 97.4492H44.3924L52.5497 81.2929H55.2424ZM43.6796 84.8568C43.6796 86.1768 44.2692 86.8367 45.4483 86.8367C46.6627 86.8367 47.2699 86.1768 47.2699 84.8568C47.2699 84.1176 47.1203 83.5808 46.8211 83.2464C46.5395 82.8945 46.0819 82.7185 45.4483 82.7185C44.85 82.7185 44.4012 82.8945 44.102 83.2464C43.8204 83.5984 43.6796 84.1352 43.6796 84.8568ZM56.7472 96.7364C56.1664 97.3876 55.3216 97.7132 54.2129 97.7132C53.1041 97.7132 52.2505 97.3876 51.6522 96.7364C51.0714 96.0853 50.781 95.2229 50.781 94.1493C50.781 92.9174 51.0714 91.9582 51.6522 91.2718C52.2505 90.5854 53.1041 90.2422 54.2129 90.2422C55.3216 90.2422 56.1664 90.5854 56.7472 91.2718C57.3456 91.9582 57.6448 92.9174 57.6448 94.1493C57.6448 95.2229 57.3456 96.0853 56.7472 96.7364ZM52.4177 94.0701C52.4177 95.3725 53.0161 96.0237 54.2129 96.0237C55.4272 96.0237 56.0344 95.3725 56.0344 94.0701C56.0344 93.3309 55.8848 92.7942 55.5856 92.4598C55.2864 92.1078 54.8289 91.9318 54.2129 91.9318C53.5969 91.9318 53.1393 92.1078 52.8401 92.4598C52.5585 92.7942 52.4177 93.3309 52.4177 94.0701Z" fill="#C6D2F7"/>
<path d="M55.287 193.923C54.4999 194.729 53.3287 195.257 51.7735 195.507V197.811H49.0376V195.68C47.2329 195.603 45.7161 195.305 44.4874 194.787V192.195C45.2553 192.521 46.0905 192.78 46.9929 192.972C47.8953 193.145 48.7688 193.232 49.6136 193.232C52.1095 193.232 53.3575 192.387 53.3575 190.697C53.3575 189.929 53.0407 189.334 52.4071 188.912C51.7927 188.489 50.6984 188.067 49.124 187.645C47.8569 187.28 46.8585 186.886 46.1289 186.464C45.4185 186.022 44.9097 185.504 44.6025 184.909C44.2954 184.294 44.1418 183.517 44.1418 182.576C44.1418 181.194 44.545 180.08 45.3513 179.235C46.1769 178.391 47.4057 177.872 49.0376 177.68V175.463H51.7735V177.651C52.5031 177.69 53.2039 177.767 53.8759 177.882C54.5671 177.997 55.1142 178.131 55.5174 178.285V180.877C54.1159 180.339 52.6951 180.07 51.2552 180.07C50.1032 180.07 49.1528 180.243 48.404 180.589C47.6553 180.915 47.2809 181.568 47.2809 182.547C47.2809 183.238 47.5593 183.776 48.116 184.16C48.6728 184.544 49.6808 184.909 51.14 185.254C52.5607 185.6 53.6551 186.022 54.4231 186.521C55.2102 187.001 55.7478 187.577 56.0358 188.249C56.343 188.902 56.4966 189.709 56.4966 190.669C56.4966 192.032 56.0934 193.116 55.287 193.923Z" fill="#C6D2F7"/>
</g>
<g opacity="0.5">
<path d="M83.1547 175.197V172.505L89.1209 165.377L83.4187 158.935V156.348H96.5655V159.173H90.1241C89.7721 159.173 89.3497 159.173 88.8569 159.173C88.3817 159.155 87.9418 159.129 87.537 159.094L92.5264 164.77V165.667L86.8242 172.452C87.4578 172.417 88.0474 172.39 88.5929 172.373C89.1561 172.355 89.7633 172.346 90.4145 172.346H96.8295V175.197H83.1547Z" fill="#67EEC7"/>
<path d="M80.948 116.192H86.8639V110.45H90.483V116.192H96.3988V119.811H90.483V125.622H86.8639V119.811H80.948V116.192Z" fill="#67EEC7"/>
<path d="M87.1819 16.0739C86.6011 16.7251 85.7563 17.0507 84.6476 17.0507C83.5388 17.0507 82.694 16.7251 82.1132 16.0739C81.5324 15.4227 81.2421 14.5603 81.2421 13.4868C81.2421 12.2548 81.5324 11.3044 82.1132 10.6357C82.694 9.94928 83.5388 9.60609 84.6476 9.60609C85.7739 9.60609 86.6275 9.94928 87.2083 10.6357C87.7891 11.3044 88.0795 12.2548 88.0795 13.4868C88.0795 14.5603 87.7803 15.4227 87.1819 16.0739ZM94.4417 9.84368L86.2843 26H83.5916L91.7489 9.84368H94.4417ZM82.8788 13.4076C82.8788 14.7275 83.4684 15.3875 84.6476 15.3875C85.8619 15.3875 86.4691 14.7275 86.4691 13.4076C86.4691 12.6684 86.3195 12.1316 86.0203 11.7972C85.7387 11.4452 85.2811 11.2692 84.6476 11.2692C84.0492 11.2692 83.6004 11.4452 83.3012 11.7972C83.0196 12.1492 82.8788 12.686 82.8788 13.4076ZM95.9464 25.2872C95.3656 25.9384 94.5209 26.264 93.4121 26.264C92.3033 26.264 91.4498 25.9384 90.8514 25.2872C90.2706 24.636 89.9802 23.7737 89.9802 22.7001C89.9802 21.4681 90.2706 20.509 90.8514 19.8226C91.4498 19.1362 92.3033 18.793 93.4121 18.793C94.5209 18.793 95.3656 19.1362 95.9464 19.8226C96.5448 20.509 96.844 21.4681 96.844 22.7001C96.844 23.7737 96.5448 24.636 95.9464 25.2872ZM91.6169 22.6209C91.6169 23.9233 92.2153 24.5744 93.4121 24.5744C94.6265 24.5744 95.2336 23.9233 95.2336 22.6209C95.2336 21.8817 95.084 21.3449 94.7849 21.0105C94.4857 20.6586 94.0281 20.4826 93.4121 20.4826C92.7961 20.4826 92.3385 20.6586 92.0393 21.0105C91.7577 21.3449 91.6169 21.8817 91.6169 22.6209Z" fill="#67EEC7"/>
<path d="M87.1819 210.972C86.6011 211.624 85.7563 211.949 84.6476 211.949C83.5388 211.949 82.694 211.624 82.1132 210.972C81.5324 210.321 81.2421 209.459 81.2421 208.385C81.2421 207.153 81.5324 206.203 82.1132 205.534C82.694 204.848 83.5388 204.505 84.6476 204.505C85.7739 204.505 86.6275 204.848 87.2083 205.534C87.7891 206.203 88.0795 207.153 88.0795 208.385C88.0795 209.459 87.7803 210.321 87.1819 210.972ZM94.4417 204.742L86.2843 220.898H83.5916L91.7489 204.742H94.4417ZM82.8788 208.306C82.8788 209.626 83.4684 210.286 84.6476 210.286C85.8619 210.286 86.4691 209.626 86.4691 208.306C86.4691 207.567 86.3195 207.03 86.0203 206.696C85.7387 206.344 85.2811 206.168 84.6476 206.168C84.0492 206.168 83.6004 206.344 83.3012 206.696C83.0196 207.048 82.8788 207.584 82.8788 208.306ZM95.9464 220.186C95.3656 220.837 94.5209 221.162 93.4121 221.162C92.3033 221.162 91.4498 220.837 90.8514 220.186C90.2706 219.534 89.9802 218.672 89.9802 217.599C89.9802 216.367 90.2706 215.407 90.8514 214.721C91.4498 214.035 92.3033 213.691 93.4121 213.691C94.5209 213.691 95.3656 214.035 95.9464 214.721C96.5448 215.407 96.844 216.367 96.844 217.599C96.844 218.672 96.5448 219.534 95.9464 220.186ZM91.6169 217.519C91.6169 218.822 92.2153 219.473 93.4121 219.473C94.6265 219.473 95.2336 218.822 95.2336 217.519C95.2336 216.78 95.084 216.243 94.7849 215.909C94.4857 215.557 94.0281 215.381 93.4121 215.381C92.7961 215.381 92.3385 215.557 92.0393 215.909C91.7577 216.243 91.6169 216.78 91.6169 217.519Z" fill="#67EEC7"/>
<path d="M94.8866 75.4717C94.0995 76.2781 92.9283 76.8061 91.3731 77.0556V79.3596H88.6372V77.2284C86.8325 77.1516 85.3157 76.8541 84.087 76.3357V73.7437C84.8549 74.0701 85.6901 74.3293 86.5925 74.5213C87.4949 74.6941 88.3684 74.7805 89.2132 74.7805C91.7091 74.7805 92.9571 73.9357 92.9571 72.2462C92.9571 71.4782 92.6403 70.883 92.0067 70.4606C91.3923 70.0383 90.298 69.6159 88.7236 69.1935C87.4565 68.8287 86.4581 68.4351 85.7285 68.0127C85.0181 67.5711 84.5093 67.0527 84.2022 66.4576C83.895 65.8432 83.7414 65.0656 83.7414 64.1248C83.7414 62.7425 84.1446 61.6289 84.9509 60.7841C85.7765 59.9394 87.0053 59.421 88.6372 59.229V57.0114H91.3731V59.2002C92.1027 59.2386 92.8035 59.3154 93.4755 59.4306C94.1667 59.5458 94.7138 59.6802 95.117 59.8338V62.4257C93.7155 61.8881 92.2947 61.6193 90.8548 61.6193C89.7028 61.6193 88.7524 61.7921 88.0036 62.1377C87.2549 62.4641 86.8805 63.1169 86.8805 64.096C86.8805 64.7872 87.1589 65.3248 87.7157 65.7088C88.2724 66.0928 89.2804 66.4576 90.7396 66.8032C92.1603 67.1487 93.2547 67.5711 94.0227 68.0703C94.8098 68.5503 95.3474 69.1263 95.6354 69.7983C95.9426 70.451 96.0962 71.2574 96.0962 72.2174C96.0962 73.5805 95.693 74.6653 94.8866 75.4717Z" fill="#67EEC7"/>
</g>
<g opacity="0.2">
<path d="M121.555 50.4492V47.7565L127.521 40.6287L121.819 34.1873V31.6002H134.966V34.4249H128.524C128.172 34.4249 127.75 34.4249 127.257 34.4249C126.782 34.4073 126.342 34.3809 125.937 34.3457L130.927 40.0215V40.9191L125.225 47.7037C125.858 47.6685 126.448 47.6421 126.993 47.6245C127.557 47.6069 128.164 47.5981 128.815 47.5981H135.23V50.4492H121.555Z" fill="#67EEC7"/>
<path d="M119.948 138.745H125.864V133.003H129.483V138.745H135.399V142.364H129.483V148.175H125.864V142.364H119.948V138.745Z" fill="#67EEC7"/>
<path d="M125.983 87.5231C125.402 88.1743 124.557 88.4999 123.448 88.4999C122.34 88.4999 121.495 88.1743 120.914 87.5231C120.333 86.8719 120.043 86.0096 120.043 84.936C120.043 83.704 120.333 82.7537 120.914 82.0849C121.495 81.3985 122.34 81.0553 123.448 81.0553C124.575 81.0553 125.428 81.3985 126.009 82.0849C126.59 82.7537 126.88 83.704 126.88 84.936C126.88 86.0096 126.581 86.8719 125.983 87.5231ZM133.242 81.2929L125.085 97.4492H122.392L130.55 81.2929H133.242ZM121.68 84.8568C121.68 86.1768 122.269 86.8367 123.448 86.8367C124.663 86.8367 125.27 86.1768 125.27 84.8568C125.27 84.1176 125.12 83.5808 124.821 83.2464C124.54 82.8945 124.082 82.7185 123.448 82.7185C122.85 82.7185 122.401 82.8945 122.102 83.2464C121.82 83.5984 121.68 84.1352 121.68 84.8568ZM134.747 96.7364C134.166 97.3876 133.322 97.7132 132.213 97.7132C131.104 97.7132 130.251 97.3876 129.652 96.7364C129.071 96.0853 128.781 95.2229 128.781 94.1493C128.781 92.9174 129.071 91.9582 129.652 91.2718C130.251 90.5854 131.104 90.2422 132.213 90.2422C133.322 90.2422 134.166 90.5854 134.747 91.2718C135.346 91.9582 135.645 92.9174 135.645 94.1493C135.645 95.2229 135.346 96.0853 134.747 96.7364ZM130.418 94.0701C130.418 95.3725 131.016 96.0237 132.213 96.0237C133.427 96.0237 134.034 95.3725 134.034 94.0701C134.034 93.3309 133.885 92.7942 133.586 92.4598C133.286 92.1078 132.829 91.9318 132.213 91.9318C131.597 91.9318 131.139 92.1078 130.84 92.4598C130.559 92.7942 130.418 93.3309 130.418 94.0701Z" fill="#67EEC7"/>
<path d="M133.287 193.923C132.5 194.729 131.329 195.257 129.774 195.507V197.811H127.038V195.68C125.233 195.603 123.716 195.305 122.487 194.787V192.195C123.255 192.521 124.091 192.78 124.993 192.972C125.895 193.145 126.769 193.232 127.614 193.232C130.11 193.232 131.357 192.387 131.357 190.697C131.357 189.929 131.041 189.334 130.407 188.912C129.793 188.489 128.698 188.067 127.124 187.645C125.857 187.28 124.858 186.886 124.129 186.464C123.419 186.022 122.91 185.504 122.603 184.909C122.295 184.294 122.142 183.517 122.142 182.576C122.142 181.194 122.545 180.08 123.351 179.235C124.177 178.391 125.406 177.872 127.038 177.68V175.463H129.774V177.651C130.503 177.69 131.204 177.767 131.876 177.882C132.567 177.997 133.114 178.131 133.517 178.285V180.877C132.116 180.339 130.695 180.07 129.255 180.07C128.103 180.07 127.153 180.243 126.404 180.589C125.655 180.915 125.281 181.568 125.281 182.547C125.281 183.238 125.559 183.776 126.116 184.16C126.673 184.544 127.681 184.909 129.14 185.254C130.561 185.6 131.655 186.022 132.423 186.521C133.21 187.001 133.748 187.577 134.036 188.249C134.343 188.902 134.497 189.709 134.497 190.669C134.497 192.032 134.093 193.116 133.287 193.923Z" fill="#67EEC7"/>
</g>
<g opacity="0.1">
<path d="M161.155 175.197V172.505L167.121 165.377L161.419 158.935V156.348H174.566V159.173H168.124C167.772 159.173 167.35 159.173 166.857 159.173C166.382 159.155 165.942 159.129 165.537 159.094L170.526 164.77V165.667L164.824 172.452C165.458 172.417 166.047 172.39 166.593 172.373C167.156 172.355 167.763 172.346 168.414 172.346H174.829V175.197H161.155Z" fill="#67EEC7"/>
<path d="M158.948 116.192H164.864V110.45H168.483V116.192H174.399V119.811H168.483V125.622H164.864V119.811H158.948V116.192Z" fill="#67EEC7"/>
<path d="M165.182 16.0739C164.601 16.7251 163.756 17.0507 162.648 17.0507C161.539 17.0507 160.694 16.7251 160.113 16.0739C159.532 15.4227 159.242 14.5603 159.242 13.4868C159.242 12.2548 159.532 11.3044 160.113 10.6357C160.694 9.94928 161.539 9.60609 162.648 9.60609C163.774 9.60609 164.627 9.94928 165.208 10.6357C165.789 11.3044 166.079 12.2548 166.079 13.4868C166.079 14.5603 165.78 15.4227 165.182 16.0739ZM172.442 9.84368L164.284 26H161.592L169.749 9.84368H172.442ZM160.879 13.4076C160.879 14.7275 161.468 15.3875 162.648 15.3875C163.862 15.3875 164.469 14.7275 164.469 13.4076C164.469 12.6684 164.32 12.1316 164.02 11.7972C163.739 11.4452 163.281 11.2692 162.648 11.2692C162.049 11.2692 161.6 11.4452 161.301 11.7972C161.02 12.1492 160.879 12.686 160.879 13.4076ZM173.946 25.2872C173.366 25.9384 172.521 26.264 171.412 26.264C170.303 26.264 169.45 25.9384 168.851 25.2872C168.271 24.636 167.98 23.7737 167.98 22.7001C167.98 21.4681 168.271 20.509 168.851 19.8226C169.45 19.1362 170.303 18.793 171.412 18.793C172.521 18.793 173.366 19.1362 173.946 19.8226C174.545 20.509 174.844 21.4681 174.844 22.7001C174.844 23.7737 174.545 24.636 173.946 25.2872ZM169.617 22.6209C169.617 23.9233 170.215 24.5744 171.412 24.5744C172.626 24.5744 173.234 23.9233 173.234 22.6209C173.234 21.8817 173.084 21.3449 172.785 21.0105C172.486 20.6586 172.028 20.4826 171.412 20.4826C170.796 20.4826 170.339 20.6586 170.039 21.0105C169.758 21.3449 169.617 21.8817 169.617 22.6209Z" fill="#67EEC7"/>
<path d="M165.182 210.972C164.601 211.624 163.756 211.949 162.648 211.949C161.539 211.949 160.694 211.624 160.113 210.972C159.532 210.321 159.242 209.459 159.242 208.385C159.242 207.153 159.532 206.203 160.113 205.534C160.694 204.848 161.539 204.505 162.648 204.505C163.774 204.505 164.627 204.848 165.208 205.534C165.789 206.203 166.079 207.153 166.079 208.385C166.079 209.459 165.78 210.321 165.182 210.972ZM172.442 204.742L164.284 220.898H161.592L169.749 204.742H172.442ZM160.879 208.306C160.879 209.626 161.468 210.286 162.648 210.286C163.862 210.286 164.469 209.626 164.469 208.306C164.469 207.567 164.32 207.03 164.02 206.696C163.739 206.344 163.281 206.168 162.648 206.168C162.049 206.168 161.6 206.344 161.301 206.696C161.02 207.048 160.879 207.584 160.879 208.306ZM173.946 220.186C173.366 220.837 172.521 221.162 171.412 221.162C170.303 221.162 169.45 220.837 168.851 220.186C168.271 219.534 167.98 218.672 167.98 217.599C167.98 216.367 168.271 215.407 168.851 214.721C169.45 214.035 170.303 213.691 171.412 213.691C172.521 213.691 173.366 214.035 173.946 214.721C174.545 215.407 174.844 216.367 174.844 217.599C174.844 218.672 174.545 219.534 173.946 220.186ZM169.617 217.519C169.617 218.822 170.215 219.473 171.412 219.473C172.626 219.473 173.234 218.822 173.234 217.519C173.234 216.78 173.084 216.243 172.785 215.909C172.486 215.557 172.028 215.381 171.412 215.381C170.796 215.381 170.339 215.557 170.039 215.909C169.758 216.243 169.617 216.78 169.617 217.519Z" fill="#67EEC7"/>
<path d="M172.887 75.4717C172.099 76.2781 170.928 76.8061 169.373 77.0556V79.3596H166.637V77.2284C164.832 77.1516 163.316 76.8541 162.087 76.3357V73.7437C162.855 74.0701 163.69 74.3293 164.592 74.5213C165.495 74.6941 166.368 74.7805 167.213 74.7805C169.709 74.7805 170.957 73.9357 170.957 72.2462C170.957 71.4782 170.64 70.883 170.007 70.4606C169.392 70.0383 168.298 69.6159 166.724 69.1935C165.456 68.8287 164.458 68.4351 163.729 68.0127C163.018 67.5711 162.509 67.0527 162.202 66.4576C161.895 65.8432 161.741 65.0656 161.741 64.1248C161.741 62.7425 162.145 61.6289 162.951 60.7841C163.777 59.9394 165.005 59.421 166.637 59.229V57.0114H169.373V59.2002C170.103 59.2386 170.804 59.3154 171.475 59.4306C172.167 59.5458 172.714 59.6802 173.117 59.8338V62.4257C171.715 61.8881 170.295 61.6193 168.855 61.6193C167.703 61.6193 166.752 61.7921 166.004 62.1377C165.255 62.4641 164.88 63.1169 164.88 64.096C164.88 64.7872 165.159 65.3248 165.716 65.7088C166.272 66.0928 167.28 66.4576 168.74 66.8032C170.16 67.1487 171.255 67.5711 172.023 68.0703C172.81 68.5503 173.347 69.1263 173.635 69.7983C173.943 70.451 174.096 71.2574 174.096 72.2174C174.096 73.5805 173.693 74.6653 172.887 75.4717Z" fill="#67EEC7"/>
</g>
<g opacity="0.05">
<path d="M199.555 50.4492V47.7565L205.521 40.6287L199.819 34.1873V31.6002H212.966V34.4249H206.524C206.172 34.4249 205.75 34.4249 205.257 34.4249C204.782 34.4073 204.342 34.3809 203.937 34.3457L208.927 40.0215V40.9191L203.225 47.7037C203.858 47.6685 204.448 47.6421 204.993 47.6245C205.557 47.6069 206.164 47.5981 206.815 47.5981H213.23V50.4492H199.555Z" fill="#67EEC7"/>
<path d="M197.948 138.745H203.864V133.003H207.483V138.745H213.399V142.364H207.483V148.175H203.864V142.364H197.948V138.745Z" fill="#67EEC7"/>
<path d="M203.983 87.5231C203.402 88.1743 202.557 88.4999 201.448 88.4999C200.34 88.4999 199.495 88.1743 198.914 87.5231C198.333 86.8719 198.043 86.0096 198.043 84.936C198.043 83.704 198.333 82.7537 198.914 82.0849C199.495 81.3985 200.34 81.0553 201.448 81.0553C202.575 81.0553 203.428 81.3985 204.009 82.0849C204.59 82.7537 204.88 83.704 204.88 84.936C204.88 86.0096 204.581 86.8719 203.983 87.5231ZM211.242 81.2929L203.085 97.4492H200.392L208.55 81.2929H211.242ZM199.68 84.8568C199.68 86.1768 200.269 86.8367 201.448 86.8367C202.663 86.8367 203.27 86.1768 203.27 84.8568C203.27 84.1176 203.12 83.5808 202.821 83.2464C202.54 82.8945 202.082 82.7185 201.448 82.7185C200.85 82.7185 200.401 82.8945 200.102 83.2464C199.82 83.5984 199.68 84.1352 199.68 84.8568ZM212.747 96.7364C212.166 97.3876 211.322 97.7132 210.213 97.7132C209.104 97.7132 208.251 97.3876 207.652 96.7364C207.071 96.0853 206.781 95.2229 206.781 94.1493C206.781 92.9174 207.071 91.9582 207.652 91.2718C208.251 90.5854 209.104 90.2422 210.213 90.2422C211.322 90.2422 212.166 90.5854 212.747 91.2718C213.346 91.9582 213.645 92.9174 213.645 94.1493C213.645 95.2229 213.346 96.0853 212.747 96.7364ZM208.418 94.0701C208.418 95.3725 209.016 96.0237 210.213 96.0237C211.427 96.0237 212.034 95.3725 212.034 94.0701C212.034 93.3309 211.885 92.7942 211.586 92.4598C211.286 92.1078 210.829 91.9318 210.213 91.9318C209.597 91.9318 209.139 92.1078 208.84 92.4598C208.559 92.7942 208.418 93.3309 208.418 94.0701Z" fill="#67EEC7"/>
<path d="M211.287 193.923C210.5 194.729 209.329 195.257 207.774 195.507V197.811H205.038V195.68C203.233 195.603 201.716 195.305 200.487 194.787V192.195C201.255 192.521 202.091 192.78 202.993 192.972C203.895 193.145 204.769 193.232 205.614 193.232C208.11 193.232 209.357 192.387 209.357 190.697C209.357 189.929 209.041 189.334 208.407 188.912C207.793 188.489 206.698 188.067 205.124 187.645C203.857 187.28 202.858 186.886 202.129 186.464C201.419 186.022 200.91 185.504 200.603 184.909C200.295 184.294 200.142 183.517 200.142 182.576C200.142 181.194 200.545 180.08 201.351 179.235C202.177 178.391 203.406 177.872 205.038 177.68V175.463H207.774V177.651C208.503 177.69 209.204 177.767 209.876 177.882C210.567 177.997 211.114 178.131 211.517 178.285V180.877C210.116 180.339 208.695 180.07 207.255 180.07C206.103 180.07 205.153 180.243 204.404 180.589C203.655 180.915 203.281 181.568 203.281 182.547C203.281 183.238 203.559 183.776 204.116 184.16C204.673 184.544 205.681 184.909 207.14 185.254C208.561 185.6 209.655 186.022 210.423 186.521C211.21 187.001 211.748 187.577 212.036 188.249C212.343 188.902 212.497 189.709 212.497 190.669C212.497 192.032 212.093 193.116 211.287 193.923Z" fill="#67EEC7"/>
</g>
</g>
</svg>
