<svg width="338" height="346" viewBox="0 0 338 346" fill="none" xmlns="http://www.w3.org/2000/svg">
<circle cx="169.768" cy="169.767" r="125.051" transform="rotate(14.5647 169.768 169.767)" stroke="#4864E1" stroke-opacity="0.43" stroke-width="0.596903" stroke-dasharray="3.31 3.31"/>
<path d="M271.557 87.0597C272.322 87.8777 273.072 88.709 273.809 89.5518L273.587 89.747C274.322 90.5874 275.042 91.4402 275.747 92.305L275.977 92.1174C276.685 92.9847 277.379 93.8632 278.057 94.7549L278.057 94.7558L277.82 94.936C278.495 95.8237 279.155 96.7238 279.8 97.6354L280.042 97.464C280.688 98.3774 281.318 99.3026 281.934 100.24L281.687 100.403C282.298 101.335 282.895 102.279 283.475 103.234L283.728 103.079C284.308 104.034 284.872 105.001 285.42 105.979L285.162 106.124C285.707 107.097 286.237 108.082 286.75 109.077L287.014 108.941C287.525 109.933 288.019 110.935 288.497 111.949L288.229 112.076C288.705 113.083 289.163 114.102 289.605 115.131L289.876 115.014C290.316 116.04 290.741 117.075 291.148 118.121L290.872 118.229C291.075 118.75 291.273 119.274 291.467 119.801C291.662 120.327 291.851 120.854 292.035 121.382L292.314 121.285C292.684 122.344 293.034 123.407 293.364 124.473L293.083 124.561C293.415 125.631 293.727 126.703 294.02 127.778L294.306 127.7C294.6 128.781 294.876 129.865 295.131 130.951L294.842 131.019C295.098 132.109 295.335 133.202 295.552 134.296L295.842 134.238C296.06 135.338 296.259 136.439 296.437 137.542L296.145 137.589C296.324 138.693 296.483 139.798 296.623 140.904L296.916 140.867C297.057 141.979 297.178 143.092 297.28 144.206L296.985 144.234C297.086 145.346 297.168 146.459 297.231 147.572L297.529 147.555C297.592 148.674 297.634 149.793 297.659 150.912L297.363 150.919C297.388 152.035 297.393 153.151 297.38 154.267L297.676 154.271C297.663 155.39 297.633 156.51 297.582 157.629L297.286 157.615C297.235 158.73 297.167 159.844 297.079 160.958L297.373 160.981C297.285 162.097 297.18 163.212 297.056 164.326L296.761 164.293C296.638 165.401 296.496 166.508 296.336 167.613L296.63 167.656C296.47 168.763 296.29 169.869 296.094 170.973L295.803 170.922C295.609 172.019 295.397 173.116 295.168 174.21L295.458 174.27C295.229 175.364 294.981 176.456 294.717 177.546L294.429 177.477C294.166 178.561 293.886 179.643 293.59 180.722L293.875 180.8C293.578 181.877 293.267 182.952 292.938 184.023L292.654 183.936C292.326 185.002 291.982 186.066 291.621 187.127L291.901 187.222C291.541 188.279 291.165 189.333 290.773 190.383L290.496 190.279C290.107 191.323 289.701 192.365 289.28 193.403L289.555 193.514C289.135 194.55 288.698 195.58 288.246 196.607L287.976 196.489C287.528 197.509 287.064 198.525 286.586 199.537L286.853 199.663C286.375 200.674 285.882 201.681 285.374 202.684L285.11 202.55C284.607 203.543 284.089 204.53 283.557 205.514L283.82 205.656C283.287 206.64 282.738 207.617 282.177 208.591L281.92 208.444C281.364 209.408 280.795 210.368 280.212 211.322L280.463 211.477C279.88 212.43 279.284 213.378 278.674 214.32L278.425 214.16C277.819 215.095 277.2 216.025 276.567 216.949L276.814 217.117C276.183 218.039 275.537 218.953 274.88 219.863L274.64 219.689C273.987 220.594 273.321 221.492 272.642 222.384L272.877 222.564C272.201 223.452 271.513 224.334 270.812 225.209L270.581 225.024C269.884 225.895 269.174 226.761 268.452 227.619L268.679 227.809C267.96 228.663 267.231 229.51 266.489 230.351L266.267 230.154C265.527 230.991 264.776 231.821 264.013 232.644L264.232 232.846C263.474 233.664 262.704 234.474 261.924 235.278L261.711 235.071C260.933 235.872 260.144 236.666 259.344 237.452L259.552 237.663C258.756 238.445 257.949 239.219 257.131 239.987L256.928 239.771C256.115 240.534 255.291 241.29 254.456 242.038L254.652 242.258C253.821 243.003 252.979 243.74 252.127 244.47L251.935 244.245C251.087 244.97 250.23 245.687 249.362 246.396L249.549 246.625C248.685 247.332 247.81 248.031 246.925 248.721L246.743 248.488C245.864 249.174 244.975 249.852 244.077 250.521L244.255 250.76C243.359 251.427 242.454 252.087 241.539 252.738L241.367 252.495C240.459 253.141 239.541 253.779 238.615 254.408L238.78 254.654C237.856 255.282 236.923 255.901 235.98 256.511L235.82 256.261C234.885 256.867 233.94 257.465 232.987 258.053L233.142 258.305C232.191 258.892 231.231 259.47 230.263 260.039L230.114 259.784C229.154 260.349 228.185 260.905 227.208 261.451L227.351 261.711C226.376 262.256 225.392 262.793 224.401 263.32L224.262 263.058C223.279 263.581 222.287 264.096 221.287 264.601L221.42 264.865C220.423 265.369 219.417 265.863 218.404 266.349L218.276 266.081C217.272 266.562 216.26 267.034 215.24 267.497L215.361 267.767C214.344 268.229 213.319 268.681 212.286 269.123L212.17 268.85C211.146 269.289 210.114 269.719 209.076 270.139L209.187 270.414C208.152 270.833 207.11 271.243 206.06 271.642L205.954 271.363C205.43 271.562 204.904 271.759 204.377 271.954C203.849 272.148 203.322 272.34 202.794 272.528L202.895 272.809C201.837 273.187 200.778 273.552 199.718 273.906L199.624 273.624C198.561 273.979 197.498 274.322 196.434 274.653L196.522 274.937C195.45 275.271 194.377 275.592 193.304 275.902L193.222 275.617C192.145 275.927 191.069 276.226 189.992 276.512L190.068 276.798C188.983 277.087 187.897 277.364 186.811 277.628L186.741 277.341C185.653 277.606 184.565 277.858 183.477 278.099L183.542 278.388C182.444 278.631 181.348 278.861 180.251 279.079L180.194 278.789C179.096 279.008 177.998 279.214 176.901 279.408L176.953 279.699C175.846 279.895 174.741 280.079 173.636 280.25L173.592 279.957C172.485 280.129 171.379 280.287 170.274 280.433L170.313 280.728C169.2 280.876 168.088 281.011 166.977 281.134L166.945 280.839C165.832 280.962 164.72 281.072 163.61 281.171L163.636 281.467C162.518 281.566 161.401 281.653 160.287 281.727L160.267 281.429C159.149 281.503 158.033 281.565 156.919 281.614L156.932 281.91C155.81 281.959 154.691 281.995 153.575 282.019L153.57 281.723C152.449 281.747 151.33 281.758 150.215 281.757L150.214 282.054C149.092 282.052 147.973 282.038 146.857 282.011L146.866 281.716C145.745 281.689 144.627 281.649 143.512 281.597L143.497 281.892C142.378 281.84 141.261 281.775 140.149 281.697L140.17 281.402C139.051 281.323 137.936 281.231 136.824 281.127L136.796 281.423C135.681 281.319 134.569 281.202 133.462 281.072L133.497 280.776C132.383 280.645 131.272 280.502 130.166 280.346L130.124 280.64C129.014 280.483 127.909 280.311 126.809 280.128L126.859 279.837C125.752 279.652 124.65 279.455 123.554 279.245L123.499 279.536C122.397 279.325 121.301 279.102 120.21 278.865L120.273 278.576C119.178 278.338 118.088 278.087 117.005 277.823L116.933 278.112C115.843 277.846 114.758 277.569 113.68 277.278L113.758 276.99C112.678 276.699 111.603 276.393 110.536 276.075L110.45 276.359C109.373 276.038 108.304 275.705 107.241 275.358L107.334 275.077C106.271 274.73 105.214 274.37 104.165 273.997L104.064 274.277C103.006 273.9 101.954 273.513 100.91 273.11L101.019 272.831C99.9753 272.429 98.9396 272.014 97.9124 271.586L97.7977 271.859C96.7607 271.427 95.7321 270.981 94.7119 270.522L94.834 270.252C93.8135 269.793 92.8012 269.321 91.7982 268.836L91.6685 269.103C90.6582 268.614 89.6567 268.113 88.6648 267.599L88.802 267.336C87.8082 266.82 86.8238 266.291 85.8492 265.75L85.7053 266.009C84.7252 265.464 83.7547 264.907 82.7946 264.337L82.9475 264.082C81.9847 263.51 81.032 262.924 80.09 262.326L79.9299 262.578C78.9835 261.976 78.0484 261.361 77.1237 260.734L77.2915 260.489C76.3653 259.861 75.4501 259.22 74.5464 258.567L74.3717 258.807C73.4632 258.149 72.5659 257.48 71.6808 256.796L71.8624 256.561C70.9777 255.878 70.1047 255.182 69.2441 254.474L69.0554 254.701C68.1898 253.989 67.3358 253.264 66.4952 252.526L66.6918 252.303C65.8526 251.566 65.0261 250.816 64.2127 250.054L64.0091 250.269C63.1911 249.503 62.3864 248.724 61.5951 247.932L61.8054 247.723C61.016 246.933 60.24 246.13 59.478 245.315L59.2591 245.518C58.4943 244.7 57.7444 243.868 57.0078 243.026L57.2315 242.831C56.497 241.99 55.777 241.138 55.0713 240.273L54.8406 240.46C54.1327 239.592 53.4383 238.713 52.7601 237.821L52.9979 237.642C52.3229 236.754 51.6626 235.854 51.0178 234.943L50.7757 235.113C50.1296 234.2 49.4982 233.275 48.883 232.338L49.1322 232.175C48.5204 231.243 47.9242 230.299 47.3438 229.344L47.0894 229.498C46.5091 228.543 45.9456 227.576 45.3974 226.598L45.6558 226.454C45.1104 225.481 44.581 224.496 44.0681 223.501L43.8035 223.636C43.2927 222.645 42.7987 221.642 42.3207 220.628L42.5895 220.502C42.1142 219.494 41.655 218.476 41.213 217.447L40.9404 217.563C40.5002 216.538 40.0756 215.503 39.6689 214.457L39.9467 214.349L39.3514 212.777C39.1572 212.251 38.968 211.723 38.7836 211.195L38.5021 211.293C38.1322 210.233 37.783 209.17 37.4523 208.105L37.7354 208.017C37.4033 206.947 37.0914 205.875 36.7986 204.8L36.5119 204.877C36.2174 203.796 35.9418 202.712 35.6866 201.626L35.9761 201.559C35.7199 200.469 35.483 199.376 35.2661 198.282L34.976 198.339C34.758 197.239 34.5588 196.138 34.3801 195.035L34.674 194.988C34.4952 193.885 34.3356 192.78 34.1958 191.674L33.9004 191.711C33.7598 190.599 33.6395 189.485 33.5379 188.371L33.833 188.344C33.7315 187.232 33.6494 186.119 33.5864 185.006L33.2888 185.023C33.2255 183.904 33.183 182.785 33.1581 181.665L33.4554 181.659C33.4306 180.543 33.4244 179.427 33.4374 178.311L33.1404 178.307C33.1535 177.187 33.1836 176.068 33.2343 174.949L33.5329 174.963C33.5833 173.848 33.6522 172.733 33.7397 171.62L33.4439 171.597C33.5316 170.481 33.6378 169.366 33.7622 168.252L34.0574 168.285C34.1811 167.177 34.323 166.07 34.4828 164.965L34.1879 164.921C34.3479 163.814 34.5271 162.709 34.7227 161.605L35.0145 161.656C35.2091 160.559 35.4208 159.462 35.6503 158.368L35.3592 158.307C35.5888 157.212 35.8363 156.12 36.1005 155.03L36.3898 155.101C36.6525 154.017 36.9324 152.935 37.2291 151.856L36.942 151.778C37.2382 150.7 37.5501 149.626 37.8796 148.554L38.1651 148.642C38.4931 147.576 38.8372 146.511 39.198 145.451L38.916 145.355C39.2756 144.298 39.6526 143.245 40.0443 142.194L40.3223 142.299C40.7119 141.254 41.1172 140.213 41.5383 139.175L41.2629 139.064C41.6834 138.028 42.1193 136.996 42.5707 135.969L42.843 136.089C43.2911 135.069 43.7543 134.053 44.2326 133.041L43.9641 132.914C44.4423 131.903 44.935 130.896 45.443 129.894L45.708 130.028C46.2112 129.035 46.7297 128.048 47.2618 127.064L46.9991 126.922L46.9978 126.921C47.5301 125.938 48.0785 124.96 48.6394 123.986L48.898 124.135C49.4537 123.17 50.0237 122.21 50.6072 121.256L50.3533 121.101C50.9363 120.148 51.5326 119.199 52.143 118.257L52.3937 118.418C52.9993 117.483 53.6182 116.553 54.2506 115.629L54.0043 115.461C54.6352 114.539 55.2799 113.624 55.937 112.714L56.1792 112.888C56.8321 111.984 57.4974 111.086 58.176 110.194L57.9398 110.014C58.6157 109.125 59.3045 108.244 60.0054 107.368L60.2366 107.554C60.9342 106.683 61.6443 105.817 62.3665 104.959L62.139 104.768C62.8569 103.915 63.5857 103.067 64.3275 102.227L64.5513 102.424C65.2905 101.587 66.0425 100.757 66.8054 99.9339L66.5858 99.7307C67.3434 98.913 68.1134 98.1031 68.8939 97.2995L69.1078 97.5068C69.8854 96.7062 70.674 95.9121 71.4741 95.126L71.266 94.9144C72.0616 94.1327 72.8685 93.3587 73.6861 92.5918L73.8894 92.8072C74.7031 92.0439 75.5279 91.2879 76.3631 90.5398L76.1642 90.3196C76.9957 89.5748 77.8374 88.8373 78.6898 88.1079L78.8832 88.3332C79.7306 87.6082 80.5891 86.8912 81.457 86.1819L81.268 85.9518C82.1328 85.2451 83.0076 84.5463 83.8924 83.8557L84.0756 84.09C84.9542 83.4042 85.8426 82.7263 86.7408 82.0569L86.563 81.8175C87.4587 81.1499 88.364 80.4905 89.2788 79.8396L89.4518 80.0828C90.3598 79.4368 91.2773 78.7988 92.204 78.1696L92.0361 77.9234C92.9606 77.2957 93.8943 76.6767 94.837 76.0661L94.9991 76.3165C95.9343 75.7109 96.8784 75.113 97.8314 74.5247L97.6748 74.2723C98.6258 73.6852 99.5859 73.1074 100.554 72.538L100.705 72.7937C101.665 72.2291 102.634 71.6732 103.611 71.1265L103.466 70.8678C104.441 70.322 105.425 69.7847 106.417 69.257L106.557 69.5198C107.54 68.9968 108.531 68.4823 109.531 67.9775L109.397 67.7126C110.394 67.2087 111.4 66.7139 112.413 66.2285L112.541 66.4967C113.546 66.0156 114.559 65.5434 115.579 65.0809L115.456 64.8098C116.473 64.3485 117.498 63.8967 118.53 63.4543L118.648 63.7283C119.672 63.2895 120.703 62.8595 121.742 62.4396L121.631 62.1632C122.666 61.7446 123.708 61.3345 124.757 60.9352L124.759 60.9357L124.864 61.2142C125.388 61.0149 125.914 60.8188 126.441 60.6243C126.969 60.4298 127.497 60.2373 128.025 60.0488L127.924 59.7683L127.924 59.7674C128.981 59.3897 130.04 59.0252 131.099 58.6713L131.194 58.9538C132.256 58.5989 133.32 58.2563 134.384 57.9253L134.294 57.6408C135.367 57.3069 136.44 56.985 137.514 56.6752L137.597 56.9609C138.673 56.6504 139.749 56.3522 140.826 56.0658L140.749 55.7787C141.835 55.4899 142.92 55.2137 144.006 54.9492L144.077 55.2374C145.165 54.9724 146.254 54.7197 147.341 54.479L147.276 54.1888C148.373 53.9461 149.469 53.7155 150.565 53.4973L150.625 53.7886C151.723 53.57 152.821 53.3637 153.917 53.1696L153.865 52.8778C154.971 52.6821 156.076 52.4985 157.18 52.3276L157.227 52.6205C158.334 52.4492 159.44 52.291 160.544 52.1444L160.504 51.8491C161.617 51.7014 162.729 51.5662 163.839 51.4435L163.873 51.739C164.987 51.6159 166.099 51.5054 167.209 51.4072L167.181 51.1102C168.3 51.0113 169.416 50.925 170.531 50.8512L170.551 51.1487C171.669 51.0747 172.786 51.0131 173.899 50.9643L173.886 50.6675C175.007 50.6182 176.126 50.5817 177.243 50.5578L177.249 50.8551C178.37 50.831 179.488 50.8194 180.603 50.8206L180.602 50.524C181.724 50.5252 182.843 50.5397 183.959 50.5663L183.953 50.8622C185.074 50.889 186.191 50.9288 187.306 50.981L187.319 50.6846C188.439 50.737 189.556 50.8024 190.669 50.8804L190.648 51.1764C191.767 51.2548 192.883 51.3464 193.994 51.4505L194.021 51.1542C195.137 51.2586 196.248 51.3747 197.356 51.5047L197.321 51.8015C198.436 51.9323 199.546 52.0758 200.652 52.2324L200.693 51.9373C201.803 52.0945 202.908 52.2657 204.008 52.4487L203.96 52.7413C205.066 52.9252 206.168 53.1229 207.264 53.3327L207.319 53.0409C208.42 53.2517 209.516 53.4756 210.607 53.7123L210.545 54.0025C211.64 54.2402 212.73 54.4912 213.814 54.7548L213.883 54.4659C214.974 54.7312 216.059 55.0075 217.137 55.2988L217.138 55.2997L217.06 55.5876C218.14 55.8796 219.215 56.1844 220.283 56.5024L220.367 56.2173C221.444 56.5379 222.514 56.8729 223.577 57.2196L223.485 57.5012C224.548 57.848 225.605 58.2081 226.654 58.5808L226.752 58.3009C227.811 58.6772 228.864 59.0643 229.907 59.4668L229.908 59.4677L229.8 59.7467C230.843 60.149 231.878 60.5641 232.905 60.9924L233.019 60.7185C234.056 61.151 235.085 61.5965 236.106 62.0552L235.985 62.3257C237.005 62.7845 238.018 63.2568 239.021 63.7416L239.149 63.4747C240.159 63.9629 241.161 64.4631 242.152 64.9775L242.016 65.2423C243.01 65.7578 243.995 66.2864 244.97 66.828L245.112 66.5683C246.092 67.1126 247.062 67.6696 248.022 68.24L247.871 68.4953C248.834 69.0676 249.787 69.6536 250.729 70.2518L250.888 69.9996C251.834 70.6006 252.768 71.2162 253.693 71.8431L253.527 72.0884C254.454 72.7164 255.369 73.3574 256.272 74.0112L256.446 73.7712C257.354 74.4285 258.252 75.0978 259.137 75.7808L258.955 76.0164C259.84 76.6994 260.713 77.396 261.574 78.1046L261.761 77.8762C262.627 78.5889 263.482 79.3128 264.322 80.0511L264.127 80.2751C264.966 81.0121 265.793 81.7617 266.606 82.524L266.808 82.3069C267.626 83.0736 268.43 83.8537 269.221 84.6456L269.013 84.8546C269.803 85.6446 270.579 86.4475 271.341 87.2624L271.557 87.0597Z" stroke="#67EEC7" stroke-width="0.596903" stroke-dasharray="3.31 3.31"/>
<path d="M76.5275 81.5787C77.2062 80.6879 77.9006 79.8098 78.6085 78.9427L78.8379 79.1285C79.5438 78.2639 80.2644 77.4116 80.9992 76.5714L80.7758 76.3765C81.5127 75.5338 82.2629 74.7024 83.0287 73.885L83.0296 73.8845L83.2469 74.0885C84.0094 73.2747 84.7865 72.4733 85.5776 71.6853L85.3682 71.4755C86.1608 70.686 86.9678 69.9097 87.7889 69.1467L87.9908 69.363C88.8075 68.6041 89.6388 67.8585 90.4837 67.1267L90.2888 66.903C91.1334 66.1715 91.9925 65.4545 92.8649 64.7507L93.0509 64.9806C93.9191 64.2803 94.8018 63.5938 95.6976 62.9218L95.5194 62.6841C96.4116 62.0148 97.3177 61.3602 98.2371 60.7196L98.4068 60.9622C99.3209 60.3253 100.249 59.7033 101.19 59.0955L101.029 58.8476C101.966 58.2422 102.916 57.6507 103.88 57.0749L104.032 57.3286C104.512 57.0417 104.996 56.7586 105.482 56.4792C105.969 56.1998 106.457 55.9251 106.947 55.6551L106.804 55.3961C107.787 54.8543 108.777 54.3325 109.772 53.8284L109.906 54.0915C110.905 53.5854 111.91 53.0978 112.921 52.6296L112.797 52.3612C113.814 51.8901 114.836 51.4375 115.864 51.0043L115.98 51.2781C117.012 50.8434 118.05 50.4273 119.092 50.0307L118.986 49.7546C120.034 49.356 121.087 48.9757 122.144 48.6152L122.24 48.8958C123.298 48.5352 124.361 48.1933 125.428 47.8706L125.342 47.5877C126.415 47.2633 127.492 46.9579 128.574 46.6716L128.65 46.9576C129.73 46.6718 130.814 46.4049 131.901 46.1568L131.834 45.8662C132.926 45.617 134.023 45.3893 135.122 45.1778L135.178 45.4676C136.275 45.2567 137.374 45.0651 138.477 44.8915L138.431 44.5993C139.537 44.4251 140.646 44.2679 141.757 44.1309L141.794 44.4254C142.901 44.2889 144.011 44.1707 145.124 44.071L145.097 43.7776C146.212 43.6777 147.329 43.5948 148.449 43.5313L148.465 43.827C149.578 43.7639 150.693 43.7189 151.81 43.6918L151.803 43.3951C152.921 43.3679 154.041 43.3608 155.163 43.3693L155.161 43.6642C156.276 43.6726 157.392 43.6982 158.509 43.7418L158.52 43.445C159.637 43.4886 160.755 43.5507 161.873 43.6291L161.853 43.9242C162.966 44.0022 164.079 44.0974 165.193 44.2096L165.222 43.9157C166.334 44.0278 167.445 44.1549 168.557 44.3008L168.518 44.5957C169.624 44.7409 170.731 44.9024 171.837 45.0809L171.884 44.789C172.986 44.967 174.088 45.1619 175.189 45.3727L175.132 45.6629C176.227 45.8726 177.322 46.0989 178.416 46.3409L178.48 46.0507C179.571 46.2921 180.66 46.5508 181.748 46.8241L181.676 47.1108C182.756 47.3822 183.836 47.6691 184.913 47.9717L184.993 47.6871C186.07 47.9897 187.146 48.308 188.219 48.6415L188.131 48.9239C189.194 49.2541 190.254 49.5996 191.312 49.9599L191.409 49.677C192.468 50.0376 193.523 50.4156 194.577 50.8061L194.475 51.0846C195.518 51.4713 196.56 51.8721 197.598 52.288L197.708 52.0139C198.746 52.4295 199.78 52.859 200.811 53.3034L200.695 53.5752C201.718 54.0162 202.738 54.4719 203.755 54.9411L203.879 54.6701C204.893 55.1382 205.903 55.6223 206.91 56.1182L206.779 56.3838C207.779 56.8766 208.776 57.3832 209.769 57.9033L209.907 57.6417C210.896 58.1595 211.88 58.6908 212.86 59.2355L212.716 59.494C213.692 60.0362 214.663 60.591 215.63 61.1596L215.78 60.9047C216.742 61.4701 217.699 62.0476 218.652 62.6388L218.495 62.8911C219.443 63.4801 220.387 64.0821 221.326 64.6966L221.489 64.4475C222.422 65.0579 223.349 65.6818 224.272 66.3171L224.104 66.5613C225.023 67.1943 225.938 67.8398 226.847 68.4975L227.02 68.2574C227.924 68.9115 228.822 69.5776 229.715 70.2558L229.537 70.4914C230.425 71.1661 231.308 71.8524 232.185 72.5507L232.369 72.3201C233.242 73.0154 234.11 73.7221 234.971 74.4407L234.782 74.6677C235.638 75.3819 236.488 76.1079 237.332 76.8451L237.527 76.6217C238.369 77.3562 239.204 78.102 240.032 78.859L239.832 79.0774C240.656 79.8293 241.472 80.5925 242.283 81.3664L242.488 81.1516C243.296 81.9232 244.097 82.7056 244.892 83.4988L244.681 83.7087C245.47 84.496 246.252 85.294 247.027 86.1026L247.242 85.8982C248.015 86.7045 248.782 87.5213 249.541 88.3486L249.321 88.5489C250.075 89.3697 250.822 90.2007 251.561 91.042L251.784 90.8477C252.522 91.687 253.252 92.5367 253.975 93.3962L253.748 93.586C254.465 94.4384 255.175 95.3008 255.877 96.173L256.109 95.9882C256.81 96.8585 257.503 97.7386 258.189 98.6283L257.953 98.8086C258.633 99.6908 259.307 100.583 259.971 101.484L260.21 101.309C260.873 102.208 261.529 103.117 262.176 104.035L261.934 104.205C262.576 105.115 263.211 106.034 263.837 106.963L264.084 106.797C264.708 107.724 265.325 108.659 265.934 109.603L265.684 109.764C266.288 110.7 266.884 111.645 267.471 112.599L267.724 112.443C268.31 113.394 268.888 114.353 269.458 115.321L269.2 115.472C269.484 115.955 269.766 116.441 270.046 116.929C270.326 117.416 270.603 117.904 270.877 118.393L271.137 118.247C271.687 119.227 272.223 120.21 272.749 121.195L272.487 121.336C273.015 122.324 273.53 123.315 274.034 124.309L274.299 124.174C274.808 125.176 275.304 126.18 275.789 127.186L275.521 127.315C276.007 128.324 276.481 129.336 276.944 130.35L277.213 130.226C277.679 131.249 278.133 132.273 278.575 133.3L278.303 133.417C278.746 134.445 279.177 135.476 279.596 136.508L279.871 136.396C280.294 137.437 280.703 138.48 281.102 139.525L280.825 139.629C281.224 140.676 281.611 141.724 281.986 142.773L282.264 142.673C282.642 143.731 283.008 144.791 283.361 145.851L283.08 145.944C283.434 147.006 283.774 148.071 284.103 149.135L284.388 149.047C284.719 150.12 285.038 151.194 285.345 152.269L285.059 152.35C285.367 153.427 285.661 154.505 285.944 155.583L286.231 155.507C286.516 156.594 286.788 157.68 287.047 158.766L286.757 158.836C287.017 159.926 287.264 161.016 287.498 162.105L287.788 162.044C288.024 163.141 288.247 164.238 288.457 165.335L288.165 165.39C288.376 166.491 288.574 167.592 288.759 168.692L289.052 168.643C289.238 169.749 289.411 170.855 289.571 171.959L289.278 172C289.439 173.11 289.587 174.219 289.721 175.327L290.015 175.292C290.15 176.405 290.273 177.516 290.382 178.626L290.087 178.655C290.197 179.771 290.292 180.886 290.375 181.999L290.672 181.978C290.755 183.095 290.826 184.21 290.883 185.323L290.585 185.338C290.642 186.459 290.687 187.578 290.717 188.694L291.015 188.687C291.045 189.807 291.06 190.925 291.064 192.04L290.768 192.04C290.771 193.162 290.761 194.282 290.737 195.398L291.033 195.403C291.009 196.525 290.972 197.643 290.921 198.758L290.625 198.745C290.573 199.864 290.507 200.98 290.428 202.092L290.725 202.115C290.646 203.234 290.553 204.35 290.446 205.461L290.15 205.432C290.043 206.546 289.921 207.657 289.786 208.762L290.08 208.8C289.944 209.914 289.794 211.025 289.63 212.13L289.336 212.086C289.172 213.192 288.993 214.294 288.801 215.391L289.094 215.443C288.9 216.55 288.693 217.652 288.471 218.748L288.177 218.688C287.955 219.784 287.719 220.874 287.468 221.958L287.757 222.026C287.504 223.12 287.236 224.209 286.954 225.292L286.668 225.216C286.386 226.299 286.089 227.376 285.779 228.446L286.063 228.529C285.75 229.607 285.424 230.678 285.082 231.742L284.8 231.651C284.458 232.717 284.101 233.776 283.73 234.827L284.009 234.925C283.636 235.983 283.249 237.033 282.847 238.075L282.57 237.966C282.167 239.011 281.748 240.048 281.316 241.077L281.591 241.193C281.156 242.226 280.706 243.251 280.242 244.268L279.973 244.143C279.508 245.161 279.029 246.171 278.535 247.171L278.802 247.303C278.305 248.308 277.795 249.305 277.269 250.292L277.006 250.152C276.481 251.139 275.94 252.116 275.386 253.082L275.642 253.23C275.084 254.203 274.512 255.166 273.925 256.118L273.672 255.961C273.085 256.912 272.484 257.852 271.869 258.781L272.115 258.946C271.496 259.881 270.862 260.804 270.214 261.717L269.973 261.544C269.326 262.454 268.664 263.354 267.988 264.241L268.224 264.423C267.545 265.314 266.851 266.192 266.143 267.059L265.913 266.871C265.207 267.736 264.487 268.588 263.752 269.428L263.975 269.625C263.238 270.467 262.487 271.299 261.721 272.117L261.505 271.912C260.742 272.726 259.965 273.527 259.174 274.315L259.383 274.525C258.59 275.315 257.784 276.092 256.962 276.855L256.76 276.637C255.944 277.396 255.112 278.141 254.267 278.873L254.462 279.098C253.617 279.83 252.758 280.547 251.885 281.251L251.701 281.02C250.833 281.72 249.95 282.407 249.054 283.079L249.231 283.317C248.339 283.986 247.433 284.641 246.514 285.281L246.344 285.037C245.43 285.674 244.503 286.297 243.562 286.905L243.722 287.154C242.785 287.76 241.835 288.351 240.872 288.927L240.719 288.671L239.269 289.52C238.782 289.8 238.294 290.075 237.804 290.345L237.947 290.606C236.964 291.148 235.975 291.669 234.979 292.173L234.846 291.909C233.846 292.415 232.841 292.902 231.83 293.37L231.954 293.64C230.937 294.111 229.915 294.564 228.887 294.997L228.772 294.722C227.74 295.157 226.702 295.573 225.66 295.97L225.764 296.246C224.717 296.645 223.664 297.025 222.607 297.386L222.511 297.104C221.453 297.464 220.39 297.806 219.323 298.129L219.409 298.414C218.336 298.739 217.258 299.043 216.177 299.329L216.101 299.043C215.022 299.329 213.938 299.596 212.851 299.844L212.917 300.134C211.825 300.384 210.729 300.612 209.629 300.824L209.573 300.532C208.477 300.743 207.377 300.935 206.275 301.109L206.321 301.403C205.215 301.577 204.106 301.734 202.994 301.871L202.958 301.574C201.85 301.711 200.74 301.829 199.628 301.929L199.654 302.224C198.539 302.324 197.422 302.406 196.303 302.469L196.286 302.173C195.173 302.236 194.058 302.281 192.941 302.308L192.948 302.606C191.83 302.633 190.71 302.641 189.589 302.633L189.591 302.336C188.476 302.328 187.36 302.302 186.243 302.259L186.231 302.556C185.113 302.512 183.995 302.451 182.877 302.372L182.898 302.075C181.785 301.998 180.672 301.902 179.558 301.79L179.529 302.086C178.417 301.974 177.306 301.846 176.194 301.7L176.233 301.404C175.127 301.259 174.02 301.097 172.914 300.919L172.867 301.213C171.765 301.035 170.663 300.839 169.562 300.628L169.619 300.337C168.524 300.127 167.429 299.902 166.336 299.66L166.272 299.95C165.181 299.708 164.091 299.451 163.002 299.177L163.075 298.889C161.995 298.617 160.915 298.331 159.838 298.028L159.758 298.314C158.681 298.011 157.606 297.694 156.533 297.36L156.621 297.077C155.558 296.746 154.497 296.4 153.439 296.04L153.342 296.323L153.342 296.324C152.283 295.963 151.228 295.586 150.174 295.196L150.277 294.916C149.233 294.529 148.192 294.128 147.153 293.712L147.043 293.988C146.006 293.572 144.971 293.143 143.94 292.698L144.056 292.424C143.033 291.984 142.013 291.529 140.997 291.059L140.872 291.33C139.858 290.862 138.848 290.38 137.841 289.884L137.973 289.616C136.972 289.123 135.975 288.617 134.983 288.097L134.844 288.36C133.856 287.842 132.871 287.31 131.891 286.766L132.036 286.506C131.06 285.964 130.088 285.409 129.121 284.84L128.971 285.096C128.009 284.531 127.052 283.954 126.1 283.363L126.257 283.109C125.308 282.52 124.364 281.918 123.425 281.303L123.261 281.553C122.329 280.943 121.401 280.319 120.479 279.684L120.647 279.438C119.728 278.805 118.814 278.161 117.905 277.503L117.731 277.744C116.827 277.09 115.929 276.423 115.037 275.746L115.215 275.509C114.327 274.834 113.443 274.147 112.566 273.449L112.382 273.682C111.509 272.986 110.641 272.28 109.78 271.561L109.97 271.333C109.113 270.618 108.263 269.892 107.419 269.155L107.223 269.379C106.382 268.645 105.547 267.899 104.718 267.142L104.919 266.922C104.096 266.171 103.279 265.408 102.469 264.634L102.263 264.849C101.455 264.078 100.653 263.295 99.8588 262.502L100.07 262.291C99.2811 261.504 98.4989 260.706 97.7237 259.897L97.509 260.104C96.7357 259.297 95.9694 258.48 95.2099 257.652L95.4297 257.451C94.6764 256.63 93.9292 255.799 93.1899 254.958L92.9672 255.154C92.2295 254.315 91.4994 253.465 90.7762 252.605L91.0032 252.414C90.2861 251.561 89.5763 250.699 88.8739 249.827L88.6432 250.013C87.9421 249.143 87.248 248.263 86.562 247.373L86.7978 247.191C86.1178 246.309 85.445 245.417 84.7803 244.516L84.5415 244.693C83.8781 243.793 83.2222 242.885 82.5744 241.966L82.8174 241.795C82.1752 240.885 81.5405 239.966 80.914 239.037L80.6673 239.203C80.0426 238.278 79.4259 237.343 78.8172 236.399L79.0678 236.237C78.4641 235.301 77.8678 234.356 77.2803 233.402L77.0264 233.558C76.4408 232.607 75.8624 231.648 75.2933 230.68L75.2937 230.679L75.5505 230.528C75.2665 230.045 74.9853 229.559 74.7055 229.072C74.4256 228.584 74.1477 228.096 73.8736 227.607L73.6138 227.753L73.613 227.753C73.064 226.774 72.5276 225.791 72.0019 224.806L72.2646 224.665C71.7371 223.677 71.2217 222.685 70.7176 221.692L70.452 221.827C69.9436 220.826 69.447 219.821 68.9623 218.815L69.23 218.685C68.7441 217.676 68.2702 216.664 67.8081 215.651L67.5379 215.775C67.0718 214.753 66.618 213.728 66.176 212.702L66.4483 212.584C66.0052 211.555 65.5742 210.524 65.1552 209.492L64.88 209.605C64.4574 208.564 64.0469 207.522 63.6487 206.478L63.926 206.37C63.527 205.324 63.1402 204.276 62.7656 203.227L62.4866 203.328C62.1089 202.27 61.7433 201.211 61.3903 200.151L61.6714 200.056C61.3176 198.993 60.9768 197.929 60.6478 196.865L60.3633 196.954C60.0317 195.881 59.7128 194.807 59.4063 193.733L59.6919 193.65C59.3846 192.573 59.0899 191.495 58.8077 190.417L58.5194 190.494C58.2351 189.407 57.9634 188.321 57.7045 187.234L57.9944 187.165C57.7347 186.075 57.4875 184.984 57.2532 183.894L56.9629 183.957C56.727 182.86 56.5041 181.763 56.294 180.666L56.586 180.61C56.3751 179.509 56.1769 178.409 55.9918 177.309L55.6994 177.359C55.5132 176.253 55.3405 175.147 55.1804 174.042L55.4732 173.999C55.3123 172.89 55.1649 171.781 55.0302 170.674L54.7357 170.71C54.6003 169.597 54.4782 168.485 54.3691 167.375L54.6645 167.346C54.5549 166.229 54.4588 165.114 54.3757 164.001L54.0791 164.023C53.9957 162.906 53.9245 161.791 53.8677 160.678L54.166 160.662C54.1088 159.541 54.0648 158.422 54.0345 157.306L53.7367 157.315C53.7063 156.194 53.6905 155.076 53.6871 153.961L53.9836 153.959C53.9801 152.838 53.991 151.719 54.0148 150.603L53.7179 150.598C53.7418 149.476 53.7794 148.358 53.8306 147.244L54.127 147.256C54.1784 146.136 54.2438 145.02 54.3227 143.907L54.0263 143.887C54.1057 142.768 54.1968 141.652 54.3038 140.54L54.3047 140.54L54.6016 140.568C54.709 139.454 54.8299 138.343 54.965 137.237L54.6699 137.202C54.8061 136.087 54.9578 134.976 55.122 133.87L55.415 133.914C55.5793 132.808 55.7577 131.705 55.95 130.609L55.6575 130.559C55.8517 129.452 56.0575 128.349 56.2801 127.253L56.2809 127.253L56.5739 127.312C56.7963 126.216 57.0327 125.126 57.2833 124.042L56.9943 123.976C57.2475 122.881 57.5148 121.792 57.7967 120.709L58.0835 120.783C58.3654 119.701 58.662 118.624 58.9724 117.554L58.6877 117.472C59.0004 116.394 59.3263 115.323 59.6678 114.26L59.9516 114.35C60.2939 113.284 60.6505 112.224 61.0216 111.173L60.7417 111.076C61.1148 110.019 61.5019 108.969 61.9039 107.928L62.1808 108.033C62.5842 106.988 63.0028 105.951 63.4353 104.923L63.1601 104.808C63.5945 103.775 64.0453 102.751 64.509 101.734L64.7785 101.857C65.243 100.838 65.7221 99.8291 66.2158 98.8289L65.9501 98.6976C66.4464 97.6923 66.9564 96.6957 67.482 95.7091L67.7446 95.8488C68.2702 94.8623 68.8111 93.8851 69.366 92.9182L69.1095 92.7715C69.6676 91.7989 70.2385 90.8352 70.826 89.883L71.0795 90.0382C71.666 89.0877 72.2669 88.1475 72.8826 87.2182L72.6349 87.0553C73.2541 86.1207 73.889 85.1977 74.5376 84.2852L74.7783 84.4555C75.4254 83.5452 76.0873 82.6459 76.7635 81.7585L76.5275 81.5787Z" stroke="#67EEC7" stroke-width="0.596903" stroke-dasharray="3.31 3.31"/>
<path d="M60.6856 92.842H64.0516V89.566H65.0236V92.842H68.3896V93.832H65.0236V97.108H64.0516V93.832H60.6856V92.842Z" fill="#4864E1"/>
<path d="M66.3898 107.049H68.7785V104.724H69.4683V107.049H71.8571V107.752H69.4683V110.077H68.7785V107.752H66.3898V107.049Z" fill="#4864E1"/>
<path d="M288.39 91.0492H290.779V88.7243H291.468V91.0492H293.857V91.7517H291.468V94.0766H290.779V91.7517H288.39V91.0492Z" fill="#4864E1"/>
<path d="M284.39 94.0492H286.779V91.7243H287.468V94.0492H289.857V94.7517H287.468V97.0766H286.779V94.7517H284.39V94.0492Z" fill="#4864E1"/>
<path d="M302.528 207.832L299.26 208.637L300.044 211.818L299.1 212.051L298.316 208.87L295.048 209.675L294.811 208.714L298.079 207.908L297.296 204.728L298.239 204.495L299.023 207.676L302.291 206.871L302.528 207.832Z" fill="#4864E1"/>
<path d="M293.591 195.401L291.272 195.973L291.828 198.23L291.158 198.395L290.602 196.138L288.283 196.709L288.114 196.027L290.434 195.455L289.878 193.198L290.547 193.033L291.104 195.29L293.423 194.719L293.591 195.401Z" fill="#4864E1"/>
<path d="M81.8665 264.05L79.5471 264.621L80.1033 266.878L79.4336 267.043L78.8773 264.786L76.5579 265.358L76.3898 264.675L78.7092 264.104L78.153 261.847L78.8228 261.681L79.379 263.939L81.6984 263.367L81.8665 264.05Z" fill="#4864E1"/>
<path d="M85.0325 260.18L82.7131 260.752L83.2693 263.009L82.5996 263.174L82.0433 260.917L79.7239 261.488L79.5558 260.806L81.8753 260.235L81.319 257.977L81.9888 257.812L82.545 260.07L84.8644 259.498L85.0325 260.18Z" fill="#4864E1"/>
</svg>
