<svg width="190" height="903" viewBox="0 0 190 903" fill="none" xmlns="http://www.w3.org/2000/svg">
<g clip-path="url(#clip0_7314_20305)">
<g opacity="0.15" filter="url(#filter0_f_7314_20305)">
<path d="M27 131C27 108.909 44.9086 91 67 91H124C146.091 91 164 108.909 164 131V152C164 160.837 156.837 168 148 168H43C34.1634 168 27 160.837 27 152V131Z" fill="#4864E1"/>
</g>
<g opacity="0.25" filter="url(#filter1_f_7314_20305)">
<path d="M99 92C99 83.7157 105.716 77 114 77C122.284 77 129 83.7157 129 92V111.286C129 118.86 122.86 125 115.286 125H112.714C105.14 125 99 118.86 99 111.286V92Z" fill="#008768"/>
</g>
<g opacity="0.2" filter="url(#filter2_f_7314_20305)">
<path d="M60 92C60 83.7157 66.7157 77 75 77C83.2843 77 90 83.7157 90 92V111.286C90 118.86 83.8599 125 76.2857 125H73.7143C66.1401 125 60 118.86 60 111.286V92Z" fill="#4864E1"/>
</g>
<mask id="mask0_7314_20305" style="mask-type:alpha" maskUnits="userSpaceOnUse" x="48" y="21" width="94" height="82">
<path d="M48.498 76.5623C48.498 46.0034 69.3168 21.2305 94.998 21.2305C120.679 21.2305 141.498 46.0034 141.498 76.5623C141.498 107.121 120.679 101.89 94.998 101.89C69.3168 101.89 48.498 107.121 48.498 76.5623Z" fill="#D9D9D9" fill-opacity="0.1"/>
</mask>
<g mask="url(#mask0_7314_20305)">
<rect x="28.8496" y="11.9492" width="29.925" height="29.925" rx="4.2" fill="#BABABA"/>
<rect x="62.9746" y="11.9492" width="29.925" height="29.925" rx="4.2" fill="#BABABA"/>
<rect x="97.0996" y="11.9492" width="29.925" height="29.925" rx="4.2" fill="#BABABA"/>
<rect x="131.225" y="11.9492" width="29.925" height="29.925" rx="4.2" fill="#BABABA"/>
<rect x="28.8496" y="46.0742" width="29.925" height="29.925" rx="4.2" fill="#BABABA"/>
<rect x="62.9746" y="46.0742" width="29.925" height="29.925" rx="4.2" fill="#BABABA"/>
<rect x="97.0996" y="46.0742" width="29.925" height="29.925" rx="4.2" fill="#BABABA"/>
<rect x="131.225" y="46.0742" width="29.925" height="29.925" rx="4.2" fill="#BABABA"/>
<rect x="28.8496" y="80.1992" width="29.925" height="29.925" rx="4.2" fill="#BABABA"/>
<rect x="62.9746" y="80.1992" width="29.925" height="29.925" rx="4.2" fill="#BABABA"/>
<rect x="97.0996" y="80.1992" width="29.925" height="29.925" rx="4.2" fill="#BABABA"/>
<rect x="131.225" y="80.1992" width="29.925" height="29.925" rx="4.2" fill="#BABABA"/>
</g>
<path d="M127.793 16.3886C127.793 7.3374 135.13 0 144.182 0H149.644C158.696 0 166.033 7.33741 166.033 16.3886V27.3143C166.033 36.3654 158.696 43.7028 149.644 43.7028H144.182C135.13 43.7028 127.793 36.3654 127.793 27.3143V16.3886Z" fill="#4864E1" fill-opacity="0.08"/>
<path d="M145.569 21.0382C145.569 19.1644 145.473 17.5583 145.282 16.2199C145.091 14.8815 144.708 13.2659 144.135 11.373L147.691 10.1398C148.303 12.0326 148.704 13.7248 148.896 15.2161C149.106 16.6884 149.211 18.6099 149.211 20.9808V28.3516H145.569V21.0382Z" fill="#1D1F4E"/>
<path d="M91.3125 19.543C91.3125 17.582 92.9023 15.9922 94.8633 15.9922H103.296C105.258 15.9922 106.847 17.582 106.847 19.543V41.3552H91.3125V19.543Z" fill="#F2F2F2" stroke="#CCCCCC" stroke-width="1.77542"/>
<path d="M143.105 57.3549C143.105 56.9259 143.453 56.5781 143.882 56.5781C144.311 56.5781 144.659 56.9259 144.659 57.3549V76.8685H143.105V57.3549Z" fill="#4864E1"/>
<path d="M70.6152 11.6986C70.6152 11.2696 70.963 10.9219 71.392 10.9219C71.821 10.9219 72.1687 11.2696 72.1687 11.6986V26.5455H70.6152V11.6986Z" fill="#4864E1"/>
<path d="M65.4316 21.8431C65.4316 21.4142 65.7794 21.0664 66.2084 21.0664C66.6374 21.0664 66.9851 21.4142 66.9851 21.8431V32.6319H65.4316V21.8431Z" fill="#4864E1"/>
<path d="M60.2441 35.0177C60.2441 30.115 64.2185 26.1406 69.1212 26.1406H103.15C108.052 26.1406 112.027 30.115 112.027 35.0177V152.956H60.2441V35.0177Z" fill="#F2F2F2" stroke="#CCCCCC" stroke-width="1.77542"/>
<rect x="70.6152" y="36.2852" width="31.0696" height="5.07259" rx="2.5363" fill="#4864E1"/>
<rect x="70.6152" y="46.4297" width="31.0696" height="5.07259" rx="2.5363" fill="#4864E1"/>
<rect x="70.6152" y="56.5781" width="31.0696" height="5.07259" rx="2.5363" fill="#4864E1"/>
<rect x="70.6152" y="66.7188" width="31.0696" height="5.07259" rx="2.5363" fill="#4864E1"/>
<rect x="70.6152" y="76.8672" width="31.0696" height="5.07259" rx="2.5363" fill="#4864E1"/>
<rect x="70.6152" y="87.0117" width="31.0696" height="5.07259" rx="2.5363" fill="#4864E1"/>
<rect x="70.6152" y="97.1562" width="31.0696" height="5.07259" rx="2.5363" fill="#4864E1"/>
<rect x="70.6152" y="107.297" width="31.0696" height="5.07259" rx="2.5363" fill="#4864E1"/>
<rect x="70.6152" y="117.449" width="31.0696" height="5.07259" rx="2.5363" fill="#4864E1"/>
<rect x="70.6152" y="127.59" width="31.0696" height="5.07259" rx="2.5363" fill="#4864E1"/>
<rect x="70.6152" y="137.738" width="31.0696" height="5.07259" rx="2.5363" fill="#4864E1"/>
<path d="M24 80.5349C24 76.5449 28.2255 73.9716 31.7705 75.8026L70.9794 96.0545C73.9295 97.5783 75.7826 100.621 75.7826 103.942V152.951H32.8771C27.9744 152.951 24 148.976 24 144.073V80.5349Z" fill="#F2F2F2" stroke="#CCCCCC" stroke-width="1.77542"/>
<path d="M96.502 75.5958C96.502 70.6932 100.476 66.7188 105.379 66.7188H137.632C143.515 66.7188 148.285 71.488 148.285 77.3713V142.3C148.285 148.184 143.515 152.953 137.632 152.953H96.502V75.5958Z" fill="#F2F2F2" stroke="#CCCCCC" stroke-width="1.77542"/>
<rect x="106.859" y="76.8672" width="31.0696" height="5.07259" rx="2.5363" fill="#4864E1"/>
<rect x="106.859" y="87.0117" width="31.0696" height="5.07259" rx="2.5363" fill="#4864E1"/>
<rect x="106.859" y="97.1562" width="31.0696" height="5.07259" rx="2.5363" fill="#4864E1"/>
<rect x="106.859" y="107.297" width="31.0696" height="5.07259" rx="2.5363" fill="#4864E1"/>
<rect x="106.859" y="117.449" width="31.0696" height="5.07259" rx="2.5363" fill="#4864E1"/>
<rect x="106.859" y="127.59" width="31.0696" height="5.07259" rx="2.5363" fill="#4864E1"/>
<rect x="106.859" y="137.738" width="31.0696" height="5.07259" rx="2.5363" fill="#4864E1"/>
<rect x="34.3594" y="87.0117" width="5.17826" height="5.07259" rx="2.5363" fill="#4864E1"/>
<rect x="34.3594" y="97.1562" width="20.7131" height="5.07259" rx="2.5363" fill="#4864E1"/>
<rect x="34.3594" y="107.297" width="31.0696" height="5.07259" rx="2.5363" fill="#4864E1"/>
<rect x="34.3594" y="117.449" width="31.0696" height="5.07259" rx="2.5363" fill="#4864E1"/>
<rect x="34.3594" y="127.59" width="31.0696" height="5.07259" rx="2.5363" fill="#4864E1"/>
<rect x="34.3594" y="137.738" width="31.0696" height="5.07259" rx="2.5363" fill="#4864E1"/>
<g opacity="0.15" filter="url(#filter3_f_7314_20305)">
<path d="M27 355.957C27 333.866 44.9086 315.957 67 315.957H124C146.091 315.957 164 333.866 164 355.957V376.957C164 385.794 156.837 392.957 148 392.957H43C34.1634 392.957 27 385.794 27 376.957V355.957Z" fill="#4864E1"/>
</g>
<g opacity="0.25" filter="url(#filter4_f_7314_20305)">
<path d="M99 316.957C99 308.673 105.716 301.957 114 301.957C122.284 301.957 129 308.673 129 316.957V336.243C129 343.817 122.86 349.957 115.286 349.957H112.714C105.14 349.957 99 343.817 99 336.243V316.957Z" fill="#008768"/>
</g>
<g opacity="0.2" filter="url(#filter5_f_7314_20305)">
<path d="M60 316.957C60 308.673 66.7157 301.957 75 301.957C83.2843 301.957 90 308.673 90 316.957V336.243C90 343.817 83.8599 349.957 76.2857 349.957H73.7143C66.1401 349.957 60 343.817 60 336.243V316.957Z" fill="#4864E1"/>
</g>
<mask id="mask1_7314_20305" style="mask-type:alpha" maskUnits="userSpaceOnUse" x="48" y="246" width="94" height="82">
<path d="M48.498 301.519C48.498 270.96 69.3168 246.188 94.998 246.188C120.679 246.188 141.498 270.96 141.498 301.519C141.498 332.078 120.679 326.847 94.998 326.847C69.3168 326.847 48.498 332.078 48.498 301.519Z" fill="#D9D9D9" fill-opacity="0.1"/>
</mask>
<g mask="url(#mask1_7314_20305)">
<rect x="28.8496" y="236.906" width="29.925" height="29.925" rx="4.2" fill="#BABABA"/>
<rect x="62.9746" y="236.906" width="29.925" height="29.925" rx="4.2" fill="#BABABA"/>
<rect x="97.0996" y="236.906" width="29.925" height="29.925" rx="4.2" fill="#BABABA"/>
<rect x="131.225" y="236.906" width="29.925" height="29.925" rx="4.2" fill="#BABABA"/>
<rect x="28.8496" y="271.031" width="29.925" height="29.925" rx="4.2" fill="#BABABA"/>
<rect x="62.9746" y="271.031" width="29.925" height="29.925" rx="4.2" fill="#BABABA"/>
<rect x="97.0996" y="271.031" width="29.925" height="29.925" rx="4.2" fill="#BABABA"/>
<rect x="131.225" y="271.031" width="29.925" height="29.925" rx="4.2" fill="#BABABA"/>
<rect x="28.8496" y="305.156" width="29.925" height="29.925" rx="4.2" fill="#BABABA"/>
<rect x="62.9746" y="305.156" width="29.925" height="29.925" rx="4.2" fill="#BABABA"/>
<rect x="97.0996" y="305.156" width="29.925" height="29.925" rx="4.2" fill="#BABABA"/>
<rect x="131.225" y="305.156" width="29.925" height="29.925" rx="4.2" fill="#BABABA"/>
</g>
<path d="M120.7 233.346C120.7 224.294 128.038 216.957 137.089 216.957H142.552C151.603 216.957 158.94 224.294 158.94 233.346V244.271C158.94 253.322 151.603 260.66 142.552 260.66H137.089C128.038 260.66 120.7 253.322 120.7 244.271V233.346Z" fill="#4864E1" fill-opacity="0.08"/>
<path d="M140.871 237.25C140.126 237.25 139.581 237.144 139.237 236.934V237.938V245.309H135.594V237.995C135.594 236.121 135.499 234.515 135.307 233.177C135.116 231.839 134.734 230.223 134.16 228.33L137.659 227.097L138.95 232.087C139.16 232.986 139.686 233.435 140.527 233.435C140.948 233.435 141.292 233.32 141.56 233.091C141.846 232.842 141.99 232.517 141.99 232.116C141.99 231.58 141.799 230.156 141.416 227.842L145.087 227.097C145.47 229.41 145.661 231.15 145.661 232.317C145.661 233.273 145.451 234.123 145.03 234.869C144.628 235.615 144.064 236.198 143.338 236.619C142.611 237.039 141.789 237.25 140.871 237.25Z" fill="#1D1F4E"/>
<path d="M71.0187 260.68L90.7217 257.911C99.0923 256.735 106.832 262.567 108.008 270.937L109.925 284.578L103.863 285.43L101.946 271.789C101.24 266.767 96.5961 263.268 91.5737 263.974L71.8707 266.743C66.8484 267.449 63.3492 272.092 64.055 277.115L65.9721 290.755L59.9096 291.607L57.9925 277.967C56.8161 269.596 62.6481 261.857 71.0187 260.68Z" fill="#4864E1"/>
<rect x="141.327" y="277.078" width="85.7089" height="116.319" rx="9.18309" transform="rotate(82 141.327 277.078)" fill="#FAFAFA" stroke="#A6A6A6" stroke-width="1.53052" stroke-linejoin="round"/>
<rect x="65.8975" y="323.227" width="52.0375" height="7.65258" rx="3.06103" transform="rotate(82 65.8975 323.227)" fill="#4864E1" stroke="#A6A6A6" stroke-width="1.53052" stroke-linejoin="round"/>
<rect x="118.944" y="315.77" width="52.0375" height="7.65258" rx="3.06103" transform="rotate(82 118.944 315.77)" fill="#4864E1" stroke="#A6A6A6" stroke-width="1.53052" stroke-linejoin="round"/>
<path d="M130.29 275.54C136.986 274.599 143.178 279.264 144.119 285.961L147.527 310.211C147.762 311.885 146.596 313.433 144.922 313.668L32.766 329.431C31.0919 329.666 29.5441 328.499 29.3088 326.825L25.9007 302.575C24.9596 295.879 29.6252 289.688 36.3216 288.746L130.29 275.54Z" fill="#E8E8E8" stroke="#A6A6A6" stroke-width="1.53052" stroke-linejoin="round"/>
<rect x="61.876" y="283.609" width="50.507" height="10.7136" rx="3.06103" transform="rotate(82 61.876 283.609)" fill="#CCCCCC" stroke="#A6A6A6" stroke-width="1.53052" stroke-linejoin="round"/>
<rect x="114.923" y="276.152" width="50.507" height="10.7136" rx="3.06103" transform="rotate(82 114.923 276.152)" fill="#CCCCCC" stroke="#A6A6A6" stroke-width="1.53052" stroke-linejoin="round"/>
<rect x="134.669" y="333.27" width="33.6713" height="47.446" rx="6.12206" transform="rotate(8 134.669 333.27)" fill="#4864E1" stroke="#A6A6A6" stroke-width="1.53052" stroke-linejoin="round"/>
<rect x="136.472" y="364.434" width="12.2441" height="1.53052" rx="0.765258" transform="rotate(8 136.472 364.434)" fill="#FAFAFA"/>
<rect x="136.046" y="367.461" width="21.4272" height="1.53052" rx="0.765258" transform="rotate(8 136.046 367.461)" fill="#FAFAFA"/>
<rect x="135.618" y="370.496" width="21.4272" height="1.53052" rx="0.765258" transform="rotate(8 135.618 370.496)" fill="#FAFAFA"/>
<rect x="135.192" y="373.527" width="6.12206" height="1.53052" rx="0.765258" transform="rotate(8 135.192 373.527)" fill="#FAFAFA"/>
<path d="M152.069 346.921C152.21 345.919 151.347 344.889 150.061 344.708C148.775 344.527 147.663 345.279 147.522 346.282C147.34 347.574 147.35 347.507 147.256 348.175C147.162 348.843 147.591 349.415 148.066 349.652C148.541 349.889 149.413 350.096 150.379 350.091C151.345 350.085 151.725 349.368 151.803 348.814C151.881 348.261 151.99 347.48 152.069 346.921Z" fill="#FAFAFA"/>
<path d="M152.069 346.921C152.21 345.919 151.347 344.889 150.061 344.708C148.775 344.527 147.663 345.279 147.522 346.282C147.34 347.574 147.35 347.507 147.256 348.175C147.162 348.843 147.591 349.415 148.066 349.652C148.541 349.889 149.413 350.096 150.379 350.091C151.345 350.085 151.725 349.368 151.803 348.814C151.881 348.261 151.99 347.48 152.069 346.921Z" fill="#FAFAFA"/>
<path d="M152.675 359.098L152.899 357.51C153.213 355.275 151.535 353.276 149.322 353.247C149.016 353.243 148.713 353.201 148.418 353.12C146.283 352.538 144.119 353.997 143.805 356.232L143.582 357.82" stroke="#FAFAFA" stroke-width="1.53052" stroke-linecap="round" stroke-linejoin="round"/>
<g opacity="0.15" filter="url(#filter6_f_7314_20305)">
<path d="M27 592.938C27 570.846 44.9086 552.938 67 552.938H124C146.091 552.938 164 570.846 164 592.938V613.938C164 622.774 156.837 629.938 148 629.938H43C34.1634 629.938 27 622.774 27 613.938V592.938Z" fill="#4864E1"/>
</g>
<g opacity="0.25" filter="url(#filter7_f_7314_20305)">
<path d="M99 553.938C99 545.653 105.716 538.938 114 538.938C122.284 538.938 129 545.653 129 553.937V573.223C129 580.797 122.86 586.938 115.286 586.938H112.714C105.14 586.938 99 580.797 99 573.223V553.938Z" fill="#008768"/>
</g>
<g opacity="0.2" filter="url(#filter8_f_7314_20305)">
<path d="M60 553.938C60 545.653 66.7157 538.938 75 538.938C83.2843 538.938 90 545.653 90 553.937V573.223C90 580.797 83.8599 586.938 76.2857 586.938H73.7143C66.1401 586.938 60 580.797 60 573.223V553.938Z" fill="#4864E1"/>
</g>
<mask id="mask2_7314_20305" style="mask-type:alpha" maskUnits="userSpaceOnUse" x="48" y="483" width="94" height="82">
<path d="M48.498 538.5C48.498 507.941 69.3168 483.168 94.998 483.168C120.679 483.168 141.498 507.941 141.498 538.5C141.498 569.059 120.679 563.828 94.998 563.828C69.3168 563.828 48.498 569.059 48.498 538.5Z" fill="#D9D9D9" fill-opacity="0.1"/>
</mask>
<g mask="url(#mask2_7314_20305)">
<rect x="28.8496" y="473.887" width="29.925" height="29.925" rx="4.2" fill="#BABABA"/>
<rect x="62.9746" y="473.887" width="29.925" height="29.925" rx="4.2" fill="#BABABA"/>
<rect x="97.0996" y="473.887" width="29.925" height="29.925" rx="4.2" fill="#BABABA"/>
<rect x="131.225" y="473.887" width="29.925" height="29.925" rx="4.2" fill="#BABABA"/>
<rect x="28.8496" y="508.012" width="29.925" height="29.925" rx="4.2" fill="#BABABA"/>
<rect x="62.9746" y="508.012" width="29.925" height="29.925" rx="4.2" fill="#BABABA"/>
<rect x="97.0996" y="508.012" width="29.925" height="29.925" rx="4.2" fill="#BABABA"/>
<rect x="131.225" y="508.012" width="29.925" height="29.925" rx="4.2" fill="#BABABA"/>
<rect x="28.8496" y="542.137" width="29.925" height="29.925" rx="4.2" fill="#BABABA"/>
<rect x="62.9746" y="542.137" width="29.925" height="29.925" rx="4.2" fill="#BABABA"/>
<rect x="97.0996" y="542.137" width="29.925" height="29.925" rx="4.2" fill="#BABABA"/>
<rect x="131.225" y="542.137" width="29.925" height="29.925" rx="4.2" fill="#BABABA"/>
</g>
<path d="M124.793 465.326C124.793 456.275 132.13 448.938 141.182 448.938H146.644C155.696 448.938 163.033 456.275 163.033 465.326V476.252C163.033 485.303 155.696 492.64 146.644 492.64H141.182C132.13 492.64 124.793 485.303 124.793 476.252V465.326Z" fill="#4864E1" fill-opacity="0.08"/>
<path d="M145.71 459.077C146.092 461.314 146.283 463.035 146.283 464.24C146.283 464.412 146.264 464.593 146.226 464.785C146.379 464.995 146.56 465.157 146.771 465.272C147 465.368 147.287 465.416 147.631 465.416C148.033 465.416 148.367 465.301 148.635 465.071C148.922 464.823 149.065 464.498 149.065 464.096C149.065 463.523 148.884 462.098 148.52 459.823L152.191 459.077C152.555 461.391 152.736 463.131 152.736 464.297C152.736 465.253 152.526 466.104 152.105 466.85C151.704 467.595 151.14 468.178 150.413 468.599C149.706 469.02 148.893 469.23 147.975 469.23C147.268 469.23 146.618 469.115 146.025 468.886C145.432 468.637 145.002 468.331 144.734 467.968C144.429 468.37 143.979 468.685 143.387 468.915C142.813 469.125 142.192 469.23 141.522 469.23C140.777 469.23 140.232 469.125 139.888 468.915V469.918V477.289H136.245V469.976C136.245 468.102 136.15 466.496 135.958 465.157C135.767 463.819 135.385 462.203 134.811 460.311L138.31 459.077L139.601 464.068C139.811 464.966 140.337 465.416 141.178 465.416C141.599 465.416 141.943 465.301 142.211 465.071C142.497 464.823 142.641 464.498 142.641 464.096C142.641 463.561 142.45 462.136 142.067 459.823L145.71 459.077Z" fill="#1D1F4E"/>
<path d="M125.645 500.547C131.522 500.547 134.513 505.311 134.513 511.189V575.04C134.513 580.917 131.522 585.682 125.645 585.682L29.8682 585.682C23.9909 585.682 21 580.917 21 575.04L21 511.189C21 505.311 23.9909 500.547 29.8682 500.547L125.645 500.547Z" fill="#FAFAFA"/>
<rect x="67.1152" y="576.816" width="22.1705" height="6.20774" rx="3.10387" fill="#F2F2F2"/>
<circle cx="70.219" cy="579.918" r="1.77364" fill="#CCCCCC"/>
<circle cx="75.5393" cy="579.918" r="1.77364" fill="#CCCCCC"/>
<circle cx="80.8615" cy="579.918" r="1.77364" fill="#CCCCCC"/>
<circle cx="86.1818" cy="579.918" r="1.77364" fill="#CCCCCC"/>
<path d="M39.9854 585.678C41.5034 562.01 34.777 546.774 30.1785 540.583C29.5627 539.754 29.8993 538.511 30.8948 538.226C42.7354 534.836 65.5821 530.994 77.1909 538.871C85.56 544.55 89.4625 558.456 91.0368 570.602" stroke="#F2F2F2" stroke-width="1.77364"/>
<path d="M80.0934 523.811C78.8822 518.386 74.3991 512.961 67.375 512.961C60.351 512.961 56.474 517.783 56.474 523.208C56.474 530.199 56.4737 529.236 56.4737 532.852C56.4737 536.469 59.2008 539.784 61.9244 540.688C64.6479 541.592 70.0988 541.291 74.6428 541.291C80.3404 541.291 81.3048 536.451 81.3047 533.455C81.3047 530.459 80.7554 526.776 80.0934 523.811Z" fill="#FAFAFA" stroke="#A0F8D5" stroke-width="1.77364" stroke-linejoin="round"/>
<path d="M45.4605 585.648C45.629 575.352 42.0844 554.912 58.2983 546.459C68.7926 540.989 81.15 548.982 86.5953 558.546C92.7271 569.315 91.1472 577.511 93.8809 585.672" stroke="#008768" stroke-width="1.77364" stroke-linecap="round" stroke-linejoin="round"/>
<path d="M45.4605 585.648C45.629 575.352 42.0844 554.912 58.2983 546.459C68.7926 540.989 81.15 548.982 86.5953 558.546C92.7271 569.315 91.1472 577.511 93.8809 585.672" stroke="#A0F8D5" stroke-width="1.77364" stroke-linecap="round" stroke-linejoin="round"/>
<path d="M69.4316 532.469C69.3278 534.418 71.6509 535.229 72.7923 534.099" stroke="#55BF98" stroke-width="1.77364" stroke-linecap="round"/>
<path d="M63.5684 524.489C63.5684 526.938 65.5536 528.923 68.0025 528.923C70.4513 528.923 72.4366 526.938 72.4366 524.489V520.646C72.4366 519.34 71.3778 518.281 70.0717 518.281H65.9332C64.6271 518.281 63.5684 519.34 63.5684 520.646V524.489Z" fill="#F2F2F2"/>
<path d="M75.9838 524.489C75.9838 526.938 77.9691 528.923 80.418 528.923C82.8668 528.923 84.8521 526.938 84.8521 524.489V520.646C84.8521 519.34 83.7933 518.281 82.4872 518.281H78.3487C77.0426 518.281 75.9838 519.34 75.9838 520.646V524.489Z" fill="#F2F2F2"/>
<path d="M72.4366 524.489V520.646C72.4366 519.34 71.3778 518.281 70.0717 518.281H65.9332C64.6271 518.281 63.5684 519.34 63.5684 520.646V524.489C63.5684 526.938 65.5536 528.923 68.0025 528.923C70.4513 528.923 72.4366 526.938 72.4366 524.489ZM72.4366 524.489C73.0278 523.898 74.5649 523.07 75.9838 524.489M75.9838 524.489V520.646C75.9838 519.34 77.0426 518.281 78.3487 518.281H82.4872C83.7933 518.281 84.8521 519.34 84.8521 520.646V524.489C84.8521 526.938 82.8668 528.923 80.418 528.923C77.9691 528.923 75.9838 526.938 75.9838 524.489Z" stroke="#008768" stroke-width="1.77364" stroke-linecap="round"/>
<path d="M125.645 500.547C131.522 500.547 134.513 505.311 134.513 511.189V575.04C134.513 580.917 131.522 585.682 125.645 585.682L29.8682 585.682C23.9909 585.682 21 580.917 21 575.04L21 511.189C21 505.311 23.9909 500.547 29.8682 500.547L125.645 500.547Z" stroke="#A6A6A6" stroke-width="1.77364"/>
<rect x="70.6602" y="489.906" width="15.9628" height="7.09456" rx="3.54728" fill="#4864E1"/>
<rect x="77.7559" y="492.566" width="7.09456" height="1.77364" rx="0.886821" fill="white"/>
<circle cx="74.2092" cy="493.453" r="1.77364" fill="white"/>
<path d="M153.295 564.263C167.066 575.637 167.066 592.699 168.214 610.898C167.708 620.165 151.645 634.898 91.6526 620.359C90.8135 620.156 90.2182 619.368 90.2867 618.507C91.4942 603.324 94.2492 591.758 102.798 579.049C113.51 563.125 139.523 552.888 153.295 564.263Z" fill="#FAFAFA"/>
<path d="M168.214 610.898C167.066 592.699 167.066 575.637 153.295 564.263C139.523 552.888 113.51 563.125 102.798 579.049C93.9717 592.171 91.3215 604.073 90.1738 619.997" stroke="#3A4CD6" stroke-width="1.77364" stroke-linecap="round" stroke-linejoin="round"/>
<path d="M116.298 535.958C117.446 526.872 124.637 520.059 133.511 520.059C142.384 520.059 147.283 527.177 147.283 535.958C147.283 544.738 147.283 540.5 147.283 545.043C147.283 549.585 143.837 553.219 140.397 554.355C136.956 555.491 128.925 556.399 123.184 556.399C117.444 556.399 115.148 553.349 115.148 549.585C115.148 545.822 115.149 545.043 116.298 535.958Z" fill="#FAFAFA" stroke="#3A4CD6" stroke-width="1.77364" stroke-linejoin="round"/>
<path d="M121.926 543.84C121.59 543.359 120.927 543.241 120.445 543.578C119.963 543.914 119.845 544.578 120.181 545.059L121.054 544.45L121.926 543.84ZM131.074 545.067C131.415 544.588 131.303 543.924 130.825 543.583C130.346 543.242 129.681 543.354 129.34 543.832L130.207 544.45L131.074 545.067ZM121.054 544.45L120.181 545.059C121.43 546.848 123.578 547.666 125.615 547.666C127.652 547.666 129.805 546.848 131.074 545.067L130.207 544.45L129.34 543.832C128.564 544.922 127.143 545.538 125.615 545.538C124.087 545.538 122.681 544.922 121.926 543.84L121.054 544.45Z" fill="#4864E1"/>
<path d="M119.662 535.207C120.313 536.75 122.411 536.505 122.868 535.204" stroke="#4864E1" stroke-width="2.12837" stroke-linecap="round"/>
<path d="M128.16 535.199C128.811 536.742 130.909 536.497 131.366 535.196" stroke="#4864E1" stroke-width="2.12837" stroke-linecap="round"/>
<path d="M142.449 535.862L143.131 535.29L143.131 535.29L142.449 535.862ZM141.004 537.402C140.546 537.581 140.319 538.094 140.497 538.549C140.674 539.003 141.189 539.226 141.647 539.047L141.326 538.225L141.004 537.402ZM142.786 535.094L142.83 535.977V535.977L142.786 535.094ZM142.941 536.442L143.622 535.87L143.131 535.29L142.449 535.862L141.768 536.434L142.26 537.014L142.941 536.442ZM143.246 535.748L142.431 535.398L142.126 536.092L142.941 536.442L143.756 536.792L144.061 536.097L143.246 535.748ZM142.941 536.442L142.126 536.092C141.85 536.723 141.471 537.219 141.004 537.402L141.326 538.225L141.647 539.047C142.791 538.6 143.423 537.551 143.756 536.792L142.941 536.442ZM142.786 535.094L142.83 535.977C142.532 535.993 142.302 535.691 142.431 535.398L143.246 535.748L144.061 536.097C144.469 535.166 143.742 534.157 142.743 534.211L142.786 535.094ZM142.449 535.862L143.131 535.29C143.353 535.552 143.175 535.959 142.83 535.977L142.786 535.094L142.743 534.211C141.619 534.272 141.045 535.581 141.768 536.434L142.449 535.862Z" fill="#4864E1"/>
<g opacity="0.15" filter="url(#filter9_f_7314_20305)">
<path d="M27.2266 822.477C27.2266 800.385 45.1352 782.477 67.2266 782.477H124.227C146.318 782.477 164.227 800.385 164.227 822.477V843.477C164.227 852.313 157.063 859.477 148.227 859.477H43.2266C34.39 859.477 27.2266 852.313 27.2266 843.477V822.477Z" fill="#4864E1"/>
</g>
<g opacity="0.25" filter="url(#filter10_f_7314_20305)">
<path d="M99.2266 783.477C99.2266 775.192 105.942 768.477 114.227 768.477C122.511 768.477 129.227 775.192 129.227 783.477V802.762C129.227 810.336 123.086 816.477 115.512 816.477H112.941C105.367 816.477 99.2266 810.336 99.2266 802.762V783.477Z" fill="#008768"/>
</g>
<g opacity="0.2" filter="url(#filter11_f_7314_20305)">
<path d="M60.2266 783.477C60.2266 775.192 66.9423 768.477 75.2266 768.477C83.5108 768.477 90.2266 775.192 90.2266 783.477V802.762C90.2266 810.336 84.0865 816.477 76.5123 816.477H73.9408C66.3667 816.477 60.2266 810.336 60.2266 802.762V783.477Z" fill="#4864E1"/>
</g>
<mask id="mask3_7314_20305" style="mask-type:alpha" maskUnits="userSpaceOnUse" x="48" y="712" width="94" height="82">
<path d="M48.7246 768.039C48.7246 737.48 69.5434 712.707 95.2246 712.707C120.906 712.707 141.725 737.48 141.725 768.039C141.725 798.598 120.906 793.367 95.2246 793.367C69.5434 793.367 48.7246 798.598 48.7246 768.039Z" fill="#D9D9D9" fill-opacity="0.1"/>
</mask>
<g mask="url(#mask3_7314_20305)">
<rect x="29.0762" y="703.426" width="29.925" height="29.925" rx="4.2" fill="#BABABA"/>
<rect x="63.2012" y="703.426" width="29.925" height="29.925" rx="4.2" fill="#BABABA"/>
<rect x="97.3262" y="703.426" width="29.925" height="29.925" rx="4.2" fill="#BABABA"/>
<rect x="131.451" y="703.426" width="29.925" height="29.925" rx="4.2" fill="#BABABA"/>
<rect x="29.0762" y="737.551" width="29.925" height="29.925" rx="4.2" fill="#BABABA"/>
<rect x="63.2012" y="737.551" width="29.925" height="29.925" rx="4.2" fill="#BABABA"/>
<rect x="97.3262" y="737.551" width="29.925" height="29.925" rx="4.2" fill="#BABABA"/>
<rect x="131.451" y="737.551" width="29.925" height="29.925" rx="4.2" fill="#BABABA"/>
<rect x="29.0762" y="771.676" width="29.925" height="29.925" rx="4.2" fill="#BABABA"/>
<rect x="63.2012" y="771.676" width="29.925" height="29.925" rx="4.2" fill="#BABABA"/>
<rect x="97.3262" y="771.676" width="29.925" height="29.925" rx="4.2" fill="#BABABA"/>
<rect x="131.451" y="771.676" width="29.925" height="29.925" rx="4.2" fill="#BABABA"/>
</g>
<path d="M118.316 706.865C118.316 697.814 125.654 690.477 134.705 690.477H140.168C149.219 690.477 156.556 697.814 156.556 706.865V717.791C156.556 726.842 149.219 734.179 140.168 734.179H134.705C125.654 734.179 118.316 726.842 118.316 717.791V706.865Z" fill="#4864E1" fill-opacity="0.08"/>
<path d="M136.09 707.872C135.823 707.318 135.689 706.62 135.689 705.779C135.689 704.842 135.928 703.981 136.406 703.198C136.903 702.394 137.572 701.764 138.413 701.305C139.274 700.846 140.22 700.616 141.253 700.616C142.476 700.616 143.729 700.903 145.01 701.477L144.092 704.832C143.098 704.45 142.199 704.259 141.396 704.259C140.746 704.259 140.22 704.45 139.819 704.832C139.436 705.215 139.245 705.693 139.245 706.266C139.245 706.897 139.408 707.385 139.733 707.729C140.077 708.073 140.497 708.245 140.995 708.245C142.046 708.245 143.365 707.92 144.952 707.27L145.841 710.626C143.738 711.563 141.673 712.031 139.647 712.031C138.633 712.031 137.715 711.945 136.893 711.773C136.071 711.582 135.392 711.324 134.857 710.998V711.916V718.828H131.215V711.515C131.215 709.641 131.119 708.035 130.928 706.696C130.737 705.358 130.354 703.742 129.781 701.85L133.28 700.616C133.49 701.266 133.719 702.165 133.968 703.312C134.216 704.459 134.417 705.492 134.57 706.41C134.647 706.811 134.79 707.127 135 707.356C135.211 707.566 135.574 707.739 136.09 707.872Z" fill="#1D1F4E"/>
<path d="M56.4709 787.016C62.1906 786.474 61.1315 777.269 39.6295 782.251C29.1608 784.676 19.0503 794.418 11.3945 804.235L32.9586 816.147C33.7998 814.596 34.6506 813.102 35.4986 811.707C42.8071 799.687 47.7854 799.578 50.963 798.82C54.1407 798.062 57.6361 795.896 57.0005 794.38C56.4921 793.167 55.094 792.832 54.4584 792.815C56.0407 792.622 57.4319 792.206 58.2716 791.348C59.3732 790.221 59.5426 787.557 56.4709 787.016Z" fill="#FAFAFA"/>
<path d="M32.9603 816.147L11.3962 804.234C10.2266 805.734 9.1143 807.236 8.06674 808.713C7.00268 810.214 6.00544 811.69 5.08286 813.115C4.33259 814.273 3.63169 815.397 2.98438 816.472L10.2883 820.363L8.8498 823.241C8.06257 824.816 8.68564 826.734 10.2464 827.54L13.0289 828.977L11.9257 831.179C11.1283 832.77 11.7726 834.709 13.3619 835.501L22.1153 839.863C22.6449 838.493 23.327 836.794 24.1268 834.882C24.7719 833.34 25.4935 831.659 26.2734 829.9C26.9116 828.461 27.5888 826.97 28.2951 825.46C28.9839 823.988 29.7002 822.497 30.4348 821.02C31.2581 819.365 32.1042 817.726 32.9603 816.147Z" fill="#DBDBDB"/>
<path d="M0.226562 821.345C0.985454 819.899 1.91043 818.253 2.98235 816.472M50.3272 786.041C50.7509 786.474 53.6107 787.287 56.4706 787.016C62.1903 786.474 61.1311 777.269 39.6292 782.251C29.1604 784.676 19.05 794.418 11.3942 804.235M51.2805 792.972C52.355 792.972 53.4457 792.939 54.4581 792.815C56.0404 792.622 57.4316 792.206 58.2713 791.348C59.3728 790.221 59.5423 787.557 56.4706 787.016M54.4581 792.815C55.0936 792.832 56.4918 793.167 57.0002 794.38C57.6357 795.896 54.1403 798.062 50.9627 798.82C47.7851 799.578 42.8068 799.687 35.4982 811.707C34.6503 813.102 33.7995 814.596 32.9583 816.147M20.8812 843.438C20.8267 843.354 21.2823 842.014 22.1132 839.864M11.3942 804.235L32.9583 816.147M11.3942 804.235C10.2246 805.735 9.11227 807.236 8.06471 808.714M32.9583 816.147C32.1022 817.726 31.256 819.365 30.4328 821.021M8.06471 808.714L30.4328 821.021M2.98235 816.472C3.62966 815.397 4.33056 814.273 5.08084 813.115C6.00342 811.691 7.00065 810.215 8.06471 808.714M24.1248 834.882C24.7698 833.34 25.4915 831.659 26.2714 829.901C26.9096 828.462 27.5868 826.971 28.2931 825.461C28.9818 823.988 29.6982 822.498 30.4328 821.021M5.08084 813.115L28.2931 825.461M2.98235 816.472L26.2714 829.901M10.8187 827.952L24.1248 834.882M24.1248 834.882C23.325 836.795 22.6428 838.494 22.1132 839.864M13.6785 835.857L22.1132 839.864" stroke="#008768" stroke-width="1.60668" stroke-linecap="round" stroke-linejoin="round"/>
<path d="M94.5624 735.78L111.146 749.228L118.124 815.07C118.674 820.265 114.926 824.924 109.753 825.477L59.168 830.882C53.9944 831.435 49.3541 827.672 48.8035 822.477L41.2273 750.992C40.6768 745.797 44.4245 741.138 49.598 740.585L94.5624 735.78Z" fill="#FAFAFA" stroke="#4864E1" stroke-width="1.60668"/>
<path d="M111.148 749.229L94.5645 735.781L95.4821 744.44C95.8562 747.969 99.0205 750.525 102.55 750.148L111.148 749.229Z" fill="#4864E1" stroke="#A6A6A6" stroke-width="1.60668" stroke-linejoin="round"/>
<path d="M46.3185 787.338C40.924 786.637 36.9884 788.805 35.4277 790.74L40.924 796.843C43.8757 792.841 45.0971 793.741 48.7613 792.841C52.4254 791.94 52.9331 788.197 46.3185 787.338Z" fill="#FAFAFA"/>
<path d="M35.4277 790.74C36.9884 788.805 40.924 786.637 46.3185 787.338C52.9331 788.197 52.4254 791.94 48.7613 792.841C45.0971 793.741 43.8757 792.841 40.924 796.843" stroke="#A6A6A6" stroke-width="1.60668" stroke-linecap="round" stroke-linejoin="round"/>
<path d="M140.062 797.68C139.851 800.932 144.053 798.219 152.995 803.15C160.255 807.153 164.602 815.167 166.209 827.07L188.341 825.497C186.038 812.049 181.479 802.707 177.928 797.68C171.405 788.447 154.784 777.341 152.581 779.425C151.064 780.859 155.205 783.321 156.684 785.09C153.212 782.747 145.126 778.789 143.106 780.803C141.086 782.818 148.472 785.944 151.003 788.447C147.104 786.259 138.163 783.407 136.899 786.574C135.637 789.736 146.157 791.714 149.845 796.211C146.654 795.616 140.23 795.078 140.062 797.68Z" fill="#FAFAFA"/>
<path d="M166.211 827.066C166.781 831.289 167.323 835.88 167.323 840.146L186.603 840.147C188.378 840.147 189.822 838.707 189.772 836.933C189.623 831.578 189.107 829.952 188.343 825.492L166.211 827.066Z" fill="#A0F8D5"/>
<path d="M167.322 842.629C167.322 835.399 166.582 829.825 166.209 827.066M166.209 827.066C164.602 815.162 160.255 807.148 152.995 803.145C144.053 798.214 139.851 800.927 140.062 797.675C140.23 795.073 146.654 795.612 149.845 796.206C146.157 791.71 135.637 789.731 136.899 786.569C138.163 783.402 147.104 786.254 151.003 788.443C148.472 785.939 141.086 782.813 143.106 780.799C145.126 778.784 153.212 782.742 156.684 785.085C155.205 783.317 151.064 780.855 152.581 779.42C154.784 777.336 171.405 788.443 177.928 797.675C181.479 802.702 186.038 812.045 188.341 825.492M166.209 827.066L188.341 825.492M188.341 825.492C188.87 828.579 189.28 831.882 189.532 835.399" stroke="#A6A6A6" stroke-width="1.92801" stroke-linecap="round" stroke-linejoin="round"/>
<rect x="168.93" y="828.973" width="4.8332" height="4.82003" rx="2.41001" fill="#8F8F8F"/>
<path d="M170.656 830.695L172.037 832.072" stroke="#DBDBDB" stroke-width="0.321335" stroke-linecap="round" stroke-linejoin="round"/>
<path d="M172.031 830.695L170.65 832.072" stroke="#DBDBDB" stroke-width="0.321335" stroke-linecap="round" stroke-linejoin="round"/>
<path d="M77.8955 788.485C76.8733 789.079 75.6529 789.452 74.2343 789.604C72.0872 789.834 70.4239 789.421 69.2441 788.365C68.0644 787.308 67.3585 785.697 67.1263 783.531C66.8859 781.288 67.2801 779.539 68.3091 778.285C69.3573 777.029 70.9261 776.288 73.0157 776.064C73.8017 775.98 74.4596 775.968 74.9896 776.027C75.5174 776.068 76.0535 776.185 76.5978 776.379L76.7458 777.759C75.6996 777.406 74.6014 777.291 73.4512 777.414C69.9622 777.788 68.4098 779.767 68.7941 783.352C68.9914 785.192 69.5302 786.511 70.4107 787.309C71.3084 788.085 72.6582 788.377 74.4602 788.184C75.6104 788.061 76.7062 787.701 77.7475 787.104L77.8955 788.485ZM90.7495 774.454L87.1619 787.928L85.2353 788.134L78.8448 775.73L80.5701 775.546L86.0239 786.537L89.0817 774.633L90.7495 774.454Z" fill="#4864E1"/>
</g>
<defs>
<filter id="filter0_f_7314_20305" x="-33" y="31" width="257" height="197" filterUnits="userSpaceOnUse" color-interpolation-filters="sRGB">
<feFlood flood-opacity="0" result="BackgroundImageFix"/>
<feBlend mode="normal" in="SourceGraphic" in2="BackgroundImageFix" result="shape"/>
<feGaussianBlur stdDeviation="30" result="effect1_foregroundBlur_7314_20305"/>
</filter>
<filter id="filter1_f_7314_20305" x="39" y="17" width="150" height="168" filterUnits="userSpaceOnUse" color-interpolation-filters="sRGB">
<feFlood flood-opacity="0" result="BackgroundImageFix"/>
<feBlend mode="normal" in="SourceGraphic" in2="BackgroundImageFix" result="shape"/>
<feGaussianBlur stdDeviation="30" result="effect1_foregroundBlur_7314_20305"/>
</filter>
<filter id="filter2_f_7314_20305" x="0" y="17" width="150" height="168" filterUnits="userSpaceOnUse" color-interpolation-filters="sRGB">
<feFlood flood-opacity="0" result="BackgroundImageFix"/>
<feBlend mode="normal" in="SourceGraphic" in2="BackgroundImageFix" result="shape"/>
<feGaussianBlur stdDeviation="30" result="effect1_foregroundBlur_7314_20305"/>
</filter>
<filter id="filter3_f_7314_20305" x="-33" y="255.957" width="257" height="197" filterUnits="userSpaceOnUse" color-interpolation-filters="sRGB">
<feFlood flood-opacity="0" result="BackgroundImageFix"/>
<feBlend mode="normal" in="SourceGraphic" in2="BackgroundImageFix" result="shape"/>
<feGaussianBlur stdDeviation="30" result="effect1_foregroundBlur_7314_20305"/>
</filter>
<filter id="filter4_f_7314_20305" x="39" y="241.957" width="150" height="168" filterUnits="userSpaceOnUse" color-interpolation-filters="sRGB">
<feFlood flood-opacity="0" result="BackgroundImageFix"/>
<feBlend mode="normal" in="SourceGraphic" in2="BackgroundImageFix" result="shape"/>
<feGaussianBlur stdDeviation="30" result="effect1_foregroundBlur_7314_20305"/>
</filter>
<filter id="filter5_f_7314_20305" x="0" y="241.957" width="150" height="168" filterUnits="userSpaceOnUse" color-interpolation-filters="sRGB">
<feFlood flood-opacity="0" result="BackgroundImageFix"/>
<feBlend mode="normal" in="SourceGraphic" in2="BackgroundImageFix" result="shape"/>
<feGaussianBlur stdDeviation="30" result="effect1_foregroundBlur_7314_20305"/>
</filter>
<filter id="filter6_f_7314_20305" x="-33" y="492.938" width="257" height="197" filterUnits="userSpaceOnUse" color-interpolation-filters="sRGB">
<feFlood flood-opacity="0" result="BackgroundImageFix"/>
<feBlend mode="normal" in="SourceGraphic" in2="BackgroundImageFix" result="shape"/>
<feGaussianBlur stdDeviation="30" result="effect1_foregroundBlur_7314_20305"/>
</filter>
<filter id="filter7_f_7314_20305" x="39" y="478.938" width="150" height="168" filterUnits="userSpaceOnUse" color-interpolation-filters="sRGB">
<feFlood flood-opacity="0" result="BackgroundImageFix"/>
<feBlend mode="normal" in="SourceGraphic" in2="BackgroundImageFix" result="shape"/>
<feGaussianBlur stdDeviation="30" result="effect1_foregroundBlur_7314_20305"/>
</filter>
<filter id="filter8_f_7314_20305" x="0" y="478.938" width="150" height="168" filterUnits="userSpaceOnUse" color-interpolation-filters="sRGB">
<feFlood flood-opacity="0" result="BackgroundImageFix"/>
<feBlend mode="normal" in="SourceGraphic" in2="BackgroundImageFix" result="shape"/>
<feGaussianBlur stdDeviation="30" result="effect1_foregroundBlur_7314_20305"/>
</filter>
<filter id="filter9_f_7314_20305" x="-32.7734" y="722.477" width="257" height="197" filterUnits="userSpaceOnUse" color-interpolation-filters="sRGB">
<feFlood flood-opacity="0" result="BackgroundImageFix"/>
<feBlend mode="normal" in="SourceGraphic" in2="BackgroundImageFix" result="shape"/>
<feGaussianBlur stdDeviation="30" result="effect1_foregroundBlur_7314_20305"/>
</filter>
<filter id="filter10_f_7314_20305" x="39.2266" y="708.477" width="150" height="168" filterUnits="userSpaceOnUse" color-interpolation-filters="sRGB">
<feFlood flood-opacity="0" result="BackgroundImageFix"/>
<feBlend mode="normal" in="SourceGraphic" in2="BackgroundImageFix" result="shape"/>
<feGaussianBlur stdDeviation="30" result="effect1_foregroundBlur_7314_20305"/>
</filter>
<filter id="filter11_f_7314_20305" x="0.226562" y="708.477" width="150" height="168" filterUnits="userSpaceOnUse" color-interpolation-filters="sRGB">
<feFlood flood-opacity="0" result="BackgroundImageFix"/>
<feBlend mode="normal" in="SourceGraphic" in2="BackgroundImageFix" result="shape"/>
<feGaussianBlur stdDeviation="30" result="effect1_foregroundBlur_7314_20305"/>
</filter>
<clipPath id="clip0_7314_20305">
<rect width="190" height="903" fill="white"/>
</clipPath>
</defs>
</svg>
