<svg width="190" height="853" viewBox="0 0 190 853" fill="none" xmlns="http://www.w3.org/2000/svg">
<g clip-path="url(#clip0_7311_20930)">
<path d="M127.776 16.3886C127.776 7.3374 135.114 0 144.165 0H149.628C158.679 0 166.016 7.33741 166.016 16.3886V27.3143C166.016 36.3654 158.679 43.7028 149.628 43.7028H144.165C135.114 43.7028 127.776 36.3654 127.776 27.3143V16.3886Z" fill="#4A4A4A" fill-opacity="0.08"/>
<path d="M145.552 21.0382C145.552 19.1644 145.456 17.5583 145.265 16.2199C145.074 14.8815 144.692 13.2659 144.118 11.373L147.674 10.1398C148.286 12.0326 148.688 13.7248 148.879 15.2161C149.089 16.6884 149.194 18.6099 149.194 20.9808V28.3516H145.552V21.0382Z" fill="#757575"/>
<path d="M91.2959 19.543C91.2959 17.582 92.8857 15.9922 94.8467 15.9922H103.28C105.241 15.9922 106.831 17.582 106.831 19.543V41.3552H91.2959V19.543Z" fill="#F2F2F2" stroke="#CCCCCC" stroke-width="1.77542"/>
<path d="M143.089 57.3549C143.089 56.9259 143.437 56.5781 143.866 56.5781C144.295 56.5781 144.642 56.9259 144.642 57.3549V76.8685H143.089V57.3549Z" fill="#A6A6A6"/>
<path d="M70.5986 11.6986C70.5986 11.2696 70.9464 10.9219 71.3754 10.9219C71.8044 10.9219 72.1521 11.2696 72.1521 11.6986V26.5455H70.5986V11.6986Z" fill="#A6A6A6"/>
<path d="M65.415 21.8431C65.415 21.4142 65.7628 21.0664 66.1918 21.0664C66.6208 21.0664 66.9685 21.4142 66.9685 21.8431V32.6319H65.415V21.8431Z" fill="#A6A6A6"/>
<path d="M60.2275 35.0177C60.2275 30.115 64.2019 26.1406 69.1046 26.1406H103.133C108.036 26.1406 112.01 30.115 112.01 35.0177V152.956H60.2275V35.0177Z" fill="#F2F2F2" stroke="#CCCCCC" stroke-width="1.77542"/>
<rect x="70.5986" y="36.2852" width="31.0696" height="5.07259" rx="2.5363" fill="#A6A6A6"/>
<rect x="70.5986" y="46.4297" width="31.0696" height="5.07259" rx="2.5363" fill="#A6A6A6"/>
<rect x="70.5986" y="56.5781" width="31.0696" height="5.07259" rx="2.5363" fill="#A6A6A6"/>
<rect x="70.5986" y="66.7188" width="31.0696" height="5.07259" rx="2.5363" fill="#A6A6A6"/>
<rect x="70.5986" y="76.8672" width="31.0696" height="5.07259" rx="2.5363" fill="#A6A6A6"/>
<rect x="70.5986" y="87.0117" width="31.0696" height="5.07259" rx="2.5363" fill="#A6A6A6"/>
<rect x="70.5986" y="97.1562" width="31.0696" height="5.07259" rx="2.5363" fill="#A6A6A6"/>
<rect x="70.5986" y="107.297" width="31.0696" height="5.07259" rx="2.5363" fill="#A6A6A6"/>
<rect x="70.5986" y="117.449" width="31.0696" height="5.07259" rx="2.5363" fill="#A6A6A6"/>
<rect x="70.5986" y="127.59" width="31.0696" height="5.07259" rx="2.5363" fill="#A6A6A6"/>
<rect x="70.5986" y="137.738" width="31.0696" height="5.07259" rx="2.5363" fill="#A6A6A6"/>
<path d="M23.9834 80.5349C23.9834 76.5449 28.2089 73.9716 31.7539 75.8026L70.9628 96.0545C73.9129 97.5783 75.766 100.621 75.766 103.942V152.951H32.8605C27.9578 152.951 23.9834 148.976 23.9834 144.073V80.5349Z" fill="#F2F2F2" stroke="#CCCCCC" stroke-width="1.77542"/>
<path d="M96.4854 75.5958C96.4854 70.6932 100.46 66.7188 105.362 66.7188H137.615C143.499 66.7188 148.268 71.488 148.268 77.3713V142.3C148.268 148.184 143.499 152.953 137.615 152.953H96.4854V75.5958Z" fill="#F2F2F2" stroke="#CCCCCC" stroke-width="1.77542"/>
<rect x="106.843" y="76.8672" width="31.0696" height="5.07259" rx="2.5363" fill="#A6A6A6"/>
<rect x="106.843" y="87.0117" width="31.0696" height="5.07259" rx="2.5363" fill="#A6A6A6"/>
<rect x="106.843" y="97.1562" width="31.0696" height="5.07259" rx="2.5363" fill="#A6A6A6"/>
<rect x="106.843" y="107.297" width="31.0696" height="5.07259" rx="2.5363" fill="#A6A6A6"/>
<rect x="106.843" y="117.449" width="31.0696" height="5.07259" rx="2.5363" fill="#A6A6A6"/>
<rect x="106.843" y="127.59" width="31.0696" height="5.07259" rx="2.5363" fill="#A6A6A6"/>
<rect x="106.843" y="137.738" width="31.0696" height="5.07259" rx="2.5363" fill="#A6A6A6"/>
<rect x="34.3428" y="87.0117" width="5.17826" height="5.07259" rx="2.5363" fill="#A6A6A6"/>
<rect x="34.3428" y="97.1562" width="20.7131" height="5.07259" rx="2.5363" fill="#A6A6A6"/>
<rect x="34.3428" y="107.297" width="31.0696" height="5.07259" rx="2.5363" fill="#A6A6A6"/>
<rect x="34.3428" y="117.449" width="31.0696" height="5.07259" rx="2.5363" fill="#A6A6A6"/>
<rect x="34.3428" y="127.59" width="31.0696" height="5.07259" rx="2.5363" fill="#A6A6A6"/>
<rect x="34.3428" y="137.738" width="31.0696" height="5.07259" rx="2.5363" fill="#A6A6A6"/>
<path d="M121.193 233.346C121.193 224.294 128.531 216.957 137.582 216.957H143.045C152.096 216.957 159.433 224.294 159.433 233.346V244.271C159.433 253.322 152.096 260.66 143.045 260.66H137.582C128.531 260.66 121.193 253.322 121.193 244.271V233.346Z" fill="#4A4A4A" fill-opacity="0.08"/>
<path d="M141.365 237.25C140.619 237.25 140.074 237.144 139.73 236.934V237.938V245.309H136.087V237.995C136.087 236.121 135.992 234.515 135.801 233.177C135.609 231.839 135.227 230.223 134.653 228.33L138.152 227.097L139.443 232.087C139.653 232.986 140.179 233.435 141.02 233.435C141.441 233.435 141.785 233.32 142.053 233.091C142.34 232.842 142.483 232.517 142.483 232.116C142.483 231.58 142.292 230.156 141.909 227.842L145.58 227.097C145.963 229.41 146.154 231.15 146.154 232.317C146.154 233.273 145.944 234.123 145.523 234.869C145.122 235.615 144.558 236.198 143.831 236.619C143.104 237.039 142.282 237.25 141.365 237.25Z" fill="#757575"/>
<path d="M71.5118 260.68L91.2149 257.911C99.5854 256.735 107.325 262.567 108.501 270.937L110.418 284.578L104.356 285.43L102.439 271.789C101.733 266.767 97.0892 263.268 92.0669 263.974L72.3638 266.743C67.3415 267.449 63.8423 272.092 64.5482 277.115L66.4652 290.755L60.4027 291.607L58.4857 277.967C57.3093 269.596 63.1413 261.857 71.5118 260.68Z" fill="#757575"/>
<rect x="141.82" y="277.074" width="85.7089" height="116.319" rx="9.18309" transform="rotate(82 141.82 277.074)" fill="#FAFAFA" stroke="#A6A6A6" stroke-width="1.53052" stroke-linejoin="round"/>
<rect x="66.3906" y="323.223" width="52.0375" height="7.65258" rx="3.06103" transform="rotate(82 66.3906 323.223)" fill="#F2F2F2" stroke="#A6A6A6" stroke-width="1.53052" stroke-linejoin="round"/>
<rect x="119.438" y="315.77" width="52.0375" height="7.65258" rx="3.06103" transform="rotate(82 119.438 315.77)" fill="#F2F2F2" stroke="#A6A6A6" stroke-width="1.53052" stroke-linejoin="round"/>
<path d="M130.783 275.536C137.48 274.595 143.671 279.261 144.612 285.957L148.02 310.207C148.256 311.881 147.089 313.429 145.415 313.664L33.2592 329.427C31.5851 329.662 30.0372 328.496 29.8019 326.821L26.3938 302.571C25.4527 295.875 30.1183 289.684 36.8147 288.742L130.783 275.536Z" fill="#E8E8E8" stroke="#A6A6A6" stroke-width="1.53052" stroke-linejoin="round"/>
<rect x="62.3691" y="283.605" width="50.507" height="10.7136" rx="3.06103" transform="rotate(82 62.3691 283.605)" fill="#CCCCCC" stroke="#A6A6A6" stroke-width="1.53052" stroke-linejoin="round"/>
<rect x="115.416" y="276.152" width="50.507" height="10.7136" rx="3.06103" transform="rotate(82 115.416 276.152)" fill="#CCCCCC" stroke="#A6A6A6" stroke-width="1.53052" stroke-linejoin="round"/>
<rect x="135.162" y="333.266" width="33.6713" height="47.446" rx="6.12206" transform="rotate(8 135.162 333.266)" fill="#FAFAFA" stroke="#A6A6A6" stroke-width="1.53052" stroke-linejoin="round"/>
<rect x="136.965" y="364.43" width="12.2441" height="1.53052" rx="0.765258" transform="rotate(8 136.965 364.43)" fill="#A6A6A6"/>
<rect x="136.539" y="367.457" width="21.4272" height="1.53052" rx="0.765258" transform="rotate(8 136.539 367.457)" fill="#A6A6A6"/>
<rect x="136.111" y="370.492" width="21.4272" height="1.53052" rx="0.765258" transform="rotate(8 136.111 370.492)" fill="#A6A6A6"/>
<rect x="135.686" y="373.523" width="6.12206" height="1.53052" rx="0.765258" transform="rotate(8 135.686 373.523)" fill="#A6A6A6"/>
<path d="M152.562 346.917C152.703 345.915 151.84 344.885 150.554 344.704C149.268 344.523 148.156 345.275 148.015 346.278C147.834 347.57 147.843 347.503 147.749 348.171C147.655 348.84 148.084 349.411 148.559 349.648C149.035 349.885 149.906 350.092 150.873 350.087C151.839 350.082 152.218 349.364 152.296 348.81C152.374 348.257 152.483 347.476 152.562 346.917Z" fill="#FAFAFA"/>
<path d="M152.562 346.917C152.703 345.915 151.84 344.885 150.554 344.704C149.268 344.523 148.156 345.275 148.015 346.278C147.834 347.57 147.843 347.503 147.749 348.171C147.655 348.84 148.084 349.411 148.559 349.648C149.035 349.885 149.906 350.092 150.873 350.087C151.839 350.082 152.218 349.364 152.296 348.81C152.374 348.257 152.483 347.476 152.562 346.917Z" fill="#A6A6A6"/>
<path d="M153.169 359.094L153.392 357.506C153.706 355.271 152.028 353.272 149.815 353.243C149.509 353.24 149.206 353.197 148.911 353.116C146.776 352.534 144.612 353.993 144.298 356.228L144.075 357.816" stroke="#A6A6A6" stroke-width="1.53052" stroke-linecap="round" stroke-linejoin="round"/>
<path d="M125.186 465.326C125.186 456.275 132.523 448.938 141.574 448.938H147.037C156.088 448.938 163.426 456.275 163.426 465.326V476.252C163.426 485.303 156.088 492.64 147.037 492.64H141.574C132.523 492.64 125.186 485.303 125.186 476.252V465.326Z" fill="#4A4A4A" fill-opacity="0.08"/>
<path d="M146.102 459.077C146.485 461.314 146.676 463.035 146.676 464.24C146.676 464.412 146.657 464.593 146.618 464.785C146.771 464.995 146.953 465.157 147.163 465.272C147.393 465.368 147.68 465.416 148.024 465.416C148.425 465.416 148.76 465.301 149.028 465.071C149.314 464.823 149.458 464.498 149.458 464.096C149.458 463.523 149.276 462.098 148.913 459.823L152.584 459.077C152.947 461.391 153.129 463.131 153.129 464.297C153.129 465.253 152.918 466.104 152.498 466.85C152.096 467.595 151.532 468.178 150.806 468.599C150.098 469.02 149.286 469.23 148.368 469.23C147.66 469.23 147.01 469.115 146.418 468.886C145.825 468.637 145.395 468.331 145.127 467.968C144.821 468.37 144.372 468.685 143.779 468.915C143.206 469.125 142.584 469.23 141.915 469.23C141.169 469.23 140.624 469.125 140.28 468.915V469.918V477.289H136.638V469.976C136.638 468.102 136.542 466.496 136.351 465.157C136.16 463.819 135.777 462.203 135.204 460.311L138.703 459.077L139.993 464.068C140.204 464.966 140.729 465.416 141.571 465.416C141.991 465.416 142.336 465.301 142.603 465.071C142.89 464.823 143.033 464.498 143.033 464.096C143.033 463.561 142.842 462.136 142.46 459.823L146.102 459.077Z" fill="#757575"/>
<path d="M126.037 500.547C131.915 500.547 134.906 505.311 134.906 511.189V575.04C134.906 580.917 131.915 585.682 126.037 585.682L30.2608 585.682C24.3835 585.682 21.3926 580.917 21.3926 575.04L21.3926 511.189C21.3926 505.311 24.3835 500.547 30.2608 500.547L126.037 500.547Z" fill="#FAFAFA"/>
<rect x="67.5078" y="576.816" width="22.1705" height="6.20774" rx="3.10387" fill="#F2F2F2"/>
<circle cx="70.6115" cy="579.918" r="1.77364" fill="#CCCCCC"/>
<circle cx="75.9318" cy="579.918" r="1.77364" fill="#CCCCCC"/>
<circle cx="81.2541" cy="579.918" r="1.77364" fill="#CCCCCC"/>
<circle cx="86.5744" cy="579.918" r="1.77364" fill="#CCCCCC"/>
<path d="M40.378 585.678C41.896 562.01 35.1696 546.774 30.571 540.583C29.9553 539.754 30.2919 538.511 31.2874 538.226C43.1279 534.836 65.9747 530.994 77.5834 538.871C85.9526 544.55 89.8551 558.456 91.4293 570.602" stroke="#F2F2F2" stroke-width="1.77364"/>
<path d="M80.486 523.811C79.2748 518.386 74.7916 512.961 67.7676 512.961C60.7435 512.961 56.8665 517.783 56.8665 523.208C56.8665 530.199 56.8663 529.236 56.8663 532.852C56.8663 536.469 59.5934 539.784 62.3169 540.688C65.0405 541.592 70.4914 541.291 75.0354 541.291C80.733 541.291 81.6973 536.451 81.6973 533.455C81.6973 530.459 81.148 526.776 80.486 523.811Z" fill="#FAFAFA" stroke="#E8E8E8" stroke-width="1.77364" stroke-linejoin="round"/>
<path d="M45.853 585.648C46.0216 575.352 42.477 554.912 58.6908 546.459C69.1851 540.989 81.5426 548.982 86.9879 558.546C93.1196 569.315 91.5397 577.511 94.2735 585.672" stroke="#A6A6A6" stroke-width="1.77364" stroke-linecap="round" stroke-linejoin="round"/>
<path d="M45.853 585.648C46.0216 575.352 42.477 554.912 58.6908 546.459C69.1851 540.989 81.5426 548.982 86.9879 558.546C93.1196 569.315 91.5397 577.511 94.2735 585.672" stroke="#E8E8E8" stroke-width="1.77364" stroke-linecap="round" stroke-linejoin="round"/>
<path d="M69.8242 532.469C69.7204 534.418 72.0435 535.229 73.1849 534.099" stroke="#DBDBDB" stroke-width="1.77364" stroke-linecap="round"/>
<path d="M63.9609 524.489C63.9609 526.938 65.9462 528.923 68.395 528.923C70.8439 528.923 72.8291 526.938 72.8291 524.489V520.646C72.8291 519.34 71.7704 518.281 70.4643 518.281H66.3258C65.0197 518.281 63.9609 519.34 63.9609 520.646V524.489Z" fill="#F2F2F2"/>
<path d="M76.3764 524.489C76.3764 526.938 78.3616 528.923 80.8105 528.923C83.2594 528.923 85.2446 526.938 85.2446 524.489V520.646C85.2446 519.34 84.1859 518.281 82.8798 518.281H78.7413C77.4352 518.281 76.3764 519.34 76.3764 520.646V524.489Z" fill="#F2F2F2"/>
<path d="M72.8291 524.489V520.646C72.8291 519.34 71.7704 518.281 70.4643 518.281H66.3258C65.0197 518.281 63.9609 519.34 63.9609 520.646V524.489C63.9609 526.938 65.9462 528.923 68.395 528.923C70.8439 528.923 72.8291 526.938 72.8291 524.489ZM72.8291 524.489C73.4204 523.898 74.9575 523.07 76.3764 524.489M76.3764 524.489V520.646C76.3764 519.34 77.4352 518.281 78.7413 518.281H82.8798C84.1859 518.281 85.2446 519.34 85.2446 520.646V524.489C85.2446 526.938 83.2594 528.923 80.8105 528.923C78.3616 528.923 76.3764 526.938 76.3764 524.489Z" stroke="#BABABA" stroke-width="1.77364" stroke-linecap="round"/>
<path d="M126.037 500.547C131.915 500.547 134.906 505.311 134.906 511.189V575.04C134.906 580.917 131.915 585.682 126.037 585.682L30.2608 585.682C24.3835 585.682 21.3926 580.917 21.3926 575.04L21.3926 511.189C21.3926 505.311 24.3835 500.547 30.2608 500.547L126.037 500.547Z" stroke="#A6A6A6" stroke-width="1.77364"/>
<rect x="71.0527" y="489.906" width="15.9628" height="7.09456" rx="3.54728" fill="#BABABA"/>
<rect x="78.1484" y="492.566" width="7.09456" height="1.77364" rx="0.886821" fill="white"/>
<circle cx="74.6018" cy="493.453" r="1.77364" fill="white"/>
<path d="M153.687 564.263C167.459 575.637 167.459 592.699 168.607 610.898C168.101 620.165 152.038 634.898 92.0452 620.359C91.2061 620.156 90.6108 619.368 90.6792 618.507C91.8868 603.324 94.6418 591.758 103.191 579.049C113.902 563.125 139.915 552.888 153.687 564.263Z" fill="#FAFAFA"/>
<path d="M168.607 610.898C167.459 592.699 167.459 575.637 153.687 564.263C139.915 552.888 113.902 563.125 103.191 579.049C94.3643 592.171 91.7141 604.073 90.5664 619.997" stroke="#A6A6A6" stroke-width="1.77364" stroke-linecap="round" stroke-linejoin="round"/>
<path d="M116.69 535.958C117.839 526.872 125.03 520.059 133.903 520.059C142.777 520.059 147.675 527.177 147.675 535.958C147.675 544.738 147.675 540.5 147.675 545.043C147.675 549.585 144.23 553.219 140.789 554.355C137.349 555.491 129.317 556.399 123.577 556.399C117.836 556.399 115.541 553.349 115.541 549.585C115.541 545.822 115.542 545.043 116.69 535.958Z" fill="#FAFAFA" stroke="#A6A6A6" stroke-width="1.77364" stroke-linejoin="round"/>
<path d="M122.319 543.84C121.983 543.359 121.319 543.241 120.837 543.578C120.355 543.914 120.237 544.578 120.574 545.059L121.446 544.45L122.319 543.84ZM131.466 545.067C131.807 544.588 131.696 543.924 131.217 543.583C130.739 543.242 130.074 543.354 129.733 543.832L130.6 544.45L131.466 545.067ZM121.446 544.45L120.574 545.059C121.823 546.848 123.971 547.666 126.007 547.666C128.044 547.666 130.197 546.848 131.466 545.067L130.6 544.45L129.733 543.832C128.957 544.922 127.535 545.538 126.008 545.538C124.48 545.538 123.074 544.922 122.319 543.84L121.446 544.45Z" fill="#A6A6A6"/>
<path d="M120.055 535.207C120.706 536.75 122.803 536.505 123.26 535.204" stroke="#A6A6A6" stroke-width="2.12837" stroke-linecap="round"/>
<path d="M128.553 535.199C129.204 536.742 131.302 536.497 131.758 535.196" stroke="#A6A6A6" stroke-width="2.12837" stroke-linecap="round"/>
<path d="M142.842 535.862L143.523 535.29L143.523 535.29L142.842 535.862ZM141.397 537.402C140.939 537.581 140.712 538.094 140.889 538.549C141.067 539.003 141.582 539.226 142.04 539.047L141.718 538.225L141.397 537.402ZM143.179 535.094L143.222 535.977V535.977L143.179 535.094ZM143.334 536.442L144.015 535.87L143.523 535.29L142.842 535.862L142.161 536.434L142.652 537.014L143.334 536.442ZM143.638 535.748L142.823 535.398L142.519 536.092L143.334 536.442L144.149 536.792L144.453 536.097L143.638 535.748ZM143.334 536.442L142.519 536.092C142.242 536.723 141.863 537.219 141.397 537.402L141.718 538.225L142.04 539.047C143.184 538.6 143.816 537.551 144.149 536.792L143.334 536.442ZM143.179 535.094L143.222 535.977C142.924 535.993 142.695 535.691 142.823 535.398L143.638 535.748L144.453 536.097C144.861 535.166 144.135 534.157 143.135 534.211L143.179 535.094ZM142.842 535.862L143.523 535.29C143.745 535.552 143.567 535.959 143.222 535.977L143.179 535.094L143.135 534.211C142.012 534.272 141.438 535.581 142.161 536.434L142.842 535.862Z" fill="#A6A6A6"/>
<path d="M118.316 706.865C118.316 697.814 125.654 690.477 134.705 690.477H140.168C149.219 690.477 156.556 697.814 156.556 706.865V717.791C156.556 726.842 149.219 734.179 140.168 734.179H134.705C125.654 734.179 118.316 726.842 118.316 717.791V706.865Z" fill="#4A4A4A" fill-opacity="0.08"/>
<path d="M136.09 707.872C135.823 707.318 135.689 706.62 135.689 705.779C135.689 704.842 135.928 703.981 136.406 703.198C136.903 702.394 137.572 701.764 138.413 701.305C139.274 700.846 140.22 700.616 141.253 700.616C142.476 700.616 143.729 700.903 145.01 701.477L144.092 704.832C143.098 704.45 142.199 704.259 141.396 704.259C140.746 704.259 140.22 704.45 139.819 704.832C139.436 705.215 139.245 705.693 139.245 706.266C139.245 706.897 139.408 707.385 139.733 707.729C140.077 708.073 140.497 708.245 140.995 708.245C142.046 708.245 143.365 707.92 144.952 707.27L145.841 710.626C143.738 711.563 141.673 712.031 139.647 712.031C138.633 712.031 137.715 711.945 136.893 711.773C136.071 711.582 135.392 711.324 134.857 710.998V711.916V718.828H131.215V711.515C131.215 709.641 131.119 708.035 130.928 706.696C130.737 705.358 130.354 703.742 129.781 701.85L133.28 700.616C133.49 701.266 133.719 702.165 133.968 703.312C134.216 704.459 134.417 705.492 134.57 706.41C134.647 706.811 134.79 707.127 135 707.356C135.211 707.566 135.574 707.739 136.09 707.872Z" fill="#757575"/>
<path d="M56.4709 787.016C62.1906 786.474 61.1315 777.269 39.6295 782.251C29.1608 784.676 19.0503 794.418 11.3945 804.235L32.9586 816.147C33.7998 814.596 34.6506 813.102 35.4986 811.707C42.8071 799.687 47.7854 799.578 50.963 798.82C54.1407 798.062 57.6361 795.896 57.0005 794.38C56.4921 793.167 55.094 792.832 54.4584 792.815C56.0407 792.622 57.4319 792.206 58.2716 791.348C59.3732 790.221 59.5426 787.557 56.4709 787.016Z" fill="#FAFAFA"/>
<path d="M32.9603 816.147L11.3962 804.234C10.2266 805.734 9.1143 807.236 8.06674 808.713C7.00268 810.214 6.00544 811.69 5.08286 813.115C4.33259 814.273 3.63169 815.397 2.98438 816.472L10.2883 820.363L8.8498 823.241C8.06257 824.816 8.68564 826.734 10.2464 827.54L13.0289 828.977L11.9257 831.179C11.1283 832.77 11.7726 834.709 13.3619 835.501L22.1153 839.863C22.6449 838.493 23.327 836.794 24.1268 834.882C24.7719 833.34 25.4935 831.659 26.2734 829.9C26.9116 828.461 27.5888 826.97 28.2951 825.46C28.9839 823.988 29.7002 822.497 30.4348 821.02C31.2581 819.365 32.1042 817.726 32.9603 816.147Z" fill="#DBDBDB"/>
<path d="M8.06471 808.714C7.00065 810.215 6.00342 811.691 5.08084 813.115C4.33056 814.273 3.62966 815.397 2.98235 816.472C1.91043 818.253 0.985454 819.899 0.226562 821.345M56.4706 787.016C62.1903 786.474 61.1311 777.269 39.6292 782.251C29.1604 784.676 19.05 794.418 11.3942 804.235M56.4706 787.016C53.6107 787.287 50.7509 786.474 50.3272 786.041M56.4706 787.016C59.5423 787.557 59.3728 790.221 58.2713 791.348C57.4315 792.206 56.0404 792.622 54.4581 792.815M51.2805 792.972C52.355 792.972 53.4457 792.939 54.4581 792.815M54.4581 792.815C55.0936 792.832 56.4918 793.167 57.0002 794.38C57.6357 795.896 54.1403 798.062 50.9627 798.82C47.7851 799.578 42.8068 799.687 35.4982 811.707C34.6503 813.102 33.7995 814.596 32.9583 816.147M20.8812 843.438C20.8267 843.354 21.2823 842.014 22.1132 839.864M11.3942 804.235L32.9583 816.147M11.3942 804.235C10.2246 805.735 9.11227 807.236 8.06471 808.714M32.9583 816.147C32.1022 817.726 31.256 819.365 30.4328 821.021M8.06471 808.714L30.4328 821.021M30.4328 821.021C29.6982 822.498 28.9818 823.988 28.2931 825.461M5.08084 813.115L28.2931 825.461M24.1248 834.882C24.7698 833.34 25.4915 831.659 26.2714 829.901C26.9096 828.462 27.5868 826.971 28.2931 825.461M2.98235 816.472L26.2714 829.901M10.8187 827.952L24.1248 834.882M24.1248 834.882C23.325 836.795 22.6428 838.494 22.1132 839.864M13.6785 835.857L22.1132 839.864" stroke="#A6A6A6" stroke-width="1.60668" stroke-linecap="round" stroke-linejoin="round"/>
<path d="M94.5624 735.78L111.146 749.228L118.124 815.07C118.674 820.265 114.926 824.924 109.753 825.477L59.168 830.882C53.9944 831.435 49.3541 827.672 48.8035 822.477L41.2273 750.992C40.6768 745.797 44.4245 741.138 49.598 740.585L94.5624 735.78Z" fill="#FAFAFA" stroke="#A6A6A6" stroke-width="1.60668"/>
<path d="M111.148 749.229L94.5645 735.781L95.4821 744.44C95.8562 747.969 99.0205 750.525 102.55 750.148L111.148 749.229Z" fill="#DBDBDB" stroke="#A6A6A6" stroke-width="1.60668" stroke-linejoin="round"/>
<path d="M46.3185 787.338C40.924 786.637 36.9884 788.805 35.4277 790.74L40.924 796.843C43.8757 792.841 45.0971 793.741 48.7613 792.841C52.4254 791.94 52.9331 788.197 46.3185 787.338Z" fill="#FAFAFA"/>
<path d="M35.4277 790.74C36.9884 788.805 40.924 786.637 46.3185 787.338C52.9331 788.197 52.4254 791.94 48.7613 792.841C45.0971 793.741 43.8757 792.841 40.924 796.843" stroke="#A6A6A6" stroke-width="1.60668" stroke-linecap="round" stroke-linejoin="round"/>
<path d="M140.062 797.68C139.851 800.932 144.053 798.219 152.995 803.15C160.255 807.153 164.602 815.167 166.209 827.07L188.341 825.497C186.038 812.049 181.479 802.707 177.928 797.68C171.405 788.447 154.784 777.341 152.581 779.425C151.064 780.859 155.205 783.321 156.684 785.09C153.212 782.747 145.126 778.789 143.106 780.803C141.086 782.818 148.472 785.944 151.003 788.447C147.104 786.259 138.163 783.407 136.899 786.574C135.637 789.736 146.157 791.714 149.845 796.211C146.654 795.616 140.23 795.078 140.062 797.68Z" fill="#FAFAFA"/>
<path d="M166.211 827.07C166.781 831.292 167.323 835.884 167.323 840.15L186.603 840.15C188.378 840.15 189.822 838.711 189.772 836.937C189.623 831.582 189.107 829.956 188.343 825.496L166.211 827.07Z" fill="#DBDBDB"/>
<path d="M167.322 842.629C167.322 835.399 166.582 829.825 166.209 827.066M166.209 827.066C164.602 815.162 160.255 807.148 152.995 803.145C144.053 798.214 139.851 800.927 140.062 797.675C140.23 795.073 146.654 795.612 149.845 796.206C146.157 791.71 135.637 789.731 136.899 786.569C138.163 783.402 147.104 786.254 151.003 788.443C148.472 785.939 141.086 782.813 143.106 780.799C145.126 778.784 153.212 782.742 156.684 785.085C155.205 783.317 151.064 780.855 152.581 779.42C154.784 777.336 171.405 788.443 177.928 797.675C181.479 802.702 186.038 812.045 188.341 825.492M166.209 827.066L188.341 825.492M188.341 825.492C188.87 828.579 189.28 831.882 189.532 835.399" stroke="#A6A6A6" stroke-width="1.92801" stroke-linecap="round" stroke-linejoin="round"/>
<rect x="168.93" y="828.977" width="4.8332" height="4.82003" rx="2.41001" fill="#8F8F8F"/>
<path d="M170.656 830.699L172.037 832.076" stroke="#DBDBDB" stroke-width="0.321335" stroke-linecap="round" stroke-linejoin="round"/>
<path d="M172.031 830.699L170.65 832.076" stroke="#DBDBDB" stroke-width="0.321335" stroke-linecap="round" stroke-linejoin="round"/>
<path d="M77.8955 788.485C76.8733 789.079 75.6529 789.452 74.2343 789.604C72.0872 789.834 70.4239 789.421 69.2441 788.365C68.0644 787.308 67.3585 785.697 67.1263 783.531C66.8859 781.288 67.2801 779.539 68.3091 778.285C69.3573 777.029 70.9261 776.288 73.0157 776.064C73.8017 775.98 74.4596 775.968 74.9896 776.027C75.5174 776.068 76.0535 776.185 76.5978 776.379L76.7458 777.759C75.6996 777.406 74.6014 777.291 73.4512 777.414C69.9622 777.788 68.4098 779.767 68.7941 783.352C68.9914 785.192 69.5302 786.511 70.4107 787.309C71.3084 788.085 72.6582 788.377 74.4602 788.184C75.6104 788.061 76.7062 787.701 77.7475 787.104L77.8955 788.485ZM90.7495 774.454L87.1619 787.928L85.2353 788.134L78.8448 775.73L80.5701 775.546L86.0239 786.537L89.0817 774.633L90.7495 774.454Z" fill="#757575"/>
</g>
<defs>
<clipPath id="clip0_7311_20930">
<rect width="190" height="853" fill="white"/>
</clipPath>
</defs>
</svg>
