<svg width="190" height="853" viewBox="0 0 190 853" fill="none" xmlns="http://www.w3.org/2000/svg">
<g clip-path="url(#clip0_7318_22191)">
<g opacity="0.15" filter="url(#filter0_f_7318_22191)">
<path d="M27 132C27 109.909 44.9086 92 67 92H124C146.091 92 164 109.909 164 132V153C164 161.837 156.837 169 148 169H43C34.1634 169 27 161.837 27 153V132Z" fill="#4864E1"/>
</g>
<g opacity="0.25" filter="url(#filter1_f_7318_22191)">
<path d="M99 93C99 84.7157 105.716 78 114 78C122.284 78 129 84.7157 129 93V112.286C129 119.86 122.86 126 115.286 126H112.714C105.14 126 99 119.86 99 112.286V93Z" fill="#008768"/>
</g>
<g opacity="0.2" filter="url(#filter2_f_7318_22191)">
<path d="M60 93C60 84.7157 66.7157 78 75 78C83.2843 78 90 84.7157 90 93V112.286C90 119.86 83.8599 126 76.2857 126H73.7143C66.1401 126 60 119.86 60 112.286V93Z" fill="#4864E1"/>
</g>
<mask id="mask0_7318_22191" style="mask-type:alpha" maskUnits="userSpaceOnUse" x="48" y="22" width="94" height="82">
<path d="M48.498 77.5623C48.498 47.0034 69.3168 22.2305 94.998 22.2305C120.679 22.2305 141.498 47.0034 141.498 77.5623C141.498 108.121 120.679 102.89 94.998 102.89C69.3168 102.89 48.498 108.121 48.498 77.5623Z" fill="#D9D9D9" fill-opacity="0.1"/>
</mask>
<g mask="url(#mask0_7318_22191)">
<rect x="28.8496" y="12.9492" width="29.925" height="29.925" rx="4.2" fill="#BABABA"/>
<rect x="62.9746" y="12.9492" width="29.925" height="29.925" rx="4.2" fill="#BABABA"/>
<rect x="97.0996" y="12.9492" width="29.925" height="29.925" rx="4.2" fill="#BABABA"/>
<rect x="131.225" y="12.9492" width="29.925" height="29.925" rx="4.2" fill="#BABABA"/>
<rect x="28.8496" y="47.0742" width="29.925" height="29.925" rx="4.2" fill="#BABABA"/>
<rect x="62.9746" y="47.0742" width="29.925" height="29.925" rx="4.2" fill="#BABABA"/>
<rect x="97.0996" y="47.0742" width="29.925" height="29.925" rx="4.2" fill="#BABABA"/>
<rect x="131.225" y="47.0742" width="29.925" height="29.925" rx="4.2" fill="#BABABA"/>
<rect x="28.8496" y="81.1992" width="29.925" height="29.925" rx="4.2" fill="#BABABA"/>
<rect x="62.9746" y="81.1992" width="29.925" height="29.925" rx="4.2" fill="#BABABA"/>
<rect x="97.0996" y="81.1992" width="29.925" height="29.925" rx="4.2" fill="#BABABA"/>
<rect x="131.225" y="81.1992" width="29.925" height="29.925" rx="4.2" fill="#BABABA"/>
</g>
<path d="M127.793 16.3886C127.793 7.3374 135.13 0 144.182 0H149.644C158.696 0 166.033 7.33741 166.033 16.3886V27.3143C166.033 36.3654 158.696 43.7028 149.644 43.7028H144.182C135.13 43.7028 127.793 36.3654 127.793 27.3143V16.3886Z" fill="#4864E1" fill-opacity="0.08"/>
<path d="M145.569 21.0382C145.569 19.1644 145.473 17.5583 145.282 16.2199C145.091 14.8815 144.708 13.2659 144.135 11.373L147.691 10.1398C148.303 12.0326 148.704 13.7248 148.896 15.2161C149.106 16.6884 149.211 18.6099 149.211 20.9808V28.3516H145.569V21.0382Z" fill="#1D1F4E"/>
<path d="M91.3125 19.543C91.3125 17.582 92.9023 15.9922 94.8633 15.9922H103.296C105.258 15.9922 106.847 17.582 106.847 19.543V41.3552H91.3125V19.543Z" fill="#F2F2F2" stroke="#CCCCCC" stroke-width="1.77542"/>
<path d="M143.105 57.3549C143.105 56.9259 143.453 56.5781 143.882 56.5781C144.311 56.5781 144.659 56.9259 144.659 57.3549V76.8685H143.105V57.3549Z" fill="#4864E1"/>
<path d="M70.6152 11.6986C70.6152 11.2696 70.963 10.9219 71.392 10.9219C71.821 10.9219 72.1687 11.2696 72.1687 11.6986V26.5455H70.6152V11.6986Z" fill="#4864E1"/>
<path d="M65.4316 21.8431C65.4316 21.4142 65.7794 21.0664 66.2084 21.0664C66.6374 21.0664 66.9851 21.4142 66.9851 21.8431V32.6319H65.4316V21.8431Z" fill="#4864E1"/>
<path d="M60.2441 35.0177C60.2441 30.115 64.2185 26.1406 69.1212 26.1406H103.15C108.052 26.1406 112.027 30.115 112.027 35.0177V152.956H60.2441V35.0177Z" fill="#F2F2F2" stroke="#CCCCCC" stroke-width="1.77542"/>
<rect x="70.6152" y="36.2852" width="31.0696" height="5.07259" rx="2.5363" fill="#4864E1"/>
<rect x="70.6152" y="46.4297" width="31.0696" height="5.07259" rx="2.5363" fill="#4864E1"/>
<rect x="70.6152" y="56.5781" width="31.0696" height="5.07259" rx="2.5363" fill="#4864E1"/>
<rect x="70.6152" y="66.7188" width="31.0696" height="5.07259" rx="2.5363" fill="#4864E1"/>
<rect x="70.6152" y="76.8672" width="31.0696" height="5.07259" rx="2.5363" fill="#4864E1"/>
<rect x="70.6152" y="87.0117" width="31.0696" height="5.07259" rx="2.5363" fill="#4864E1"/>
<rect x="70.6152" y="97.1562" width="31.0696" height="5.07259" rx="2.5363" fill="#4864E1"/>
<rect x="70.6152" y="107.297" width="31.0696" height="5.07259" rx="2.5363" fill="#4864E1"/>
<rect x="70.6152" y="117.449" width="31.0696" height="5.07259" rx="2.5363" fill="#4864E1"/>
<rect x="70.6152" y="127.59" width="31.0696" height="5.07259" rx="2.5363" fill="#4864E1"/>
<rect x="70.6152" y="137.738" width="31.0696" height="5.07259" rx="2.5363" fill="#4864E1"/>
<path d="M24 80.5349C24 76.5449 28.2255 73.9716 31.7705 75.8026L70.9794 96.0545C73.9295 97.5783 75.7826 100.621 75.7826 103.942V152.951H32.8771C27.9744 152.951 24 148.976 24 144.073V80.5349Z" fill="#F2F2F2" stroke="#CCCCCC" stroke-width="1.77542"/>
<path d="M96.502 75.5958C96.502 70.6932 100.476 66.7188 105.379 66.7188H137.632C143.515 66.7188 148.285 71.488 148.285 77.3713V142.3C148.285 148.184 143.515 152.953 137.632 152.953H96.502V75.5958Z" fill="#F2F2F2" stroke="#CCCCCC" stroke-width="1.77542"/>
<rect x="106.859" y="76.8672" width="31.0696" height="5.07259" rx="2.5363" fill="#4864E1"/>
<rect x="106.859" y="87.0117" width="31.0696" height="5.07259" rx="2.5363" fill="#4864E1"/>
<rect x="106.859" y="97.1562" width="31.0696" height="5.07259" rx="2.5363" fill="#4864E1"/>
<rect x="106.859" y="107.297" width="31.0696" height="5.07259" rx="2.5363" fill="#4864E1"/>
<rect x="106.859" y="117.449" width="31.0696" height="5.07259" rx="2.5363" fill="#4864E1"/>
<rect x="106.859" y="127.59" width="31.0696" height="5.07259" rx="2.5363" fill="#4864E1"/>
<rect x="106.859" y="137.738" width="31.0696" height="5.07259" rx="2.5363" fill="#4864E1"/>
<rect x="34.3594" y="87.0117" width="5.17826" height="5.07259" rx="2.5363" fill="#4864E1"/>
<rect x="34.3594" y="97.1562" width="20.7131" height="5.07259" rx="2.5363" fill="#4864E1"/>
<rect x="34.3594" y="107.297" width="31.0696" height="5.07259" rx="2.5363" fill="#4864E1"/>
<rect x="34.3594" y="117.449" width="31.0696" height="5.07259" rx="2.5363" fill="#4864E1"/>
<rect x="34.3594" y="127.59" width="31.0696" height="5.07259" rx="2.5363" fill="#4864E1"/>
<rect x="34.3594" y="137.738" width="31.0696" height="5.07259" rx="2.5363" fill="#4864E1"/>
<path d="M121.193 233.346C121.193 224.294 128.531 216.957 137.582 216.957H143.045C152.096 216.957 159.433 224.294 159.433 233.346V244.271C159.433 253.322 152.096 260.66 143.045 260.66H137.582C128.531 260.66 121.193 253.322 121.193 244.271V233.346Z" fill="#4A4A4A" fill-opacity="0.08"/>
<path d="M141.365 237.25C140.619 237.25 140.074 237.144 139.73 236.934V237.938V245.309H136.087V237.995C136.087 236.121 135.992 234.515 135.801 233.177C135.609 231.839 135.227 230.223 134.653 228.33L138.152 227.097L139.443 232.087C139.653 232.986 140.179 233.435 141.02 233.435C141.441 233.435 141.785 233.32 142.053 233.091C142.34 232.842 142.483 232.517 142.483 232.116C142.483 231.58 142.292 230.156 141.909 227.842L145.58 227.097C145.963 229.41 146.154 231.15 146.154 232.317C146.154 233.273 145.944 234.123 145.523 234.869C145.122 235.615 144.558 236.198 143.831 236.619C143.104 237.039 142.282 237.25 141.365 237.25Z" fill="#757575"/>
<path d="M71.5118 260.68L91.2149 257.911C99.5854 256.735 107.325 262.567 108.501 270.937L110.418 284.578L104.356 285.43L102.439 271.789C101.733 266.767 97.0892 263.268 92.0669 263.974L72.3638 266.743C67.3415 267.449 63.8423 272.092 64.5482 277.115L66.4652 290.755L60.4027 291.607L58.4857 277.967C57.3093 269.596 63.1413 261.857 71.5118 260.68Z" fill="#757575"/>
<rect x="141.82" y="277.078" width="85.7089" height="116.319" rx="9.18309" transform="rotate(82 141.82 277.078)" fill="#FAFAFA" stroke="#A6A6A6" stroke-width="1.53052" stroke-linejoin="round"/>
<rect x="66.3906" y="323.227" width="52.0375" height="7.65258" rx="3.06103" transform="rotate(82 66.3906 323.227)" fill="#F2F2F2" stroke="#A6A6A6" stroke-width="1.53052" stroke-linejoin="round"/>
<rect x="119.438" y="315.77" width="52.0375" height="7.65258" rx="3.06103" transform="rotate(82 119.438 315.77)" fill="#F2F2F2" stroke="#A6A6A6" stroke-width="1.53052" stroke-linejoin="round"/>
<path d="M130.783 275.54C137.48 274.599 143.671 279.264 144.612 285.961L148.02 310.211C148.256 311.885 147.089 313.433 145.415 313.668L33.2592 329.431C31.5851 329.666 30.0372 328.499 29.8019 326.825L26.3938 302.575C25.4527 295.879 30.1183 289.688 36.8147 288.746L130.783 275.54Z" fill="#E8E8E8" stroke="#A6A6A6" stroke-width="1.53052" stroke-linejoin="round"/>
<rect x="62.3691" y="283.609" width="50.507" height="10.7136" rx="3.06103" transform="rotate(82 62.3691 283.609)" fill="#CCCCCC" stroke="#A6A6A6" stroke-width="1.53052" stroke-linejoin="round"/>
<rect x="115.416" y="276.152" width="50.507" height="10.7136" rx="3.06103" transform="rotate(82 115.416 276.152)" fill="#CCCCCC" stroke="#A6A6A6" stroke-width="1.53052" stroke-linejoin="round"/>
<rect x="135.162" y="333.27" width="33.6713" height="47.446" rx="6.12206" transform="rotate(8 135.162 333.27)" fill="#FAFAFA" stroke="#A6A6A6" stroke-width="1.53052" stroke-linejoin="round"/>
<rect x="136.965" y="364.434" width="12.2441" height="1.53052" rx="0.765258" transform="rotate(8 136.965 364.434)" fill="#A6A6A6"/>
<rect x="136.539" y="367.461" width="21.4272" height="1.53052" rx="0.765258" transform="rotate(8 136.539 367.461)" fill="#A6A6A6"/>
<rect x="136.111" y="370.496" width="21.4272" height="1.53052" rx="0.765258" transform="rotate(8 136.111 370.496)" fill="#A6A6A6"/>
<rect x="135.686" y="373.527" width="6.12206" height="1.53052" rx="0.765258" transform="rotate(8 135.686 373.527)" fill="#A6A6A6"/>
<path d="M152.562 346.921C152.703 345.919 151.84 344.889 150.554 344.708C149.268 344.527 148.156 345.279 148.015 346.282C147.834 347.574 147.843 347.507 147.749 348.175C147.655 348.843 148.084 349.415 148.559 349.652C149.035 349.889 149.906 350.096 150.873 350.091C151.839 350.085 152.218 349.368 152.296 348.814C152.374 348.261 152.483 347.48 152.562 346.921Z" fill="#FAFAFA"/>
<path d="M152.562 346.921C152.703 345.919 151.84 344.889 150.554 344.708C149.268 344.527 148.156 345.279 148.015 346.282C147.834 347.574 147.843 347.507 147.749 348.175C147.655 348.843 148.084 349.415 148.559 349.652C149.035 349.889 149.906 350.096 150.873 350.091C151.839 350.085 152.218 349.368 152.296 348.814C152.374 348.261 152.483 347.48 152.562 346.921Z" fill="#A6A6A6"/>
<path d="M153.169 359.098L153.392 357.51C153.706 355.275 152.028 353.276 149.815 353.247C149.509 353.243 149.206 353.201 148.911 353.12C146.776 352.538 144.612 353.997 144.298 356.232L144.075 357.82" stroke="#A6A6A6" stroke-width="1.53052" stroke-linecap="round" stroke-linejoin="round"/>
<g opacity="0.15" filter="url(#filter3_f_7318_22191)">
<path d="M27 355.957C27 333.866 44.9086 315.957 67 315.957H124C146.091 315.957 164 333.866 164 355.957V376.957C164 385.794 156.837 392.957 148 392.957H43C34.1634 392.957 27 385.794 27 376.957V355.957Z" fill="#4864E1"/>
</g>
<g opacity="0.25" filter="url(#filter4_f_7318_22191)">
<path d="M99 316.957C99 308.673 105.716 301.957 114 301.957C122.284 301.957 129 308.673 129 316.957V336.243C129 343.817 122.86 349.957 115.286 349.957H112.714C105.14 349.957 99 343.817 99 336.243V316.957Z" fill="#008768"/>
</g>
<g opacity="0.2" filter="url(#filter5_f_7318_22191)">
<path d="M60 316.957C60 308.673 66.7157 301.957 75 301.957C83.2843 301.957 90 308.673 90 316.957V336.243C90 343.817 83.8599 349.957 76.2857 349.957H73.7143C66.1401 349.957 60 343.817 60 336.243V316.957Z" fill="#4864E1"/>
</g>
<mask id="mask1_7318_22191" style="mask-type:alpha" maskUnits="userSpaceOnUse" x="48" y="246" width="94" height="82">
<path d="M48.498 301.519C48.498 270.96 69.3168 246.188 94.998 246.188C120.679 246.188 141.498 270.96 141.498 301.519C141.498 332.078 120.679 326.847 94.998 326.847C69.3168 326.847 48.498 332.078 48.498 301.519Z" fill="#D9D9D9" fill-opacity="0.1"/>
</mask>
<g mask="url(#mask1_7318_22191)">
<rect x="28.8496" y="236.906" width="29.925" height="29.925" rx="4.2" fill="#BABABA"/>
<rect x="62.9746" y="236.906" width="29.925" height="29.925" rx="4.2" fill="#BABABA"/>
<rect x="97.0996" y="236.906" width="29.925" height="29.925" rx="4.2" fill="#BABABA"/>
<rect x="131.225" y="236.906" width="29.925" height="29.925" rx="4.2" fill="#BABABA"/>
<rect x="28.8496" y="271.031" width="29.925" height="29.925" rx="4.2" fill="#BABABA"/>
<rect x="62.9746" y="271.031" width="29.925" height="29.925" rx="4.2" fill="#BABABA"/>
<rect x="97.0996" y="271.031" width="29.925" height="29.925" rx="4.2" fill="#BABABA"/>
<rect x="131.225" y="271.031" width="29.925" height="29.925" rx="4.2" fill="#BABABA"/>
<rect x="28.8496" y="305.156" width="29.925" height="29.925" rx="4.2" fill="#BABABA"/>
<rect x="62.9746" y="305.156" width="29.925" height="29.925" rx="4.2" fill="#BABABA"/>
<rect x="97.0996" y="305.156" width="29.925" height="29.925" rx="4.2" fill="#BABABA"/>
<rect x="131.225" y="305.156" width="29.925" height="29.925" rx="4.2" fill="#BABABA"/>
</g>
<path d="M120.698 233.346C120.698 224.294 128.036 216.957 137.087 216.957H142.55C151.601 216.957 158.938 224.294 158.938 233.346V244.271C158.938 253.322 151.601 260.66 142.55 260.66H137.087C128.036 260.66 120.698 253.322 120.698 244.271V233.346Z" fill="#4864E1" fill-opacity="0.08"/>
<path d="M140.869 237.25C140.124 237.25 139.579 237.144 139.235 236.934V237.938V245.309H135.592V237.995C135.592 236.121 135.497 234.515 135.305 233.177C135.114 231.839 134.732 230.223 134.158 228.33L137.657 227.097L138.948 232.087C139.158 232.986 139.684 233.435 140.525 233.435C140.946 233.435 141.29 233.32 141.558 233.091C141.845 232.842 141.988 232.517 141.988 232.116C141.988 231.58 141.797 230.156 141.414 227.842L145.085 227.097C145.468 229.41 145.659 231.15 145.659 232.317C145.659 233.273 145.449 234.123 145.028 234.869C144.626 235.615 144.062 236.198 143.336 236.619C142.609 237.039 141.787 237.25 140.869 237.25Z" fill="#1D1F4E"/>
<path d="M71.0167 260.684L90.7198 257.915C99.0903 256.739 106.83 262.571 108.006 270.941L109.923 284.582L103.861 285.434L101.944 271.793C101.238 266.771 96.5941 263.272 91.5718 263.978L71.8687 266.747C66.8464 267.453 63.3472 272.096 64.053 277.119L65.9701 290.759L59.9076 291.611L57.9906 277.971C56.8142 269.6 62.6462 261.861 71.0167 260.684Z" fill="#4864E1"/>
<rect x="141.325" y="277.078" width="85.7089" height="116.319" rx="9.18309" transform="rotate(82 141.325 277.078)" fill="#FAFAFA" stroke="#A6A6A6" stroke-width="1.53052" stroke-linejoin="round"/>
<rect x="65.8955" y="323.227" width="52.0375" height="7.65258" rx="3.06103" transform="rotate(82 65.8955 323.227)" fill="#4864E1" stroke="#A6A6A6" stroke-width="1.53052" stroke-linejoin="round"/>
<rect x="118.942" y="315.773" width="52.0375" height="7.65258" rx="3.06103" transform="rotate(82 118.942 315.773)" fill="#4864E1" stroke="#A6A6A6" stroke-width="1.53052" stroke-linejoin="round"/>
<path d="M130.288 275.54C136.985 274.599 143.176 279.264 144.117 285.961L147.525 310.211C147.761 311.885 146.594 313.433 144.92 313.668L32.7641 329.431C31.09 329.666 29.5421 328.499 29.3068 326.825L25.8987 302.575C24.9576 295.879 29.6232 289.688 36.3196 288.746L130.288 275.54Z" fill="#E8E8E8" stroke="#A6A6A6" stroke-width="1.53052" stroke-linejoin="round"/>
<rect x="61.874" y="283.609" width="50.507" height="10.7136" rx="3.06103" transform="rotate(82 61.874 283.609)" fill="#CCCCCC" stroke="#A6A6A6" stroke-width="1.53052" stroke-linejoin="round"/>
<rect x="114.921" y="276.156" width="50.507" height="10.7136" rx="3.06103" transform="rotate(82 114.921 276.156)" fill="#CCCCCC" stroke="#A6A6A6" stroke-width="1.53052" stroke-linejoin="round"/>
<rect x="134.667" y="333.27" width="33.6713" height="47.446" rx="6.12206" transform="rotate(8 134.667 333.27)" fill="#4864E1" stroke="#A6A6A6" stroke-width="1.53052" stroke-linejoin="round"/>
<rect x="136.47" y="364.434" width="12.2441" height="1.53052" rx="0.765258" transform="rotate(8 136.47 364.434)" fill="#FAFAFA"/>
<rect x="136.044" y="367.461" width="21.4272" height="1.53052" rx="0.765258" transform="rotate(8 136.044 367.461)" fill="#FAFAFA"/>
<rect x="135.616" y="370.496" width="21.4272" height="1.53052" rx="0.765258" transform="rotate(8 135.616 370.496)" fill="#FAFAFA"/>
<rect x="135.19" y="373.527" width="6.12206" height="1.53052" rx="0.765258" transform="rotate(8 135.19 373.527)" fill="#FAFAFA"/>
<path d="M152.067 346.921C152.208 345.919 151.345 344.889 150.059 344.708C148.773 344.527 147.661 345.279 147.52 346.282C147.339 347.574 147.348 347.507 147.254 348.175C147.16 348.843 147.589 349.415 148.064 349.652C148.539 349.889 149.411 350.096 150.377 350.091C151.344 350.085 151.723 349.368 151.801 348.814C151.879 348.261 151.988 347.48 152.067 346.921Z" fill="#FAFAFA"/>
<path d="M152.067 346.921C152.208 345.919 151.345 344.889 150.059 344.708C148.773 344.527 147.661 345.279 147.52 346.282C147.339 347.574 147.348 347.507 147.254 348.175C147.16 348.843 147.589 349.415 148.064 349.652C148.539 349.889 149.411 350.096 150.377 350.091C151.344 350.085 151.723 349.368 151.801 348.814C151.879 348.261 151.988 347.48 152.067 346.921Z" fill="#FAFAFA"/>
<path d="M152.673 359.098L152.897 357.51C153.211 355.275 151.533 353.276 149.32 353.247C149.014 353.243 148.711 353.201 148.416 353.12C146.281 352.538 144.117 353.997 143.803 356.232L143.58 357.82" stroke="#FAFAFA" stroke-width="1.53052" stroke-linecap="round" stroke-linejoin="round"/>
<g opacity="0.15" filter="url(#filter6_f_7318_22191)">
<path d="M27 592.941C27 570.85 44.9086 552.941 67 552.941H124C146.091 552.941 164 570.85 164 592.941V613.941C164 622.778 156.837 629.941 148 629.941H43C34.1634 629.941 27 622.778 27 613.941V592.941Z" fill="#4864E1"/>
</g>
<g opacity="0.25" filter="url(#filter7_f_7318_22191)">
<path d="M99 553.941C99 545.657 105.716 538.941 114 538.941C122.284 538.941 129 545.657 129 553.941V573.227C129 580.801 122.86 586.941 115.286 586.941H112.714C105.14 586.941 99 580.801 99 573.227V553.941Z" fill="#008768"/>
</g>
<g opacity="0.2" filter="url(#filter8_f_7318_22191)">
<path d="M60 553.941C60 545.657 66.7157 538.941 75 538.941C83.2843 538.941 90 545.657 90 553.941V573.227C90 580.801 83.8599 586.941 76.2857 586.941H73.7143C66.1401 586.941 60 580.801 60 573.227V553.941Z" fill="#4864E1"/>
</g>
<mask id="mask2_7318_22191" style="mask-type:alpha" maskUnits="userSpaceOnUse" x="48" y="483" width="94" height="82">
<path d="M48.498 538.504C48.498 507.945 69.3168 483.172 94.998 483.172C120.679 483.172 141.498 507.945 141.498 538.504C141.498 569.063 120.679 563.832 94.998 563.832C69.3168 563.832 48.498 569.063 48.498 538.504Z" fill="#D9D9D9" fill-opacity="0.1"/>
</mask>
<g mask="url(#mask2_7318_22191)">
<rect x="28.8496" y="473.891" width="29.925" height="29.925" rx="4.2" fill="#BABABA"/>
<rect x="62.9746" y="473.891" width="29.925" height="29.925" rx="4.2" fill="#BABABA"/>
<rect x="97.0996" y="473.891" width="29.925" height="29.925" rx="4.2" fill="#BABABA"/>
<rect x="131.225" y="473.891" width="29.925" height="29.925" rx="4.2" fill="#BABABA"/>
<rect x="28.8496" y="508.016" width="29.925" height="29.925" rx="4.2" fill="#BABABA"/>
<rect x="62.9746" y="508.016" width="29.925" height="29.925" rx="4.2" fill="#BABABA"/>
<rect x="97.0996" y="508.016" width="29.925" height="29.925" rx="4.2" fill="#BABABA"/>
<rect x="131.225" y="508.016" width="29.925" height="29.925" rx="4.2" fill="#BABABA"/>
<rect x="28.8496" y="542.141" width="29.925" height="29.925" rx="4.2" fill="#BABABA"/>
<rect x="62.9746" y="542.141" width="29.925" height="29.925" rx="4.2" fill="#BABABA"/>
<rect x="97.0996" y="542.141" width="29.925" height="29.925" rx="4.2" fill="#BABABA"/>
<rect x="131.225" y="542.141" width="29.925" height="29.925" rx="4.2" fill="#BABABA"/>
</g>
<path d="M124.793 465.33C124.793 456.279 132.13 448.941 141.182 448.941H146.644C155.696 448.941 163.033 456.279 163.033 465.33V476.256C163.033 485.307 155.696 492.644 146.644 492.644H141.182C132.13 492.644 124.793 485.307 124.793 476.256V465.33Z" fill="#4864E1" fill-opacity="0.08"/>
<path d="M145.71 459.081C146.092 461.318 146.283 463.039 146.283 464.244C146.283 464.416 146.264 464.597 146.226 464.788C146.379 464.999 146.56 465.161 146.771 465.276C147 465.372 147.287 465.419 147.631 465.419C148.033 465.419 148.367 465.305 148.635 465.075C148.922 464.827 149.065 464.502 149.065 464.1C149.065 463.527 148.884 462.102 148.52 459.827L152.191 459.081C152.555 461.395 152.736 463.135 152.736 464.301C152.736 465.257 152.526 466.108 152.105 466.853C151.704 467.599 151.14 468.182 150.413 468.603C149.706 469.024 148.893 469.234 147.975 469.234C147.268 469.234 146.618 469.119 146.025 468.89C145.432 468.641 145.002 468.335 144.734 467.972C144.429 468.373 143.979 468.689 143.387 468.918C142.813 469.129 142.192 469.234 141.522 469.234C140.777 469.234 140.232 469.129 139.888 468.918V469.922V477.293H136.245V469.98C136.245 468.106 136.15 466.5 135.958 465.161C135.767 463.823 135.385 462.207 134.811 460.314L138.31 459.081L139.601 464.071C139.811 464.97 140.337 465.419 141.178 465.419C141.599 465.419 141.943 465.305 142.211 465.075C142.497 464.827 142.641 464.502 142.641 464.1C142.641 463.565 142.45 462.14 142.067 459.827L145.71 459.081Z" fill="#1D1F4E"/>
<path d="M125.645 500.555C131.522 500.555 134.513 505.319 134.513 511.197V575.048C134.513 580.925 131.522 585.689 125.645 585.689L29.8682 585.689C23.9909 585.689 21 580.925 21 575.048L21 511.197C21 505.319 23.9909 500.555 29.8682 500.555L125.645 500.555Z" fill="#FAFAFA"/>
<rect x="67.1152" y="576.82" width="22.1705" height="6.20774" rx="3.10387" fill="#F2F2F2"/>
<circle cx="70.219" cy="579.922" r="1.77364" fill="#CCCCCC"/>
<circle cx="75.5393" cy="579.922" r="1.77364" fill="#CCCCCC"/>
<circle cx="80.8615" cy="579.922" r="1.77364" fill="#CCCCCC"/>
<circle cx="86.1818" cy="579.922" r="1.77364" fill="#CCCCCC"/>
<path d="M39.9854 585.686C41.5034 562.018 34.777 546.782 30.1785 540.591C29.5627 539.762 29.8993 538.519 30.8948 538.234C42.7354 534.843 65.5821 531.002 77.1909 538.879C85.56 544.558 89.4625 558.464 91.0368 570.61" stroke="#F2F2F2" stroke-width="1.77364"/>
<path d="M80.0934 523.819C78.8822 518.394 74.3991 512.969 67.375 512.969C60.351 512.969 56.474 517.791 56.474 523.216C56.474 530.207 56.4737 529.243 56.4737 532.86C56.4737 536.477 59.2008 539.792 61.9244 540.696C64.6479 541.6 70.0988 541.299 74.6428 541.299C80.3404 541.299 81.3048 536.459 81.3047 533.463C81.3047 530.467 80.7554 526.784 80.0934 523.819Z" fill="#FAFAFA" stroke="#A0F8D5" stroke-width="1.77364" stroke-linejoin="round"/>
<path d="M45.4605 585.655C45.629 575.359 42.0844 554.92 58.2983 546.467C68.7926 540.996 81.15 548.99 86.5953 558.554C92.7271 569.323 91.1472 577.519 93.8809 585.68" stroke="#008768" stroke-width="1.77364" stroke-linecap="round" stroke-linejoin="round"/>
<path d="M45.4605 585.655C45.629 575.359 42.0844 554.92 58.2983 546.467C68.7926 540.996 81.15 548.99 86.5953 558.554C92.7271 569.323 91.1472 577.519 93.8809 585.68" stroke="#A0F8D5" stroke-width="1.77364" stroke-linecap="round" stroke-linejoin="round"/>
<path d="M69.4316 532.477C69.3278 534.425 71.6509 535.237 72.7923 534.107" stroke="#55BF98" stroke-width="1.77364" stroke-linecap="round"/>
<path d="M63.5684 524.497C63.5684 526.946 65.5536 528.931 68.0025 528.931C70.4513 528.931 72.4366 526.946 72.4366 524.497V520.654C72.4366 519.348 71.3778 518.289 70.0717 518.289H65.9332C64.6271 518.289 63.5684 519.348 63.5684 520.654V524.497Z" fill="#F2F2F2"/>
<path d="M75.9838 524.497C75.9838 526.946 77.9691 528.931 80.418 528.931C82.8668 528.931 84.8521 526.946 84.8521 524.497V520.654C84.8521 519.348 83.7933 518.289 82.4872 518.289H78.3487C77.0426 518.289 75.9838 519.348 75.9838 520.654V524.497Z" fill="#F2F2F2"/>
<path d="M72.4366 524.497V520.654C72.4366 519.348 71.3778 518.289 70.0717 518.289H65.9332C64.6271 518.289 63.5684 519.348 63.5684 520.654V524.497C63.5684 526.946 65.5536 528.931 68.0025 528.931C70.4513 528.931 72.4366 526.946 72.4366 524.497ZM72.4366 524.497C73.0278 523.906 74.5649 523.078 75.9838 524.497M75.9838 524.497V520.654C75.9838 519.348 77.0426 518.289 78.3487 518.289H82.4872C83.7933 518.289 84.8521 519.348 84.8521 520.654V524.497C84.8521 526.946 82.8668 528.931 80.418 528.931C77.9691 528.931 75.9838 526.946 75.9838 524.497Z" stroke="#008768" stroke-width="1.77364" stroke-linecap="round"/>
<path d="M125.645 500.555C131.522 500.555 134.513 505.319 134.513 511.197V575.048C134.513 580.925 131.522 585.689 125.645 585.689L29.8682 585.689C23.9909 585.689 21 580.925 21 575.048L21 511.197C21 505.319 23.9909 500.555 29.8682 500.555L125.645 500.555Z" stroke="#A6A6A6" stroke-width="1.77364"/>
<rect x="70.6602" y="489.91" width="15.9628" height="7.09456" rx="3.54728" fill="#4864E1"/>
<rect x="77.7559" y="492.57" width="7.09456" height="1.77364" rx="0.886821" fill="white"/>
<circle cx="74.2092" cy="493.457" r="1.77364" fill="white"/>
<path d="M153.295 564.263C167.066 575.637 167.066 592.699 168.214 610.898C167.708 620.165 151.645 634.898 91.6526 620.359C90.8135 620.156 90.2182 619.368 90.2867 618.507C91.4942 603.324 94.2492 591.758 102.798 579.049C113.51 563.125 139.523 552.888 153.295 564.263Z" fill="#FAFAFA"/>
<path d="M168.214 610.898C167.066 592.699 167.066 575.637 153.295 564.263C139.523 552.888 113.51 563.125 102.798 579.049C93.9717 592.171 91.3215 604.073 90.1738 619.997" stroke="#3A4CD6" stroke-width="1.77364" stroke-linecap="round" stroke-linejoin="round"/>
<path d="M116.298 535.962C117.446 526.876 124.637 520.062 133.511 520.062C142.384 520.062 147.283 527.181 147.283 535.962C147.283 544.742 147.283 540.504 147.283 545.047C147.283 549.589 143.837 553.223 140.397 554.359C136.956 555.495 128.925 556.403 123.184 556.403C117.444 556.403 115.148 553.352 115.148 549.589C115.148 545.826 115.149 545.047 116.298 535.962Z" fill="#FAFAFA" stroke="#3A4CD6" stroke-width="1.77364" stroke-linejoin="round"/>
<path d="M121.926 543.84C121.59 543.359 120.927 543.241 120.445 543.578C119.963 543.914 119.845 544.578 120.181 545.059L121.054 544.45L121.926 543.84ZM131.074 545.067C131.415 544.588 131.303 543.924 130.825 543.583C130.346 543.242 129.681 543.354 129.34 543.832L130.207 544.45L131.074 545.067ZM121.054 544.45L120.181 545.059C121.43 546.848 123.578 547.666 125.615 547.666C127.652 547.666 129.805 546.848 131.074 545.067L130.207 544.45L129.34 543.832C128.564 544.922 127.143 545.538 125.615 545.538C124.087 545.538 122.681 544.922 121.926 543.84L121.054 544.45Z" fill="#4864E1"/>
<path d="M119.662 535.211C120.313 536.754 122.411 536.509 122.868 535.208" stroke="#4864E1" stroke-width="2.12837" stroke-linecap="round"/>
<path d="M128.16 535.203C128.811 536.746 130.909 536.501 131.366 535.2" stroke="#4864E1" stroke-width="2.12837" stroke-linecap="round"/>
<path d="M142.449 535.87L143.131 535.298L143.131 535.298L142.449 535.87ZM141.004 537.409C140.546 537.588 140.319 538.102 140.497 538.556C140.674 539.011 141.189 539.234 141.647 539.055L141.326 538.232L141.004 537.409ZM142.786 535.102L142.83 535.985V535.985L142.786 535.102ZM142.941 536.45L143.622 535.878L143.131 535.298L142.449 535.87L141.768 536.442L142.26 537.022L142.941 536.45ZM143.246 535.755L142.431 535.406L142.126 536.1L142.941 536.45L143.756 536.8L144.061 536.105L143.246 535.755ZM142.941 536.45L142.126 536.1C141.85 536.73 141.471 537.227 141.004 537.409L141.326 538.232L141.647 539.055C142.791 538.608 143.423 537.559 143.756 536.8L142.941 536.45ZM142.786 535.102L142.83 535.985C142.532 536.001 142.302 535.699 142.431 535.406L143.246 535.755L144.061 536.105C144.469 535.174 143.742 534.165 142.743 534.219L142.786 535.102ZM142.449 535.87L143.131 535.298C143.353 535.56 143.175 535.966 142.83 535.985L142.786 535.102L142.743 534.219C141.619 534.279 141.045 535.589 141.768 536.442L142.449 535.87Z" fill="#4864E1"/>
<path d="M118.316 706.869C118.316 697.818 125.654 690.48 134.705 690.48H140.168C149.219 690.48 156.556 697.818 156.556 706.869V717.795C156.556 726.846 149.219 734.183 140.168 734.183H134.705C125.654 734.183 118.316 726.846 118.316 717.795V706.869Z" fill="#4A4A4A" fill-opacity="0.08"/>
<path d="M136.09 707.876C135.823 707.322 135.689 706.624 135.689 705.783C135.689 704.846 135.928 703.985 136.406 703.201C136.903 702.398 137.572 701.767 138.413 701.309C139.274 700.85 140.22 700.62 141.253 700.62C142.476 700.62 143.729 700.907 145.01 701.481L144.092 704.836C143.098 704.454 142.199 704.263 141.396 704.263C140.746 704.263 140.22 704.454 139.819 704.836C139.436 705.219 139.245 705.697 139.245 706.27C139.245 706.901 139.408 707.389 139.733 707.733C140.077 708.077 140.497 708.249 140.995 708.249C142.046 708.249 143.365 707.924 144.952 707.274L145.841 710.63C143.738 711.566 141.673 712.035 139.647 712.035C138.633 712.035 137.715 711.949 136.893 711.777C136.071 711.586 135.392 711.327 134.857 711.002V711.92V718.832H131.215V711.519C131.215 709.645 131.119 708.039 130.928 706.7C130.737 705.362 130.354 703.746 129.781 701.853L133.28 700.62C133.49 701.27 133.719 702.169 133.968 703.316C134.216 704.463 134.417 705.496 134.57 706.414C134.647 706.815 134.79 707.131 135 707.36C135.211 707.57 135.574 707.742 136.09 707.876Z" fill="#757575"/>
<path d="M56.4709 787.02C62.1906 786.477 61.1315 777.273 39.6295 782.254C29.1608 784.68 19.0503 794.421 11.3945 804.239L32.9586 816.151C33.7998 814.6 34.6506 813.106 35.4986 811.711C42.8071 799.691 47.7854 799.582 50.963 798.824C54.1407 798.066 57.6361 795.9 57.0005 794.384C56.4921 793.171 55.094 792.836 54.4584 792.819C56.0407 792.626 57.4319 792.21 58.2716 791.351C59.3732 790.225 59.5426 787.561 56.4709 787.02Z" fill="#FAFAFA"/>
<path d="M32.9603 816.151L11.3962 804.238C10.2266 805.738 9.1143 807.24 8.06674 808.717C7.00268 810.218 6.00544 811.694 5.08286 813.118C4.33259 814.277 3.63169 815.401 2.98438 816.476L10.2883 820.367L8.8498 823.245C8.06257 824.82 8.68564 826.738 10.2464 827.544L13.0289 828.981L11.9257 831.183C11.1283 832.774 11.7726 834.713 13.3619 835.505L22.1152 839.867C22.6449 838.497 23.327 836.798 24.1268 834.886C24.7719 833.343 25.4935 831.663 26.2734 829.904C26.9116 828.465 27.5888 826.974 28.2951 825.464C28.9839 823.992 29.7002 822.501 30.4348 821.024C31.2581 819.369 32.1042 817.73 32.9603 816.151Z" fill="#DBDBDB"/>
<path d="M8.06471 808.718C7.00065 810.219 6.00342 811.695 5.08084 813.119C4.33056 814.277 3.62966 815.401 2.98235 816.476C1.91043 818.256 0.985454 819.903 0.226562 821.349M56.4706 787.02C62.1903 786.477 61.1311 777.273 39.6292 782.254C29.1604 784.68 19.05 794.421 11.3942 804.239M56.4706 787.02C53.6107 787.291 50.7509 786.478 50.3272 786.045M56.4706 787.02C59.5423 787.561 59.3728 790.225 58.2713 791.351C57.4315 792.21 56.0404 792.626 54.4581 792.819M51.2805 792.976C52.355 792.976 53.4457 792.943 54.4581 792.819M54.4581 792.819C55.0936 792.836 56.4918 793.171 57.0002 794.384C57.6357 795.9 54.1403 798.066 50.9627 798.824C47.7851 799.582 42.8068 799.691 35.4982 811.711C34.6503 813.106 33.7995 814.6 32.9583 816.151M20.8812 843.442C20.8267 843.358 21.2823 842.018 22.1132 839.868M11.3942 804.239L32.9583 816.151M11.3942 804.239C10.2246 805.739 9.11227 807.24 8.06471 808.718M32.9583 816.151C32.1022 817.73 31.256 819.369 30.4328 821.025M8.06471 808.718L30.4328 821.025M30.4328 821.025C29.6982 822.502 28.9818 823.992 28.2931 825.465M5.08084 813.119L28.2931 825.465M24.1248 834.886C24.7698 833.344 25.4915 831.663 26.2714 829.905C26.9096 828.466 27.5868 826.975 28.2931 825.465M2.98235 816.476L26.2714 829.905M10.8187 827.955L24.1248 834.886M24.1248 834.886C23.325 836.798 22.6428 838.498 22.1132 839.868M13.6785 835.861L22.1132 839.868" stroke="#A6A6A6" stroke-width="1.60668" stroke-linecap="round" stroke-linejoin="round"/>
<path d="M94.5624 735.784L111.146 749.232L118.124 815.074C118.674 820.268 114.926 824.928 109.753 825.481L59.168 830.886C53.9944 831.438 49.3541 827.675 48.8035 822.481L41.2273 750.996C40.6768 745.801 44.4245 741.142 49.598 740.589L94.5624 735.784Z" fill="#FAFAFA" stroke="#A6A6A6" stroke-width="1.60668"/>
<path d="M111.148 749.233L94.5645 735.785L95.4821 744.444C95.8562 747.973 99.0205 750.529 102.55 750.152L111.148 749.233Z" fill="#DBDBDB" stroke="#A6A6A6" stroke-width="1.60668" stroke-linejoin="round"/>
<path d="M46.3185 787.342C40.924 786.641 36.9884 788.809 35.4277 790.744L40.924 796.847C43.8757 792.844 45.0971 793.745 48.7613 792.844C52.4254 791.944 52.9331 788.201 46.3185 787.342Z" fill="#FAFAFA"/>
<path d="M35.4277 790.744C36.9884 788.809 40.924 786.641 46.3185 787.342C52.9331 788.201 52.4254 791.944 48.7613 792.844C45.0971 793.745 43.8757 792.844 40.924 796.847" stroke="#A6A6A6" stroke-width="1.60668" stroke-linecap="round" stroke-linejoin="round"/>
<path d="M140.062 797.684C139.851 800.936 144.053 798.223 152.995 803.154C160.255 807.157 164.602 815.17 166.209 827.074L188.341 825.501C186.038 812.053 181.479 802.711 177.928 797.684C171.405 788.451 154.784 777.345 152.581 779.429C151.064 780.863 155.205 783.325 156.684 785.094C153.212 782.751 145.126 778.793 143.106 780.807C141.086 782.822 148.472 785.948 151.003 788.451C147.104 786.263 138.163 783.411 136.899 786.577C135.637 789.74 146.157 791.718 149.845 796.215C146.654 795.62 140.23 795.082 140.062 797.684Z" fill="#FAFAFA"/>
<path d="M166.211 827.074C166.781 831.296 167.323 835.888 167.323 840.154L186.603 840.154C188.378 840.154 189.822 838.715 189.772 836.941C189.623 831.586 189.107 829.96 188.343 825.5L166.211 827.074Z" fill="#DBDBDB"/>
<path d="M167.322 842.633C167.322 835.403 166.582 829.829 166.209 827.07M166.209 827.07C164.602 815.166 160.255 807.152 152.995 803.149C144.053 798.218 139.851 800.931 140.062 797.679C140.23 795.077 146.654 795.616 149.845 796.21C146.157 791.714 135.637 789.735 136.899 786.573C138.163 783.406 147.104 786.258 151.003 788.447C148.472 785.943 141.086 782.817 143.106 780.803C145.126 778.788 153.212 782.746 156.684 785.089C155.205 783.32 151.064 780.858 152.581 779.424C154.784 777.34 171.405 788.447 177.928 797.679C181.479 802.706 186.038 812.049 188.341 825.496M166.209 827.07L188.341 825.496M188.341 825.496C188.87 828.583 189.28 831.886 189.532 835.403" stroke="#A6A6A6" stroke-width="1.92801" stroke-linecap="round" stroke-linejoin="round"/>
<rect x="168.93" y="828.98" width="4.8332" height="4.82003" rx="2.41001" fill="#8F8F8F"/>
<path d="M170.656 830.703L172.037 832.08" stroke="#DBDBDB" stroke-width="0.321335" stroke-linecap="round" stroke-linejoin="round"/>
<path d="M172.031 830.703L170.65 832.08" stroke="#DBDBDB" stroke-width="0.321335" stroke-linecap="round" stroke-linejoin="round"/>
<path d="M77.8955 788.488C76.8733 789.083 75.6529 789.456 74.2343 789.608C72.0872 789.838 70.4239 789.425 69.2441 788.369C68.0644 787.312 67.3585 785.701 67.1263 783.535C66.8859 781.292 67.2801 779.543 68.3091 778.289C69.3573 777.032 70.9261 776.292 73.0157 776.068C73.8017 775.984 74.4596 775.972 74.9896 776.031C75.5174 776.072 76.0535 776.189 76.5978 776.382L76.7458 777.763C75.6996 777.409 74.6014 777.294 73.4512 777.418C69.9622 777.792 68.4098 779.771 68.7941 783.356C68.9914 785.196 69.5302 786.515 70.4107 787.313C71.3084 788.089 72.6582 788.381 74.4602 788.188C75.6104 788.064 76.7062 787.705 77.7475 787.108L77.8955 788.488ZM90.7495 774.458L87.1619 787.931L85.2353 788.138L78.8448 775.734L80.5701 775.549L86.0239 786.541L89.0817 774.637L90.7495 774.458Z" fill="#757575"/>
</g>
<defs>
<filter id="filter0_f_7318_22191" x="-33" y="32" width="257" height="197" filterUnits="userSpaceOnUse" color-interpolation-filters="sRGB">
<feFlood flood-opacity="0" result="BackgroundImageFix"/>
<feBlend mode="normal" in="SourceGraphic" in2="BackgroundImageFix" result="shape"/>
<feGaussianBlur stdDeviation="30" result="effect1_foregroundBlur_7318_22191"/>
</filter>
<filter id="filter1_f_7318_22191" x="39" y="18" width="150" height="168" filterUnits="userSpaceOnUse" color-interpolation-filters="sRGB">
<feFlood flood-opacity="0" result="BackgroundImageFix"/>
<feBlend mode="normal" in="SourceGraphic" in2="BackgroundImageFix" result="shape"/>
<feGaussianBlur stdDeviation="30" result="effect1_foregroundBlur_7318_22191"/>
</filter>
<filter id="filter2_f_7318_22191" x="0" y="18" width="150" height="168" filterUnits="userSpaceOnUse" color-interpolation-filters="sRGB">
<feFlood flood-opacity="0" result="BackgroundImageFix"/>
<feBlend mode="normal" in="SourceGraphic" in2="BackgroundImageFix" result="shape"/>
<feGaussianBlur stdDeviation="30" result="effect1_foregroundBlur_7318_22191"/>
</filter>
<filter id="filter3_f_7318_22191" x="-33" y="255.957" width="257" height="197" filterUnits="userSpaceOnUse" color-interpolation-filters="sRGB">
<feFlood flood-opacity="0" result="BackgroundImageFix"/>
<feBlend mode="normal" in="SourceGraphic" in2="BackgroundImageFix" result="shape"/>
<feGaussianBlur stdDeviation="30" result="effect1_foregroundBlur_7318_22191"/>
</filter>
<filter id="filter4_f_7318_22191" x="39" y="241.957" width="150" height="168" filterUnits="userSpaceOnUse" color-interpolation-filters="sRGB">
<feFlood flood-opacity="0" result="BackgroundImageFix"/>
<feBlend mode="normal" in="SourceGraphic" in2="BackgroundImageFix" result="shape"/>
<feGaussianBlur stdDeviation="30" result="effect1_foregroundBlur_7318_22191"/>
</filter>
<filter id="filter5_f_7318_22191" x="0" y="241.957" width="150" height="168" filterUnits="userSpaceOnUse" color-interpolation-filters="sRGB">
<feFlood flood-opacity="0" result="BackgroundImageFix"/>
<feBlend mode="normal" in="SourceGraphic" in2="BackgroundImageFix" result="shape"/>
<feGaussianBlur stdDeviation="30" result="effect1_foregroundBlur_7318_22191"/>
</filter>
<filter id="filter6_f_7318_22191" x="-33" y="492.941" width="257" height="197" filterUnits="userSpaceOnUse" color-interpolation-filters="sRGB">
<feFlood flood-opacity="0" result="BackgroundImageFix"/>
<feBlend mode="normal" in="SourceGraphic" in2="BackgroundImageFix" result="shape"/>
<feGaussianBlur stdDeviation="30" result="effect1_foregroundBlur_7318_22191"/>
</filter>
<filter id="filter7_f_7318_22191" x="39" y="478.941" width="150" height="168" filterUnits="userSpaceOnUse" color-interpolation-filters="sRGB">
<feFlood flood-opacity="0" result="BackgroundImageFix"/>
<feBlend mode="normal" in="SourceGraphic" in2="BackgroundImageFix" result="shape"/>
<feGaussianBlur stdDeviation="30" result="effect1_foregroundBlur_7318_22191"/>
</filter>
<filter id="filter8_f_7318_22191" x="0" y="478.941" width="150" height="168" filterUnits="userSpaceOnUse" color-interpolation-filters="sRGB">
<feFlood flood-opacity="0" result="BackgroundImageFix"/>
<feBlend mode="normal" in="SourceGraphic" in2="BackgroundImageFix" result="shape"/>
<feGaussianBlur stdDeviation="30" result="effect1_foregroundBlur_7318_22191"/>
</filter>
<clipPath id="clip0_7318_22191">
<rect width="190" height="853" fill="white"/>
</clipPath>
</defs>
</svg>
