<svg width="15" height="13" viewBox="0 0 15 13" fill="none" xmlns="http://www.w3.org/2000/svg">
<path d="M4.1 11.1667V1.68519C4.1 1.37085 4.22643 1.0694 4.45147 0.847133C4.67652 0.624867 4.98174 0.5 5.3 0.5H7.7C8.01826 0.5 8.32348 0.624867 8.54853 0.847133C8.77357 1.0694 8.9 1.37085 8.9 1.68519V11.1667H1.7C1.03726 11.1667 0.5 10.636 0.5 9.98148V4.05556C0.5 3.401 1.03726 2.87037 1.7 2.87037H11.3C11.9627 2.87037 12.5 3.401 12.5 4.05556V7.83333M12.5 9.83333V11.1667M12.5 11.1667V12.5M12.5 11.1667H13.8333M12.5 11.1667H11.1667" stroke="#757575" stroke-linecap="round" stroke-linejoin="round"/>
</svg>
