<svg width="15" height="14" viewBox="0 0 15 14" fill="none" xmlns="http://www.w3.org/2000/svg">
<path d="M4.35 11.4167V1.93519C4.35 1.62085 4.47643 1.3194 4.70147 1.09713C4.92652 0.874867 5.23174 0.75 5.55 0.75H7.95C8.26826 0.75 8.57348 0.874867 8.79853 1.09713C9.02357 1.3194 9.15 1.62085 9.15 1.93519V11.4167H1.95C1.28726 11.4167 0.75 10.886 0.75 10.2315V4.30556C0.75 3.651 1.28726 3.12037 1.95 3.12037H11.55C12.2127 3.12037 12.75 3.651 12.75 4.30556V8.08333M12.75 10.0833V11.4167M12.75 11.4167V12.75M12.75 11.4167H14.0833M12.75 11.4167H11.4167" stroke="#757575" stroke-width="1.5" stroke-linecap="round" stroke-linejoin="round"/>
</svg>
