<svg width="18" height="16" viewBox="0 0 18 16" fill="none" xmlns="http://www.w3.org/2000/svg">
<path d="M8.99935 15.1663C4.79893 15.1663 1.38477 11.953 1.38477 7.99967C1.38477 4.04634 4.79893 0.833008 8.99935 0.833008C13.1998 0.833008 16.6139 4.04634 16.6139 7.99967C16.6139 11.953 13.1998 15.1663 8.99935 15.1663ZM8.99935 1.83301C5.38685 1.83301 2.44727 4.59967 2.44727 7.99967C2.44727 11.3997 5.38685 14.1663 8.99935 14.1663C12.6118 14.1663 15.5514 11.3997 15.5514 7.99967C15.5514 4.59967 12.6118 1.83301 8.99935 1.83301Z" fill="#4864E1"/>
<path d="M11.4785 8.5H7.22852C6.9381 8.5 6.69727 8.27333 6.69727 8C6.69727 7.72667 6.9381 7.5 7.22852 7.5H11.4785C11.7689 7.5 12.0098 7.72667 12.0098 8C12.0098 8.27333 11.7689 8.5 11.4785 8.5Z" fill="#4864E1"/>
<path d="M8.64667 10.5003C8.51208 10.5003 8.3775 10.4536 8.27125 10.3536L6.14625 8.35362C5.94083 8.16029 5.94083 7.84029 6.14625 7.64695L8.27125 5.64695C8.47667 5.45362 8.81667 5.45362 9.02208 5.64695C9.2275 5.84029 9.2275 6.16029 9.02208 6.35362L7.2725 8.00029L9.02208 9.64695C9.2275 9.84029 9.2275 10.1603 9.02208 10.3536C8.91583 10.4536 8.78125 10.5003 8.64667 10.5003Z" fill="#4864E1"/>
</svg>
