<svg width="23" height="24" viewBox="0 0 23 24" fill="none" xmlns="http://www.w3.org/2000/svg">
<path d="M15.9326 17.0544C13.1445 19.8425 8.61201 19.8425 5.82388 17.0544C3.03576 14.2662 3.03576 9.73377 5.82388 6.94565C8.61201 4.15753 13.1445 4.15753 15.9326 6.94565C18.7207 9.73377 18.7207 14.2662 15.9326 17.0544ZM6.52914 7.65091C4.13126 10.0488 4.13126 13.9512 6.52914 16.3491C8.92702 18.747 12.8295 18.747 15.2273 16.3491C17.6252 13.9512 17.6252 10.0488 15.2273 7.65091C12.8295 5.25303 8.92702 5.25303 6.52914 7.65091Z" fill="#5574FF"/>
<path d="M12.877 13.9979C12.6842 14.1907 12.3645 14.1907 12.1717 13.9979L9.35068 11.1768C9.15791 10.9841 9.15791 10.6644 9.35068 10.4716C9.54345 10.2788 9.86316 10.2788 10.0559 10.4716L12.877 13.2926C13.0697 13.4854 13.0697 13.8051 12.877 13.9979Z" fill="#5574FF"/>
<path d="M12.4062 10.7068C12.3169 10.7961 12.1947 10.8525 12.0536 10.8525L9.73095 10.8525L9.73095 13.1752C9.73095 13.4479 9.50527 13.6735 9.23257 13.6735C8.95987 13.6735 8.73418 13.4479 8.73418 13.1752L8.73418 10.3541C8.73418 10.0814 8.95987 9.85575 9.23257 9.85575L12.0536 9.85575C12.3263 9.85575 12.552 10.0814 12.552 10.3541C12.552 10.4952 12.4956 10.6174 12.4062 10.7068Z" fill="#5574FF"/>
</svg>
