<svg width="16" height="16" viewBox="0 0 16 16" fill="none" xmlns="http://www.w3.org/2000/svg">
<path d="M7.99984 15.1665C7.59984 15.1665 7.20651 15.0732 6.88651 14.8932L3.73318 13.0732C2.42651 12.1932 2.33984 12.0332 2.33984 10.6532V7.34654C2.33984 5.96654 2.42651 5.80654 3.70651 4.94654L6.89318 3.10654C7.52651 2.73988 8.47984 2.73988 9.11318 3.10654L12.2665 4.92654C13.5732 5.80654 13.6598 5.96654 13.6598 7.34654V10.6532C13.6598 12.0332 13.5732 12.1932 12.2932 13.0532L9.10651 14.8932C8.79318 15.0799 8.39318 15.1665 7.99984 15.1665ZM7.99984 3.83321C7.77318 3.83321 7.54651 3.87988 7.38651 3.97321L4.23318 5.79321C3.33984 6.39988 3.33984 6.39988 3.33984 7.34654V10.6532C3.33984 11.5999 3.33984 11.5999 4.26651 12.2265L7.39318 14.0265C7.71318 14.2132 8.29318 14.2132 8.61318 14.0265L11.7665 12.2065C12.6598 11.5999 12.6598 11.5999 12.6598 10.6532V7.34654C12.6598 6.39988 12.6598 6.39988 11.7332 5.77321L8.60651 3.97321C8.45318 3.87988 8.22651 3.83321 7.99984 3.83321Z" fill="#292C31"/>
<path d="M11.6673 5.58683C11.394 5.58683 11.1673 5.36016 11.1673 5.08683V3.3335C11.1673 2.28016 10.7207 1.8335 9.66732 1.8335H6.33398C5.28065 1.8335 4.83398 2.28016 4.83398 3.3335V5.04016C4.83398 5.3135 4.60732 5.54016 4.33398 5.54016C4.06065 5.54016 3.83398 5.32016 3.83398 5.04016V3.3335C3.83398 1.72016 4.72065 0.833496 6.33398 0.833496H9.66732C11.2807 0.833496 12.1673 1.72016 12.1673 3.3335V5.08683C12.1673 5.36016 11.9407 5.58683 11.6673 5.58683Z" fill="#292C31"/>
<path d="M9.08748 11.7534C8.94748 11.7534 8.80081 11.7267 8.65414 11.6667L8.00081 11.4134L7.34748 11.6734C6.99414 11.8134 6.63414 11.7801 6.36748 11.5867C6.10081 11.3934 5.96081 11.0601 5.98081 10.6801L6.02081 9.98008L5.57414 9.44008C5.33414 9.14008 5.25414 8.79341 5.36081 8.47341C5.46081 8.16008 5.73414 7.92008 6.10081 7.82674L6.78081 7.65341L7.16081 7.06008C7.56748 6.42008 8.44081 6.42008 8.84748 7.06008L9.22748 7.65341L9.90748 7.82674C10.2741 7.92008 10.5475 8.16008 10.6475 8.47341C10.7475 8.78674 10.6675 9.14008 10.4275 9.43341L9.98081 9.97341L10.0208 10.6734C10.0408 11.0534 9.90081 11.3801 9.63414 11.5801C9.47414 11.6934 9.28748 11.7534 9.08748 11.7534ZM6.34748 8.80008L6.79414 9.34008C6.94748 9.52008 7.03414 9.80674 7.02081 10.0401L6.98081 10.7401L7.63414 10.4801C7.85414 10.3934 8.14748 10.3934 8.36748 10.4801L9.02081 10.7401L8.98081 10.0401C8.96748 9.80674 9.05414 9.52674 9.20748 9.34008L9.65414 8.80008L8.97414 8.62674C8.74748 8.56674 8.50748 8.39341 8.38081 8.20008L8.00748 7.61341L7.62748 8.20008C7.50081 8.40008 7.26081 8.57341 7.03414 8.63341L6.34748 8.80008Z" fill="#292D32"/>
</svg>
