<svg width="16" height="16" viewBox="0 0 16 16" fill="none" xmlns="http://www.w3.org/2000/svg">
<g clip-path="url(#clip0_5478_14918)">
<path d="M10.4 13.3327V3.8512C10.4 3.53687 10.2736 3.23541 10.0485 3.01315C9.82348 2.79088 9.51826 2.66602 9.2 2.66602H6.8C6.48174 2.66602 6.17652 2.79088 5.95147 3.01315C5.72643 3.23541 5.6 3.53687 5.6 3.8512V13.3327M3.2 5.03639H12.8C13.4627 5.03639 14 5.56701 14 6.22157V12.1475C14 12.8021 13.4627 13.3327 12.8 13.3327H3.2C2.53726 13.3327 2 12.8021 2 12.1475V6.22157C2 5.56701 2.53726 5.03639 3.2 5.03639Z" stroke="#757575" stroke-width="1.5" stroke-linecap="round" stroke-linejoin="round"/>
</g>
<defs>
<clipPath id="clip0_5478_14918">
<rect width="16" height="16" fill="white"/>
</clipPath>
</defs>
</svg>
