<svg width="24" height="24" viewBox="0 0 24 24" fill="none" xmlns="http://www.w3.org/2000/svg"><path d="M9.569 3.338 C 9.452 3.366,9.218 3.457,9.049 3.540 C 8.655 3.733,8.121 4.255,7.943 4.620 C 7.729 5.062,7.709 5.172,7.684 6.020 L 7.660 6.820 5.940 6.841 C 4.078 6.864,4.125 6.858,3.620 7.103 C 3.321 7.249,2.746 7.806,2.566 8.126 C 2.496 8.250,2.403 8.492,2.359 8.662 C 2.282 8.964,2.280 9.115,2.281 13.776 C 2.281 19.061,2.270 18.813,2.529 19.350 C 2.623 19.543,2.756 19.718,3.000 19.965 C 3.281 20.250,3.399 20.338,3.680 20.471 C 3.867 20.560,4.115 20.652,4.232 20.676 C 4.531 20.738,19.469 20.738,19.768 20.676 C 20.493 20.527,21.254 19.887,21.548 19.180 C 21.719 18.767,21.720 18.750,21.719 13.768 C 21.719 8.495,21.730 8.736,21.470 8.202 C 21.299 7.851,20.721 7.268,20.380 7.103 C 19.874 6.858,19.922 6.864,18.060 6.841 L 16.340 6.820 16.316 6.020 C 16.300 5.473,16.274 5.163,16.233 5.040 C 16.096 4.628,15.939 4.379,15.600 4.035 C 15.319 3.750,15.201 3.662,14.920 3.529 C 14.733 3.440,14.485 3.348,14.368 3.324 C 14.049 3.258,9.847 3.271,9.569 3.338 M14.230 4.835 C 14.345 4.887,14.504 5.001,14.584 5.089 C 14.829 5.361,14.855 5.463,14.857 6.180 L 14.860 6.820 12.000 6.820 L 9.140 6.820 9.143 6.180 C 9.145 5.472,9.170 5.368,9.401 5.105 C 9.551 4.934,9.772 4.810,10.014 4.761 C 10.105 4.742,11.044 4.730,12.100 4.733 L 14.020 4.740 14.230 4.835 M7.660 13.780 L 7.660 19.260 6.120 19.260 C 4.586 19.260,4.579 19.260,4.370 19.165 C 4.140 19.061,3.909 18.832,3.806 18.606 C 3.746 18.473,3.739 18.042,3.729 13.924 C 3.722 10.947,3.732 9.312,3.759 9.164 C 3.829 8.782,4.143 8.436,4.509 8.337 C 4.652 8.298,5.075 8.287,6.180 8.292 L 7.660 8.300 7.660 13.780 M14.860 13.780 L 14.860 19.260 12.000 19.260 L 9.140 19.260 9.130 13.820 C 9.124 10.828,9.128 8.357,9.139 8.330 C 9.154 8.290,9.749 8.282,12.009 8.290 L 14.860 8.300 14.860 13.780 M19.647 8.392 C 19.861 8.497,20.096 8.740,20.194 8.954 C 20.254 9.087,20.260 9.513,20.260 13.780 C 20.260 18.047,20.254 18.473,20.194 18.606 C 20.091 18.832,19.860 19.061,19.630 19.165 C 19.421 19.260,19.414 19.260,17.880 19.260 L 16.340 19.260 16.330 13.820 C 16.324 10.828,16.328 8.357,16.339 8.328 C 16.355 8.286,16.663 8.278,17.910 8.288 C 19.436 8.300,19.463 8.301,19.647 8.392 " stroke="none" fill-rule="evenodd" fill="black"></path></svg>