<svg width="91" height="99" viewBox="0 0 91 99" fill="none" xmlns="http://www.w3.org/2000/svg">
<path d="M11.5 23.6667C11.5 18.0518 16.0518 13.5 21.6667 13.5H46.3571C60.7954 13.5 72.5 25.2046 72.5 39.6429V69.5982C72.5 72.3054 70.3054 74.5 67.5982 74.5H16.4018C13.6946 74.5 11.5 72.3054 11.5 69.5982V23.6667Z" fill="#4864E1"/>
<path d="M33.798 34.7739V30.6731C33.798 29.5855 34.2301 28.5424 34.9991 27.7734C35.7682 27.0043 36.8112 26.5723 37.8988 26.5723H46.1005C47.1881 26.5723 48.2312 27.0043 49.0003 27.7734C49.7693 28.5424 50.2014 29.5855 50.2014 30.6731V34.7739M41.9997 45.026V45.0466M23.5459 47.0765C29.2698 49.9608 35.5901 51.4632 41.9997 51.4632C48.4092 51.4632 54.7295 49.9608 60.4535 47.0765M23.5459 38.8748C23.5459 37.7872 23.9779 36.7441 24.747 35.9751C25.5161 35.206 26.5591 34.7739 27.6467 34.7739H41.9997H56.3526C57.4402 34.7739 58.4833 35.206 59.2524 35.9751C60.0214 36.7441 60.4535 37.7872 60.4535 38.8748V57.3286C60.4535 58.4162 60.0214 59.4592 59.2524 60.2283C58.4833 60.9974 57.4402 61.4294 56.3526 61.4294H27.6467C26.5591 61.4294 25.5161 60.9974 24.747 60.2283C23.9779 59.4592 23.5459 58.4162 23.5459 57.3286V38.8748Z" stroke="#F6F8FE" stroke-width="2.90476" stroke-linecap="round" stroke-linejoin="round"/>
<path d="M82.4988 30.096H85.3468V27.344H86.6748V30.096H89.5068V31.44H86.6748V34.208H85.3468V31.44H82.4988V30.096Z" fill="#4864E1"/>
<path d="M9.49875 86.096H12.3468V83.344H13.6748V86.096H16.5068V87.44H13.6748V90.208H12.3468V87.44H9.49875V86.096Z" fill="#4864E1"/>
<path d="M74.3741 24.072H76.5101V22.008H77.5061V24.072H79.6301V25.08H77.5061V27.156H76.5101V25.08H74.3741V24.072Z" fill="#4864E1"/>
<path d="M1.37406 80.072H3.51006V78.008H4.50606V80.072H6.63006V81.08H4.50606V83.156H3.51006V81.08H1.37406V80.072Z" fill="#4864E1"/>
<path d="M70.4988 12.096H73.3468V9.344H74.6748V12.096H77.5068V13.44H74.6748V16.208H73.3468V13.44H70.4988V12.096Z" fill="#4864E1"/>
</svg>
