<svg width="24" height="24" viewBox="0 0 24 24" fill="none" xmlns="http://www.w3.org/2000/svg"><path d="M2.700 2.327 C 2.573 2.397,2.398 2.571,2.336 2.688 C 2.269 2.817,2.262 3.170,2.325 3.293 C 2.350 3.341,2.417 3.431,2.475 3.494 C 2.701 3.738,1.963 3.720,12.001 3.720 C 18.727 3.720,21.229 3.708,21.293 3.675 C 21.422 3.609,21.599 3.435,21.664 3.312 C 21.695 3.253,21.720 3.112,21.720 3.000 C 21.720 2.888,21.695 2.747,21.664 2.688 C 21.599 2.565,21.422 2.391,21.293 2.325 C 21.169 2.261,2.815 2.263,2.700 2.327 M2.700 8.327 C 2.573 8.397,2.398 8.571,2.336 8.688 C 2.269 8.817,2.262 9.170,2.325 9.293 C 2.350 9.341,2.417 9.431,2.475 9.494 C 2.701 9.738,1.963 9.720,12.001 9.720 C 18.727 9.720,21.229 9.708,21.293 9.675 C 21.422 9.609,21.599 9.435,21.664 9.312 C 21.695 9.253,21.720 9.112,21.720 9.000 C 21.720 8.888,21.695 8.747,21.664 8.688 C 21.599 8.565,21.422 8.391,21.293 8.325 C 21.169 8.261,2.815 8.263,2.700 8.327 M15.091 12.341 C 14.841 12.420,14.503 12.660,14.322 12.887 C 14.101 13.164,13.997 13.465,13.971 13.907 L 13.949 14.274 13.204 14.287 C 12.493 14.299,12.450 14.305,12.230 14.408 C 11.909 14.558,11.587 14.875,11.429 15.196 L 11.300 15.458 11.300 17.999 L 11.300 20.540 11.408 20.770 C 11.558 21.091,11.875 21.413,12.196 21.571 L 12.458 21.700 16.500 21.700 L 20.542 21.700 20.804 21.571 C 21.125 21.413,21.442 21.091,21.592 20.770 L 21.700 20.540 21.700 17.999 L 21.700 15.458 21.571 15.196 C 21.413 14.875,21.091 14.558,20.770 14.408 C 20.550 14.305,20.507 14.299,19.796 14.287 L 19.051 14.274 19.029 13.907 C 18.991 13.282,18.759 12.846,18.300 12.542 C 17.924 12.292,17.842 12.280,16.480 12.284 C 15.585 12.287,15.215 12.302,15.091 12.341 M17.483 13.761 C 17.546 13.795,17.560 13.846,17.560 14.041 L 17.560 14.280 16.500 14.280 L 15.440 14.280 15.440 14.042 C 15.440 13.858,15.456 13.795,15.510 13.763 C 15.605 13.708,17.380 13.706,17.483 13.761 M2.700 14.327 C 2.573 14.397,2.398 14.571,2.336 14.688 C 2.269 14.817,2.262 15.170,2.325 15.293 C 2.391 15.422,2.565 15.599,2.688 15.664 C 2.778 15.711,3.250 15.720,5.501 15.720 C 7.421 15.720,8.231 15.707,8.293 15.675 C 8.422 15.609,8.599 15.435,8.664 15.312 C 8.731 15.183,8.738 14.830,8.675 14.707 C 8.609 14.578,8.435 14.401,8.312 14.336 C 8.222 14.289,7.750 14.280,5.492 14.281 C 3.592 14.282,2.756 14.296,2.700 14.327 M13.960 18.003 L 13.960 20.286 13.383 20.273 C 13.066 20.266,12.791 20.245,12.773 20.227 C 12.755 20.208,12.735 19.223,12.729 18.038 C 12.718 15.919,12.719 15.881,12.799 15.801 C 12.872 15.728,12.931 15.720,13.420 15.720 L 13.960 15.720 13.960 18.003 M17.560 18.000 L 17.560 20.280 16.500 20.280 L 15.440 20.280 15.440 18.000 L 15.440 15.720 16.500 15.720 L 17.560 15.720 17.560 18.000 M20.201 15.801 C 20.281 15.881,20.282 15.919,20.271 18.038 C 20.265 19.223,20.245 20.208,20.227 20.227 C 20.209 20.245,19.934 20.266,19.617 20.273 L 19.040 20.286 19.040 18.003 L 19.040 15.720 19.580 15.720 C 20.069 15.720,20.128 15.728,20.201 15.801 M2.700 20.327 C 2.573 20.397,2.398 20.571,2.336 20.688 C 2.269 20.817,2.262 21.170,2.325 21.293 C 2.391 21.422,2.565 21.599,2.688 21.664 C 2.778 21.711,3.250 21.720,5.501 21.720 C 7.421 21.720,8.231 21.707,8.293 21.675 C 8.422 21.609,8.599 21.435,8.664 21.312 C 8.731 21.183,8.738 20.830,8.675 20.707 C 8.609 20.578,8.435 20.401,8.312 20.336 C 8.222 20.289,7.750 20.280,5.492 20.281 C 3.592 20.282,2.756 20.296,2.700 20.327 " stroke="none" fill-rule="evenodd" fill="black"></path></svg>