<svg width="20" height="20" viewBox="0 0 20 20" fill="none" xmlns="http://www.w3.org/2000/svg">
<g clip-path="url(#clip0_bag_1)">
<path d="M13 16.6667V4.814C13 4.42109 12.842 4.04426 12.5607 3.76362C12.2794 3.48298 11.8986 3.33252 11.5 3.33252H8.5C8.10144 3.33252 7.72064 3.48298 7.43934 3.76362C7.15804 4.04426 7 4.42109 7 4.814V16.6667M4 6.29549H16C16.8284 6.29549 17.5 6.95876 17.5 7.77696V15.1855C17.5 16.0037 16.8284 16.667 16 16.667H4C3.17157 16.667 2.5 16.0037 2.5 15.1855V7.77696C2.5 6.95876 3.17157 6.29549 4 6.29549Z" stroke="currentColor" stroke-width="1.5" stroke-linecap="round" stroke-linejoin="round"/>
</g>
<defs>
<clipPath id="clip0_bag_1">
<rect width="20" height="20" fill="white"/>
</clipPath>
</defs>
</svg>
