<svg width="24" height="24" viewBox="0 0 24 24" fill="none" xmlns="http://www.w3.org/2000/svg">
<g clip-path="url(#clip0_7280_84229)">
<path d="M21 3H3M21 9H3M8 15H3M8 21H3M18.3 21V13.8889C18.3 13.6531 18.2052 13.427 18.0364 13.2603C17.8676 13.0937 17.6387 13 17.4 13H15.6C15.3613 13 15.1324 13.0937 14.9636 13.2603C14.7948 13.427 14.7 13.6531 14.7 13.8889V21M12.9001 15H20.1001C20.5971 15 21.0001 15.398 21.0001 15.8889L21 20.1111C21 20.602 20.5971 21 20.1 21H12.9C12.4029 21 12 20.602 12 20.1111L12.0001 15.8889C12.0001 15.398 12.403 15 12.9001 15Z" stroke="#757575" stroke-width="1.5" stroke-linecap="round" stroke-linejoin="round"/>
</g>
<defs>
<clipPath id="clip0_7280_84229">
<rect width="24" height="24" fill="white"/>
</clipPath>
</defs>
</svg>
