<svg width="24" height="24" viewBox="0 0 24 24" fill="none" xmlns="http://www.w3.org/2000/svg">
<g clip-path="url(#clip0_7280_84289)">
<path d="M3 14H13.7916C14.2686 14 14.7261 14.1844 15.0634 14.5126C15.4007 14.8408 15.5902 15.2859 15.5902 15.75C15.5902 16.2141 15.4007 16.6593 15.0634 16.9874C14.7261 17.3156 14.2686 17.5 13.7916 17.5H11.993M15.0506 16.975L17.9284 14.525C18.2742 14.2001 18.7385 14.0222 19.2192 14.0304C19.6999 14.0386 20.1575 14.2322 20.4914 14.5687C20.8253 14.9052 21.0082 15.357 20.9997 15.8247C20.9913 16.2923 20.7923 16.7376 20.4464 17.0625L17.2089 19.95C16.5794 20.65 15.6801 21 14.6909 21H11.0937C10.1045 21 9.20517 20.65 8.57566 19.95L5.6979 17.5M5.6979 14V20.125H3M16 16.1667V13.7778C16 13.1295 15.7592 12.5077 15.3305 12.0493C14.9019 11.5909 14.3205 11.3333 13.7143 11.3333H10.2857C9.6795 11.3333 9.09812 11.5909 8.66947 12.0493C8.24082 12.5077 8 13.1295 8 13.7778V14M14.4 6.44444C14.4 7.79447 13.2624 8.88889 12 8.88889C10.7376 8.88889 9.6 7.79447 9.6 6.44444C9.6 5.09442 10.7376 4 12 4C13.2624 4 14.4 5.09442 14.4 6.44444Z" stroke="#757575" stroke-width="1.5" stroke-linecap="round" stroke-linejoin="round"/>
</g>
<defs>
<clipPath id="clip0_7280_84289">
<rect width="24" height="24" fill="white"/>
</clipPath>
</defs>
</svg>
