<svg width="19" height="19" viewBox="0 0 19 19" fill="none" xmlns="http://www.w3.org/2000/svg">
<path d="M4.17876 6.12549C2.88996 6.12549 1.84961 7.1515 1.84961 8.42253V14.548C1.84961 15.819 2.88996 16.845 4.17876 16.845H5.34333C6.19735 16.845 6.8961 16.1559 6.8961 15.3137V7.65685C6.8961 6.8146 6.19735 6.12549 5.34333 6.12549H4.17876ZM4.95514 13.0166C4.95514 13.3305 4.69117 13.5909 4.37285 13.5909C4.05454 13.5909 3.79057 13.3305 3.79057 13.0166V9.95389C3.79057 9.63996 4.05454 9.37963 4.37285 9.37963C4.69117 9.37963 4.95514 9.63996 4.95514 9.95389V13.0166Z" fill="#C8CDD4"/>
<path d="M15.048 1.53125H10.3897C9.1009 1.53125 8.06055 2.55726 8.06055 3.82829V14.5478C8.06055 15.8189 9.1009 16.8449 10.3897 16.8449H10.7779C10.9953 16.8449 11.1661 16.6764 11.1661 16.462V13.7821C11.1661 13.361 11.5155 13.0165 11.9425 13.0165H13.4952C13.9222 13.0165 14.2716 13.361 14.2716 13.7821V16.462C14.2716 16.6764 14.4424 16.8449 14.6598 16.8449H15.048C16.3368 16.8449 17.3771 15.8189 17.3771 14.5478V3.82829C17.3771 2.55726 16.3368 1.53125 15.048 1.53125ZM11.7484 9.95374C11.7484 10.2677 11.4844 10.528 11.1661 10.528C10.8478 10.528 10.5838 10.2677 10.5838 9.95374V6.12534C10.5838 5.81141 10.8478 5.55108 11.1661 5.55108C11.4844 5.55108 11.7484 5.81141 11.7484 6.12534V9.95374ZM14.8539 9.95374C14.8539 10.2677 14.5899 10.528 14.2716 10.528C13.9533 10.528 13.6893 10.2677 13.6893 9.95374V6.12534C13.6893 5.81141 13.9533 5.55108 14.2716 5.55108C14.5899 5.55108 14.8539 5.81141 14.8539 6.12534V9.95374Z" fill="#C8CDD4"/>
</svg>
