<svg width="16" height="16" viewBox="0 0 16 16" fill="none" xmlns="http://www.w3.org/2000/svg">
<path d="M6.19995 14V11.6H9.79995V14M5.59995 4.4H5.60595M10.4 4.4H10.406M7.99995 4.4H8.00595M7.99995 6.8H8.00595M7.99995 9.2H8.00595M10.4 6.8H10.406M10.4 9.2H10.406M5.59995 6.8H5.60595M5.59995 9.2H5.60595M4.39995 2H11.6C12.2627 2 12.8 2.53726 12.8 3.2V12.8C12.8 13.4627 12.2627 14 11.6 14H4.39995C3.73721 14 3.19995 13.4627 3.19995 12.8V3.2C3.19995 2.53726 3.73721 2 4.39995 2Z" stroke="#757575" stroke-width="1.5" stroke-linecap="round" stroke-linejoin="round"/>
</svg>
