<svg width="12" height="12" viewBox="0 0 12 12" fill="none" xmlns="http://www.w3.org/2000/svg">
<path d="M11 10.625H1C0.795 10.625 0.625 10.795 0.625 11C0.625 11.205 0.795 11.375 1 11.375H11C11.205 11.375 11.375 11.205 11.375 11C11.375 10.795 11.205 10.625 11 10.625Z" fill="#7B8290"/>
<path d="M8.5 1H3.5C2 1 1.5 1.895 1.5 3V11H10.5V3C10.5 1.895 10 1 8.5 1ZM5 8.625H3.5C3.295 8.625 3.125 8.455 3.125 8.25C3.125 8.045 3.295 7.875 3.5 7.875H5C5.205 7.875 5.375 8.045 5.375 8.25C5.375 8.455 5.205 8.625 5 8.625ZM5 6.375H3.5C3.295 6.375 3.125 6.205 3.125 6C3.125 5.795 3.295 5.625 3.5 5.625H5C5.205 5.625 5.375 5.795 5.375 6C5.375 6.205 5.205 6.375 5 6.375ZM5 4.125H3.5C3.295 4.125 3.125 3.955 3.125 3.75C3.125 3.545 3.295 3.375 3.5 3.375H5C5.205 3.375 5.375 3.545 5.375 3.75C5.375 3.955 5.205 4.125 5 4.125ZM8.5 8.625H7C6.795 8.625 6.625 8.455 6.625 8.25C6.625 8.045 6.795 7.875 7 7.875H8.5C8.705 7.875 8.875 8.045 8.875 8.25C8.875 8.455 8.705 8.625 8.5 8.625ZM8.5 6.375H7C6.795 6.375 6.625 6.205 6.625 6C6.625 5.795 6.795 5.625 7 5.625H8.5C8.705 5.625 8.875 5.795 8.875 6C8.875 6.205 8.705 6.375 8.5 6.375ZM8.5 4.125H7C6.795 4.125 6.625 3.955 6.625 3.75C6.625 3.545 6.795 3.375 7 3.375H8.5C8.705 3.375 8.875 3.545 8.875 3.75C8.875 3.955 8.705 4.125 8.5 4.125Z" fill="#7B8290"/>
</svg>
