<svg width="20" height="20" viewBox="0 0 20 20" fill="none" xmlns="http://www.w3.org/2000/svg">
<path d="M7.75 17.5V14.5H12.25V17.5M7 5.5H7.0075M13 5.5H13.0075M10 5.5H10.0075M10 8.5H10.0075M10 11.5H10.0075M13 8.5H13.0075M13 11.5H13.0075M7 8.5H7.0075M7 11.5H7.0075M5.5 2.5H14.5C15.3284 2.5 16 3.17157 16 4V16C16 16.8284 15.3284 17.5 14.5 17.5H5.5C4.67157 17.5 4 16.8284 4 16V4C4 3.17157 4.67157 2.5 5.5 2.5Z" stroke="#757575" stroke-width="1.5" stroke-linecap="round" stroke-linejoin="round"/>
</svg>
