<svg width="51" height="51" viewBox="0 0 51 51" fill="none" xmlns="http://www.w3.org/2000/svg">
<circle cx="25.5" cy="25.5" r="25.5" fill="#C8F1D7"/>
<path d="M18.3333 9.97021H31.6672C35.5993 9.97039 38.7911 13.1622 38.7913 17.0942V33.7612C38.7913 37.6934 35.5994 40.8851 31.6672 40.8853H18.3333C14.4011 40.8851 11.2092 37.6934 11.2092 33.7612V17.0942C11.2094 13.1622 14.4012 9.97039 18.3333 9.97021ZM19.6145 32.6147C18.928 32.3591 18.1837 32.3662 17.5012 32.6392L17.4856 32.645C17.2006 32.7638 16.9183 32.9315 16.6672 33.1567L16.5618 33.2563C16.0275 33.7907 15.7083 34.5281 15.7083 35.2944C15.7083 35.9852 15.9563 36.6222 16.3733 37.1255L16.5618 37.3325C17.1134 37.8841 17.8413 38.1703 18.5999 38.1704C19.2547 38.1704 19.8927 37.948 20.4084 37.5259L20.6213 37.3325C21.1511 36.8028 21.4758 36.0839 21.4758 35.2944C21.4758 34.6239 21.2309 33.9759 20.8118 33.4663L20.6213 33.2563C20.5821 33.2171 20.4071 33.0308 20.1555 32.8833C19.9971 32.7744 19.8342 32.6953 19.6819 32.6392H19.6829C19.6743 32.6357 19.6651 32.6327 19.6565 32.6294C19.6427 32.6245 19.629 32.6193 19.6155 32.6147H19.6145ZM27.2883 33.2563C26.5126 32.4807 25.3613 32.2465 24.3606 32.5688L24.1624 32.6411L24.1516 32.645C23.8667 32.7637 23.5852 32.9317 23.3342 33.1567L23.2288 33.2563C23.0915 33.3936 22.9859 33.5275 22.9231 33.606L22.843 33.7056L22.7854 33.8208V33.8218L22.7844 33.8228V33.8237H22.7834V33.8257H22.7825V33.8276L22.7815 33.8286V33.8296H22.7805V33.8315H22.7795V33.8335L22.7786 33.8345V33.8354H22.7776V33.8374H22.7766V33.8394L22.7756 33.8403V33.8413H22.7747V33.8433H22.7737V33.8452L22.7727 33.8462V33.8472H22.7717V33.8491H22.7708V33.8511L22.7698 33.8521V33.853H22.7688V33.855H22.7678V33.8569L22.7668 33.8579V33.8589H22.7659V33.8608H22.7649V33.8628L22.7639 33.8638V33.8647H22.7629V33.8667H22.762V33.8687L22.761 33.8696V33.8706H22.76V33.8726H22.759V33.8745L22.7581 33.8755V33.8765H22.7571V33.8784H22.7561V33.8804L22.7551 33.8813V33.8823H22.7542V33.8843H22.7532V33.8862L22.7522 33.8872V33.8882H22.7512V33.8901H22.7502V33.8921L22.7493 33.8931V33.894H22.7483V33.896H22.7473V33.8979L22.7463 33.8989V33.8999H22.7454V33.9019H22.7444V33.9038L22.7434 33.9048V33.9058H22.7424V33.9077H22.7415V33.9097L22.7405 33.9106V33.9116H22.7395V33.9136H22.7385V33.9155L22.7375 33.9165V33.9175H22.7366V33.9194H22.7356V33.9214L22.7346 33.9224V33.9233H22.7336V33.9253H22.7327V33.9272L22.7317 33.9282V33.9292H22.7307V33.9312H22.7297V33.9331L22.7288 33.9341V33.9351H22.7278V33.937H22.7268V33.939L22.7258 33.9399V33.9409H22.7249V33.9429H22.7239V33.9448L22.7229 33.9458V33.9468H22.7219V33.9487H22.7209V33.9507L22.72 33.9517V33.9526H22.719V33.9546H22.718V33.9565L22.717 33.9575V33.9585H22.7161V33.9604H22.7151V33.9624L22.7141 33.9634V33.9644H22.7131V33.9663H22.7122V33.9683L22.7112 33.9692V33.9702H22.7102V33.9722H22.7092V33.9741L22.7083 33.9751V33.9761H22.7073V33.978H22.7063V33.98L22.7053 33.981V33.9819H22.7043V33.9839H22.7034V33.9858L22.7024 33.9868V33.9878H22.7014V33.9897H22.7004V33.9917L22.6995 33.9927V33.9937H22.6985V33.9956H22.6975V33.9976L22.6965 33.9985V33.9995H22.6956V34.0015H22.6946V34.0034L22.6936 34.0044V34.0054H22.6926V34.0073H22.6917V34.0093L22.6907 34.0103V34.0112H22.6897V34.0132H22.6887V34.0151L22.6877 34.0161V34.0171H22.6868V34.019H22.6858V34.021L22.6848 34.022V34.0229H22.6838V34.0249H22.6829V34.0269L22.6819 34.0278V34.0288H22.6809V34.0308H22.6799V34.0327L22.679 34.0337V34.0347H22.678V34.0366H22.677V34.0386L22.676 34.0396V34.0405H22.675V34.0425H22.6741V34.0444L22.6731 34.0454V34.0464H22.6721V34.0483H22.6711V34.0503L22.6702 34.0513V34.0522H22.6692V34.0542H22.6682V34.0562L22.6672 34.0571V34.0581H22.6663V34.0601H22.6653V34.062L22.6643 34.063V34.064H22.6633V34.0659H22.6624V34.0679L22.6614 34.0688V34.0698H22.6604V34.0718H22.6594V34.0737L22.6584 34.0747V34.0757H22.6575V34.0776H22.6565V34.0796L22.6555 34.0806V34.0815H22.6545V34.0835H22.6536V34.0854L22.6526 34.0864V34.0874H22.6516V34.0894H22.6506V34.0913L22.6497 34.0923V34.0933H22.6487V34.0952H22.6477V34.0972L22.6467 34.0981V34.0991H22.6458V34.1011H22.6448V34.103L22.6438 34.104V34.105H22.6428V34.1069H22.6418V34.1089L22.6409 34.1099V34.1108H22.6399V34.1128H22.6389V34.1147L22.6379 34.1157V34.1167H22.637V34.1187H22.636V34.1206L22.5969 34.1978L22.5696 34.2788C22.5363 34.3787 22.5033 34.4787 22.47 34.5786L22.4358 34.6821L22.4202 34.7905C22.4085 34.872 22.3743 35.0718 22.3743 35.2944C22.3743 35.9853 22.6232 36.6222 23.0403 37.1255L23.2288 37.3325C23.776 37.8798 24.5018 38.1704 25.2502 38.1704C25.5582 38.1704 25.8459 38.1206 26.1096 38.0376L26.3655 37.9438C26.691 37.8082 27.0122 37.6086 27.2883 37.3325C27.84 36.7808 28.1262 36.053 28.1262 35.2944C28.1262 34.605 27.8789 33.9056 27.3899 33.3628L27.2883 33.2563ZM32.8245 32.5698C31.8963 32.2712 30.8078 32.4443 30.0393 33.1196L29.8958 33.2563C29.3397 33.8124 29.0579 34.5589 29.0579 35.2944C29.0579 36.0531 29.344 36.7808 29.8958 37.3325C30.1027 37.5395 30.3349 37.7034 30.5754 37.8296L30.8186 37.9438C31.1423 38.0787 31.5172 38.1704 31.9172 38.1704C32.6758 38.1703 33.4037 37.8842 33.9553 37.3325C34.5069 36.7808 34.7922 36.053 34.7922 35.2944C34.7922 34.6048 34.5451 33.9057 34.0559 33.3628L33.9553 33.2563C33.7482 33.0492 33.5153 32.8855 33.2747 32.7593L33.0315 32.645L33.0208 32.6411L32.8245 32.5698ZM19.1145 25.8022C18.239 25.6316 17.3329 25.9027 16.6897 26.4692L16.5618 26.5894C16.3031 26.848 16.0879 27.1452 15.9348 27.5298H15.9338C15.7991 27.8532 15.7083 28.2277 15.7083 28.6274C15.7083 29.3181 15.9564 29.9552 16.3733 30.4585L16.5618 30.6665C16.8379 30.9426 17.1601 31.1412 17.4856 31.2769C17.8155 31.4143 18.1894 31.5034 18.5999 31.5034C19.2548 31.5034 19.8926 31.2811 20.4084 30.8589L20.6213 30.6665C21.1731 30.1148 21.4592 29.3861 21.4592 28.6274C21.4592 28.2999 21.4093 27.9305 21.261 27.561H21.262C21.2597 27.5552 21.2564 27.5493 21.2542 27.5435C21.2523 27.539 21.2511 27.5343 21.2493 27.5298H21.2483C21.0825 27.116 20.8347 26.8244 20.6653 26.6362L20.6438 26.6118L20.6213 26.5894L20.4377 26.4175C20.3618 26.3535 20.266 26.2811 20.1555 26.2163C20.0001 26.1095 19.8405 26.031 19.6907 25.9751C19.5107 25.8948 19.3304 25.8441 19.1741 25.814H19.175C19.1702 25.8129 19.1653 25.8121 19.1604 25.811C19.1452 25.8082 19.1302 25.8047 19.1155 25.8022H19.1145ZM27.1838 26.4907C26.1181 25.534 24.399 25.534 23.3333 26.4907L23.2288 26.5894C22.6944 27.1237 22.3744 27.8612 22.3743 28.6274C22.3743 29.3182 22.6233 29.9552 23.0403 30.4585L23.2288 30.6665C23.776 31.2136 24.5019 31.5034 25.2502 31.5034C25.914 31.5034 26.5542 31.285 27.0735 30.8608L27.2883 30.6665C27.8401 30.1148 28.1262 29.3861 28.1262 28.6274C28.1262 28.2999 28.0762 27.9304 27.928 27.561H27.929C27.9267 27.5552 27.9234 27.5492 27.9211 27.5435C27.9193 27.539 27.9181 27.5343 27.9163 27.5298H27.9153C27.7495 27.116 27.5017 26.8245 27.3323 26.6362L27.3108 26.6118L27.2883 26.5894L27.1838 26.4907ZM33.9553 26.5894C32.8666 25.5007 30.9846 25.5009 29.8958 26.5894C29.3614 27.1237 29.0414 27.8612 29.0413 28.6274C29.0413 29.3181 29.2895 29.9553 29.7063 30.4585L29.8958 30.6665C30.443 31.2135 31.169 31.5034 31.9172 31.5034C32.5809 31.5033 33.2213 31.2851 33.7405 30.8608L33.9553 30.6665C34.1703 30.4516 34.3371 30.2182 34.4661 29.9741L34.5833 29.7261C34.7181 29.4025 34.8088 29.0274 34.8088 28.6274C34.8087 27.8612 34.4896 27.1237 33.9553 26.5894ZM20.0002 13.7192C17.5951 13.7192 15.6586 15.681 15.6584 18.061V19.728C15.6585 22.1332 17.6201 24.0698 20.0002 24.0698H30.0002C32.4054 24.0698 34.342 22.1081 34.342 19.728V18.061C34.3419 15.6559 32.3803 13.7192 30.0002 13.7192H20.0002Z" fill="#36B37E" stroke="#36B37E" stroke-width="2.41789"/>
</svg>
