<?xml version="1.0" encoding="utf-8"?>
<!-- Generator: Adobe Illustrator 25.3.1, SVG Export Plug-In . SVG Version: 6.00 Build 0)  -->
<svg version="1.1" id="Layer_1" xmlns="http://www.w3.org/2000/svg" xmlns:xlink="http://www.w3.org/1999/xlink" x="0px" y="0px"
	 viewBox="0 0 24 24" style="enable-background:new 0 0 24 24;" xml:space="preserve">
<style type="text/css">
	.st0{fill:#292D32;}
</style>
<g>
	<path class="st0" d="M20.7,22.1H9.1c-0.4,0-0.8-0.3-0.8-0.8s0.3-0.8,0.8-0.8h11.6c0.4,0,0.8,0.3,0.8,0.8S21.1,22.1,20.7,22.1z"/>
</g>
<g>
	<path class="st0" d="M6.2,22.1H2.3c-0.4,0-0.8-0.3-0.8-0.8s0.3-0.8,0.8-0.8h3.9c0.4,0,0.8,0.3,0.8,0.8S6.6,22.1,6.2,22.1z"/>
</g>
<g>
	<path class="st0" d="M5.8,19.1H4.3c-0.9,0-1.7-0.8-1.7-1.7v-4.8c0-0.4,0.3-0.8,0.8-0.8S4,12.2,4,12.6v4.8c0,0.1,0.1,0.2,0.2,0.2
		h1.5c0.1,0,0.2-0.1,0.2-0.2V9.1C6,9,5.9,8.9,5.8,8.9H4.3C4.1,8.9,4,9,4,9.1c0,0.4-0.3,0.8-0.8,0.8S2.5,9.5,2.5,9.1
		c0-0.9,0.8-1.7,1.7-1.7h1.5c0.9,0,1.7,0.8,1.7,1.7v8.3C7.5,18.4,6.8,19.1,5.8,19.1z"/>
</g>
<g>
	<path class="st0" d="M12.8,19.1h-1.5c-0.9,0-1.7-0.8-1.7-1.7V6c0-0.9,0.8-1.7,1.7-1.7h1.5c0.9,0,1.7,0.8,1.7,1.7v11.4
		C14.5,18.4,13.7,19.1,12.8,19.1z M11.2,5.8C11.1,5.8,11,5.9,11,6v11.4c0,0.1,0.1,0.2,0.2,0.2h1.5c0.1,0,0.2-0.1,0.2-0.2V6
		c0-0.1-0.1-0.2-0.2-0.2H11.2z"/>
</g>
<g>
	<path class="st0" d="M19.7,19.1h-1.5c-0.9,0-1.7-0.8-1.7-1.7V2.9c0-0.9,0.8-1.7,1.7-1.7h1.5c0.9,0,1.7,0.8,1.7,1.7
		c0,0.4-0.3,0.8-0.8,0.8S20,3.3,20,2.9c0-0.1-0.1-0.2-0.2-0.2h-1.5c-0.1,0-0.2,0.1-0.2,0.2v14.5c0,0.1,0.1,0.2,0.2,0.2h1.5
		c0.1,0,0.2-0.1,0.2-0.2V6.9c0-0.4,0.3-0.8,0.8-0.8s0.8,0.3,0.8,0.8v10.5C21.5,18.4,20.7,19.1,19.7,19.1z"/>
</g>
</svg>
