<?xml version="1.0" encoding="utf-8"?>
<!-- Generator: Adobe Illustrator 25.3.1, SVG Export Plug-In . SVG Version: 6.00 Build 0)  -->
<svg version="1.1" id="Layer_1" xmlns="http://www.w3.org/2000/svg" xmlns:xlink="http://www.w3.org/1999/xlink" x="0px" y="0px"
	 viewBox="0 0 32 32" style="enable-background:new 0 0 32 32;" xml:space="preserve">
<style type="text/css">
	.st0{fill:#292D32;}
</style>
<g>
	<path class="st0" d="M13.3,30.1c-0.2,0-0.4,0-0.6-0.1c-0.5-0.2-1.3-0.8-1.3-2.7v-4.7c0-0.4,0.3-0.8,0.8-0.8s0.8,0.3,0.8,0.8v4.7
		c0,1,0.2,1.3,0.3,1.3c0.1,0,0.4,0,1.1-0.8l10.1-11.5c0.5-0.5,0.5-0.9,0.5-1c0-0.1-0.3-0.3-1.1-0.3h-4.1c-0.4,0-0.8-0.3-0.8-0.8V4.7
		c0-1-0.2-1.3-0.3-1.3c-0.1,0-0.4,0-1.1,0.8L7.5,15.6c-0.4,0.5-0.5,0.9-0.5,1c0,0.1,0.3,0.3,1.1,0.3h4.1c0.4,0,0.8,0.3,0.8,0.8
		s-0.3,0.8-0.8,0.8H8.1c-1.6,0-2.2-0.8-2.4-1.2c-0.2-0.4-0.4-1.4,0.7-2.6L16.5,3.2c1.3-1.4,2.3-1.3,2.7-1.2c0.5,0.2,1.3,0.8,1.3,2.7
		v8.9h3.4c1.6,0,2.2,0.8,2.4,1.2c0.2,0.4,0.4,1.4-0.7,2.6L15.5,28.8C14.6,29.8,13.9,30.1,13.3,30.1z"/>
</g>
</svg>
