<svg width="70" height="58" viewBox="0 0 70 58" fill="none" xmlns="http://www.w3.org/2000/svg">
<path d="M68.278 32.1094C67.3897 29.171 65.9205 26.6085 63.973 24.5244C61.4788 21.6885 58.1647 19.741 54.4405 18.8869C52.5613 10.3452 47.2997 4.19519 39.8172 1.90603C31.6855 -0.622306 22.2555 1.83769 16.3447 8.02186C11.1513 13.4544 9.44301 20.9369 11.4588 28.8977C4.62551 30.5719 1.24301 36.2777 0.867174 41.7102C0.833008 42.086 0.833008 42.4277 0.833008 42.7694C0.833008 49.1927 5.03551 56.4019 14.3972 57.0852H49.8622C54.7138 57.0852 59.3605 55.2744 62.9138 52.0285C68.483 47.1427 70.533 39.5235 68.278 32.1094Z" fill="#FFE6D6"/>
</svg>
