<?xml version="1.0" encoding="utf-8"?>
<!-- Generator: Adobe Illustrator 25.3.1, SVG Export Plug-In . SVG Version: 6.00 Build 0)  -->
<svg version="1.1" id="Layer_1" xmlns="http://www.w3.org/2000/svg" xmlns:xlink="http://www.w3.org/1999/xlink" x="0px" y="0px"
	 viewBox="0 0 32 32" style="enable-background:new 0 0 32 32;" xml:space="preserve">
<style type="text/css">
	.st0{fill:#292D32;}
</style>
<g>
	<g>
		<path class="st0" d="M21.3,17H12c-0.4,0-0.8-0.3-0.8-0.8s0.3-0.8,0.8-0.8h9.3c0.4,0,0.8,0.3,0.8,0.8S21.7,17,21.3,17z"/>
	</g>
</g>
<g>
	<g>
		<path class="st0" d="M21.3,22.3h-5.8c-0.4,0-0.8-0.3-0.8-0.8s0.3-0.8,0.8-0.8h5.8c0.4,0,0.8,0.3,0.8,0.8S21.7,22.3,21.3,22.3z"/>
	</g>
</g>
<g>
	<g>
		<path class="st0" d="M18.7,8.8h-5.3c-3.4,0-3.4-2.1-3.4-3.4c0-3.4,2.1-3.4,3.4-3.4c0.4,0,0.8,0.3,0.8,0.8s-0.3,0.8-0.8,0.8
			c-1.3,0-1.9,0-1.9,1.9c0,1.3,0,1.9,1.9,1.9h5.3c1.3,0,1.9,0,1.9-1.9c0-1.9-0.6-1.9-1.9-1.9h-1.3c-0.4,0-0.8-0.3-0.8-0.8
			s0.3-0.8,0.8-0.8h1.3c1.3,0,3.4,0,3.4,3.4C22.1,8.8,19.9,8.8,18.7,8.8z"/>
	</g>
</g>
<g>
	<g>
		<path class="st0" d="M28,14.1c-0.4,0-0.8-0.3-0.8-0.8c0-5.8-2-7-6-7.2c-0.4,0-0.7-0.4-0.7-0.8c0-0.4,0.4-0.7,0.8-0.7
			c5.3,0.3,7.4,2.7,7.4,8.7C28.8,13.7,28.4,14.1,28,14.1z"/>
	</g>
</g>
<g>
	<g>
		<path class="st0" d="M20,30.1h-8c-7.3,0-8.8-3.2-8.8-8.8v-8c0-6,2.1-8.4,7.4-8.7c0.4,0,0.8,0.3,0.8,0.7c0,0.4-0.3,0.8-0.7,0.8
			c-4,0.2-6,1.4-6,7.2v8c0,5,1,7.2,7.2,7.2h8c6.2,0,7.2-2.2,7.2-7.2v-2.8c0-0.4,0.3-0.8,0.8-0.8s0.8,0.3,0.8,0.8v2.8
			C28.8,26.9,27.3,30.1,20,30.1z"/>
	</g>
</g>
</svg>
