<svg width="24" height="24" viewBox="0 0 24 24" fill="none" xmlns="http://www.w3.org/2000/svg">
<path d="M4 14.2499C2.75736 14.2499 1.75 13.2426 1.75 11.9999C1.75 10.7573 2.75736 9.74994 4 9.74994C5.24264 9.74994 6.25 10.7573 6.25 11.9999C6.25 13.2426 5.24264 14.2499 4 14.2499Z" fill="#1B213C"/>
<path d="M4 6.25C2.75736 6.25 1.75 5.24264 1.75 4C1.75 2.75736 2.75736 1.75 4 1.75C5.24264 1.75 6.25 2.75736 6.25 4C6.25 5.24264 5.24264 6.25 4 6.25Z" fill="#1B213C"/>
<path d="M4 22.2499C2.75736 22.2499 1.75 21.2425 1.75 19.9999C1.75 18.7572 2.75736 17.7499 4 17.7499C5.24264 17.7499 6.25 18.7572 6.25 19.9999C6.25 21.2425 5.24264 22.2499 4 22.2499Z" fill="#1B213C"/>
<path d="M20 14.2499C18.7574 14.2499 17.75 13.2426 17.75 11.9999C17.75 10.7573 18.7574 9.74994 20 9.74994C21.2426 9.74994 22.25 10.7573 22.25 11.9999C22.25 13.2426 21.2426 14.2499 20 14.2499Z" fill="#1B213C"/>
<path d="M5 12.7501C4.59 12.7501 4.25 12.4101 4.25 12.0001C4.25 11.5901 4.59 11.2501 5 11.2501H12.25V7.00006C12.25 5.42006 11.58 4.75006 10 4.75006H5C4.59 4.75006 4.25 4.41006 4.25 4.00006C4.25 3.59006 4.59 3.25006 5 3.25006H10C12.42 3.25006 13.75 4.58006 13.75 7.00006V11.2501H19C19.41 11.2501 19.75 11.5901 19.75 12.0001C19.75 12.4101 19.41 12.7501 19 12.7501H13.75V17.0001C13.75 19.4201 12.42 20.7501 10 20.7501H5C4.59 20.7501 4.25 20.4101 4.25 20.0001C4.25 19.5901 4.59 19.2501 5 19.2501H10C11.58 19.2501 12.25 18.5801 12.25 17.0001V12.7501H5Z" fill="#1B213C"/>
</svg>
