<svg width="178" height="30" viewBox="0 0 178 30" fill="none" xmlns="http://www.w3.org/2000/svg">
<path d="M13.5 15C13.9 15 24 15 29 15" stroke="#C6D2F7"/>
<path d="M52 15C52.4 15 62.5 15 67.5 15" stroke="#C6D2F7"/>
<path d="M109 15C109.4 15 119.5 15 124.5 15" stroke="#C6D2F7"/>
<path d="M132.499 14.096H135.347V11.344H136.675V14.096H139.507V15.44H136.675V18.208H135.347V15.44H132.499V14.096Z" fill="#C6D2F7"/>
<path d="M36.4988 14.096H39.3468V11.344H40.6748V14.096H43.5068V15.44H40.6748V18.208H39.3468V15.44H36.4988V14.096Z" fill="#C6D2F7"/>
<path d="M170.436 14.584H172.928V12.176H174.09V14.584H176.568V15.76H174.09V18.182H172.928V15.76H170.436V14.584Z" fill="#C6D2F7"/>
<path d="M1.43641 14.584H3.92841V12.176H5.09041V14.584H7.56841V15.76H5.09041V18.182H3.92841V15.76H1.43641V14.584Z" fill="#C6D2F7"/>
<path d="M147.5 15C147.9 15 158 15 163 15" stroke="#C6D2F7"/>
<circle cx="88" cy="15" r="15" fill="#DCE3F9"/>
<path d="M84.6663 9.99984H91.333M91.333 16.6665V19.9998M91.333 13.3332H91.3413M87.9997 13.3332H88.008M84.6663 13.3332H84.6747M87.9997 16.6665H88.008M84.6663 16.6665H84.6747M87.9997 19.9998H88.008M84.6663 19.9998H84.6747M82.9997 6.6665H92.9997C93.9201 6.6665 94.6663 7.4127 94.6663 8.33317V21.6665C94.6663 22.587 93.9201 23.3332 92.9997 23.3332H82.9997C82.0792 23.3332 81.333 22.587 81.333 21.6665V8.33317C81.333 7.4127 82.0792 6.6665 82.9997 6.6665Z" stroke="#4864E1" stroke-linecap="round" stroke-linejoin="round"/>
</svg>
