<svg width="178" height="30" viewBox="0 0 178 30" fill="none" xmlns="http://www.w3.org/2000/svg">
<path d="M15 16C15.4 16 25.5 16 30.5 16" stroke="#5599FF"/>
<path d="M52 15C52.4 15 62.5 15 67.5 15" stroke="#5599FF"/>
<path d="M110 16C110.4 16 120.5 16 125.5 16" stroke="#5599FF"/>
<path d="M148 15C148.4 15 158.5 15 163.5 15" stroke="#5599FF"/>
<mask id="path-5-inside-1_2365_2674" fill="white">
<path d="M7 15.5C7 17.433 5.433 19 3.5 19C1.567 19 0 17.433 0 15.5C0 13.567 1.567 12 3.5 12C5.433 12 7 13.567 7 15.5ZM2.35605 15.5C2.35605 16.1318 2.86821 16.644 3.5 16.644C4.13179 16.644 4.64395 16.1318 4.64395 15.5C4.64395 14.8682 4.13179 14.356 3.5 14.356C2.86821 14.356 2.35605 14.8682 2.35605 15.5Z"/>
</mask>
<path d="M7 15.5C7 17.433 5.433 19 3.5 19C1.567 19 0 17.433 0 15.5C0 13.567 1.567 12 3.5 12C5.433 12 7 13.567 7 15.5ZM2.35605 15.5C2.35605 16.1318 2.86821 16.644 3.5 16.644C4.13179 16.644 4.64395 16.1318 4.64395 15.5C4.64395 14.8682 4.13179 14.356 3.5 14.356C2.86821 14.356 2.35605 14.8682 2.35605 15.5Z" fill="#5599FF" stroke="#5599FF" mask="url(#path-5-inside-1_2365_2674)"/>
<mask id="path-6-inside-2_2365_2674" fill="white">
<path d="M171 15.5C171 17.433 172.567 19 174.5 19C176.433 19 178 17.433 178 15.5C178 13.567 176.433 12 174.5 12C172.567 12 171 13.567 171 15.5ZM175.644 15.5C175.644 16.1318 175.132 16.644 174.5 16.644C173.868 16.644 173.356 16.1318 173.356 15.5C173.356 14.8682 173.868 14.356 174.5 14.356C175.132 14.356 175.644 14.8682 175.644 15.5Z"/>
</mask>
<path d="M171 15.5C171 17.433 172.567 19 174.5 19C176.433 19 178 17.433 178 15.5C178 13.567 176.433 12 174.5 12C172.567 12 171 13.567 171 15.5ZM175.644 15.5C175.644 16.1318 175.132 16.644 174.5 16.644C173.868 16.644 173.356 16.1318 173.356 15.5C173.356 14.8682 173.868 14.356 174.5 14.356C175.132 14.356 175.644 14.8682 175.644 15.5Z" fill="#5599FF" stroke="#5599FF" mask="url(#path-6-inside-2_2365_2674)"/>
<mask id="path-7-inside-3_2365_2674" fill="white">
<path d="M46 15C46 17.2091 44.2091 19 42 19C39.7909 19 38 17.2091 38 15C38 12.7909 39.7909 11 42 11C44.2091 11 46 12.7909 46 15ZM40.6926 15C40.6926 15.722 41.278 16.3074 42 16.3074C42.722 16.3074 43.3074 15.722 43.3074 15C43.3074 14.278 42.722 13.6926 42 13.6926C41.278 13.6926 40.6926 14.278 40.6926 15Z"/>
</mask>
<path d="M46 15C46 17.2091 44.2091 19 42 19C39.7909 19 38 17.2091 38 15C38 12.7909 39.7909 11 42 11C44.2091 11 46 12.7909 46 15ZM40.6926 15C40.6926 15.722 41.278 16.3074 42 16.3074C42.722 16.3074 43.3074 15.722 43.3074 15C43.3074 14.278 42.722 13.6926 42 13.6926C41.278 13.6926 40.6926 14.278 40.6926 15Z" fill="#5599FF" stroke="#5599FF" stroke-width="1.14286" mask="url(#path-7-inside-3_2365_2674)"/>
<mask id="path-8-inside-4_2365_2674" fill="white">
<path d="M132 15C132 17.2091 133.791 19 136 19C138.209 19 140 17.2091 140 15C140 12.7909 138.209 11 136 11C133.791 11 132 12.7909 132 15ZM137.307 15C137.307 15.722 136.722 16.3074 136 16.3074C135.278 16.3074 134.693 15.722 134.693 15C134.693 14.278 135.278 13.6926 136 13.6926C136.722 13.6926 137.307 14.278 137.307 15Z"/>
</mask>
<path d="M132 15C132 17.2091 133.791 19 136 19C138.209 19 140 17.2091 140 15C140 12.7909 138.209 11 136 11C133.791 11 132 12.7909 132 15ZM137.307 15C137.307 15.722 136.722 16.3074 136 16.3074C135.278 16.3074 134.693 15.722 134.693 15C134.693 14.278 135.278 13.6926 136 13.6926C136.722 13.6926 137.307 14.278 137.307 15Z" fill="#5599FF" stroke="#5599FF" stroke-width="1.14286" mask="url(#path-8-inside-4_2365_2674)"/>
<circle cx="89" cy="15" r="15" fill="#5599FF"/>
<path d="M91.3333 8.3335H85.6667C83.7117 8.3335 82.125 9.82683 82.125 11.6668V18.3335C82.125 20.1735 83.7117 21.6668 85.6667 21.6668H91.3333C93.2883 21.6668 94.875 20.1735 94.875 18.3335V11.6668C94.875 9.82683 93.2883 8.3335 91.3333 8.3335ZM86.2758 19.4202C86.1412 19.5468 85.9642 19.6135 85.78 19.6135C85.5887 19.6135 85.4117 19.5468 85.2771 19.4202C85.1425 19.2935 85.0646 19.1268 85.0646 18.9468C85.0646 18.7735 85.1425 18.6002 85.2771 18.4735C85.3408 18.4135 85.4187 18.3668 85.5037 18.3335C85.6808 18.2668 85.8721 18.2668 86.0492 18.3335C86.0917 18.3468 86.1342 18.3668 86.1696 18.3935C86.2121 18.4135 86.2475 18.4468 86.2758 18.4735C86.4104 18.6002 86.4883 18.7735 86.4883 18.9468C86.4883 19.1268 86.4104 19.2935 86.2758 19.4202ZM85.0646 16.2802C85.0646 16.1935 85.0858 16.1068 85.1212 16.0268C85.1567 15.9402 85.2062 15.8735 85.2771 15.8068C85.44 15.6535 85.6879 15.5802 85.9146 15.6268C85.9571 15.6335 86.0067 15.6468 86.0492 15.6668C86.0917 15.6802 86.1342 15.7002 86.1696 15.7268C86.2121 15.7468 86.2475 15.7802 86.2758 15.8068C86.3396 15.8735 86.3962 15.9402 86.4317 16.0268C86.4671 16.1068 86.4812 16.1935 86.4812 16.2802C86.4812 16.4602 86.4104 16.6268 86.2758 16.7535C86.1412 16.8802 85.9642 16.9468 85.78 16.9468C85.6808 16.9468 85.5887 16.9268 85.5037 16.8935C85.4187 16.8602 85.3408 16.8135 85.2771 16.7535C85.1425 16.6268 85.0646 16.4602 85.0646 16.2802ZM89.1092 19.4202C89.0454 19.4802 88.9675 19.5268 88.8825 19.5602C88.7975 19.5935 88.7054 19.6135 88.6062 19.6135C88.4221 19.6135 88.245 19.5468 88.1104 19.4202C87.9758 19.2935 87.8979 19.1268 87.8979 18.9468C87.8979 18.9002 87.905 18.8602 87.9121 18.8135C87.9262 18.7735 87.9404 18.7335 87.9546 18.6935C87.9758 18.6535 87.9971 18.6135 88.0183 18.5735C88.0467 18.5402 88.075 18.5068 88.1104 18.4735C88.1742 18.4135 88.2521 18.3668 88.3371 18.3335C88.5992 18.2335 88.9108 18.2868 89.1092 18.4735C89.2437 18.6002 89.3146 18.7735 89.3146 18.9468C89.3146 19.1268 89.2437 19.2935 89.1092 19.4202ZM89.1092 16.7535C88.9746 16.8802 88.7975 16.9468 88.6062 16.9468C88.4221 16.9468 88.245 16.8802 88.1104 16.7535C87.9758 16.6268 87.8979 16.4602 87.8979 16.2802C87.8979 16.1068 87.9758 15.9335 88.1104 15.8068C88.3725 15.5602 88.8471 15.5602 89.1092 15.8068C89.1729 15.8735 89.2296 15.9402 89.265 16.0268C89.3004 16.1068 89.3146 16.1935 89.3146 16.2802C89.3146 16.4602 89.2437 16.6268 89.1092 16.7535ZM86.375 13.9735C85.6454 13.9735 85.0433 13.4135 85.0433 12.7202V12.0535C85.0433 11.3668 85.6383 10.8002 86.375 10.8002H90.625C91.3546 10.8002 91.9567 11.3602 91.9567 12.0535V12.7202C91.9567 13.4068 91.3617 13.9735 90.625 13.9735H86.375ZM91.9425 19.4202C91.8079 19.5468 91.6308 19.6135 91.4396 19.6135C91.3475 19.6135 91.2554 19.5935 91.1704 19.5602C91.0854 19.5268 91.0075 19.4802 90.9437 19.4202C90.8092 19.2935 90.7383 19.1268 90.7383 18.9468C90.7383 18.7735 90.8092 18.6002 90.9437 18.4735C91.135 18.2868 91.4538 18.2335 91.7158 18.3335C91.8008 18.3668 91.8787 18.4135 91.9425 18.4735C92.0771 18.6002 92.1479 18.7735 92.1479 18.9468C92.1479 19.1268 92.0771 19.2935 91.9425 19.4202ZM92.0983 16.5335C92.0629 16.6135 92.0133 16.6868 91.9425 16.7535C91.8079 16.8802 91.6308 16.9468 91.4396 16.9468C91.2554 16.9468 91.0783 16.8802 90.9437 16.7535C90.8092 16.6268 90.7312 16.4602 90.7312 16.2802C90.7312 16.1068 90.8092 15.9335 90.9437 15.8068C91.2058 15.5602 91.6804 15.5602 91.9425 15.8068C92.0771 15.9335 92.155 16.1068 92.155 16.2802C92.155 16.3668 92.1337 16.4535 92.0983 16.5335Z" fill="#EBECF1"/>
</svg>
