<svg width="178" height="30" viewBox="0 0 178 30" fill="none" xmlns="http://www.w3.org/2000/svg">
<path d="M14.5 15.5C14.9 15.5 25 15.5 30 15.5" stroke="#5599FF"/>
<path d="M53 15C53.4 15 63.5 15 68.5 15" stroke="#5599FF"/>
<path d="M110 15.5C110.4 15.5 120.5 15.5 125.5 15.5" stroke="#5599FF"/>
<path d="M148.5 15C148.9 15 159 15 164 15" stroke="#5599FF"/>
<path d="M7 15.5C7 17.433 5.433 19 3.5 19C1.567 19 0 17.433 0 15.5C0 13.567 1.567 12 3.5 12C5.433 12 7 13.567 7 15.5ZM2.35605 15.5C2.35605 16.1318 2.86821 16.644 3.5 16.644C4.13179 16.644 4.64395 16.1318 4.64395 15.5C4.64395 14.8682 4.13179 14.356 3.5 14.356C2.86821 14.356 2.35605 14.8682 2.35605 15.5Z" fill="#5599FF"/>
<path d="M171 15.5C171 17.433 172.567 19 174.5 19C176.433 19 178 17.433 178 15.5C178 13.567 176.433 12 174.5 12C172.567 12 171 13.567 171 15.5ZM175.644 15.5C175.644 16.1318 175.132 16.644 174.5 16.644C173.868 16.644 173.356 16.1318 173.356 15.5C173.356 14.8682 173.868 14.356 174.5 14.356C175.132 14.356 175.644 14.8682 175.644 15.5Z" fill="#5599FF"/>
<path d="M46 15C46 17.2091 44.2091 19 42 19C39.7909 19 38 17.2091 38 15C38 12.7909 39.7909 11 42 11C44.2091 11 46 12.7909 46 15ZM40.6926 15C40.6926 15.722 41.278 16.3074 42 16.3074C42.722 16.3074 43.3074 15.722 43.3074 15C43.3074 14.278 42.722 13.6926 42 13.6926C41.278 13.6926 40.6926 14.278 40.6926 15Z" fill="#5599FF"/>
<path d="M132 15C132 17.2091 133.791 19 136 19C138.209 19 140 17.2091 140 15C140 12.7909 138.209 11 136 11C133.791 11 132 12.7909 132 15ZM137.307 15C137.307 15.722 136.722 16.3074 136 16.3074C135.278 16.3074 134.693 15.722 134.693 15C134.693 14.278 135.278 13.6926 136 13.6926C136.722 13.6926 137.307 14.278 137.307 15Z" fill="#5599FF"/>
<circle cx="89" cy="15" r="15" fill="white"/>
<path d="M91.3333 8.33325H85.6667C83.7117 8.33325 82.125 9.82659 82.125 11.6666V18.3333C82.125 20.1733 83.7117 21.6666 85.6667 21.6666H91.3333C93.2883 21.6666 94.875 20.1733 94.875 18.3333V11.6666C94.875 9.82659 93.2883 8.33325 91.3333 8.33325ZM86.2758 19.4199C86.1412 19.5466 85.9642 19.6133 85.78 19.6133C85.5887 19.6133 85.4117 19.5466 85.2771 19.4199C85.1425 19.2933 85.0646 19.1266 85.0646 18.9466C85.0646 18.7733 85.1425 18.5999 85.2771 18.4733C85.3408 18.4133 85.4187 18.3666 85.5037 18.3333C85.6808 18.2666 85.8721 18.2666 86.0492 18.3333C86.0917 18.3466 86.1342 18.3666 86.1696 18.3933C86.2121 18.4133 86.2475 18.4466 86.2758 18.4733C86.4104 18.5999 86.4883 18.7733 86.4883 18.9466C86.4883 19.1266 86.4104 19.2933 86.2758 19.4199ZM85.0646 16.2799C85.0646 16.1933 85.0858 16.1066 85.1212 16.0266C85.1567 15.9399 85.2062 15.8733 85.2771 15.8066C85.44 15.6533 85.6879 15.5799 85.9146 15.6266C85.9571 15.6333 86.0067 15.6466 86.0492 15.6666C86.0917 15.6799 86.1342 15.6999 86.1696 15.7266C86.2121 15.7466 86.2475 15.7799 86.2758 15.8066C86.3396 15.8733 86.3962 15.9399 86.4317 16.0266C86.4671 16.1066 86.4812 16.1933 86.4812 16.2799C86.4812 16.4599 86.4104 16.6266 86.2758 16.7533C86.1412 16.8799 85.9642 16.9466 85.78 16.9466C85.6808 16.9466 85.5887 16.9266 85.5037 16.8933C85.4187 16.8599 85.3408 16.8133 85.2771 16.7533C85.1425 16.6266 85.0646 16.4599 85.0646 16.2799ZM89.1092 19.4199C89.0454 19.4799 88.9675 19.5266 88.8825 19.5599C88.7975 19.5933 88.7054 19.6133 88.6062 19.6133C88.4221 19.6133 88.245 19.5466 88.1104 19.4199C87.9758 19.2933 87.8979 19.1266 87.8979 18.9466C87.8979 18.8999 87.905 18.8599 87.9121 18.8133C87.9262 18.7733 87.9404 18.7333 87.9546 18.6933C87.9758 18.6533 87.9971 18.6133 88.0183 18.5733C88.0467 18.5399 88.075 18.5066 88.1104 18.4733C88.1742 18.4133 88.2521 18.3666 88.3371 18.3333C88.5992 18.2333 88.9108 18.2866 89.1092 18.4733C89.2437 18.5999 89.3146 18.7733 89.3146 18.9466C89.3146 19.1266 89.2437 19.2933 89.1092 19.4199ZM89.1092 16.7533C88.9746 16.8799 88.7975 16.9466 88.6062 16.9466C88.4221 16.9466 88.245 16.8799 88.1104 16.7533C87.9758 16.6266 87.8979 16.4599 87.8979 16.2799C87.8979 16.1066 87.9758 15.9333 88.1104 15.8066C88.3725 15.5599 88.8471 15.5599 89.1092 15.8066C89.1729 15.8733 89.2296 15.9399 89.265 16.0266C89.3004 16.1066 89.3146 16.1933 89.3146 16.2799C89.3146 16.4599 89.2437 16.6266 89.1092 16.7533ZM86.375 13.9733C85.6454 13.9733 85.0433 13.4133 85.0433 12.7199V12.0533C85.0433 11.3666 85.6383 10.7999 86.375 10.7999H90.625C91.3546 10.7999 91.9567 11.3599 91.9567 12.0533V12.7199C91.9567 13.4066 91.3617 13.9733 90.625 13.9733H86.375ZM91.9425 19.4199C91.8079 19.5466 91.6308 19.6133 91.4396 19.6133C91.3475 19.6133 91.2554 19.5933 91.1704 19.5599C91.0854 19.5266 91.0075 19.4799 90.9437 19.4199C90.8092 19.2933 90.7383 19.1266 90.7383 18.9466C90.7383 18.7733 90.8092 18.5999 90.9437 18.4733C91.135 18.2866 91.4538 18.2333 91.7158 18.3333C91.8008 18.3666 91.8787 18.4133 91.9425 18.4733C92.0771 18.5999 92.1479 18.7733 92.1479 18.9466C92.1479 19.1266 92.0771 19.2933 91.9425 19.4199ZM92.0983 16.5333C92.0629 16.6133 92.0133 16.6866 91.9425 16.7533C91.8079 16.8799 91.6308 16.9466 91.4396 16.9466C91.2554 16.9466 91.0783 16.8799 90.9437 16.7533C90.8092 16.6266 90.7312 16.4599 90.7312 16.2799C90.7312 16.1066 90.8092 15.9333 90.9437 15.8066C91.2058 15.5599 91.6804 15.5599 91.9425 15.8066C92.0771 15.9333 92.155 16.1066 92.155 16.2799C92.155 16.3666 92.1337 16.4533 92.0983 16.5333Z" fill="#5599FF"/>
</svg>
