<svg width="178" height="30" viewBox="0 0 178 30" fill="none" xmlns="http://www.w3.org/2000/svg">
<path d="M13.5 15C13.9 15 24 15 29 15" stroke="#80CFB2"/>
<path d="M52 15C52.4 15 62.5 15 67.5 15" stroke="#80CFB2"/>
<path d="M109 15C109.4 15 119.5 15 124.5 15" stroke="#80CFB2"/>
<path d="M132.45 13.952H135.17V11.312H136.834V13.952H139.554V15.616H136.834V18.288H135.17V15.616H132.45V13.952Z" fill="url(#paint0_linear_396_28764)"/>
<path d="M36.45 13.952H39.17V11.312H40.834V13.952H43.554V15.616H40.834V18.288H39.17V15.616H36.45V13.952Z" fill="url(#paint1_linear_396_28764)"/>
<path d="M170.394 14.458H172.774V12.148H174.23V14.458H176.61V15.914H174.23V18.252H172.774V15.914H170.394V14.458Z" fill="url(#paint2_linear_396_28764)"/>
<path d="M1.39375 14.458H3.77375V12.148H5.22975V14.458H7.60975V15.914H5.22975V18.252H3.77375V15.914H1.39375V14.458Z" fill="url(#paint3_linear_396_28764)"/>
<path d="M147.5 15C147.9 15 158 15 163 15" stroke="#80CFB2"/>
<circle cx="88" cy="15" r="15" fill="#AADFCC"/>
<path d="M89.5375 7.5C91.0662 7.66108 92.4941 8.3391 93.5851 9.42194C94.6761 10.5048 95.3649 11.9276 95.5375 13.455M89.5375 10.5C90.2751 10.6455 90.952 11.0093 91.4803 11.5442C92.0085 12.0792 92.3638 12.7606 92.5 13.5M95.5001 18.6901V20.9401C95.5009 21.1489 95.4581 21.3557 95.3745 21.5471C95.2908 21.7385 95.168 21.9103 95.0141 22.0515C94.8602 22.1927 94.6785 22.3002 94.4806 22.3671C94.2828 22.434 94.0731 22.4589 93.8651 22.4401C91.5572 22.1893 89.3403 21.4007 87.3926 20.1376C85.5804 18.9861 84.0441 17.4497 82.8926 15.6376C81.6251 13.681 80.8363 11.4533 80.5901 9.13507C80.5713 8.92767 80.596 8.71864 80.6624 8.52129C80.7289 8.32394 80.8358 8.14259 80.9761 7.98879C81.1165 7.83499 81.2874 7.7121 81.4779 7.62796C81.6684 7.54382 81.8743 7.50027 82.0826 7.50007H84.3326C84.6966 7.49649 85.0494 7.62538 85.3254 7.86272C85.6014 8.10006 85.7816 8.42966 85.8326 8.79007C85.9275 9.51012 86.1037 10.2171 86.3576 10.8976C86.4585 11.166 86.4803 11.4578 86.4205 11.7382C86.3607 12.0187 86.2217 12.2762 86.0201 12.4801L85.0676 13.4326C86.1352 15.3102 87.6899 16.8649 89.5676 17.9326L90.5201 16.9801C90.724 16.7784 90.9814 16.6395 91.2619 16.5796C91.5424 16.5198 91.8341 16.5417 92.1026 16.6426C92.783 16.8965 93.49 17.0726 94.2101 17.1676C94.5744 17.219 94.9071 17.4025 95.145 17.6832C95.3828 17.9639 95.5092 18.3223 95.5001 18.6901Z" stroke="#016453" stroke-width="0.75" stroke-linecap="round" stroke-linejoin="round"/>
<defs>
<linearGradient id="paint0_linear_396_28764" x1="136" y1="2" x2="136" y2="27" gradientUnits="userSpaceOnUse">
<stop offset="0.370192" stop-color="#06C399"/>
<stop offset="1" stop-color="#4864E1"/>
</linearGradient>
<linearGradient id="paint1_linear_396_28764" x1="40" y1="2" x2="40" y2="27" gradientUnits="userSpaceOnUse">
<stop offset="0.370192" stop-color="#06C399"/>
<stop offset="1" stop-color="#4864E1"/>
</linearGradient>
<linearGradient id="paint2_linear_396_28764" x1="173.5" y1="4" x2="173.5" y2="26" gradientUnits="userSpaceOnUse">
<stop offset="0.370192" stop-color="#06C399"/>
<stop offset="1" stop-color="#4864E1"/>
</linearGradient>
<linearGradient id="paint3_linear_396_28764" x1="4.5" y1="4" x2="4.5" y2="26" gradientUnits="userSpaceOnUse">
<stop offset="0.370192" stop-color="#06C399"/>
<stop offset="1" stop-color="#4864E1"/>
</linearGradient>
</defs>
</svg>
