<svg width="16" height="16" viewBox="0 0 16 16" fill="none" xmlns="http://www.w3.org/2000/svg">
<g clip-path="url(#clip0_6148_56197)">
<path d="M5.33301 8.0651C5.33301 8.43329 5.63148 8.73177 5.99967 8.73177C6.36786 8.73177 6.66634 8.43329 6.66634 8.0651C6.66634 7.69691 6.36786 7.39844 5.99967 7.39844C5.63148 7.39844 5.33301 7.69691 5.33301 8.0651Z" fill="#4A4A4A"/>
<path d="M5.33301 11.9987C5.33301 12.3669 5.63148 12.6654 5.99967 12.6654C6.36786 12.6654 6.66634 12.3669 6.66634 11.9987C6.66634 11.6305 6.36786 11.332 5.99967 11.332C5.63148 11.332 5.33301 11.6305 5.33301 11.9987Z" fill="#4A4A4A"/>
<path d="M5.33301 3.9987C5.33301 4.36689 5.63148 4.66536 5.99967 4.66536C6.36786 4.66536 6.66634 4.36689 6.66634 3.9987C6.66634 3.63051 6.36786 3.33203 5.99967 3.33203C5.63149 3.33203 5.33301 3.63051 5.33301 3.9987Z" fill="#4A4A4A"/>
<path d="M9.33301 8.0651C9.33301 8.43329 9.63148 8.73177 9.99967 8.73177C10.3679 8.73177 10.6663 8.43329 10.6663 8.0651C10.6663 7.69691 10.3679 7.39844 9.99967 7.39844C9.63149 7.39844 9.33301 7.69691 9.33301 8.0651Z" fill="#4A4A4A"/>
<path d="M9.33301 11.9987C9.33301 12.3669 9.63148 12.6654 9.99967 12.6654C10.3679 12.6654 10.6663 12.3669 10.6663 11.9987C10.6663 11.6305 10.3679 11.332 9.99967 11.332C9.63148 11.332 9.33301 11.6305 9.33301 11.9987Z" fill="#4A4A4A"/>
<path d="M9.33301 3.9987C9.33301 4.36689 9.63149 4.66536 9.99967 4.66536C10.3679 4.66536 10.6663 4.36689 10.6663 3.9987C10.6663 3.63051 10.3679 3.33203 9.99967 3.33203C9.63149 3.33203 9.33301 3.63051 9.33301 3.9987Z" fill="#4A4A4A"/>
<path d="M5.33301 8.0651C5.33301 8.43329 5.63148 8.73177 5.99967 8.73177C6.36786 8.73177 6.66634 8.43329 6.66634 8.0651C6.66634 7.69691 6.36786 7.39844 5.99967 7.39844C5.63148 7.39844 5.33301 7.69691 5.33301 8.0651Z" stroke="#4A4A4A" stroke-width="1.5" stroke-linecap="round" stroke-linejoin="round"/>
<path d="M5.33301 11.9987C5.33301 12.3669 5.63148 12.6654 5.99967 12.6654C6.36786 12.6654 6.66634 12.3669 6.66634 11.9987C6.66634 11.6305 6.36786 11.332 5.99967 11.332C5.63148 11.332 5.33301 11.6305 5.33301 11.9987Z" stroke="#4A4A4A" stroke-width="1.5" stroke-linecap="round" stroke-linejoin="round"/>
<path d="M5.33301 3.9987C5.33301 4.36689 5.63148 4.66536 5.99967 4.66536C6.36786 4.66536 6.66634 4.36689 6.66634 3.9987C6.66634 3.63051 6.36786 3.33203 5.99967 3.33203C5.63149 3.33203 5.33301 3.63051 5.33301 3.9987Z" stroke="#4A4A4A" stroke-width="1.5" stroke-linecap="round" stroke-linejoin="round"/>
<path d="M9.33301 8.0651C9.33301 8.43329 9.63148 8.73177 9.99967 8.73177C10.3679 8.73177 10.6663 8.43329 10.6663 8.0651C10.6663 7.69691 10.3679 7.39844 9.99967 7.39844C9.63149 7.39844 9.33301 7.69691 9.33301 8.0651Z" stroke="#4A4A4A" stroke-width="1.5" stroke-linecap="round" stroke-linejoin="round"/>
<path d="M9.33301 11.9987C9.33301 12.3669 9.63148 12.6654 9.99967 12.6654C10.3679 12.6654 10.6663 12.3669 10.6663 11.9987C10.6663 11.6305 10.3679 11.332 9.99967 11.332C9.63148 11.332 9.33301 11.6305 9.33301 11.9987Z" stroke="#4A4A4A" stroke-width="1.5" stroke-linecap="round" stroke-linejoin="round"/>
<path d="M9.33301 3.9987C9.33301 4.36689 9.63149 4.66536 9.99967 4.66536C10.3679 4.66536 10.6663 4.36689 10.6663 3.9987C10.6663 3.63051 10.3679 3.33203 9.99967 3.33203C9.63149 3.33203 9.33301 3.63051 9.33301 3.9987Z" stroke="#4A4A4A" stroke-width="1.5" stroke-linecap="round" stroke-linejoin="round"/>
</g>
<defs>
<clipPath id="clip0_6148_56197">
<rect width="16" height="16" fill="white"/>
</clipPath>
</defs>
</svg>
