<svg width="28" height="28" viewBox="0 0 28 28" fill="none" xmlns="http://www.w3.org/2000/svg">
<path d="M0 8C0 3.58172 3.58172 0 8 0H20C24.4183 0 28 3.58172 28 8V20C28 24.4183 24.4183 28 20 28H8C3.58172 28 0 24.4183 0 20V8Z" fill="#4864E1" fill-opacity="0.08"/>
<g clip-path="url(#clip0_2099_128332)">
<path d="M9.99967 17.3346V17.3413M9.99967 14.668V14.6746M17.9997 17.3346V17.3413M17.9997 14.668V14.6746M15.333 20.668V17.3346C15.333 16.981 15.1925 16.6419 14.9425 16.3918C14.6924 16.1418 14.3533 16.0013 13.9997 16.0013C13.6461 16.0013 13.3069 16.1418 13.0569 16.3918C12.8068 16.6419 12.6663 16.981 12.6663 17.3346V20.668M14.6663 12.668C14.6663 13.0362 14.3679 13.3346 13.9997 13.3346C13.6315 13.3346 13.333 13.0362 13.333 12.668C13.333 12.2998 13.6315 12.0013 13.9997 12.0013C14.3679 12.0013 14.6663 12.2998 14.6663 12.668ZM20.6663 19.3346V11.3346H17.9997L13.9997 8.66797L9.99967 11.3346H7.33301V19.3346C7.33301 19.6883 7.47348 20.0274 7.72353 20.2774C7.97358 20.5275 8.31272 20.668 8.66634 20.668H19.333C19.6866 20.668 20.0258 20.5275 20.2758 20.2774C20.5259 20.0274 20.6663 19.6883 20.6663 19.3346Z" stroke="#4864E1" stroke-width="1.5" stroke-linecap="round" stroke-linejoin="round"/>
</g>
<defs>
<clipPath id="clip0_2099_128332">
<rect width="16" height="16" fill="white" transform="translate(6 6)"/>
</clipPath>
</defs>
</svg>
