<svg width="24" height="24" viewBox="0 0 24 24" fill="none" xmlns="http://www.w3.org/2000/svg">
<path d="M3.05625 12.3232C2.98125 12.1147 2.98125 11.8853 3.05625 11.6768C3.78675 9.8491 5.02672 8.28635 6.61897 7.1867C8.21121 6.08704 10.084 5.5 12 5.5C13.916 5.5 15.7888 6.08704 17.381 7.1867C18.9733 8.28635 20.2133 9.8491 20.9437 11.6768C21.0188 11.8853 21.0188 12.1147 20.9437 12.3232C20.2133 14.1509 18.9733 15.7136 17.381 16.8133C15.7888 17.913 13.916 18.5 12 18.5C10.084 18.5 8.21121 17.913 6.61897 16.8133C5.02672 15.7136 3.78675 14.1509 3.05625 12.3232Z" stroke="#4864E1" stroke-width="1.5" stroke-linecap="round" stroke-linejoin="round"/>
<path d="M12 14.7859C13.4911 14.7859 14.6998 13.5385 14.6998 11.9999C14.6998 10.4612 13.4911 9.21393 12 9.21393C10.5089 9.21393 9.30012 10.4612 9.30012 11.9999C9.30012 13.5385 10.5089 14.7859 12 14.7859Z" stroke="#4864E1" stroke-width="1.5" stroke-linecap="round" stroke-linejoin="round"/>
</svg>
