<svg width="16" height="16" viewBox="0 0 16 16" fill="none" xmlns="http://www.w3.org/2000/svg">
<g clip-path="url(#clip0_1_62731)">
<path d="M11.4676 8.2666C9.70091 8.2666 8.26758 9.69994 8.26758 11.4666C8.26758 12.0666 8.43425 12.6333 8.73425 13.1133C9.28758 14.0399 10.3009 14.6666 11.4676 14.6666C12.6342 14.6666 13.6542 14.0399 14.2009 13.1133C14.4942 12.6333 14.6676 12.0666 14.6676 11.4666C14.6676 9.69994 13.2342 8.2666 11.4676 8.2666ZM13.0542 11.0466L11.3476 12.6199C11.2542 12.7066 11.1276 12.7533 11.0076 12.7533C10.8809 12.7533 10.7542 12.7066 10.6542 12.6066L9.86758 11.8199C9.67425 11.6266 9.67425 11.3066 9.86758 11.1133C10.0609 10.9199 10.3809 10.9199 10.5742 11.1133L11.0209 11.5599L12.3742 10.3066C12.5742 10.1199 12.8942 10.1333 13.0809 10.3333C13.2676 10.5399 13.2542 10.8599 13.0542 11.0466Z" fill="#F88B3A"/>
<path d="M14.6673 5.81993C14.6673 6.61326 14.5407 7.34659 14.3207 8.0266C14.2807 8.16659 14.114 8.2066 13.994 8.11993C13.2673 7.57993 12.3807 7.29326 11.4673 7.29326C9.15399 7.29326 7.26732 9.17993 7.26732 11.4933C7.26732 12.2133 7.45398 12.9199 7.80732 13.5466C7.91398 13.7333 7.78732 13.9733 7.58732 13.8999C5.98065 13.3533 2.73398 11.3599 1.68065 8.0266C1.46065 7.34659 1.33398 6.61326 1.33398 5.81993C1.33398 3.75993 2.99398 2.09326 5.04065 2.09326C6.24732 2.09326 7.32732 2.67993 8.00065 3.57993C8.67398 2.67993 9.75399 2.09326 10.9607 2.09326C13.0073 2.09326 14.6673 3.75993 14.6673 5.81993Z" fill="#F88B3A"/>
</g>
<defs>
<clipPath id="clip0_1_62731">
<rect width="16" height="16" fill="white"/>
</clipPath>
</defs>
</svg>
