<svg width="16" height="16" viewBox="0 0 16 16" fill="none" xmlns="http://www.w3.org/2000/svg">
<path d="M10 14V8.94724C10 8.77973 9.92976 8.61908 9.80474 8.50063C9.67971 8.38219 9.51014 8.31564 9.33333 8.31564H6.66667C6.48986 8.31564 6.32029 8.38219 6.19526 8.50063C6.07024 8.61908 6 8.77973 6 8.94724V14M2 7.05243C1.99995 6.86868 2.04222 6.68713 2.12386 6.52045C2.20549 6.35377 2.32453 6.20597 2.47267 6.08736L7.13933 2.29842C7.37999 2.10572 7.6849 2 8 2C8.3151 2 8.62001 2.10572 8.86067 2.29842L13.5273 6.08736C13.6755 6.20597 13.7945 6.35377 13.8761 6.52045C13.9578 6.68713 14 6.86868 14 7.05243V12.7368C14 13.0718 13.8595 13.3931 13.6095 13.63C13.3594 13.8669 13.0203 14 12.6667 14H3.33333C2.97971 14 2.64057 13.8669 2.39052 13.63C2.14048 13.3931 2 13.0718 2 12.7368V7.05243Z" stroke="#757575" stroke-width="1.5" stroke-linecap="round" stroke-linejoin="round"/>
</svg>
