<svg width="257" height="243" viewBox="0 0 257 243" fill="none" xmlns="http://www.w3.org/2000/svg">
<g opacity="0.15" filter="url(#filter0_f_2071_83872)">
<path d="M60 145.022C60 122.931 77.9086 105.022 100 105.022H157C179.091 105.022 197 122.931 197 145.022V166.022C197 174.859 189.837 182.022 181 182.022H76C67.1634 182.022 60 174.859 60 166.022V145.022Z" fill="#4864E1"/>
</g>
<g opacity="0.25" filter="url(#filter1_f_2071_83872)">
<path d="M132 106.022C132 97.7377 138.716 91.022 147 91.022C155.284 91.022 162 97.7377 162 106.022V125.308C162 132.882 155.86 139.022 148.286 139.022H145.714C138.14 139.022 132 132.882 132 125.308V106.022Z" fill="#008768"/>
</g>
<g opacity="0.2" filter="url(#filter2_f_2071_83872)">
<path d="M93 106.022C93 97.7377 99.7157 91.022 108 91.022C116.284 91.022 123 97.7377 123 106.022V125.308C123 132.882 116.86 139.022 109.286 139.022H106.714C99.1401 139.022 93 132.882 93 125.308V106.022Z" fill="#4864E1"/>
</g>
<mask id="mask0_2071_83872" style="mask-type:alpha" maskUnits="userSpaceOnUse" x="65" y="42" width="125" height="108">
<path d="M65.998 115.776C65.998 75.0305 93.7564 42 127.998 42C162.24 42 189.998 75.0305 189.998 115.776C189.998 156.521 162.24 149.546 127.998 149.546C93.7564 149.546 65.998 156.521 65.998 115.776Z" fill="#D9D9D9" fill-opacity="0.1"/>
</mask>
<g mask="url(#mask0_2071_83872)">
<rect x="39.7988" y="29.6221" width="39.9" height="39.9" rx="4.2" fill="#BABABA"/>
<rect x="85.2988" y="29.6221" width="39.9" height="39.9" rx="4.2" fill="#BABABA"/>
<rect x="130.799" y="29.6221" width="39.9" height="39.9" rx="4.2" fill="#BABABA"/>
<rect x="176.299" y="29.6221" width="39.9" height="39.9" rx="4.2" fill="#BABABA"/>
<rect x="39.7988" y="75.1221" width="39.9" height="39.9" rx="4.2" fill="#BABABA"/>
<rect x="85.2988" y="75.1221" width="39.9" height="39.9" rx="4.2" fill="#BABABA"/>
<rect x="130.799" y="75.1221" width="39.9" height="39.9" rx="4.2" fill="#BABABA"/>
<rect x="176.299" y="75.1221" width="39.9" height="39.9" rx="4.2" fill="#BABABA"/>
<rect x="39.7988" y="120.622" width="39.9" height="39.9" rx="4.2" fill="#BABABA"/>
<rect x="85.2988" y="120.622" width="39.9" height="39.9" rx="4.2" fill="#BABABA"/>
<rect x="130.799" y="120.622" width="39.9" height="39.9" rx="4.2" fill="#BABABA"/>
<rect x="176.299" y="120.622" width="39.9" height="39.9" rx="4.2" fill="#BABABA"/>
</g>
<path d="M116.678 74.2171L129.551 72.4079C135.021 71.6392 140.077 75.4497 140.846 80.9188L142.098 89.8312L138.137 90.3879L136.885 81.4755C136.424 78.1941 133.39 75.9078 130.108 76.3689L117.235 78.1782C113.953 78.6394 111.667 81.6734 112.128 84.9548L113.381 93.8673L109.42 94.4239L108.167 85.5115C107.398 80.0424 111.209 74.9858 116.678 74.2171Z" fill="#757575"/>
<rect x="162.616" y="84.9281" width="56" height="76" rx="6" transform="rotate(82 162.616 84.9281)" fill="#FAFAFA" stroke="#A6A6A6" stroke-linejoin="round"/>
<rect x="113.333" y="115.08" width="34" height="5" rx="2" transform="rotate(82 113.333 115.08)" fill="#F2F2F2" stroke="#A6A6A6" stroke-linejoin="round"/>
<rect x="147.992" y="110.209" width="34" height="5" rx="2" transform="rotate(82 147.992 110.209)" fill="#F2F2F2" stroke="#A6A6A6" stroke-linejoin="round"/>
<path d="M155.406 83.9217C159.781 83.3068 163.827 86.3552 164.442 90.7305L166.668 106.575C166.822 107.669 166.06 108.68 164.966 108.834L91.6863 119.132C90.5924 119.286 89.5811 118.524 89.4274 117.43L87.2006 101.586C86.5857 97.2107 89.6341 93.1654 94.0094 92.5505L155.406 83.9217Z" fill="#E8E8E8" stroke="#A6A6A6" stroke-linejoin="round"/>
<path d="M120.266 110.529C120.122 110.828 119.764 110.953 119.465 110.81C119.167 110.666 119.041 110.308 119.185 110.009L119.726 110.269L120.266 110.529ZM125.125 109.174C125.345 109.421 125.323 109.8 125.076 110.021C124.828 110.242 124.449 110.22 124.229 109.972L124.677 109.573L125.125 109.174ZM119.726 110.269L119.185 110.009C119.694 108.951 120.857 108.368 121.962 108.213C123.067 108.057 124.344 108.297 125.125 109.174L124.677 109.573L124.229 109.972C123.81 109.503 123.003 109.278 122.128 109.401C121.252 109.524 120.539 109.963 120.266 110.529L119.726 110.269Z" fill="#3B3B3B"/>
<path d="M131.159 108.998C131.015 109.297 130.657 109.422 130.358 109.279C130.059 109.135 129.934 108.777 130.078 108.478L130.618 108.738L131.159 108.998ZM136.018 107.643C136.238 107.89 136.216 108.269 135.968 108.49C135.721 108.711 135.342 108.689 135.121 108.441L135.57 108.042L136.018 107.643ZM130.618 108.738L130.078 108.478C130.587 107.42 131.749 106.837 132.854 106.682C133.959 106.526 135.237 106.766 136.018 107.643L135.57 108.042L135.121 108.441C134.703 107.972 133.896 107.747 133.02 107.87C132.145 107.993 131.431 108.432 131.159 108.998L130.618 108.738Z" fill="#3B3B3B"/>
<path d="M128.472 115.379C128.149 115.452 127.946 115.774 128.019 116.097C128.092 116.42 128.414 116.623 128.737 116.55L128.605 115.964L128.472 115.379ZM127.965 111.409C127.637 111.455 127.408 111.759 127.454 112.087C127.5 112.415 127.803 112.644 128.131 112.597L128.048 112.003L127.965 111.409ZM128.238 113.354C127.91 113.4 127.681 113.704 127.727 114.032C127.773 114.36 128.076 114.589 128.404 114.542L128.321 113.948L128.238 113.354ZM128.605 115.964L128.737 116.55C129.756 116.318 130.279 115.486 130.164 114.669C130.109 114.274 129.902 113.897 129.551 113.643C129.197 113.385 128.74 113.284 128.238 113.354L128.321 113.948L128.404 114.542C128.645 114.509 128.778 114.565 128.846 114.614C128.917 114.666 128.963 114.744 128.976 114.837C128.989 114.931 128.968 115.037 128.901 115.13C128.837 115.219 128.711 115.325 128.472 115.379L128.605 115.964ZM128.321 113.948L128.404 114.542C128.911 114.471 129.322 114.241 129.587 113.888C129.848 113.542 129.934 113.121 129.874 112.731C129.751 111.924 129.013 111.262 127.965 111.409L128.048 112.003L128.131 112.597C128.35 112.567 128.477 112.621 128.547 112.673C128.623 112.73 128.674 112.817 128.688 112.913C128.703 113.008 128.68 113.098 128.628 113.167C128.581 113.231 128.474 113.321 128.238 113.354L128.321 113.948Z" fill="#3B3B3B"/>
<rect x="110.705" y="89.1943" width="33" height="7" rx="2" transform="rotate(82 110.705 89.1943)" fill="#CCCCCC" stroke="#A6A6A6" stroke-linejoin="round"/>
<rect x="145.364" y="84.3232" width="33" height="7" rx="2" transform="rotate(82 145.364 84.3232)" fill="#CCCCCC" stroke="#A6A6A6" stroke-linejoin="round"/>
<rect x="158.265" y="121.642" width="22" height="31" rx="4" transform="rotate(8 158.265 121.642)" fill="#DCE3F9" stroke="#4864E1"/>
<rect x="159.442" y="142.004" width="8" height="1" rx="0.5" transform="rotate(8 159.442 142.004)" fill="#4864E1"/>
<rect x="159.164" y="143.984" width="14" height="1" rx="0.5" transform="rotate(8 159.164 143.984)" fill="#4864E1"/>
<rect x="158.886" y="145.965" width="14" height="1" rx="0.5" transform="rotate(8 158.886 145.965)" fill="#4864E1"/>
<rect x="158.607" y="147.945" width="4" height="1" rx="0.5" transform="rotate(8 158.607 147.945)" fill="#4864E1"/>
<path d="M169.634 130.56C169.726 129.906 169.162 129.232 168.322 129.114C167.482 128.996 166.755 129.488 166.663 130.143C166.544 130.987 166.55 130.943 166.489 131.38C166.428 131.816 166.708 132.19 167.018 132.345C167.329 132.5 167.899 132.635 168.53 132.631C169.161 132.628 169.409 132.159 169.46 131.797C169.511 131.436 169.582 130.926 169.634 130.56Z" fill="#FAFAFA"/>
<path d="M169.634 130.56C169.726 129.906 169.162 129.232 168.322 129.114C167.482 128.996 166.755 129.488 166.663 130.143C166.544 130.987 166.55 130.943 166.489 131.38C166.428 131.816 166.708 132.19 167.018 132.345C167.329 132.5 167.899 132.635 168.53 132.631C169.161 132.628 169.409 132.159 169.46 131.797C169.511 131.436 169.582 130.926 169.634 130.56Z" fill="#4864E1"/>
<path d="M170.031 138.519L170.176 137.481C170.382 136.021 169.286 134.714 167.84 134.696C167.64 134.693 167.442 134.665 167.249 134.613C165.854 134.232 164.44 135.185 164.235 136.646L164.089 137.683" stroke="#4864E1" stroke-linecap="round" stroke-linejoin="round"/>
<defs>
<filter id="filter0_f_2071_83872" x="0" y="45.022" width="257" height="197" filterUnits="userSpaceOnUse" color-interpolation-filters="sRGB">
<feFlood flood-opacity="0" result="BackgroundImageFix"/>
<feBlend mode="normal" in="SourceGraphic" in2="BackgroundImageFix" result="shape"/>
<feGaussianBlur stdDeviation="30" result="effect1_foregroundBlur_2071_83872"/>
</filter>
<filter id="filter1_f_2071_83872" x="72" y="31.022" width="150" height="168" filterUnits="userSpaceOnUse" color-interpolation-filters="sRGB">
<feFlood flood-opacity="0" result="BackgroundImageFix"/>
<feBlend mode="normal" in="SourceGraphic" in2="BackgroundImageFix" result="shape"/>
<feGaussianBlur stdDeviation="30" result="effect1_foregroundBlur_2071_83872"/>
</filter>
<filter id="filter2_f_2071_83872" x="33" y="31.022" width="150" height="168" filterUnits="userSpaceOnUse" color-interpolation-filters="sRGB">
<feFlood flood-opacity="0" result="BackgroundImageFix"/>
<feBlend mode="normal" in="SourceGraphic" in2="BackgroundImageFix" result="shape"/>
<feGaussianBlur stdDeviation="30" result="effect1_foregroundBlur_2071_83872"/>
</filter>
</defs>
</svg>
