<svg width="257" height="243" viewBox="0 0 257 243" fill="none" xmlns="http://www.w3.org/2000/svg">
<g opacity="0.15" filter="url(#filter0_f_756_28168)">
<path d="M60 145.022C60 122.931 77.9086 105.022 100 105.022H157C179.091 105.022 197 122.931 197 145.022V166.022C197 174.859 189.837 182.022 181 182.022H76C67.1634 182.022 60 174.859 60 166.022V145.022Z" fill="#4864E1"/>
</g>
<g opacity="0.25" filter="url(#filter1_f_756_28168)">
<path d="M132 106.022C132 97.7377 138.716 91.022 147 91.022C155.284 91.022 162 97.7377 162 106.022V125.308C162 132.882 155.86 139.022 148.286 139.022H145.714C138.14 139.022 132 132.882 132 125.308V106.022Z" fill="#008768"/>
</g>
<g opacity="0.2" filter="url(#filter2_f_756_28168)">
<path d="M93 106.022C93 97.7377 99.7157 91.022 108 91.022C116.284 91.022 123 97.7377 123 106.022V125.308C123 132.882 116.86 139.022 109.286 139.022H106.714C99.1401 139.022 93 132.882 93 125.308V106.022Z" fill="#4864E1"/>
</g>
<mask id="mask0_756_28168" style="mask-type:alpha" maskUnits="userSpaceOnUse" x="65" y="42" width="125" height="108">
<path d="M65.998 115.776C65.998 75.0305 93.7564 42 127.998 42C162.24 42 189.998 75.0305 189.998 115.776C189.998 156.521 162.24 149.546 127.998 149.546C93.7564 149.546 65.998 156.521 65.998 115.776Z" fill="#D9D9D9" fill-opacity="0.1"/>
</mask>
<g mask="url(#mask0_756_28168)">
<rect x="39.7988" y="29.6221" width="39.9" height="39.9" rx="4.2" fill="#BABABA"/>
<rect x="85.2988" y="29.6221" width="39.9" height="39.9" rx="4.2" fill="#BABABA"/>
<rect x="130.799" y="29.6221" width="39.9" height="39.9" rx="4.2" fill="#BABABA"/>
<rect x="176.299" y="29.6221" width="39.9" height="39.9" rx="4.2" fill="#BABABA"/>
<rect x="39.7988" y="75.1221" width="39.9" height="39.9" rx="4.2" fill="#BABABA"/>
<rect x="85.2988" y="75.1221" width="39.9" height="39.9" rx="4.2" fill="#BABABA"/>
<rect x="130.799" y="75.1221" width="39.9" height="39.9" rx="4.2" fill="#BABABA"/>
<rect x="176.299" y="75.1221" width="39.9" height="39.9" rx="4.2" fill="#BABABA"/>
<rect x="39.7988" y="120.622" width="39.9" height="39.9" rx="4.2" fill="#BABABA"/>
<rect x="85.2988" y="120.622" width="39.9" height="39.9" rx="4.2" fill="#BABABA"/>
<rect x="130.799" y="120.622" width="39.9" height="39.9" rx="4.2" fill="#BABABA"/>
<rect x="176.299" y="120.622" width="39.9" height="39.9" rx="4.2" fill="#BABABA"/>
</g>
<path d="M155.566 115.022C155.566 112.261 153.328 110.022 150.566 110.022H142.566V142.022H150.566C153.328 142.022 155.566 139.783 155.566 137.022V115.022Z" fill="#DBDBDB" stroke="#A6A6A6" stroke-linejoin="round"/>
<path d="M110.42 80.022L101 89.4417L101 136.022C101 139.273 103.636 142.022 106.888 142.022C106.888 142.022 147.315 142.022 150.566 142.022C147.32 142.022 144.566 140.391 144.566 136.022V85.9093C144.566 82.6578 141.931 80.022 138.679 80.022L110.42 80.022Z" fill="#FAFAFA" stroke="#A6A6A6" stroke-linejoin="round"/>
<path d="M101 89.4417L110.42 80.022V85.4417C110.42 87.6508 108.629 89.4417 106.42 89.4417H101Z" fill="#DBDBDB" stroke="#A6A6A6" stroke-linejoin="round"/>
<path d="M115.557 118.752L116.04 115.985C117.106 116.181 118.477 116.383 120.052 116.501L119.579 119.417C119.391 120.574 118.27 121.338 117.126 121.089C116.061 120.857 115.369 119.828 115.557 118.752Z" fill="#EF4035"/>
<path d="M116.04 115.985L116.15 115.395L116.15 115.395L116.04 115.985ZM113.461 116.017C113.143 115.922 112.963 115.589 113.058 115.271C113.153 114.953 113.488 114.772 113.805 114.866L113.633 115.441L113.461 116.017ZM115.557 118.752L114.966 118.651V118.651L115.557 118.752ZM131.126 114.866C131.444 114.772 131.778 114.953 131.871 115.271C131.964 115.589 131.782 115.922 131.464 116.017L131.295 115.441L131.126 114.866ZM119.579 119.417L120.171 119.511V119.511L119.579 119.417ZM117.126 121.089L117.256 120.503L117.256 120.503L117.126 121.089ZM116.04 115.985L115.929 116.575C115.162 116.434 114.549 116.296 114.126 116.192C113.914 116.14 113.75 116.097 113.638 116.066C113.581 116.051 113.538 116.039 113.509 116.03C113.494 116.026 113.482 116.023 113.474 116.021C113.47 116.019 113.467 116.018 113.465 116.018C113.464 116.017 113.463 116.017 113.462 116.017C113.462 116.017 113.461 116.017 113.461 116.017C113.461 116.017 113.461 116.017 113.461 116.017C113.461 116.017 113.461 116.017 113.461 116.017C113.461 116.017 113.461 116.017 113.633 115.441C113.805 114.866 113.805 114.866 113.805 114.866C113.805 114.866 113.805 114.866 113.805 114.866C113.805 114.866 113.805 114.866 113.805 114.866C113.805 114.866 113.805 114.866 113.805 114.866C113.805 114.866 113.806 114.866 113.806 114.866C113.808 114.867 113.81 114.867 113.813 114.868C113.818 114.87 113.828 114.873 113.84 114.876C113.866 114.883 113.904 114.894 113.956 114.908C114.059 114.936 114.214 114.977 114.415 115.026C114.818 115.125 115.408 115.259 116.15 115.395L116.04 115.985ZM116.04 115.985L116.631 116.086L116.148 118.854L115.557 118.752L114.966 118.651L115.449 115.884L116.04 115.985ZM131.295 115.441L131.464 116.017C127.343 117.236 123.239 117.341 120.005 117.099L120.052 116.501L120.099 115.903C123.241 116.138 127.189 116.032 131.126 114.866L131.295 115.441ZM120.052 116.501L120.005 117.099C118.405 116.98 117.013 116.775 115.929 116.575L116.04 115.985L116.15 115.395C117.198 115.588 118.548 115.787 120.099 115.903L120.052 116.501ZM119.579 119.417L118.986 119.323L119.46 116.407L120.052 116.501L120.644 116.595L120.171 119.511L119.579 119.417ZM117.126 121.089L117.256 120.503C118.063 120.678 118.854 120.139 118.986 119.323L119.579 119.417L120.171 119.511C119.928 121.008 118.477 121.997 116.997 121.675L117.126 121.089ZM115.557 118.752L116.148 118.854C116.016 119.613 116.504 120.339 117.256 120.503L117.126 121.089L116.997 121.675C115.618 121.376 114.723 120.043 114.966 118.651L115.557 118.752Z" fill="#3B3B3B"/>
<path d="M125.407 107.022C126.708 108.323 128.817 108.323 130.117 107.022" stroke="#3B3B3B" stroke-width="1.2" stroke-linecap="round" stroke-linejoin="round"/>
<path d="M119.521 107.022C118.22 108.323 116.111 108.323 114.811 107.022" stroke="#3B3B3B" stroke-width="1.2" stroke-linecap="round" stroke-linejoin="round"/>
<path d="M114.085 140.979C114.085 136.049 118.07 132.022 123 132.022C127.964 132.022 132 136.101 132 141.065C132 145.995 128.015 150.022 123.085 150.022C118.122 150.022 114.085 145.943 114.085 140.979Z" fill="#009F65" stroke="#A6A6A6"/>
<path d="M125.944 144.522L123.222 142.966L120.5 144.522V138.3C120.5 138.093 120.582 137.896 120.728 137.75C120.874 137.604 121.071 137.522 121.278 137.522H125.167C125.373 137.522 125.571 137.604 125.717 137.75C125.863 137.896 125.944 138.093 125.944 138.3V144.522Z" stroke="white" stroke-linecap="round" stroke-linejoin="round"/>
<defs>
<filter id="filter0_f_756_28168" x="0" y="45.022" width="257" height="197" filterUnits="userSpaceOnUse" color-interpolation-filters="sRGB">
<feFlood flood-opacity="0" result="BackgroundImageFix"/>
<feBlend mode="normal" in="SourceGraphic" in2="BackgroundImageFix" result="shape"/>
<feGaussianBlur stdDeviation="30" result="effect1_foregroundBlur_756_28168"/>
</filter>
<filter id="filter1_f_756_28168" x="72" y="31.022" width="150" height="168" filterUnits="userSpaceOnUse" color-interpolation-filters="sRGB">
<feFlood flood-opacity="0" result="BackgroundImageFix"/>
<feBlend mode="normal" in="SourceGraphic" in2="BackgroundImageFix" result="shape"/>
<feGaussianBlur stdDeviation="30" result="effect1_foregroundBlur_756_28168"/>
</filter>
<filter id="filter2_f_756_28168" x="33" y="31.022" width="150" height="168" filterUnits="userSpaceOnUse" color-interpolation-filters="sRGB">
<feFlood flood-opacity="0" result="BackgroundImageFix"/>
<feBlend mode="normal" in="SourceGraphic" in2="BackgroundImageFix" result="shape"/>
<feGaussianBlur stdDeviation="30" result="effect1_foregroundBlur_756_28168"/>
</filter>
</defs>
</svg>
