<svg width="257" height="243" viewBox="0 0 257 243" fill="none" xmlns="http://www.w3.org/2000/svg">
<g opacity="0.15" filter="url(#filter0_f_553_23030)">
<path d="M60 145.022C60 122.931 77.9086 105.022 100 105.022H157C179.091 105.022 197 122.931 197 145.022V166.022C197 174.859 189.837 182.022 181 182.022H76C67.1634 182.022 60 174.859 60 166.022V145.022Z" fill="#4864E1"/>
</g>
<g opacity="0.25" filter="url(#filter1_f_553_23030)">
<path d="M132 106.022C132 97.7377 138.716 91.022 147 91.022C155.284 91.022 162 97.7377 162 106.022V125.308C162 132.882 155.86 139.022 148.286 139.022H145.714C138.14 139.022 132 132.882 132 125.308V106.022Z" fill="#008768"/>
</g>
<g opacity="0.2" filter="url(#filter2_f_553_23030)">
<path d="M93 106.022C93 97.7377 99.7157 91.022 108 91.022C116.284 91.022 123 97.7377 123 106.022V125.308C123 132.882 116.86 139.022 109.286 139.022H106.714C99.1401 139.022 93 132.882 93 125.308V106.022Z" fill="#4864E1"/>
</g>
<mask id="mask0_553_23030" style="mask-type:alpha" maskUnits="userSpaceOnUse" x="65" y="42" width="125" height="108">
<path d="M65.998 115.776C65.998 75.0305 93.7564 42 127.998 42C162.24 42 189.998 75.0305 189.998 115.776C189.998 156.521 162.24 149.546 127.998 149.546C93.7564 149.546 65.998 156.521 65.998 115.776Z" fill="#D9D9D9" fill-opacity="0.1"/>
</mask>
<g mask="url(#mask0_553_23030)">
<rect x="39.7988" y="29.6221" width="39.9" height="39.9" rx="4.2" fill="#BABABA"/>
<rect x="85.2988" y="29.6221" width="39.9" height="39.9" rx="4.2" fill="#BABABA"/>
<rect x="130.799" y="29.6221" width="39.9" height="39.9" rx="4.2" fill="#BABABA"/>
<rect x="176.299" y="29.6221" width="39.9" height="39.9" rx="4.2" fill="#BABABA"/>
<rect x="39.7988" y="75.1221" width="39.9" height="39.9" rx="4.2" fill="#BABABA"/>
<rect x="85.2988" y="75.1221" width="39.9" height="39.9" rx="4.2" fill="#BABABA"/>
<rect x="130.799" y="75.1221" width="39.9" height="39.9" rx="4.2" fill="#BABABA"/>
<rect x="176.299" y="75.1221" width="39.9" height="39.9" rx="4.2" fill="#BABABA"/>
<rect x="39.7988" y="120.622" width="39.9" height="39.9" rx="4.2" fill="#BABABA"/>
<rect x="85.2988" y="120.622" width="39.9" height="39.9" rx="4.2" fill="#BABABA"/>
<rect x="130.799" y="120.622" width="39.9" height="39.9" rx="4.2" fill="#BABABA"/>
<rect x="176.299" y="120.622" width="39.9" height="39.9" rx="4.2" fill="#BABABA"/>
</g>
<path d="M122 73.022L135 73.022C140.523 73.022 145 77.4991 145 83.022L145 92.022L141 92.022L141 83.022C141 79.7083 138.314 77.022 135 77.022L122 77.022C118.686 77.022 116 79.7083 116 83.022L116 92.022L112 92.022L112 83.022C112 77.4991 116.477 73.022 122 73.022Z" fill="#757575"/>
<rect x="166" y="90.022" width="56" height="76" rx="6" transform="rotate(90 166 90.022)" fill="#FAFAFA" stroke="#A6A6A6" stroke-linejoin="round"/>
<rect x="113" y="113.022" width="34" height="5" rx="2" transform="rotate(90 113 113.022)" fill="#F2F2F2" stroke="#A6A6A6" stroke-linejoin="round"/>
<rect x="148" y="113.022" width="34" height="5" rx="2" transform="rotate(90 148 113.022)" fill="#F2F2F2" stroke="#A6A6A6" stroke-linejoin="round"/>
<path d="M159 88.022C163.418 88.022 167 91.6037 167 96.022L167 112.022C167 113.127 166.105 114.022 165 114.022L91 114.022C89.8954 114.022 89 113.127 89 112.022L89 96.022C89 91.6037 92.5817 88.022 97 88.022L159 88.022Z" fill="#E8E8E8" stroke="#A6A6A6" stroke-linejoin="round"/>
<path d="M120.499 109.48C120.315 109.755 119.943 109.83 119.667 109.646C119.391 109.463 119.317 109.09 119.501 108.814L120 109.147L120.499 109.48ZM125.499 108.814C125.683 109.09 125.608 109.462 125.333 109.646C125.057 109.83 124.684 109.756 124.501 109.48L125 109.147L125.499 108.814ZM120 109.147L119.501 108.814C120.152 107.837 121.385 107.422 122.5 107.422C123.616 107.422 124.848 107.837 125.499 108.814L125 109.147L124.501 109.48C124.152 108.957 123.384 108.622 122.5 108.622C121.615 108.622 120.848 108.957 120.499 109.48L120 109.147Z" fill="#3B3B3B"/>
<path d="M131.499 109.48C131.315 109.755 130.943 109.83 130.667 109.646C130.391 109.463 130.317 109.09 130.501 108.814L131 109.147L131.499 109.48ZM136.499 108.814C136.683 109.09 136.608 109.462 136.333 109.646C136.057 109.83 135.684 109.756 135.501 109.48L136 109.147L136.499 108.814ZM131 109.147L130.501 108.814C131.152 107.837 132.385 107.422 133.5 107.422C134.616 107.422 135.848 107.837 136.499 108.814L136 109.147L135.501 109.48C135.152 108.957 134.384 108.622 133.5 108.622C132.615 108.622 131.848 108.957 131.499 109.48L131 109.147Z" fill="#3B3B3B"/>
<path d="M127.951 115.425C127.62 115.452 127.375 115.743 127.402 116.073C127.43 116.403 127.719 116.648 128.05 116.621L128 116.023L127.951 115.425ZM128.001 111.423C127.669 111.423 127.4 111.691 127.4 112.023C127.4 112.354 127.668 112.623 128 112.623L128 112.023L128.001 111.423ZM128 113.387C127.669 113.387 127.4 113.655 127.4 113.987C127.4 114.318 127.668 114.587 128 114.587L128 113.987L128 113.387ZM128 116.023L128.05 116.621C129.091 116.533 129.725 115.782 129.725 114.957C129.725 114.558 129.572 114.156 129.261 113.855C128.945 113.551 128.507 113.387 128 113.387L128 113.987L128 114.587C128.243 114.587 128.367 114.661 128.427 114.719C128.49 114.78 128.525 114.864 128.525 114.958C128.525 115.053 128.489 115.155 128.41 115.238C128.334 115.317 128.195 115.404 127.951 115.425L128 116.023ZM128 113.987L128 114.587C128.511 114.587 128.95 114.416 129.262 114.104C129.568 113.797 129.712 113.392 129.708 112.997C129.698 112.181 129.059 111.423 128.001 111.423L128 112.023L128 112.623C128.221 112.623 128.339 112.694 128.401 112.755C128.469 112.823 128.506 112.915 128.508 113.012C128.509 113.109 128.474 113.195 128.413 113.256C128.357 113.312 128.239 113.387 128 113.387L128 113.987Z" fill="#3B3B3B"/>
<rect x="114" y="87.022" width="33" height="7" rx="2" transform="rotate(90 114 87.022)" fill="#CCCCCC" stroke="#A6A6A6" stroke-linejoin="round"/>
<rect x="149" y="87.022" width="33" height="7" rx="2" transform="rotate(90 149 87.022)" fill="#CCCCCC" stroke="#A6A6A6" stroke-linejoin="round"/>
<path d="M136.5 142.979C136.5 138.049 140.484 134.022 145.415 134.022C150.379 134.022 154.415 138.101 154.415 143.065C154.415 147.995 150.43 152.022 145.5 152.022C140.536 152.022 136.5 147.943 136.5 142.979Z" fill="#008768" stroke="#A6A6A6"/>
<path d="M149.193 141.391C149.388 141.196 149.387 140.879 149.192 140.684C148.996 140.488 148.68 140.488 148.485 140.683L148.839 141.037L149.193 141.391ZM144.598 145.28L144.245 145.633C144.339 145.727 144.466 145.78 144.598 145.78C144.731 145.78 144.858 145.727 144.952 145.634L144.598 145.28ZM142.769 142.744C142.573 142.549 142.257 142.548 142.062 142.743C141.866 142.939 141.867 143.255 142.062 143.451L142.415 143.097L142.769 142.744ZM148.839 141.037L148.485 140.683L144.244 144.926L144.598 145.28L144.952 145.634L149.193 141.391L148.839 141.037ZM144.598 145.28L144.951 144.927L142.769 142.744L142.415 143.097L142.062 143.451L144.245 145.633L144.598 145.28Z" fill="white"/>
<defs>
<filter id="filter0_f_553_23030" x="0" y="45.022" width="257" height="197" filterUnits="userSpaceOnUse" color-interpolation-filters="sRGB">
<feFlood flood-opacity="0" result="BackgroundImageFix"/>
<feBlend mode="normal" in="SourceGraphic" in2="BackgroundImageFix" result="shape"/>
<feGaussianBlur stdDeviation="30" result="effect1_foregroundBlur_553_23030"/>
</filter>
<filter id="filter1_f_553_23030" x="72" y="31.022" width="150" height="168" filterUnits="userSpaceOnUse" color-interpolation-filters="sRGB">
<feFlood flood-opacity="0" result="BackgroundImageFix"/>
<feBlend mode="normal" in="SourceGraphic" in2="BackgroundImageFix" result="shape"/>
<feGaussianBlur stdDeviation="30" result="effect1_foregroundBlur_553_23030"/>
</filter>
<filter id="filter2_f_553_23030" x="33" y="31.022" width="150" height="168" filterUnits="userSpaceOnUse" color-interpolation-filters="sRGB">
<feFlood flood-opacity="0" result="BackgroundImageFix"/>
<feBlend mode="normal" in="SourceGraphic" in2="BackgroundImageFix" result="shape"/>
<feGaussianBlur stdDeviation="30" result="effect1_foregroundBlur_553_23030"/>
</filter>
</defs>
</svg>
