<svg width="257" height="243" viewBox="0 0 257 243" fill="none" xmlns="http://www.w3.org/2000/svg">
<g opacity="0.15" filter="url(#filter0_f_2071_83873)">
<path d="M60 145.022C60 122.931 77.9086 105.022 100 105.022H157C179.091 105.022 197 122.931 197 145.022V166.022C197 174.859 189.837 182.022 181 182.022H76C67.1634 182.022 60 174.859 60 166.022V145.022Z" fill="#4864E1"/>
</g>
<g opacity="0.25" filter="url(#filter1_f_2071_83873)">
<path d="M132 106.022C132 97.7377 138.716 91.022 147 91.022C155.284 91.022 162 97.7377 162 106.022V125.308C162 132.882 155.86 139.022 148.286 139.022H145.714C138.14 139.022 132 132.882 132 125.308V106.022Z" fill="#008768"/>
</g>
<g opacity="0.2" filter="url(#filter2_f_2071_83873)">
<path d="M93 106.022C93 97.7377 99.7157 91.022 108 91.022C116.284 91.022 123 97.7377 123 106.022V125.308C123 132.882 116.86 139.022 109.286 139.022H106.714C99.1401 139.022 93 132.882 93 125.308V106.022Z" fill="#4864E1"/>
</g>
<mask id="mask0_2071_83873" style="mask-type:alpha" maskUnits="userSpaceOnUse" x="65" y="42" width="125" height="108">
<path d="M65.998 115.776C65.998 75.0305 93.7564 42 127.998 42C162.24 42 189.998 75.0305 189.998 115.776C189.998 156.521 162.24 149.546 127.998 149.546C93.7564 149.546 65.998 156.521 65.998 115.776Z" fill="#D9D9D9" fill-opacity="0.1"/>
</mask>
<g mask="url(#mask0_2071_83873)">
<rect x="39.7988" y="29.6221" width="39.9" height="39.9" rx="4.2" fill="#BABABA"/>
<rect x="85.2988" y="29.6221" width="39.9" height="39.9" rx="4.2" fill="#BABABA"/>
<rect x="130.799" y="29.6221" width="39.9" height="39.9" rx="4.2" fill="#BABABA"/>
<rect x="176.299" y="29.6221" width="39.9" height="39.9" rx="4.2" fill="#BABABA"/>
<rect x="39.7988" y="75.1221" width="39.9" height="39.9" rx="4.2" fill="#BABABA"/>
<rect x="85.2988" y="75.1221" width="39.9" height="39.9" rx="4.2" fill="#BABABA"/>
<rect x="130.799" y="75.1221" width="39.9" height="39.9" rx="4.2" fill="#BABABA"/>
<rect x="176.299" y="75.1221" width="39.9" height="39.9" rx="4.2" fill="#BABABA"/>
<rect x="39.7988" y="120.622" width="39.9" height="39.9" rx="4.2" fill="#BABABA"/>
<rect x="85.2988" y="120.622" width="39.9" height="39.9" rx="4.2" fill="#BABABA"/>
<rect x="130.799" y="120.622" width="39.9" height="39.9" rx="4.2" fill="#BABABA"/>
<rect x="176.299" y="120.622" width="39.9" height="39.9" rx="4.2" fill="#BABABA"/>
</g>
<rect x="90.1133" y="78.1398" width="54" height="76" rx="6" transform="rotate(-8 90.1133 78.1398)" fill="#CCCCCC" stroke="#A6A6A6" stroke-linejoin="round"/>
<rect x="93.3623" y="79.7028" width="49" height="68" rx="4" transform="rotate(-8 93.3623 79.7028)" fill="#FAFAFA" stroke="#A6A6A6"/>
<path d="M107.337 78.5466C107.06 76.5777 108.499 74.748 110.549 74.4598L112.15 74.2348C112.71 74.1561 113.218 73.8668 113.561 73.4307C113.903 72.9946 114.411 72.7053 114.971 72.6265L118.172 72.1767C118.732 72.0979 119.3 72.2361 119.75 72.5608C120.199 72.8856 120.767 73.0238 121.327 72.945L122.928 72.7201C124.979 72.4319 126.866 73.7943 127.142 75.7632C127.235 76.4195 126.755 77.0294 126.072 77.1254L108.742 79.561C108.058 79.6571 107.429 79.2029 107.337 78.5466Z" fill="#FAFAFA" stroke="#A6A6A6"/>
<rect x="101.547" y="87.641" width="18" height="3" rx="1.5" transform="rotate(-8 101.547 87.641)" fill="#F2F2F2"/>
<rect x="102.66" y="95.5631" width="34" height="2" rx="1" transform="rotate(-8 102.66 95.5631)" fill="#F2F2F2"/>
<rect x="103.355" y="100.515" width="34" height="2" rx="1" transform="rotate(-8 103.355 100.515)" fill="#F2F2F2"/>
<rect x="104.747" y="110.417" width="34" height="2" rx="1" transform="rotate(-8 104.747 110.417)" fill="#F2F2F2"/>
<rect x="104.052" y="105.466" width="26" height="2" rx="1" transform="rotate(-8 104.052 105.466)" fill="#F2F2F2"/>
<rect x="105.444" y="115.368" width="16" height="2" rx="1" transform="rotate(-8 105.444 115.368)" fill="#F2F2F2"/>
<path d="M112.872 110.747C112.728 111.046 112.369 111.172 112.071 111.028C111.772 110.885 111.647 110.526 111.79 110.227L112.331 110.487L112.872 110.747ZM117.73 109.392C117.951 109.639 117.929 110.019 117.681 110.239C117.434 110.46 117.055 110.438 116.834 110.191L117.282 109.791L117.73 109.392ZM112.331 110.487L111.79 110.227C112.3 109.169 113.462 108.586 114.567 108.431C115.672 108.276 116.95 108.516 117.73 109.392L117.282 109.791L116.834 110.191C116.416 109.721 115.609 109.497 114.733 109.62C113.858 109.743 113.144 110.181 112.872 110.747L112.331 110.487Z" fill="#3B3B3B"/>
<path d="M127.725 108.66C127.581 108.958 127.223 109.084 126.924 108.941C126.626 108.797 126.5 108.439 126.644 108.14L127.185 108.4L127.725 108.66ZM132.584 107.304C132.804 107.552 132.782 107.931 132.535 108.152C132.287 108.372 131.908 108.35 131.688 108.103L132.136 107.704L132.584 107.304ZM127.185 108.4L126.644 108.14C127.153 107.081 128.316 106.499 129.421 106.343C130.526 106.188 131.803 106.428 132.584 107.304L132.136 107.704L131.688 108.103C131.269 107.633 130.462 107.409 129.587 107.532C128.711 107.655 127.998 108.093 127.725 108.66L127.185 108.4Z" fill="#3B3B3B"/>
<path d="M121.137 111.968C120.929 111.71 120.551 111.67 120.293 111.878C120.036 112.086 119.996 112.464 120.204 112.722L120.671 112.345L121.137 111.968ZM125.185 112.022C125.314 111.717 125.171 111.365 124.866 111.236C124.561 111.106 124.209 111.249 124.079 111.554L124.632 111.788L125.185 112.022ZM120.671 112.345L120.204 112.722C120.864 113.538 121.942 113.782 122.875 113.651C123.807 113.52 124.775 112.988 125.185 112.022L124.632 111.788L124.079 111.554C123.882 112.02 123.359 112.371 122.707 112.463C122.055 112.554 121.455 112.361 121.137 111.968L120.671 112.345Z" fill="#3B3B3B"/>
<path d="M143.226 119.964C143.688 116.682 146.722 114.396 150.003 114.857L154.954 115.553L159.906 116.249C163.187 116.71 165.474 119.744 165.012 123.025L164.317 127.977L163.621 132.928C163.159 136.21 160.125 138.496 156.844 138.035L151.893 137.339L146.941 136.643C143.66 136.182 141.374 133.148 141.835 129.866L142.531 124.915L143.226 119.964Z" fill="#F5E8DB"/>
<path d="M142.531 124.915L141.835 129.866C141.374 133.148 143.66 136.182 146.941 136.643L151.893 137.339M142.531 124.915L143.226 119.964C143.688 116.682 146.722 114.396 150.003 114.857L154.954 115.553M142.531 124.915L164.317 127.977M164.317 127.977L165.012 123.025C165.474 119.744 163.187 116.71 159.906 116.249L154.954 115.553M164.317 127.977L163.621 132.928C163.159 136.21 160.125 138.496 156.844 138.035L151.893 137.339M154.954 115.553L151.893 137.339" stroke="#B95C04" stroke-linejoin="round"/>
<path d="M149.586 117.828L148.89 122.779M151.719 120.647L146.768 119.951" stroke="#B95C04" stroke-linecap="round"/>
<path d="M146.204 129.203L149.213 133.197M149.706 129.689L145.713 132.698" stroke="#B95C04" stroke-linecap="round"/>
<path d="M162.112 122.108L157.161 121.412" stroke="#B95C04" stroke-linecap="round"/>
<path d="M160.789 131.52L155.838 130.824M160.511 133.501L155.56 132.805" stroke="#B95C04" stroke-linecap="round"/>
<defs>
<filter id="filter0_f_2071_83873" x="0" y="45.022" width="257" height="197" filterUnits="userSpaceOnUse" color-interpolation-filters="sRGB">
<feFlood flood-opacity="0" result="BackgroundImageFix"/>
<feBlend mode="normal" in="SourceGraphic" in2="BackgroundImageFix" result="shape"/>
<feGaussianBlur stdDeviation="30" result="effect1_foregroundBlur_2071_83873"/>
</filter>
<filter id="filter1_f_2071_83873" x="72" y="31.022" width="150" height="168" filterUnits="userSpaceOnUse" color-interpolation-filters="sRGB">
<feFlood flood-opacity="0" result="BackgroundImageFix"/>
<feBlend mode="normal" in="SourceGraphic" in2="BackgroundImageFix" result="shape"/>
<feGaussianBlur stdDeviation="30" result="effect1_foregroundBlur_2071_83873"/>
</filter>
<filter id="filter2_f_2071_83873" x="33" y="31.022" width="150" height="168" filterUnits="userSpaceOnUse" color-interpolation-filters="sRGB">
<feFlood flood-opacity="0" result="BackgroundImageFix"/>
<feBlend mode="normal" in="SourceGraphic" in2="BackgroundImageFix" result="shape"/>
<feGaussianBlur stdDeviation="30" result="effect1_foregroundBlur_2071_83873"/>
</filter>
</defs>
</svg>
