<svg width="257" height="243" viewBox="0 0 257 243" fill="none" xmlns="http://www.w3.org/2000/svg">
<g opacity="0.15" filter="url(#filter0_f_3583_146035)">
<path d="M60 145.022C60 122.931 77.9086 105.022 100 105.022H157C179.091 105.022 197 122.931 197 145.022V166.022C197 174.859 189.837 182.022 181 182.022H76C67.1634 182.022 60 174.859 60 166.022V145.022Z" fill="#4864E1"/>
</g>
<g opacity="0.25" filter="url(#filter1_f_3583_146035)">
<path d="M132 106.022C132 97.7377 138.716 91.022 147 91.022C155.284 91.022 162 97.7377 162 106.022V125.308C162 132.882 155.86 139.022 148.286 139.022H145.714C138.14 139.022 132 132.882 132 125.308V106.022Z" fill="#008768"/>
</g>
<g opacity="0.2" filter="url(#filter2_f_3583_146035)">
<path d="M93 106.022C93 97.7377 99.7157 91.022 108 91.022C116.284 91.022 123 97.7377 123 106.022V125.308C123 132.882 116.86 139.022 109.286 139.022H106.714C99.1401 139.022 93 132.882 93 125.308V106.022Z" fill="#4864E1"/>
</g>
<mask id="mask0_3583_146035" style="mask-type:alpha" maskUnits="userSpaceOnUse" x="65" y="42" width="125" height="108">
<path d="M65.998 115.776C65.998 75.0305 93.7564 42 127.998 42C162.24 42 189.998 75.0305 189.998 115.776C189.998 156.521 162.24 149.546 127.998 149.546C93.7564 149.546 65.998 156.521 65.998 115.776Z" fill="#D9D9D9" fill-opacity="0.1"/>
</mask>
<g mask="url(#mask0_3583_146035)">
<rect x="39.7988" y="29.6221" width="39.9" height="39.9" rx="4.2" fill="#BABABA"/>
<rect x="85.2988" y="29.6221" width="39.9" height="39.9" rx="4.2" fill="#BABABA"/>
<rect x="130.799" y="29.6221" width="39.9" height="39.9" rx="4.2" fill="#BABABA"/>
<rect x="176.299" y="29.6221" width="39.9" height="39.9" rx="4.2" fill="#BABABA"/>
<rect x="39.7988" y="75.1221" width="39.9" height="39.9" rx="4.2" fill="#BABABA"/>
<rect x="85.2988" y="75.1221" width="39.9" height="39.9" rx="4.2" fill="#BABABA"/>
<rect x="130.799" y="75.1221" width="39.9" height="39.9" rx="4.2" fill="#BABABA"/>
<rect x="176.299" y="75.1221" width="39.9" height="39.9" rx="4.2" fill="#BABABA"/>
<rect x="39.7988" y="120.622" width="39.9" height="39.9" rx="4.2" fill="#BABABA"/>
<rect x="85.2988" y="120.622" width="39.9" height="39.9" rx="4.2" fill="#BABABA"/>
<rect x="130.799" y="120.622" width="39.9" height="39.9" rx="4.2" fill="#BABABA"/>
<rect x="176.299" y="120.622" width="39.9" height="39.9" rx="4.2" fill="#BABABA"/>
</g>
<path d="M85.3823 120.016C85.3718 118.896 85.7557 117.737 86.299 116.634C87.3894 114.422 89.3925 111.908 91.7275 109.412C96.4291 104.385 102.856 99.0288 107.333 95.6323L109.624 97.5081C107.236 102.534 103.331 109.855 99.3675 115.459C97.398 118.244 95.3396 120.712 93.381 122.242C92.404 123.005 91.3472 123.618 90.2521 123.853C89.0916 124.103 87.9078 123.917 86.8874 123.123C85.8622 122.325 85.3935 121.216 85.3823 120.016ZM89.0264 117.989C88.582 118.891 88.4221 119.55 88.4261 119.988C88.4295 120.346 88.5335 120.537 88.7528 120.708C88.977 120.882 89.218 120.952 89.615 120.866C90.0771 120.767 90.7109 120.456 91.5122 119.83C93.1111 118.581 94.9622 116.41 96.8859 113.69C99.2877 110.295 101.688 106.211 103.723 102.418C100.377 105.217 96.8133 108.437 93.9457 111.503C91.6616 113.945 89.9118 116.192 89.0264 117.989Z" fill="#757575"/>
<rect x="162.521" y="90.2661" width="41.7559" height="55.7956" rx="6" transform="rotate(90 162.521 90.2661)" fill="#FAFAFA" stroke="#A6A6A6" stroke-linejoin="round"/>
<rect x="164" y="89.022" width="28.0203" height="58.9403" rx="6" transform="rotate(90 164 89.022)" fill="#E8E8E8" stroke="#A6A6A6" stroke-linejoin="round"/>
<path d="M130.676 101.476C131.111 102.507 132.511 102.343 132.816 101.474" stroke="#3B3B3B" stroke-width="1.2" stroke-linecap="round"/>
<path d="M136.311 101.471C136.745 102.501 138.146 102.337 138.451 101.469" stroke="#3B3B3B" stroke-width="1.2" stroke-linecap="round"/>
<path d="M133.951 109.425C133.62 109.452 133.375 109.742 133.402 110.073C133.43 110.403 133.719 110.648 134.05 110.621L134 110.023L133.951 109.425ZM134.001 105.423C133.669 105.423 133.4 105.691 133.4 106.023C133.4 106.354 133.668 106.623 134 106.623L134 106.023L134.001 105.423ZM134 107.387C133.669 107.387 133.4 107.655 133.4 107.987C133.4 108.318 133.668 108.587 134 108.587L134 107.987L134 107.387ZM134 110.023L134.05 110.621C135.091 110.533 135.725 109.782 135.725 108.957C135.725 108.558 135.572 108.156 135.261 107.855C134.945 107.551 134.507 107.387 134 107.387L134 107.987L134 108.587C134.243 108.587 134.367 108.661 134.427 108.719C134.49 108.78 134.525 108.864 134.525 108.958C134.525 109.053 134.489 109.155 134.41 109.238C134.334 109.317 134.195 109.404 133.951 109.425L134 110.023ZM134 107.987L134 108.587C134.511 108.587 134.95 108.416 135.262 108.104C135.568 107.797 135.712 107.392 135.708 106.997C135.698 106.181 135.059 105.423 134.001 105.423L134 106.023L134 106.623C134.221 106.623 134.339 106.694 134.401 106.755C134.469 106.823 134.506 106.915 134.508 107.012C134.509 107.109 134.474 107.195 134.413 107.256C134.357 107.312 134.239 107.387 134 107.387L134 107.987Z" fill="#3B3B3B"/>
<rect x="157.448" y="94.3401" width="4.07375" height="11.1591" rx="2" transform="rotate(90 157.448 94.3401)" fill="#F2F2F2" stroke="#A6A6A6" stroke-linejoin="round"/>
<path d="M123.599 123.792L112.44 123.792" stroke="#A6A6A6" stroke-linecap="round" stroke-linejoin="round"/>
<path d="M140 131.979C140 127.049 143.984 123.022 148.915 123.022C153.879 123.022 157.915 127.101 157.915 132.065C157.915 136.995 153.93 141.022 149 141.022C144.036 141.022 140 136.943 140 131.979Z" fill="#008768" stroke="#A6A6A6"/>
<path d="M152.693 130.391C152.888 130.195 152.887 129.879 152.692 129.683C152.496 129.488 152.18 129.488 151.985 129.683L152.339 130.037L152.693 130.391ZM148.098 134.28L147.745 134.633C147.839 134.727 147.966 134.779 148.098 134.78C148.231 134.78 148.358 134.727 148.452 134.633L148.098 134.28ZM146.269 131.744C146.073 131.549 145.757 131.548 145.562 131.743C145.366 131.938 145.367 132.255 145.562 132.45L145.915 132.097L146.269 131.744ZM152.339 130.037L151.985 129.683L147.744 133.926L148.098 134.28L148.452 134.633L152.693 130.391L152.339 130.037ZM148.098 134.28L148.451 133.926L146.269 131.744L145.915 132.097L145.562 132.45L147.745 134.633L148.098 134.28Z" fill="white"/>
<defs>
<filter id="filter0_f_3583_146035" x="0" y="45.022" width="257" height="197" filterUnits="userSpaceOnUse" color-interpolation-filters="sRGB">
<feFlood flood-opacity="0" result="BackgroundImageFix"/>
<feBlend mode="normal" in="SourceGraphic" in2="BackgroundImageFix" result="shape"/>
<feGaussianBlur stdDeviation="30" result="effect1_foregroundBlur_3583_146035"/>
</filter>
<filter id="filter1_f_3583_146035" x="72" y="31.022" width="150" height="168" filterUnits="userSpaceOnUse" color-interpolation-filters="sRGB">
<feFlood flood-opacity="0" result="BackgroundImageFix"/>
<feBlend mode="normal" in="SourceGraphic" in2="BackgroundImageFix" result="shape"/>
<feGaussianBlur stdDeviation="30" result="effect1_foregroundBlur_3583_146035"/>
</filter>
<filter id="filter2_f_3583_146035" x="33" y="31.022" width="150" height="168" filterUnits="userSpaceOnUse" color-interpolation-filters="sRGB">
<feFlood flood-opacity="0" result="BackgroundImageFix"/>
<feBlend mode="normal" in="SourceGraphic" in2="BackgroundImageFix" result="shape"/>
<feGaussianBlur stdDeviation="30" result="effect1_foregroundBlur_3583_146035"/>
</filter>
</defs>
</svg>
