<svg width="257" height="243" viewBox="0 0 257 243" fill="none" xmlns="http://www.w3.org/2000/svg">
<g opacity="0.15" filter="url(#filter0_f_536_23722)">
<path d="M60 145.022C60 122.931 77.9086 105.022 100 105.022H157C179.091 105.022 197 122.931 197 145.022V166.022C197 174.859 189.837 182.022 181 182.022H76C67.1634 182.022 60 174.859 60 166.022V145.022Z" fill="#4864E1"/>
</g>
<g opacity="0.25" filter="url(#filter1_f_536_23722)">
<path d="M132 106.022C132 97.7377 138.716 91.022 147 91.022C155.284 91.022 162 97.7377 162 106.022V125.308C162 132.882 155.86 139.022 148.286 139.022H145.714C138.14 139.022 132 132.882 132 125.308V106.022Z" fill="#008768"/>
</g>
<g opacity="0.2" filter="url(#filter2_f_536_23722)">
<path d="M93 106.022C93 97.7377 99.7157 91.022 108 91.022C116.284 91.022 123 97.7377 123 106.022V125.308C123 132.882 116.86 139.022 109.286 139.022H106.714C99.1401 139.022 93 132.882 93 125.308V106.022Z" fill="#4864E1"/>
</g>
<mask id="mask0_536_23722" style="mask-type:alpha" maskUnits="userSpaceOnUse" x="65" y="42" width="125" height="108">
<path d="M65.998 115.776C65.998 75.0305 93.7564 42 127.998 42C162.24 42 189.998 75.0305 189.998 115.776C189.998 156.521 162.24 149.546 127.998 149.546C93.7564 149.546 65.998 156.521 65.998 115.776Z" fill="#D9D9D9" fill-opacity="0.1"/>
</mask>
<g mask="url(#mask0_536_23722)">
<rect x="39.7988" y="29.6221" width="39.9" height="39.9" rx="4.2" fill="#BABABA"/>
<rect x="85.2988" y="29.6221" width="39.9" height="39.9" rx="4.2" fill="#BABABA"/>
<rect x="130.799" y="29.6221" width="39.9" height="39.9" rx="4.2" fill="#BABABA"/>
<rect x="176.299" y="29.6221" width="39.9" height="39.9" rx="4.2" fill="#BABABA"/>
<rect x="39.7988" y="75.1221" width="39.9" height="39.9" rx="4.2" fill="#BABABA"/>
<rect x="85.2988" y="75.1221" width="39.9" height="39.9" rx="4.2" fill="#BABABA"/>
<rect x="130.799" y="75.1221" width="39.9" height="39.9" rx="4.2" fill="#BABABA"/>
<rect x="176.299" y="75.1221" width="39.9" height="39.9" rx="4.2" fill="#BABABA"/>
<rect x="39.7988" y="120.622" width="39.9" height="39.9" rx="4.2" fill="#BABABA"/>
<rect x="85.2988" y="120.622" width="39.9" height="39.9" rx="4.2" fill="#BABABA"/>
<rect x="130.799" y="120.622" width="39.9" height="39.9" rx="4.2" fill="#BABABA"/>
<rect x="176.299" y="120.622" width="39.9" height="39.9" rx="4.2" fill="#BABABA"/>
</g>
<path d="M104.007 116.905C107.567 116.567 106.908 110.838 93.5247 113.939C87.0089 115.448 80.7162 121.512 75.9512 127.622L89.3727 135.036C89.8963 134.071 90.4258 133.141 90.9536 132.273C95.5025 124.791 98.601 124.724 100.579 124.252C102.556 123.78 104.732 122.432 104.336 121.488C104.02 120.734 103.15 120.525 102.754 120.515C103.739 120.394 104.605 120.135 105.128 119.601C105.813 118.9 105.919 117.242 104.007 116.905Z" fill="#FAFAFA"/>
<path d="M89.3729 135.036L75.9514 127.622C75.2234 128.556 74.5311 129.49 73.8791 130.41C73.2168 131.344 72.5961 132.263 72.0219 133.149C71.555 133.87 71.1187 134.569 70.7158 135.239L75.2618 137.661L74.3665 139.452C73.8765 140.432 74.2643 141.626 75.2358 142.128L76.9676 143.022L76.281 144.392C75.7846 145.383 76.1856 146.59 77.1748 147.083L82.6229 149.798C82.9526 148.945 83.3771 147.887 83.8749 146.697C84.2764 145.737 84.7256 144.691 85.211 143.597C85.6082 142.701 86.0297 141.773 86.4693 140.833C86.898 139.917 87.3438 138.989 87.8011 138.07C88.3134 137.039 88.8401 136.019 89.3729 135.036Z" fill="#4864E1"/>
<path d="M73.8785 130.41C73.2162 131.344 72.5955 132.263 72.0213 133.149C71.5543 133.87 71.1181 134.57 70.7152 135.239C70.048 136.347 69.4723 137.371 69 138.271M104.006 116.905C107.566 116.567 106.907 110.838 93.5243 113.939C87.0085 115.448 80.7158 121.512 75.9508 127.622M104.006 116.905C102.226 117.074 100.446 116.568 100.183 116.298M104.006 116.905C105.918 117.242 105.813 118.9 105.127 119.601C104.605 120.135 103.739 120.394 102.754 120.515M100.776 120.612C101.445 120.612 102.124 120.592 102.754 120.515M102.754 120.515C103.149 120.525 104.02 120.734 104.336 121.488C104.732 122.432 102.556 123.78 100.578 124.252C98.6006 124.724 95.5021 124.791 90.9532 132.273C90.4254 133.141 89.8959 134.071 89.3723 135.036M81.8555 152.022C81.8216 151.97 82.1051 151.136 82.6223 149.798M75.9508 127.622L89.3723 135.036M75.9508 127.622C75.2228 128.556 74.5305 129.49 73.8785 130.41M89.3723 135.036C88.8395 136.019 88.3128 137.039 87.8005 138.07M73.8785 130.41L87.8005 138.07M87.8005 138.07C87.3432 138.989 86.8974 139.917 86.4687 140.833M72.0213 133.149L86.4687 140.833M83.8743 146.697C84.2758 145.737 84.7249 144.691 85.2104 143.597C85.6076 142.701 86.0291 141.773 86.4687 140.833M70.7152 135.239L85.2104 143.597M75.5926 142.383L83.8743 146.697M83.8743 146.697C83.3765 147.887 82.952 148.945 82.6223 149.798M77.3725 147.304L82.6223 149.798" stroke="#A6A6A6" stroke-linecap="round" stroke-linejoin="round"/>
<path d="M127.715 85.0187L138.036 93.3888L142.379 134.369C142.722 137.602 140.389 140.502 137.169 140.846L105.685 144.21C102.465 144.554 99.577 142.212 99.2343 138.979L94.5189 94.4863C94.1762 91.2531 96.5088 88.3532 99.7288 88.0091L127.715 85.0187Z" fill="#FAFAFA" stroke="#A6A6A6"/>
<path d="M138.036 93.3888L127.715 85.0188L128.286 90.4079C128.519 92.6047 130.488 94.1954 132.685 93.9606L138.036 93.3888Z" fill="#DBDBDB" stroke="#A6A6A6" stroke-linejoin="round"/>
<path d="M112.736 117.244C112.57 116.956 112.203 116.857 111.916 117.021C111.629 117.186 111.53 117.553 111.696 117.84L112.216 117.542L112.736 117.244ZM126.686 116.934C126.815 116.629 126.673 116.277 126.368 116.147C126.063 116.016 125.71 116.158 125.581 116.462L126.133 116.698L126.686 116.934ZM112.216 117.542L111.696 117.84C112.353 118.983 113.545 119.741 114.897 120.191C116.255 120.644 117.84 120.808 119.393 120.714C120.945 120.619 122.499 120.265 123.793 119.652C125.08 119.042 126.171 118.146 126.686 116.934L126.133 116.698L125.581 116.462C125.222 117.307 124.414 118.029 123.277 118.568C122.146 119.103 120.747 119.429 119.317 119.516C117.887 119.603 116.459 119.448 115.273 119.053C114.079 118.656 113.192 118.038 112.736 117.244L112.216 117.542Z" fill="#3B3B3B"/>
<path d="M122.469 113.245C122.303 113.532 121.935 113.629 121.649 113.463C121.362 113.297 121.265 112.93 121.431 112.643L121.95 112.944L122.469 113.245ZM127.4 112.281C127.599 112.546 127.546 112.922 127.282 113.122C127.017 113.321 126.641 113.269 126.441 113.004L126.921 112.643L127.4 112.281ZM121.95 112.944L121.431 112.643C122.021 111.628 123.222 111.139 124.332 111.071C125.443 111.004 126.694 111.345 127.4 112.281L126.921 112.643L126.441 113.004C126.064 112.504 125.281 112.216 124.404 112.269C123.526 112.323 122.784 112.702 122.469 113.245L121.95 112.944Z" fill="#3B3B3B"/>
<path d="M111.534 113.908C111.368 114.195 111.001 114.293 110.714 114.126C110.428 113.96 110.33 113.593 110.497 113.306L111.016 113.607L111.534 113.908ZM116.465 112.945C116.665 113.209 116.612 113.585 116.347 113.785C116.083 113.985 115.706 113.932 115.507 113.668L115.986 113.306L116.465 112.945ZM111.016 113.607L110.497 113.306C111.086 112.292 112.287 111.802 113.398 111.735C114.508 111.668 115.759 112.008 116.465 112.945L115.986 113.306L115.507 113.668C115.129 113.167 114.347 112.88 113.469 112.933C112.592 112.986 111.85 113.366 111.534 113.908L111.016 113.607Z" fill="#3B3B3B"/>
<path d="M97.6886 117.106C94.331 116.67 91.8815 118.019 90.9102 119.223L94.331 123.022C96.1682 120.531 96.9284 121.091 99.209 120.531C101.49 119.97 101.806 117.64 97.6886 117.106Z" fill="#FAFAFA"/>
<path d="M90.9102 119.223C91.8815 118.019 94.331 116.67 97.6886 117.106C101.806 117.64 101.49 119.97 99.209 120.531C96.9284 121.091 96.1682 120.531 94.331 123.022" stroke="#A6A6A6" stroke-linecap="round" stroke-linejoin="round"/>
<path d="M156.033 123.543C155.902 125.567 158.518 123.878 164.083 126.947C168.602 129.439 171.307 134.427 172.308 141.835L186.083 140.856C184.649 132.486 181.812 126.672 179.601 123.543C175.541 117.796 165.196 110.884 163.825 112.181C162.881 113.074 165.458 114.606 166.379 115.707C164.218 114.248 159.185 111.785 157.928 113.039C156.671 114.292 161.268 116.238 162.843 117.796C160.417 116.434 154.852 114.659 154.065 116.63C153.279 118.598 159.827 119.83 162.123 122.628C160.137 122.258 156.138 121.923 156.033 123.543Z" fill="#FAFAFA"/>
<path d="M172.308 141.835C172.663 144.464 173 147.321 173 149.977L185 149.977C186.104 149.977 187.003 149.081 186.972 147.977C186.879 144.644 186.558 143.632 186.083 140.856L172.308 141.835Z" fill="#008768"/>
<path d="M173 151.522C173 147.022 172.54 143.553 172.308 141.835M172.308 141.835C171.307 134.427 168.602 129.439 164.083 126.947C158.518 123.878 155.902 125.567 156.033 123.543C156.138 121.923 160.137 122.258 162.123 122.628C159.827 119.83 153.279 118.598 154.065 116.63C154.852 114.659 160.417 116.434 162.843 117.796C161.268 116.238 156.671 114.292 157.928 113.039C159.185 111.785 164.218 114.248 166.379 115.707C165.458 114.606 162.881 113.074 163.825 112.181C165.196 110.884 175.541 117.796 179.601 123.543C181.812 126.672 184.649 132.486 186.083 140.856M172.308 141.835L186.083 140.856M186.083 140.856C186.412 142.777 186.667 144.833 186.824 147.022" stroke="#A6A6A6" stroke-width="1.2" stroke-linecap="round" stroke-linejoin="round"/>
<rect x="174" y="143.022" width="3.0082" height="3" rx="1.5" fill="#016453"/>
<path d="M175.075 144.093L175.935 144.95" stroke="#008768" stroke-width="0.2" stroke-linecap="round" stroke-linejoin="round"/>
<path d="M175.932 144.093L175.072 144.95" stroke="#008768" stroke-width="0.2" stroke-linecap="round" stroke-linejoin="round"/>
<defs>
<filter id="filter0_f_536_23722" x="0" y="45.022" width="257" height="197" filterUnits="userSpaceOnUse" color-interpolation-filters="sRGB">
<feFlood flood-opacity="0" result="BackgroundImageFix"/>
<feBlend mode="normal" in="SourceGraphic" in2="BackgroundImageFix" result="shape"/>
<feGaussianBlur stdDeviation="30" result="effect1_foregroundBlur_536_23722"/>
</filter>
<filter id="filter1_f_536_23722" x="72" y="31.022" width="150" height="168" filterUnits="userSpaceOnUse" color-interpolation-filters="sRGB">
<feFlood flood-opacity="0" result="BackgroundImageFix"/>
<feBlend mode="normal" in="SourceGraphic" in2="BackgroundImageFix" result="shape"/>
<feGaussianBlur stdDeviation="30" result="effect1_foregroundBlur_536_23722"/>
</filter>
<filter id="filter2_f_536_23722" x="33" y="31.022" width="150" height="168" filterUnits="userSpaceOnUse" color-interpolation-filters="sRGB">
<feFlood flood-opacity="0" result="BackgroundImageFix"/>
<feBlend mode="normal" in="SourceGraphic" in2="BackgroundImageFix" result="shape"/>
<feGaussianBlur stdDeviation="30" result="effect1_foregroundBlur_536_23722"/>
</filter>
</defs>
</svg>
