<svg width="200" height="216" viewBox="0 0 200 216" fill="none" xmlns="http://www.w3.org/2000/svg">
<mask id="mask0_2920_181657" style="mask-type:alpha" maskUnits="userSpaceOnUse" x="37" y="42" width="125" height="108">
<path d="M37.998 115.776C37.998 75.0305 65.7564 42 99.998 42C134.24 42 161.998 75.0305 161.998 115.776C161.998 156.521 134.24 149.546 99.998 149.546C65.7564 149.546 37.998 156.521 37.998 115.776Z" fill="#D9D9D9" fill-opacity="0.1"/>
</mask>
<g mask="url(#mask0_2920_181657)">
<rect x="11.7988" y="29.6221" width="39.9" height="39.9" rx="4.2" fill="#BABABA"/>
<rect x="57.2988" y="29.6221" width="39.9" height="39.9" rx="4.2" fill="#BABABA"/>
<rect x="102.799" y="29.6221" width="39.9" height="39.9" rx="4.2" fill="#BABABA"/>
<rect x="148.299" y="29.6221" width="39.9" height="39.9" rx="4.2" fill="#BABABA"/>
<rect x="11.7988" y="75.1221" width="39.9" height="39.9" rx="4.2" fill="#BABABA"/>
<rect x="57.2988" y="75.1221" width="39.9" height="39.9" rx="4.2" fill="#BABABA"/>
<rect x="102.799" y="75.1221" width="39.9" height="39.9" rx="4.2" fill="#BABABA"/>
<rect x="148.299" y="75.1221" width="39.9" height="39.9" rx="4.2" fill="#BABABA"/>
<rect x="11.7988" y="120.622" width="39.9" height="39.9" rx="4.2" fill="#BABABA"/>
<rect x="57.2988" y="120.622" width="39.9" height="39.9" rx="4.2" fill="#BABABA"/>
<rect x="102.799" y="120.622" width="39.9" height="39.9" rx="4.2" fill="#BABABA"/>
<rect x="148.299" y="120.622" width="39.9" height="39.9" rx="4.2" fill="#BABABA"/>
</g>
<path d="M59.6822 131.656C59.516 130.548 59.7348 129.347 60.1193 128.179C60.8912 125.836 62.525 123.069 64.4898 120.272C68.446 114.639 74.0651 108.441 78.0259 104.454L80.5552 105.993C78.8905 111.302 76.0424 119.096 72.8972 125.197C71.3343 128.228 69.6394 130.959 67.9128 132.746C67.0515 133.638 66.0903 134.392 65.0386 134.778C63.9242 135.186 62.7261 135.167 61.605 134.523C60.4788 133.875 59.8603 132.842 59.6822 131.656ZM63.0088 129.141C62.6942 130.096 62.6276 130.771 62.6925 131.204C62.7457 131.558 62.8752 131.733 63.1161 131.871C63.3625 132.013 63.6108 132.048 63.9921 131.908C64.4358 131.746 65.0202 131.349 65.7266 130.618C67.1361 129.159 68.6671 126.751 70.1936 123.791C72.0994 120.094 73.908 115.715 75.3956 111.676C72.4713 114.914 69.3905 118.598 66.9776 122.034C65.0555 124.77 63.6355 127.239 63.0088 129.141Z" fill="#757575"/>
<rect x="131.931" y="91.46" width="41.7559" height="55.7956" rx="6" transform="rotate(82 131.931 91.46)" fill="#FAFAFA" stroke="#A6A6A6" stroke-linejoin="round"/>
<rect x="133.222" y="90.0219" width="28.0202" height="58.9403" rx="6" transform="rotate(82 133.222 90.0219)" fill="#E8E8E8" stroke="#A6A6A6" stroke-linejoin="round"/>
<path d="M102.135 112.512C101.911 112.268 101.531 112.251 101.287 112.475C101.043 112.699 101.027 113.079 101.251 113.323L101.693 112.917L102.135 112.512ZM112.233 111.784C112.383 111.489 112.266 111.128 111.971 110.977C111.676 110.826 111.315 110.943 111.164 111.238L111.698 111.511L112.233 111.784ZM101.693 112.917L101.251 113.323C102.734 114.94 105.004 115.492 107.098 115.198C109.192 114.903 111.23 113.746 112.233 111.784L111.698 111.511L111.164 111.238C110.379 112.773 108.733 113.756 106.931 114.009C105.128 114.263 103.289 113.77 102.135 112.512L101.693 112.917Z" fill="#A6A6A6"/>
<path d="M101.954 106.993C102.528 107.953 103.892 107.596 104.074 106.694" stroke="#A6A6A6" stroke-width="1.2" stroke-linecap="round"/>
<path d="M107.533 106.204C108.107 107.164 109.472 106.807 109.653 105.905" stroke="#A6A6A6" stroke-width="1.2" stroke-linecap="round"/>
<rect x="127.475" y="96.2002" width="4.07374" height="11.1591" rx="2" transform="rotate(82 127.475 96.2002)" fill="#F2F2F2" stroke="#A6A6A6" stroke-linejoin="round"/>
<path d="M98.0518 130.077L87.0012 131.63" stroke="#A6A6A6" stroke-linecap="round" stroke-linejoin="round"/>
<rect x="129.314" y="121.022" width="22" height="31" rx="4" transform="rotate(8 129.314 121.022)" fill="#FAFAFA" stroke="#A6A6A6" stroke-linejoin="round"/>
<rect x="130.492" y="141.384" width="8" height="1" rx="0.5" transform="rotate(8 130.492 141.384)" fill="#A6A6A6"/>
<rect x="130.214" y="143.365" width="14" height="1" rx="0.5" transform="rotate(8 130.214 143.365)" fill="#A6A6A6"/>
<rect x="129.936" y="145.345" width="14" height="1" rx="0.5" transform="rotate(8 129.936 145.345)" fill="#A6A6A6"/>
<rect x="129.657" y="147.326" width="4" height="1" rx="0.5" transform="rotate(8 129.657 147.326)" fill="#A6A6A6"/>
<path d="M140.684 129.94C140.776 129.286 140.212 128.612 139.372 128.494C138.531 128.376 137.805 128.868 137.713 129.523C137.594 130.367 137.6 130.323 137.539 130.76C137.478 131.196 137.758 131.57 138.068 131.725C138.379 131.88 138.948 132.015 139.58 132.011C140.211 132.008 140.459 131.539 140.51 131.177C140.561 130.816 140.632 130.306 140.684 129.94Z" fill="#FAFAFA"/>
<path d="M140.684 129.94C140.776 129.286 140.212 128.612 139.372 128.494C138.531 128.376 137.805 128.868 137.713 129.523C137.594 130.367 137.6 130.323 137.539 130.76C137.478 131.196 137.758 131.57 138.068 131.725C138.379 131.88 138.948 132.015 139.58 132.011C140.211 132.008 140.459 131.539 140.51 131.177C140.561 130.816 140.632 130.306 140.684 129.94Z" fill="#A6A6A6"/>
<path d="M141.08 137.899L141.226 136.861C141.432 135.401 140.335 134.094 138.889 134.076C138.69 134.073 138.491 134.045 138.299 133.993C136.904 133.612 135.49 134.566 135.285 136.026L135.139 137.064" stroke="#A6A6A6" stroke-linecap="round" stroke-linejoin="round"/>
</svg>
