<svg width="40" height="40" viewBox="0 0 40 40" fill="none" xmlns="http://www.w3.org/2000/svg">
<circle cx="20" cy="20" r="20" fill="#4864E1"/>
<path d="M15.6515 9.57338C14.534 9.62588 13.7712 9.80438 13.1045 10.0661C12.4145 10.3354 11.8295 10.6961 11.2467 11.2804C10.6647 11.8646 10.3062 12.4504 10.0392 13.1411C9.78047 13.8094 9.60572 14.5729 9.55622 15.6911C9.50672 16.8086 9.49622 17.1686 9.50147 20.0194C9.50672 22.8701 9.51947 23.2279 9.57347 24.3484C9.62672 25.4651 9.80447 26.2279 10.0662 26.8954C10.3355 27.5854 10.6962 28.1704 11.2805 28.7531C11.8647 29.3351 12.4497 29.6929 13.1427 29.9606C13.8102 30.2186 14.5745 30.3949 15.692 30.4436C16.8095 30.4924 17.1695 30.5036 20.0202 30.4984C22.871 30.4931 23.2295 30.4804 24.35 30.4271C25.4705 30.3739 26.2287 30.1954 26.8962 29.9344C27.5862 29.6644 28.172 29.3044 28.754 28.7194C29.336 28.1344 29.6945 27.5486 29.9607 26.8571C30.2195 26.1896 30.395 25.4254 30.4437 24.3086C30.4925 23.1881 30.5045 22.8304 30.4985 19.9789C30.4925 17.1274 30.4805 16.7704 30.4272 15.6506C30.374 14.5309 30.1962 13.7704 29.9345 13.1029C29.6645 12.4129 29.3045 11.8279 28.7202 11.2451C28.136 10.6624 27.5495 10.3046 26.858 10.0384C26.1897 9.77963 25.4262 9.60338 24.3087 9.55538C23.1912 9.50738 22.8312 9.49463 19.9797 9.49988C17.1282 9.50513 16.7712 9.51788 15.6515 9.57188M15.7745 28.5536C14.7507 28.5094 14.195 28.3391 13.8245 28.1966C13.334 28.0076 12.9845 27.7789 12.6155 27.4136C12.2465 27.0484 12.0192 26.6974 11.828 26.2076C11.684 25.8371 11.5107 25.2821 11.4627 24.2584C11.411 23.1521 11.3997 22.8199 11.3937 20.0164C11.3877 17.2129 11.3982 16.8814 11.447 15.7744C11.4905 14.7514 11.6615 14.1949 11.804 13.8244C11.993 13.3331 12.221 12.9844 12.587 12.6154C12.953 12.2464 13.3032 12.0191 13.793 11.8279C14.1627 11.6831 14.7185 11.5114 15.7415 11.4626C16.8485 11.4101 17.1807 11.3996 19.9835 11.3936C22.7862 11.3876 23.1192 11.3981 24.227 11.4469C25.25 11.4911 25.8065 11.6606 26.1762 11.8039C26.6667 11.9929 27.0162 12.2201 27.3852 12.5869C27.7542 12.9536 27.9815 13.3024 28.1735 13.7936C28.3182 14.1626 28.49 14.7176 28.538 15.7414C28.5905 16.8484 28.6025 17.1806 28.6077 19.9834C28.613 22.7861 28.6032 23.1191 28.5545 24.2254C28.5095 25.2491 28.34 25.8049 28.1975 26.1761C28.0085 26.6666 27.7805 27.0161 27.4137 27.3851C27.047 27.7541 26.6975 27.9814 26.2077 28.1726C25.838 28.3166 25.2822 28.4891 24.26 28.5379C23.153 28.5896 22.8207 28.6009 20.0172 28.6069C17.2137 28.6129 16.8815 28.6016 15.7745 28.5536ZM24.3342 14.3876C24.3357 15.0836 24.9005 15.6469 25.5965 15.6454C26.2925 15.6439 26.8557 15.0791 26.8542 14.3831C26.8527 13.6871 26.288 13.1239 25.592 13.1254C24.896 13.1269 24.3335 13.6916 24.3342 14.3876ZM14.609 20.0096C14.615 22.9871 17.033 25.3961 20.0105 25.3901C22.988 25.3841 25.3977 22.9661 25.3925 19.9886C25.3865 17.0111 22.9677 14.6014 19.9902 14.6074C17.0127 14.6134 14.603 17.0321 14.609 20.0096ZM16.5012 20.0059C16.4975 18.0731 18.0612 16.5026 19.9947 16.4989C21.9275 16.4951 23.498 18.0589 23.5017 19.9924C23.5055 21.9251 21.9417 23.4956 20.0082 23.4994C18.0755 23.5031 16.505 21.9401 16.5012 20.0074" fill="#EBECF1"/>
</svg>
