<svg width="20" height="19" viewBox="0 0 20 19" fill="none" xmlns="http://www.w3.org/2000/svg">
<path d="M14.8583 0H4.95948C2.22476 0 0 2.22541 0 4.96094V14.0195C0 16.7551 2.22476 18.9805 4.95948 18.9805H14.8583C17.593 18.9805 19.8177 16.7551 19.8177 14.0195V4.96094C19.8177 2.22541 17.593 0 14.8583 0ZM1.74955 4.96094C1.74955 3.19069 3.18976 1.75006 4.95948 1.75006H14.8583C16.628 1.75006 18.0682 3.19069 18.0682 4.96094V14.0195C18.0682 15.7898 16.628 17.2304 14.8583 17.2304H4.95948C3.18976 17.2304 1.74955 15.7898 1.74955 14.0195V4.96094Z" fill="url(#paint0_linear_4743_28)"/>
<path d="M9.90906 14.103C12.4521 14.103 14.5222 12.0335 14.5222 9.48854C14.5222 6.9436 12.4532 4.87402 9.90906 4.87402C7.36487 4.87402 5.2959 6.9436 5.2959 9.48854C5.2959 12.0335 7.36487 14.103 9.90906 14.103ZM9.90906 6.62521C11.4882 6.62521 12.7727 7.91 12.7727 9.48966C12.7727 11.0693 11.4882 12.3541 9.90906 12.3541C8.32987 12.3541 7.04545 11.0693 7.04545 9.48966C7.04545 7.91 8.32987 6.62521 9.90906 6.62521Z" fill="url(#paint1_linear_4743_28)"/>
<path d="M14.949 5.61945C15.6338 5.61945 16.192 5.06225 16.192 4.37613C16.192 3.69001 15.6349 3.13281 14.949 3.13281C14.2631 3.13281 13.7061 3.69001 13.7061 4.37613C13.7061 5.06225 14.2631 5.61945 14.949 5.61945Z" fill="url(#paint2_linear_4743_28)"/>
<defs>
<linearGradient id="paint0_linear_4743_28" x1="9.90886" y1="0" x2="9.90886" y2="18.9805" gradientUnits="userSpaceOnUse">
<stop stop-color="#4864E1"/>
<stop offset="1" stop-color="#10B981"/>
</linearGradient>
<linearGradient id="paint1_linear_4743_28" x1="9.90905" y1="4.87402" x2="9.90905" y2="14.103" gradientUnits="userSpaceOnUse">
<stop stop-color="#4864E1"/>
<stop offset="1" stop-color="#10B981"/>
</linearGradient>
<linearGradient id="paint2_linear_4743_28" x1="14.949" y1="3.13281" x2="14.949" y2="5.61945" gradientUnits="userSpaceOnUse">
<stop stop-color="#4864E1"/>
<stop offset="1" stop-color="#10B981"/>
</linearGradient>
</defs>
</svg>
