<svg width="16" height="16" viewBox="0 0 16 16" fill="none" xmlns="http://www.w3.org/2000/svg">
<g clip-path="url(#clip0_5478_62377)">
<path d="M14 2H2M14 6H2M5.33333 10H2M5.33333 14H2M12.2 14V9.25926C12.2 9.10209 12.1368 8.95137 12.0243 8.84023C11.9117 8.7291 11.7591 8.66667 11.6 8.66667H10.4C10.2409 8.66667 10.0883 8.7291 9.97574 8.84023C9.86321 8.95137 9.8 9.10209 9.8 9.25926V14M8.60005 10H13.4001C13.7314 10 14.0001 10.2653 14.0001 10.5926L14 13.4074C14 13.7347 13.7314 14 13.4 14H8.6C8.26863 14 8 13.7347 8 13.4074L8.00005 10.5926C8.00005 10.2653 8.26868 10 8.60005 10Z" stroke="#757575" stroke-width="1.5" stroke-linecap="round" stroke-linejoin="round"/>
</g>
<defs>
<clipPath id="clip0_5478_62377">
<rect width="16" height="16" fill="white"/>
</clipPath>
</defs>
</svg>
