<svg width="20" height="20" viewBox="0 0 20 20" fill="none" xmlns="http://www.w3.org/2000/svg">
<g clip-path="url(#clip0_5241_21937)">
<path d="M17.5 2.5H2.5M17.5 7.5H2.5M6.66667 12.5H2.5M6.66667 17.5H2.5M15.25 17.5V11.5741C15.25 11.3776 15.171 11.1892 15.0303 11.0503C14.8897 10.9114 14.6989 10.8333 14.5 10.8333H13C12.8011 10.8333 12.6103 10.9114 12.4697 11.0503C12.329 11.1892 12.25 11.3776 12.25 11.5741V17.5M10.7501 12.5H16.7501C17.1643 12.5 17.5001 12.8316 17.5001 13.2407L17.5 16.7593C17.5 17.1684 17.1642 17.5 16.75 17.5H10.75C10.3358 17.5 10 17.1684 10 16.7593L10.0001 13.2407C10.0001 12.8316 10.3358 12.5 10.7501 12.5Z" stroke="#121212" stroke-width="1.5" stroke-linecap="round" stroke-linejoin="round"/>
</g>
<defs>
<clipPath id="clip0_5241_21937">
<rect width="20" height="20" fill="white"/>
</clipPath>
</defs>
</svg>
