<svg width="14" height="14" viewBox="0 0 14 14" fill="none" xmlns="http://www.w3.org/2000/svg">
<path d="M12.1938 1.81338C10.2204 -0.153288 7.02042 -0.153288 5.06042 1.81338C3.68042 3.18005 3.26709 5.14671 3.80042 6.88005L0.66709 10.0134C0.44709 10.24 0.293756 10.6867 0.340423 11.0067L0.540423 12.46C0.613756 12.94 1.06042 13.3934 1.54042 13.46L2.99376 13.66C3.31376 13.7067 3.76042 13.56 3.98709 13.3267L4.53376 12.78C4.66709 12.6534 4.66709 12.44 4.53376 12.3067L3.24042 11.0134C3.04709 10.82 3.04709 10.5 3.24042 10.3067C3.43376 10.1134 3.75376 10.1134 3.94709 10.3067L5.24709 11.6067C5.37376 11.7334 5.58709 11.7334 5.71376 11.6067L7.12709 10.2C8.85376 10.74 10.8204 10.32 12.1938 8.95338C14.1604 6.98671 14.1604 3.78005 12.1938 1.81338ZM8.66709 7.00005C7.74709 7.00005 7.00042 6.25338 7.00042 5.33338C7.00042 4.41338 7.74709 3.66671 8.66709 3.66671C9.58709 3.66671 10.3338 4.41338 10.3338 5.33338C10.3338 6.25338 9.58709 7.00005 8.66709 7.00005Z" fill="#949CA7"/>
</svg>
