<svg width="16" height="16" viewBox="0 0 16 16" fill="none" xmlns="http://www.w3.org/2000/svg">
<path d="M11.0008 12.1668H9.99414C9.72081 12.1668 9.49414 11.9402 9.49414 11.6668C9.49414 11.3935 9.72081 11.1668 9.99414 11.1668H11.0008C12.7475 11.1668 14.1675 9.74683 14.1675 8.00016C14.1675 6.2535 12.7475 4.8335 11.0008 4.8335H10.0008C9.72747 4.8335 9.50081 4.60683 9.50081 4.3335C9.50081 4.06016 9.72081 3.8335 10.0008 3.8335H11.0008C13.3008 3.8335 15.1675 5.70016 15.1675 8.00016C15.1675 10.3002 13.3008 12.1668 11.0008 12.1668Z" fill="#5574FF"/>
<path d="M6.00065 12.1668H5.00065C2.70065 12.1668 0.833984 10.3002 0.833984 8.00016C0.833984 5.70016 2.70065 3.8335 5.00065 3.8335H6.00065C6.27398 3.8335 6.50065 4.06016 6.50065 4.3335C6.50065 4.60683 6.27398 4.8335 6.00065 4.8335H5.00065C3.25398 4.8335 1.83398 6.2535 1.83398 8.00016C1.83398 9.74683 3.25398 11.1668 5.00065 11.1668H6.00065C6.27398 11.1668 6.50065 11.3935 6.50065 11.6668C6.50065 11.9402 6.27398 12.1668 6.00065 12.1668Z" fill="#5574FF"/>
<path d="M10.6673 8.5H5.33398C5.06065 8.5 4.83398 8.27333 4.83398 8C4.83398 7.72667 5.06065 7.5 5.33398 7.5H10.6673C10.9407 7.5 11.1673 7.72667 11.1673 8C11.1673 8.27333 10.9407 8.5 10.6673 8.5Z" fill="#5574FF"/>
</svg>
