<svg width="18" height="18" viewBox="0 0 18 18" fill="none" xmlns="http://www.w3.org/2000/svg">
<path d="M0.630989 3.51358C0.209574 3.12231 0 2.63798 0 2.06173C0 1.48548 0.210695 0.979854 0.630989 0.587463C1.0524 0.196194 1.59487 0 2.25949 0C2.92412 0 3.44529 0.196194 3.86559 0.587463C4.287 0.978733 4.49658 1.4709 4.49658 2.06173C4.49658 2.65256 4.28588 3.12231 3.86559 3.51358C3.44417 3.90484 2.90955 4.10104 2.25949 4.10104C1.60944 4.10104 1.0524 3.90484 0.630989 3.51358ZM4.14242 5.75805V17.754H0.353036V5.75805H4.14242Z" fill="url(#paint0_linear_4743_33)"/>
<path d="M16.7568 6.94299C17.5828 7.83989 17.9953 9.07087 17.9953 10.6382V17.542H14.3964V11.1248C14.3964 10.3344 14.1913 9.72 13.7823 9.28277C13.3732 8.84553 12.8217 8.62579 12.1313 8.62579C11.4409 8.62579 10.8895 8.84441 10.4804 9.28277C10.0713 9.72 9.86621 10.3344 9.86621 11.1248V17.542H6.24609V5.72434H9.86621V7.29166C10.2327 6.76922 10.727 6.35665 11.3479 6.05283C11.9688 5.74901 12.6671 5.59766 13.4438 5.59766C14.8268 5.59766 15.9319 6.0461 16.7568 6.94299Z" fill="url(#paint1_linear_4743_33)"/>
<defs>
<linearGradient id="paint0_linear_4743_33" x1="2.24829" y1="0" x2="2.24829" y2="17.754" gradientUnits="userSpaceOnUse">
<stop stop-color="#4864E1"/>
<stop offset="1" stop-color="#10B981"/>
</linearGradient>
<linearGradient id="paint1_linear_4743_33" x1="12.1207" y1="5.59766" x2="12.1207" y2="17.542" gradientUnits="userSpaceOnUse">
<stop stop-color="#4864E1"/>
<stop offset="1" stop-color="#10B981"/>
</linearGradient>
</defs>
</svg>
