<svg width="18" height="18" viewBox="0 0 18 18" fill="none" xmlns="http://www.w3.org/2000/svg">
<path d="M8.63945 10.5613C7.10718 10.5613 5.85547 9.31674 5.85547 7.77727C5.85547 6.23781 7.10718 5.00049 8.63945 5.00049C10.1717 5.00049 11.4234 6.24501 11.4234 7.78447C11.4234 9.32393 10.1717 10.5613 8.63945 10.5613ZM8.63945 6.07955C7.70426 6.07955 6.93453 6.84209 6.93453 7.78447C6.93453 8.72685 7.69707 9.48939 8.63945 9.48939C9.58183 9.48939 10.3444 8.72685 10.3444 7.78447C10.3444 6.84209 9.57464 6.07955 8.63945 6.07955Z" fill="#7B8290"/>
<path d="M8.63985 16.7408C7.57518 16.7408 6.50331 16.338 5.66883 15.5395C3.54668 13.4965 1.20152 10.2377 2.08635 6.36026C2.88485 2.84252 5.95658 1.26709 8.63985 1.26709C8.63985 1.26709 8.63985 1.26709 8.64704 1.26709C11.3303 1.26709 14.402 2.84252 15.2005 6.36746C16.0782 10.2449 13.733 13.4965 11.6109 15.5395C10.7764 16.338 9.70452 16.7408 8.63985 16.7408ZM8.63985 2.34615C6.54647 2.34615 3.85601 3.46118 3.14383 6.59766C2.3669 9.98591 4.49625 12.9066 6.42418 14.7554C7.66869 15.9567 9.6182 15.9567 10.8627 14.7554C12.7834 12.9066 14.9128 9.98591 14.1503 6.59766C13.4309 3.46118 10.7332 2.34615 8.63985 2.34615Z" fill="#7B8290"/>
</svg>
