<svg width="15" height="14" viewBox="0 0 15 14" fill="none" xmlns="http://www.w3.org/2000/svg">
<g clip-path="url(#clip0_1845_1780)">
<path d="M12.8877 4.92915C12.2314 2.23415 9.71268 1.02081 7.50018 1.02081C7.50018 1.02081 7.50018 1.02081 7.49393 1.02081C5.28768 1.02081 2.76268 2.22831 2.10643 4.92331C1.37518 7.93331 3.35018 10.4825 5.13768 12.0866C5.80018 12.6816 6.65018 12.9791 7.50018 12.9791C8.35018 12.9791 9.20018 12.6816 9.85643 12.0866C11.6439 10.4825 13.6189 7.93915 12.8877 4.92915ZM7.50018 7.85165C6.41268 7.85165 5.53143 7.02915 5.53143 6.01415C5.53143 4.99915 6.41268 4.17665 7.50018 4.17665C8.58768 4.17665 9.46893 4.99915 9.46893 6.01415C9.46893 7.02915 8.58768 7.85165 7.50018 7.85165Z" fill="#5C6573"/>
</g>
<defs>
<clipPath id="clip0_1845_1780">
<rect width="15" height="14" fill="white"/>
</clipPath>
</defs>
</svg>
