<svg width="20" height="20" viewBox="0 0 20 20" fill="none" xmlns="http://www.w3.org/2000/svg">
<path d="M16.0001 8.50007C16.0001 12.2449 11.8458 16.1449 10.4508 17.3494C10.3209 17.4472 10.1627 17.5 10.0001 17.5C9.83747 17.5 9.67928 17.4472 9.54932 17.3494C8.1543 16.1449 4 12.2449 4 8.50007C4 6.90876 4.63215 5.38261 5.75738 4.25738C6.88261 3.13215 8.40876 2.5 10.0001 2.5C11.5914 2.5 13.1175 3.13215 14.2428 4.25738C15.368 5.38261 16.0001 6.90876 16.0001 8.50007Z" stroke="#757575" stroke-width="1.5" stroke-linecap="round" stroke-linejoin="round"/>
<path d="M10.0001 10.7501C11.2427 10.7501 12.2501 9.74273 12.2501 8.50007C12.2501 7.25742 11.2427 6.25005 10.0001 6.25005C8.75742 6.25005 7.75005 7.25742 7.75005 8.50007C7.75005 9.74273 8.75742 10.7501 10.0001 10.7501Z" stroke="#757575" stroke-width="1.5" stroke-linecap="round" stroke-linejoin="round"/>
</svg>
