<svg width="16" height="17" viewBox="0 0 16 17" fill="none" xmlns="http://www.w3.org/2000/svg">
<path d="M11.2 1.8335H9.46667C7.33333 1.8335 6 3.16683 6 5.30016V8.00016H8.96L7.58 6.62016C7.48 6.52016 7.43333 6.3935 7.43333 6.26683C7.43333 6.14016 7.48 6.0135 7.58 5.9135C7.77333 5.72016 8.09333 5.72016 8.28667 5.9135L10.52 8.14683C10.7133 8.34016 10.7133 8.66016 10.52 8.8535L8.28667 11.0868C8.09333 11.2802 7.77333 11.2802 7.58 11.0868C7.38667 10.8935 7.38667 10.5735 7.58 10.3802L8.96 9.00016H6V11.7002C6 13.8335 7.33333 15.1668 9.46667 15.1668H11.1933C13.3267 15.1668 14.66 13.8335 14.66 11.7002V5.30016C14.6667 3.16683 13.3333 1.8335 11.2 1.8335Z" fill="white"/>
<path d="M1.83398 7.99951C1.56065 7.99951 1.33398 8.22618 1.33398 8.49951C1.33398 8.77285 1.56065 8.99951 1.83398 8.99951H6.00065V7.99951H1.83398Z" fill="white"/>
</svg>
