<svg width="19" height="20" viewBox="0 0 19 20" fill="none" xmlns="http://www.w3.org/2000/svg">
<g clip-path="url(#clip0_1_62722)">
<path d="M16.7508 15.0066L15.4738 15.3085C15.1875 15.3781 14.963 15.5948 14.9011 15.8812L14.6302 17.0189C14.4832 17.638 13.6937 17.8315 13.2835 17.3439L10.9694 14.6816C10.7837 14.4649 10.8843 14.1243 11.1629 14.0547C12.5328 13.7219 13.7634 12.9557 14.6689 11.8644C14.816 11.6864 15.0791 11.6632 15.2416 11.8257L16.9598 13.5439C17.548 14.1321 17.339 14.8673 16.7508 15.0066Z" fill="#C8CDD4"/>
<path d="M2.39521 15.0066L3.67222 15.3085C3.95858 15.3781 4.18302 15.5948 4.24494 15.8812L4.51582 17.0189C4.66287 17.638 5.4523 17.8315 5.86249 17.3439L8.17659 14.6816C8.36233 14.4649 8.26172 14.1243 7.9831 14.0547C6.61321 13.7219 5.38264 12.9557 4.47712 11.8644C4.33007 11.6864 4.06693 11.6632 3.9044 11.8257L2.18624 13.5439C1.59804 14.1321 1.80701 14.8673 2.39521 15.0066Z" fill="#C8CDD4"/>
<path d="M9.59145 2.25977C6.59628 2.25977 4.17383 4.68222 4.17383 7.67739C4.17383 8.79961 4.50662 9.82896 5.07934 10.688C5.91521 11.9263 7.23865 12.8009 8.77881 13.0254C9.04195 13.0718 9.31283 13.095 9.59145 13.095C9.87007 13.095 10.141 13.0718 10.4041 13.0254C11.9442 12.8009 13.2677 11.9263 14.1036 10.688C14.6763 9.82896 15.0091 8.79961 15.0091 7.67739C15.0091 4.68222 12.5866 2.25977 9.59145 2.25977ZM11.9597 7.50712L11.3173 8.14949C11.209 8.25785 11.1471 8.46681 11.1858 8.6216L11.3715 9.41877C11.5186 10.0457 11.1858 10.2933 10.6285 9.96053L9.85459 9.5039C9.71528 9.41876 9.4831 9.41876 9.34379 9.5039L8.56984 9.96053C8.0126 10.2856 7.6798 10.0457 7.82685 9.41877L8.0126 8.6216C8.04356 8.47455 7.98938 8.25785 7.88103 8.14949L7.22317 7.50712C6.84394 7.12788 6.96777 6.74865 7.49406 6.66352L8.32218 6.52421C8.46149 6.50099 8.62402 6.37716 8.68593 6.25333L9.14256 5.34007C9.39022 4.84474 9.79268 4.84474 10.0403 5.34007L10.497 6.25333C10.5589 6.37716 10.7214 6.50099 10.8685 6.52421L11.6966 6.66352C12.2151 6.74865 12.339 7.12788 11.9597 7.50712Z" fill="#C8CDD4"/>
</g>
<defs>
<clipPath id="clip0_1_62722">
<rect width="18.5747" height="18.5747" fill="white" transform="translate(0.304688 0.711914)"/>
</clipPath>
</defs>
</svg>
