<svg width="22" height="16" viewBox="0 0 22 16" fill="none" xmlns="http://www.w3.org/2000/svg">
<path d="M21.5 7H0.5C0.223858 7 0 7.22386 0 7.5V8.5C0 8.77614 0.223858 9 0.5 9H21.5C21.7761 9 22 8.77614 22 8.5V7.5C22 7.22386 21.7761 7 21.5 7Z" fill="black" fill-opacity="0.87"/>
<path d="M21.5 0H0.5C0.223858 0 0 0.223858 0 0.5V1.5C0 1.77614 0.223858 2 0.5 2H21.5C21.7761 2 22 1.77614 22 1.5V0.5C22 0.223858 21.7761 0 21.5 0Z" fill="black" fill-opacity="0.87"/>
<path d="M21.5 14H0.5C0.223858 14 0 14.2239 0 14.5V15.5C0 15.7761 0.223858 16 0.5 16H21.5C21.7761 16 22 15.7761 22 15.5V14.5C22 14.2239 21.7761 14 21.5 14Z" fill="black" fill-opacity="0.87"/>
</svg>
