<svg width="14" height="14" viewBox="0 0 14 14" fill="none" xmlns="http://www.w3.org/2000/svg">
<path d="M8.09082 2.7915C7.96541 2.95909 7.88181 3.15981 7.85938 3.37842L7.85352 3.49951L7.85938 3.62061C7.92032 4.21778 8.42838 4.68701 9.04102 4.68701H9.91602C10.0618 4.68701 10.1865 4.81271 10.1865 4.9585V5.8335C10.1867 6.41255 10.6069 6.89676 11.1572 6.99951C10.6067 7.10224 10.1865 7.58726 10.1865 8.1665V9.0415C10.1865 9.18729 10.0618 9.31201 9.91602 9.31201H9.04102C8.4286 9.31201 7.92062 9.78155 7.85938 10.3784L7.85352 10.4995L7.85938 10.6206C7.88172 10.8395 7.9652 11.0407 8.09082 11.2085H5.90723C6.05577 11.0102 6.14551 10.765 6.14551 10.4995C6.14533 9.84639 5.61113 9.31219 4.95801 9.31201H4.08301C3.93722 9.31201 3.81152 9.18729 3.81152 9.0415V8.1665C3.81152 7.58704 3.39164 7.10199 2.84082 6.99951C3.39148 6.89701 3.81137 6.41277 3.81152 5.8335V4.9585C3.81152 4.81271 3.93722 4.68701 4.08301 4.68701H4.95801C5.61124 4.68683 6.14551 4.15278 6.14551 3.49951C6.14544 3.23424 6.05562 2.98966 5.90723 2.7915H8.09082ZM6.99902 4.49951C5.61674 4.49969 4.4992 5.61722 4.49902 6.99951C4.49902 8.38195 5.61663 9.49934 6.99902 9.49951C8.38157 9.49951 9.49902 8.38206 9.49902 6.99951C9.49885 5.61711 8.38146 4.49951 6.99902 4.49951ZM1.91602 6.78271C2.05885 6.88967 2.2255 6.96558 2.40723 6.99951C2.22559 7.03341 2.05881 7.10945 1.91602 7.21631V6.78271ZM12.083 7.21631C11.94 7.10925 11.7728 7.03337 11.5908 6.99951C11.7729 6.96562 11.94 6.88988 12.083 6.78271V7.21631Z" fill="#7B8290" stroke="#7B8290" stroke-width="1.5"/>
</svg>
