<svg width="24" height="24" viewBox="0 0 24 24" fill="none" xmlns="http://www.w3.org/2000/svg">
<g clip-path="url(#clip0_5478_20269)">
<path d="M8.4 20V5.77778C8.4 5.30628 8.58964 4.8541 8.92721 4.5207C9.26477 4.1873 9.72261 4 10.2 4H13.8C14.2774 4 14.7352 4.1873 15.0728 4.5207C15.4104 4.8541 15.6 5.30628 15.6 5.77778V20H4.8C3.80589 20 3 19.2041 3 18.2222V9.33333C3 8.35149 3.80589 7.55556 4.8 7.55556H19.2C20.1941 7.55556 21 8.35149 21 9.33333V15M21 18V20M21 20V22M21 20H23M21 20H19" stroke="#757575" stroke-width="1.5" stroke-linecap="round" stroke-linejoin="round"/>
</g>
<defs>
<clipPath id="clip0_5478_20269">
<rect width="24" height="24" fill="white"/>
</clipPath>
</defs>
</svg>
