<svg width="309" height="291" viewBox="0 0 309 291" fill="none" xmlns="http://www.w3.org/2000/svg">
<g opacity="0.15" filter="url(#filter0_f_2370_105568)">
<path d="M72 174.023C72 147.514 93.4903 126.023 120 126.023H188.4C214.91 126.023 236.4 147.514 236.4 174.023V199.223C236.4 209.827 227.804 218.423 217.2 218.423H91.2C80.5961 218.423 72 209.827 72 199.223V174.023Z" fill="#4864E1"/>
</g>
<g opacity="0.25" filter="url(#filter1_f_2370_105568)">
<path d="M158.402 127.223C158.402 117.282 166.461 109.223 176.402 109.223C186.343 109.223 194.402 117.282 194.402 127.223V150.366C194.402 159.455 187.034 166.823 177.945 166.823H174.859C165.77 166.823 158.402 159.455 158.402 150.366V127.223Z" fill="#008768"/>
</g>
<g opacity="0.2" filter="url(#filter2_f_2370_105568)">
<path d="M111.602 127.223C111.602 117.282 119.66 109.223 129.602 109.223C139.543 109.223 147.602 117.282 147.602 127.223V150.366C147.602 159.455 140.233 166.823 131.144 166.823H128.059C118.97 166.823 111.602 159.455 111.602 150.366V127.223Z" fill="#4864E1"/>
</g>
<mask id="mask0_2370_105568" style="mask-type:alpha" maskUnits="userSpaceOnUse" x="79" y="50" width="149" height="130">
<path d="M79.1992 138.929C79.1992 90.0351 112.509 50.3984 153.599 50.3984C194.689 50.3984 227.999 90.0351 227.999 138.929C227.999 187.824 194.689 179.454 153.599 179.454C112.509 179.454 79.1992 187.824 79.1992 138.929Z" fill="#D9D9D9" fill-opacity="0.1"/>
</mask>
<g mask="url(#mask0_2370_105568)">
<rect x="47.7617" y="35.543" width="47.88" height="47.88" rx="5.04" fill="#BABABA"/>
<rect x="102.363" y="35.543" width="47.88" height="47.88" rx="5.04" fill="#BABABA"/>
<rect x="156.961" y="35.543" width="47.88" height="47.88" rx="5.04" fill="#BABABA"/>
<rect x="211.562" y="35.543" width="47.88" height="47.88" rx="5.04" fill="#BABABA"/>
<rect x="47.7617" y="90.1445" width="47.88" height="47.88" rx="5.04" fill="#BABABA"/>
<rect x="102.363" y="90.1445" width="47.88" height="47.88" rx="5.04" fill="#BABABA"/>
<rect x="156.961" y="90.1445" width="47.88" height="47.88" rx="5.04" fill="#BABABA"/>
<rect x="211.562" y="90.1445" width="47.88" height="47.88" rx="5.04" fill="#BABABA"/>
<rect x="47.7617" y="144.746" width="47.88" height="47.88" rx="5.04" fill="#BABABA"/>
<rect x="102.363" y="144.746" width="47.88" height="47.88" rx="5.04" fill="#BABABA"/>
<rect x="156.961" y="144.746" width="47.88" height="47.88" rx="5.04" fill="#BABABA"/>
<rect x="211.562" y="144.746" width="47.88" height="47.88" rx="5.04" fill="#BABABA"/>
</g>
<path d="M146.404 87.625L162.004 87.625C168.631 87.625 174.004 92.9976 174.004 99.625L174.004 110.425L169.204 110.425L169.204 99.625C169.204 95.6486 165.98 92.425 162.004 92.425L146.404 92.425C142.427 92.425 139.204 95.6485 139.204 99.625L139.204 110.425L134.404 110.425L134.404 99.625C134.404 92.9976 139.776 87.625 146.404 87.625Z" fill="#757575"/>
<rect x="199.203" y="108.023" width="67.2" height="91.2" rx="7.2" transform="rotate(90 199.203 108.023)" fill="#FAFAFA" stroke="#A6A6A6" stroke-width="1.2" stroke-linejoin="round"/>
<rect x="135.602" y="135.625" width="40.8" height="6" rx="2.4" transform="rotate(90 135.602 135.625)" fill="#F2F2F2" stroke="#A6A6A6" stroke-width="1.2" stroke-linejoin="round"/>
<rect x="177.602" y="135.625" width="40.8" height="6" rx="2.4" transform="rotate(90 177.602 135.625)" fill="#F2F2F2" stroke="#A6A6A6" stroke-width="1.2" stroke-linejoin="round"/>
<path d="M190.802 105.625C196.104 105.625 200.402 109.923 200.402 115.225L200.402 134.425C200.402 135.75 199.328 136.825 198.002 136.825L109.202 136.825C107.877 136.825 106.802 135.75 106.802 134.425L106.802 115.225C106.802 109.923 111.1 105.625 116.402 105.625L190.802 105.625Z" fill="#E8E8E8" stroke="#A6A6A6" stroke-width="1.2" stroke-linejoin="round"/>
<rect x="136.805" y="104.426" width="39.6" height="8.4" rx="2.4" transform="rotate(90 136.805 104.426)" fill="#CCCCCC" stroke="#A6A6A6" stroke-width="1.2" stroke-linejoin="round"/>
<rect x="178.805" y="104.426" width="39.6" height="8.4" rx="2.4" transform="rotate(90 178.805 104.426)" fill="#CCCCCC" stroke="#A6A6A6" stroke-width="1.2" stroke-linejoin="round"/>
<path d="M163.805 171.573C163.805 165.657 168.586 160.824 174.503 160.824C180.459 160.824 185.303 165.719 185.303 171.675C185.303 177.592 180.521 182.424 174.605 182.424C168.648 182.424 163.805 177.529 163.805 171.573Z" fill="#4864E1" stroke="#A6A6A6" stroke-width="1.2"/>
<path d="M175.377 167.426C175.377 167.029 175.055 166.707 174.657 166.707C174.259 166.706 173.936 167.028 173.935 167.425L174.656 167.426L175.377 167.426ZM173.927 175.899C173.927 176.296 174.249 176.618 174.647 176.619C175.045 176.619 175.368 176.297 175.369 175.9L174.648 175.9L173.927 175.899ZM178.89 172.378C179.288 172.377 179.61 172.055 179.61 171.658C179.609 171.26 179.286 170.939 178.888 170.939L178.889 171.659L178.89 172.378ZM170.413 170.949C170.015 170.95 169.692 171.272 169.693 171.669C169.693 172.067 170.016 172.388 170.415 172.388L170.414 171.668L170.413 170.949ZM174.656 167.426L173.935 167.425L173.927 175.899L174.648 175.9L175.369 175.9L175.377 167.426L174.656 167.426ZM178.889 171.659L178.888 170.939L170.413 170.949L170.414 171.668L170.415 172.388L178.89 172.378L178.889 171.659Z" fill="white"/>
<path d="M144.526 126.717C144.245 126.436 143.79 126.436 143.508 126.717C143.226 126.999 143.225 127.455 143.505 127.736L144.016 127.227L144.526 126.717ZM148.893 133.136C149.173 133.417 149.629 133.417 149.911 133.136C150.193 132.854 150.194 132.399 149.913 132.117L149.403 132.627L148.893 133.136ZM149.924 127.736C150.205 127.455 150.206 126.999 149.926 126.717C149.645 126.436 149.19 126.436 148.908 126.717L149.416 127.227L149.924 127.736ZM143.495 132.117C143.213 132.399 143.212 132.854 143.493 133.136C143.773 133.417 144.229 133.417 144.511 133.136L144.003 132.627L143.495 132.117ZM144.016 127.227L143.505 127.736L148.893 133.136L149.403 132.627L149.913 132.117L144.526 126.717L144.016 127.227ZM149.416 127.227L148.908 126.717L143.495 132.117L144.003 132.627L144.511 133.136L149.924 127.736L149.416 127.227Z" fill="#3B3B3B"/>
<path d="M158.928 126.717C158.648 126.436 158.192 126.436 157.91 126.717C157.628 126.999 157.627 127.455 157.908 127.736L158.418 127.227L158.928 126.717ZM163.295 133.136C163.576 133.417 164.032 133.417 164.313 133.136C164.595 132.854 164.596 132.399 164.316 132.117L163.805 132.627L163.295 133.136ZM164.326 127.736C164.608 127.455 164.609 126.999 164.328 126.717C164.048 126.436 163.592 126.436 163.31 126.717L163.818 127.227L164.326 127.736ZM157.897 132.117C157.616 132.399 157.615 132.854 157.895 133.136C158.176 133.417 158.632 133.417 158.913 133.136L158.405 132.627L157.897 132.117ZM158.418 127.227L157.908 127.736L163.295 133.136L163.805 132.627L164.316 132.117L158.928 126.717L158.418 127.227ZM163.818 127.227L163.31 126.717L157.897 132.117L158.405 132.627L158.913 133.136L164.326 127.736L163.818 127.227Z" fill="#3B3B3B"/>
<path d="M146.406 141.625H160.806" stroke="#3B3B3B" stroke-width="1.44" stroke-linecap="round"/>
<path d="M144.526 126.717C144.245 126.436 143.79 126.436 143.508 126.717C143.226 126.999 143.225 127.455 143.505 127.736L144.016 127.227L144.526 126.717ZM148.893 133.136C149.173 133.417 149.629 133.417 149.911 133.136C150.193 132.854 150.194 132.399 149.913 132.117L149.403 132.627L148.893 133.136ZM149.924 127.736C150.205 127.455 150.206 126.999 149.926 126.717C149.645 126.436 149.19 126.436 148.908 126.717L149.416 127.227L149.924 127.736ZM143.495 132.117C143.213 132.399 143.212 132.854 143.493 133.136C143.773 133.417 144.229 133.417 144.511 133.136L144.003 132.627L143.495 132.117ZM144.016 127.227L143.505 127.736L148.893 133.136L149.403 132.627L149.913 132.117L144.526 126.717L144.016 127.227ZM149.416 127.227L148.908 126.717L143.495 132.117L144.003 132.627L144.511 133.136L149.924 127.736L149.416 127.227Z" fill="#3B3B3B"/>
<path d="M158.928 126.717C158.648 126.436 158.192 126.436 157.91 126.717C157.628 126.999 157.627 127.455 157.908 127.736L158.418 127.227L158.928 126.717ZM163.295 133.136C163.576 133.417 164.032 133.417 164.313 133.136C164.595 132.854 164.596 132.399 164.316 132.117L163.805 132.627L163.295 133.136ZM164.326 127.736C164.608 127.455 164.609 126.999 164.328 126.717C164.048 126.436 163.592 126.436 163.31 126.717L163.818 127.227L164.326 127.736ZM157.897 132.117C157.616 132.399 157.615 132.854 157.895 133.136C158.176 133.417 158.632 133.417 158.913 133.136L158.405 132.627L157.897 132.117ZM158.418 127.227L157.908 127.736L163.295 133.136L163.805 132.627L164.316 132.117L158.928 126.717L158.418 127.227ZM163.818 127.227L163.31 126.717L157.897 132.117L158.405 132.627L158.913 133.136L164.326 127.736L163.818 127.227Z" fill="#3B3B3B"/>
<path d="M146.406 141.625H160.806" stroke="#3B3B3B" stroke-width="1.44" stroke-linecap="round"/>
<defs>
<filter id="filter0_f_2370_105568" x="0" y="54.0234" width="308.398" height="236.398" filterUnits="userSpaceOnUse" color-interpolation-filters="sRGB">
<feFlood flood-opacity="0" result="BackgroundImageFix"/>
<feBlend mode="normal" in="SourceGraphic" in2="BackgroundImageFix" result="shape"/>
<feGaussianBlur stdDeviation="36" result="effect1_foregroundBlur_2370_105568"/>
</filter>
<filter id="filter1_f_2370_105568" x="86.4023" y="37.2227" width="180" height="201.602" filterUnits="userSpaceOnUse" color-interpolation-filters="sRGB">
<feFlood flood-opacity="0" result="BackgroundImageFix"/>
<feBlend mode="normal" in="SourceGraphic" in2="BackgroundImageFix" result="shape"/>
<feGaussianBlur stdDeviation="36" result="effect1_foregroundBlur_2370_105568"/>
</filter>
<filter id="filter2_f_2370_105568" x="39.6016" y="37.2227" width="180" height="201.602" filterUnits="userSpaceOnUse" color-interpolation-filters="sRGB">
<feFlood flood-opacity="0" result="BackgroundImageFix"/>
<feBlend mode="normal" in="SourceGraphic" in2="BackgroundImageFix" result="shape"/>
<feGaussianBlur stdDeviation="36" result="effect1_foregroundBlur_2370_105568"/>
</filter>
</defs>
</svg>
