<svg width="309" height="291" viewBox="0 0 309 291" fill="none" xmlns="http://www.w3.org/2000/svg">
<g opacity="0.15" filter="url(#filter0_f_5329_195395)">
<path d="M72 174.026C72 147.517 93.4903 126.026 120 126.026H188.4C214.91 126.026 236.4 147.517 236.4 174.026V199.226C236.4 209.83 227.804 218.426 217.2 218.426H91.2C80.5961 218.426 72 209.83 72 199.226V174.026Z" fill="#4864E1"/>
</g>
<g opacity="0.25" filter="url(#filter1_f_5329_195395)">
<path d="M158.4 127.227C158.4 117.285 166.459 109.227 176.4 109.227C186.341 109.227 194.4 117.285 194.4 127.227V150.369C194.4 159.458 187.032 166.827 177.943 166.827H174.857C165.768 166.827 158.4 159.458 158.4 150.369V127.227Z" fill="#008768"/>
</g>
<g opacity="0.2" filter="url(#filter2_f_5329_195395)">
<path d="M111.6 127.227C111.6 117.285 119.659 109.227 129.6 109.227C139.541 109.227 147.6 117.285 147.6 127.227V150.369C147.6 159.458 140.232 166.827 131.143 166.827H128.057C118.968 166.827 111.6 159.458 111.6 150.369V127.227Z" fill="#4864E1"/>
</g>
<mask id="mask0_5329_195395" style="mask-type:alpha" maskUnits="userSpaceOnUse" x="79" y="50" width="149" height="130">
<path d="M79.1976 138.931C79.1976 90.0365 112.508 50.3999 153.598 50.3999C194.688 50.3999 227.998 90.0365 227.998 138.931C227.998 187.825 194.688 179.456 153.598 179.456C112.508 179.456 79.1976 187.825 79.1976 138.931Z" fill="#D9D9D9" fill-opacity="0.1"/>
</mask>
<g mask="url(#mask0_5329_195395)">
<rect x="47.7585" y="35.5464" width="47.88" height="47.88" rx="5.04" fill="#BABABA"/>
<rect x="102.359" y="35.5464" width="47.88" height="47.88" rx="5.04" fill="#BABABA"/>
<rect x="156.958" y="35.5464" width="47.88" height="47.88" rx="5.04" fill="#BABABA"/>
<rect x="211.559" y="35.5464" width="47.88" height="47.88" rx="5.04" fill="#BABABA"/>
<rect x="47.7585" y="90.1465" width="47.88" height="47.88" rx="5.04" fill="#BABABA"/>
<rect x="102.359" y="90.1465" width="47.88" height="47.88" rx="5.04" fill="#BABABA"/>
<rect x="156.958" y="90.1465" width="47.88" height="47.88" rx="5.04" fill="#BABABA"/>
<rect x="211.559" y="90.1465" width="47.88" height="47.88" rx="5.04" fill="#BABABA"/>
<rect x="47.7585" y="144.746" width="47.88" height="47.88" rx="5.04" fill="#BABABA"/>
<rect x="102.359" y="144.746" width="47.88" height="47.88" rx="5.04" fill="#BABABA"/>
<rect x="156.958" y="144.746" width="47.88" height="47.88" rx="5.04" fill="#BABABA"/>
<rect x="211.559" y="144.746" width="47.88" height="47.88" rx="5.04" fill="#BABABA"/>
</g>
<rect width="57.6" height="76.8" rx="7.2" transform="matrix(-1 0 0 1 189.6 87.6265)" fill="#E8E8E8" stroke="#A6A6A6" stroke-width="1.44"/>
<rect width="57.6" height="76.8" rx="7.2" transform="matrix(-1 0 0 1 182.4 102.026)" fill="#F2F2F2" stroke="#A6A6A6" stroke-width="1.44"/>
<rect width="57.6" height="76.8" rx="7.2" transform="matrix(-1 0 0 1 175.2 94.8267)" fill="#FAFAFA" stroke="#A6A6A6" stroke-width="1.44"/>
<path d="M157.877 126.717C158.157 126.436 158.613 126.436 158.895 126.717C159.177 126.999 159.178 127.455 158.897 127.736L158.387 127.227L157.877 126.717ZM153.51 133.136C153.229 133.417 152.774 133.417 152.492 133.136C152.21 132.854 152.209 132.399 152.489 132.117L153 132.627L153.51 133.136ZM152.479 127.736C152.197 127.455 152.196 126.999 152.477 126.717C152.757 126.436 153.213 126.436 153.495 126.717L152.987 127.227L152.479 127.736ZM158.908 132.117C159.189 132.399 159.19 132.854 158.91 133.136C158.629 133.417 158.174 133.417 157.892 133.136L158.4 132.627L158.908 132.117ZM158.387 127.227L158.897 127.736L153.51 133.136L153 132.627L152.489 132.117L157.877 126.717L158.387 127.227ZM152.987 127.227L153.495 126.717L158.908 132.117L158.4 132.627L157.892 133.136L152.479 127.736L152.987 127.227Z" fill="#3B3B3B"/>
<path d="M139.877 126.717C140.157 126.436 140.613 126.436 140.895 126.717C141.177 126.999 141.178 127.455 140.897 127.736L140.387 127.227L139.877 126.717ZM135.51 133.136C135.229 133.417 134.774 133.417 134.492 133.136C134.21 132.854 134.209 132.399 134.489 132.117L135 132.627L135.51 133.136ZM134.479 127.736C134.197 127.455 134.196 126.999 134.477 126.717C134.757 126.436 135.213 126.436 135.495 126.717L134.987 127.227L134.479 127.736ZM140.908 132.117C141.189 132.399 141.19 132.854 140.91 133.136C140.629 133.417 140.174 133.417 139.892 133.136L140.4 132.627L140.908 132.117ZM140.387 127.227L140.897 127.736L135.51 133.136L135 132.627L134.489 132.117L139.877 126.717L140.387 127.227ZM134.987 127.227L135.495 126.717L140.908 132.117L140.4 132.627L139.892 133.136L134.479 127.736L134.987 127.227Z" fill="#3B3B3B"/>
<path d="M152.4 142.827H138" stroke="#3B3B3B" stroke-width="1.44" stroke-linecap="round"/>
<path d="M135.6 171.575C135.6 165.659 140.404 160.826 146.349 160.826C152.333 160.826 157.2 165.721 157.2 171.677C157.2 177.594 152.396 182.426 146.451 182.426C140.467 182.426 135.6 177.531 135.6 171.575Z" fill="#B95C04" stroke="#A6A6A6" stroke-width="1.2"/>
<path d="M145.8 166.825C145.8 166.493 146.069 166.225 146.4 166.226C146.731 166.227 147 166.496 147 166.828L146.4 166.826L145.8 166.825ZM147 173.119C147 173.45 146.731 173.718 146.4 173.718C146.069 173.717 145.8 173.448 145.8 173.116L146.4 173.118L147 173.119ZM145.8 176.407C145.8 176.076 146.069 175.808 146.4 175.808C146.731 175.809 147 176.078 147 176.41L146.4 176.408L145.8 176.407ZM147 176.422C147 176.753 146.731 177.021 146.4 177.02C146.069 177.02 145.8 176.75 145.8 176.419L146.4 176.42L147 176.422ZM146.4 166.826L147 166.828L147 173.119L146.4 173.118L145.8 173.116L145.8 166.825L146.4 166.826ZM146.4 176.408L147 176.41L147 176.422L146.4 176.42L145.8 176.419L145.8 176.407L146.4 176.408Z" fill="white"/>
<defs>
<filter id="filter0_f_5329_195395" x="0" y="54.0264" width="308.4" height="236.4" filterUnits="userSpaceOnUse" color-interpolation-filters="sRGB">
<feFlood flood-opacity="0" result="BackgroundImageFix"/>
<feBlend mode="normal" in="SourceGraphic" in2="BackgroundImageFix" result="shape"/>
<feGaussianBlur stdDeviation="36" result="effect1_foregroundBlur_5329_195395"/>
</filter>
<filter id="filter1_f_5329_195395" x="86.4" y="37.2266" width="180" height="201.6" filterUnits="userSpaceOnUse" color-interpolation-filters="sRGB">
<feFlood flood-opacity="0" result="BackgroundImageFix"/>
<feBlend mode="normal" in="SourceGraphic" in2="BackgroundImageFix" result="shape"/>
<feGaussianBlur stdDeviation="36" result="effect1_foregroundBlur_5329_195395"/>
</filter>
<filter id="filter2_f_5329_195395" x="39.6" y="37.2266" width="180" height="201.6" filterUnits="userSpaceOnUse" color-interpolation-filters="sRGB">
<feFlood flood-opacity="0" result="BackgroundImageFix"/>
<feBlend mode="normal" in="SourceGraphic" in2="BackgroundImageFix" result="shape"/>
<feGaussianBlur stdDeviation="36" result="effect1_foregroundBlur_5329_195395"/>
</filter>
</defs>
</svg>
