<svg width="257" height="243" viewBox="0 0 257 243" fill="none" xmlns="http://www.w3.org/2000/svg">
<g opacity="0.15" filter="url(#filter0_f_6364_34478)">
<path d="M60 145.021C60 122.93 77.9086 105.021 100 105.021H157C179.091 105.021 197 122.93 197 145.021V166.021C197 174.858 189.837 182.021 181 182.021H76C67.1634 182.021 60 174.858 60 166.021V145.021Z" fill="#4864E1"/>
</g>
<g opacity="0.25" filter="url(#filter1_f_6364_34478)">
<path d="M132 106.021C132 97.7372 138.716 91.0215 147 91.0215C155.284 91.0215 162 97.7372 162 106.021V125.307C162 132.881 155.86 139.021 148.286 139.021H145.714C138.14 139.021 132 132.881 132 125.307V106.021Z" fill="#008768"/>
</g>
<g opacity="0.2" filter="url(#filter2_f_6364_34478)">
<path d="M93 106.021C93 97.7372 99.7157 91.0215 108 91.0215C116.284 91.0215 123 97.7372 123 106.021V125.307C123 132.881 116.86 139.021 109.286 139.021H106.714C99.1401 139.021 93 132.881 93 125.307V106.021Z" fill="#4864E1"/>
</g>
<mask id="mask0_6364_34478" style="mask-type:alpha" maskUnits="userSpaceOnUse" x="65" y="42" width="125" height="108">
<path d="M65.998 115.776C65.998 75.0305 93.7564 42 127.998 42C162.24 42 189.998 75.0305 189.998 115.776C189.998 156.521 162.24 149.546 127.998 149.546C93.7564 149.546 65.998 156.521 65.998 115.776Z" fill="#D9D9D9" fill-opacity="0.1"/>
</mask>
<g mask="url(#mask0_6364_34478)">
<rect x="39.7988" y="29.6211" width="39.9" height="39.9" rx="4.2" fill="#BABABA"/>
<rect x="85.2988" y="29.6211" width="39.9" height="39.9" rx="4.2" fill="#BABABA"/>
<rect x="130.799" y="29.6211" width="39.9" height="39.9" rx="4.2" fill="#BABABA"/>
<rect x="176.299" y="29.6211" width="39.9" height="39.9" rx="4.2" fill="#BABABA"/>
<rect x="39.7988" y="75.1211" width="39.9" height="39.9" rx="4.2" fill="#BABABA"/>
<rect x="85.2988" y="75.1211" width="39.9" height="39.9" rx="4.2" fill="#BABABA"/>
<rect x="130.799" y="75.1211" width="39.9" height="39.9" rx="4.2" fill="#BABABA"/>
<rect x="176.299" y="75.1211" width="39.9" height="39.9" rx="4.2" fill="#BABABA"/>
<rect x="39.7988" y="120.621" width="39.9" height="39.9" rx="4.2" fill="#BABABA"/>
<rect x="85.2988" y="120.621" width="39.9" height="39.9" rx="4.2" fill="#BABABA"/>
<rect x="130.799" y="120.621" width="39.9" height="39.9" rx="4.2" fill="#BABABA"/>
<rect x="176.299" y="120.621" width="39.9" height="39.9" rx="4.2" fill="#BABABA"/>
</g>
<defs>
<filter id="filter0_f_6364_34478" x="0" y="45.0215" width="257" height="197" filterUnits="userSpaceOnUse" color-interpolation-filters="sRGB">
<feFlood flood-opacity="0" result="BackgroundImageFix"/>
<feBlend mode="normal" in="SourceGraphic" in2="BackgroundImageFix" result="shape"/>
<feGaussianBlur stdDeviation="30" result="effect1_foregroundBlur_6364_34478"/>
</filter>
<filter id="filter1_f_6364_34478" x="72" y="31.0215" width="150" height="168" filterUnits="userSpaceOnUse" color-interpolation-filters="sRGB">
<feFlood flood-opacity="0" result="BackgroundImageFix"/>
<feBlend mode="normal" in="SourceGraphic" in2="BackgroundImageFix" result="shape"/>
<feGaussianBlur stdDeviation="30" result="effect1_foregroundBlur_6364_34478"/>
</filter>
<filter id="filter2_f_6364_34478" x="33" y="31.0215" width="150" height="168" filterUnits="userSpaceOnUse" color-interpolation-filters="sRGB">
<feFlood flood-opacity="0" result="BackgroundImageFix"/>
<feBlend mode="normal" in="SourceGraphic" in2="BackgroundImageFix" result="shape"/>
<feGaussianBlur stdDeviation="30" result="effect1_foregroundBlur_6364_34478"/>
</filter>
</defs>
</svg>
