<svg width="15" height="14" viewBox="0 0 15 14" fill="none" xmlns="http://www.w3.org/2000/svg">
<path d="M11.25 1.75H3.75C2.36875 1.75 1.25 2.78833 1.25 4.06583V9.93417C1.25 11.2117 2.36875 12.25 3.75 12.25H11.25C12.6313 12.25 13.75 11.2117 13.75 9.93417V4.06583C13.75 2.78833 12.6313 1.75 11.25 1.75ZM5.3125 4.1825C6.10625 4.1825 6.75625 4.78917 6.75625 5.53C6.75625 6.27083 6.10625 6.8775 5.3125 6.8775C4.51875 6.8775 3.86875 6.27083 3.86875 5.53C3.86875 4.78917 4.51875 4.1825 5.3125 4.1825ZM7.73125 9.71833C7.675 9.77667 7.5875 9.81167 7.5 9.81167H3.125C3.0375 9.81167 2.95 9.77667 2.89375 9.71833C2.8375 9.66 2.80625 9.57833 2.8125 9.49667C2.91875 8.51667 3.75625 7.74083 4.80625 7.6475C5.1375 7.61833 5.48125 7.61833 5.8125 7.6475C6.8625 7.74083 7.70625 8.51667 7.80625 9.49667C7.81875 9.57833 7.7875 9.66 7.73125 9.71833ZM11.875 9.77083H10.625C10.3687 9.77083 10.1562 9.5725 10.1562 9.33333C10.1562 9.09417 10.3687 8.89583 10.625 8.89583H11.875C12.1313 8.89583 12.3438 9.09417 12.3438 9.33333C12.3438 9.5725 12.1313 9.77083 11.875 9.77083ZM11.875 7.4375H9.375C9.11875 7.4375 8.90625 7.23917 8.90625 7C8.90625 6.76083 9.11875 6.5625 9.375 6.5625H11.875C12.1313 6.5625 12.3438 6.76083 12.3438 7C12.3438 7.23917 12.1313 7.4375 11.875 7.4375ZM11.875 5.10417H8.75C8.49375 5.10417 8.28125 4.90583 8.28125 4.66667C8.28125 4.4275 8.49375 4.22917 8.75 4.22917H11.875C12.1313 4.22917 12.3438 4.4275 12.3438 4.66667C12.3438 4.90583 12.1313 5.10417 11.875 5.10417Z" fill="#5C6573"/>
</svg>
