<svg width="106" height="106" viewBox="0 0 106 106" fill="none" xmlns="http://www.w3.org/2000/svg">
<path d="M8.83306 51.2329H34.4497C42.8414 51.2329 49.1572 57.5489 49.1572 65.9405V80.1623C49.1572 88.554 42.8414 94.8696 34.4497 94.8696H20.2281C12.1456 94.8696 5.52056 88.289 5.52056 80.1623V54.5454C5.52056 52.6904 7.02222 51.2329 8.83306 51.2329ZM34.4497 88.2004C39.1314 88.2004 42.5322 84.7998 42.5322 80.1181V65.8963C42.5322 61.2146 39.1314 57.814 34.4497 57.814H12.1456V80.1181C12.1456 84.5789 15.7672 88.2004 20.2281 88.2004H34.4497Z" fill="#292D32"/>
<path d="M28.8406 11.174C29.9889 11.174 31.0931 11.7481 31.7114 12.8081C32.6389 14.3981 32.1089 16.4297 30.5631 17.3572C16.2972 25.8372 12.1456 29.3704 12.1456 54.5454C12.1456 56.3562 10.6439 57.8579 8.83306 57.8579C7.02223 57.8579 5.52056 56.3562 5.52056 54.5454C5.52056 26.9412 11.1297 21.1556 27.1622 11.6598C27.6922 11.3064 28.2664 11.174 28.8406 11.174Z" fill="#292D32"/>
<path d="M60.1983 51.2329H85.815C94.2066 51.2329 100.522 57.5489 100.522 65.9405V80.1623C100.522 88.554 94.2066 94.8696 85.815 94.8696H71.5491C63.4666 94.8696 56.8416 88.289 56.8416 80.1623V54.5454C56.8858 52.6904 58.3433 51.2329 60.1983 51.2329ZM85.7708 88.2004C90.4525 88.2004 93.8533 84.7998 93.8533 80.1181V65.8963C93.8533 61.2146 90.4525 57.814 85.7708 57.814H63.4666V80.1181C63.4666 84.5789 67.0883 88.2004 71.5491 88.2004H85.7708Z" fill="#292D32"/>
<path d="M80.2063 11.174C81.3546 11.174 82.4588 11.7481 83.0771 12.8081C84.0046 14.3981 83.4746 16.4297 81.9288 17.3572C67.663 25.8372 63.5113 29.3704 63.5113 54.5454C63.5113 56.3562 62.0096 57.8579 60.1988 57.8579C58.388 57.8579 56.8863 56.3562 56.8863 54.5454C56.8863 26.9412 62.4955 21.1556 78.528 11.6598C79.058 11.3064 79.6321 11.174 80.2063 11.174Z" fill="#292D32"/>
</svg>
