<svg width="16" height="16" viewBox="0 0 16 16" fill="none" xmlns="http://www.w3.org/2000/svg">
<path d="M5.3939 7.75305H2.26723C2.32056 4.63971 2.9339 4.12638 4.84723 2.99305C5.06723 2.85971 5.14056 2.57971 5.00723 2.35305C4.8739 2.13305 4.59389 2.05972 4.36723 2.19305C2.11389 3.52638 1.32723 4.33971 1.32723 8.21971V11.813C1.32723 12.953 2.2539 13.873 3.38723 13.873H5.38723C6.56056 13.873 7.44723 12.9864 7.44723 11.813V9.81305C7.45389 8.63971 6.56723 7.75305 5.3939 7.75305Z" fill="#1B213C"/>
<path d="M12.6075 7.75305H9.48081C9.53415 4.63971 10.1475 4.12638 12.0608 2.99305C12.2808 2.85971 12.3541 2.57971 12.2208 2.35305C12.0875 2.13305 11.8075 2.05972 11.5808 2.19305C9.32748 3.52638 8.54081 4.33971 8.54081 8.21971V11.813C8.54081 12.953 9.46748 13.873 10.6008 13.873H12.6008C13.7808 13.873 14.6675 12.9864 14.6675 11.813V9.81305C14.6675 8.63971 13.7808 7.75305 12.6075 7.75305Z" fill="#1B213C"/>
</svg>
