<svg width="16" height="16" viewBox="0 0 16 16" fill="none" xmlns="http://www.w3.org/2000/svg">
<path d="M10.6066 8.24671H13.7333C13.6799 11.36 13.0666 11.8734 11.1533 13.0067C10.9333 13.14 10.8599 13.42 10.9933 13.6467C11.1266 13.8667 11.4066 13.94 11.6333 13.8067C13.8866 12.4734 14.6733 11.66 14.6733 7.78004V4.18671C14.6733 3.04671 13.7466 2.12671 12.6133 2.12671H10.6133C9.43993 2.12671 8.55326 3.01338 8.55326 4.18671V6.18671C8.54659 7.36004 9.43326 8.24671 10.6066 8.24671Z" fill="#4864E1"/>
<path d="M3.3935 8.24671H6.52016C6.46683 11.36 5.8535 11.8734 3.94016 13.0067C3.72016 13.14 3.64683 13.42 3.78016 13.6467C3.9135 13.8667 4.1935 13.94 4.42016 13.8067C6.6735 12.4734 7.46016 11.66 7.46016 7.78004V4.18671C7.46016 3.04671 6.5335 2.12671 5.40016 2.12671H3.40016C2.22016 2.12671 1.3335 3.01338 1.3335 4.18671V6.18671C1.3335 7.36004 2.22016 8.24671 3.3935 8.24671Z" fill="#4864E1"/>
</svg>
