<svg width="32" height="30" viewBox="0 0 32 30" fill="none" xmlns="http://www.w3.org/2000/svg">
<path d="M29 3H23.3636C22.2591 3 21.3636 3.89543 21.3636 5V8.65958C21.3636 9.76414 20.4682 10.6596 19.3636 10.6596H16.1515C15.0469 10.6596 14.1515 11.555 14.1515 12.6596V16.8298C14.1515 17.9344 13.2561 18.8298 12.1515 18.8298H10.2121C9.10755 18.8298 8.21212 19.7252 8.21212 20.8298V25C8.21212 26.1046 7.31669 27 6.21212 27H1.5" stroke="#D2E4FF" stroke-width="3" stroke-linecap="round"/>
<path d="M30 4H24.3636C23.2591 4 22.3636 4.89543 22.3636 6V9.65958C22.3636 10.7641 21.4682 11.6596 20.3636 11.6596H17.1515C16.0469 11.6596 15.1515 12.555 15.1515 13.6596V17.8298C15.1515 18.9344 14.2561 19.8298 13.1515 19.8298H11.2121C10.1076 19.8298 9.21212 20.7252 9.21212 21.8298V26C9.21212 27.1046 8.31669 28 7.21212 28H2.5" stroke="#1C1C1C" stroke-width="3" stroke-linecap="round"/>
<path d="M0.540381 11.0404C0.28654 11.2942 0.28654 11.7058 0.540381 11.9596C0.794221 12.2135 1.20578 12.2135 1.45962 11.9596L0.540381 11.0404ZM11.1494 0.971766C11.1338 0.61312 10.8304 0.33502 10.4718 0.350614L4.62729 0.604721C4.26864 0.620315 3.99054 0.923696 4.00614 1.28234C4.02173 1.64099 4.32511 1.91909 4.68376 1.90349L9.87885 1.67762L10.1047 6.87271C10.1203 7.23136 10.4237 7.50946 10.7823 7.49387C11.141 7.47827 11.4191 7.17489 11.4035 6.81624L11.1494 0.971766ZM1 11.5L1.45962 11.9596C1.6762 11.743 2.6992 10.5919 4.3213 8.78409C5.9579 6.96009 8.23125 4.43693 10.9791 1.43922L10.5 1L10.0209 0.560779C7.26875 3.56307 4.9921 6.08991 3.3537 7.91591C1.7008 9.75807 0.723801 10.857 0.540381 11.0404L1 11.5Z" fill="#D2E4FF"/>
<path d="M1.54038 12.0404C1.28654 12.2942 1.28654 12.7058 1.54038 12.9596C1.79422 13.2135 2.20578 13.2135 2.45962 12.9596L1.54038 12.0404ZM12.1494 1.97177C12.1338 1.61312 11.8304 1.33502 11.4718 1.35061L5.62729 1.60472C5.26864 1.62031 4.99054 1.9237 5.00614 2.28234C5.02173 2.64099 5.32511 2.91909 5.68376 2.90349L10.8788 2.67762L11.1047 7.87271C11.1203 8.23136 11.4237 8.50946 11.7823 8.49387C12.141 8.47827 12.4191 8.17489 12.4035 7.81624L12.1494 1.97177ZM2 12.5L2.45962 12.9596C2.6762 12.743 3.6992 11.5919 5.3213 9.78409C6.9579 7.96009 9.23125 5.43693 11.9791 2.43922L11.5 2L11.0209 1.56078C8.26875 4.56307 5.9921 7.08991 4.3537 8.91591C2.7008 10.7581 1.7238 11.857 1.54038 12.0404L2 12.5Z" fill="#1C1C1C"/>
</svg>
