<svg width="51" height="51" viewBox="0 0 51 51" fill="none" xmlns="http://www.w3.org/2000/svg">
<circle cx="25.5" cy="25.5" r="25.5" fill="#FFEDCA"/>
<path d="M13.334 25.9697H16.6172C16.8661 25.9698 17.0752 26.1788 17.0752 26.4277V31.6611C17.0753 33.3386 18.0017 34.8739 19.4668 35.668V35.6689C19.4685 35.6699 19.47 35.671 19.4717 35.6719C19.4736 35.6729 19.4757 35.6738 19.4775 35.6748V35.6738C20.1418 36.038 20.8725 36.2197 21.6172 36.2197C22.4799 36.2197 23.3431 35.9702 24.0938 35.4727L24.0947 35.4736L25.0078 34.877L25.8105 35.415V35.4141C27.1851 36.3375 28.9599 36.4597 30.4492 35.6611L30.4502 35.6621C31.9393 34.8724 32.8758 33.3486 32.876 31.6445V26.4277C32.876 26.1788 33.085 25.9697 33.334 25.9697H36.667C36.916 25.9697 37.125 26.1787 37.125 26.4277V36.4277C37.1248 39.4432 34.6825 41.8848 31.667 41.8848H18.334C15.3184 41.8848 12.8762 39.4432 12.876 36.4277V26.4277C12.876 26.1788 13.085 25.9697 13.334 25.9697Z" fill="#FFC441" stroke="#FFC441" stroke-width="2.41789"/>
<path d="M12.4998 15.9702H37.4998C38.4681 15.9702 38.9316 16.2572 39.1746 16.5356C39.4435 16.8441 39.6247 17.3515 39.6248 18.0942V19.7612C39.6248 20.5044 39.4437 21.0123 39.1746 21.3208C38.9316 21.5993 38.468 21.8853 37.4998 21.8853H12.4998C11.4675 21.8852 11.0187 21.5911 10.7976 21.3315C10.5449 21.0349 10.3757 20.534 10.3757 19.7612V18.0942C10.3758 17.3217 10.5449 16.8206 10.7976 16.5239C11.0188 16.2644 11.4677 15.9703 12.4998 15.9702Z" fill="#FFC441" stroke="#FFC441" stroke-width="2.41789"/>
<path d="M18.4712 11.083C18.5977 10.9566 18.8058 10.9404 18.9526 11.0352L19.0112 11.083L21.481 13.5527H16.0317C16.0394 13.537 16.047 13.5208 16.0571 13.5059L16.104 13.4492L18.4712 11.083Z" fill="#FFC441" stroke="#FFC441" stroke-width="2.41789"/>
<path d="M30.9722 11.083C31.0987 10.9567 31.3068 10.9403 31.4536 11.0352L31.5122 11.083L33.8784 13.4492C33.9097 13.4805 33.933 13.5162 33.9507 13.5527H28.5015L30.9722 11.083Z" fill="#FFC441" stroke="#FFC441" stroke-width="2.41789"/>
<path d="M28.284 24.7607C29.2006 24.7607 29.9506 25.5107 29.9506 26.4274V31.6441C29.9506 32.9774 28.4673 33.7774 27.3673 33.0274L25.8673 32.0274C25.3173 31.6607 24.6006 31.6607 24.034 32.0274L22.4673 33.0607C21.3673 33.7941 19.9006 32.9941 19.9006 31.6774V26.4274C19.9006 25.5107 20.6506 24.7607 21.5673 24.7607H28.284Z" fill="#FFE199"/>
</svg>
