<?xml version="1.0" encoding="utf-8"?>
<!-- Generator: Adobe Illustrator 25.3.1, SVG Export Plug-In . SVG Version: 6.00 Build 0)  -->
<svg version="1.1" id="Layer_1" xmlns="http://www.w3.org/2000/svg" xmlns:xlink="http://www.w3.org/1999/xlink" x="0px" y="0px"
	 viewBox="0 0 31 31" style="enable-background:new 0 0 31 31;" xml:space="preserve">
<style type="text/css">
	.st0{fill:#4885E1;}
	.st1{fill:#FFFFFF;}
</style>
<circle class="st0" cx="15.5" cy="15.5" r="15.5"/>
<g>
	<path class="st1" d="M15.1,22.3c-3.9,0-7.1-3.2-7.1-7.1c0-2.7,1.5-5.1,3.9-6.4c0.2-0.1,0.4,0,0.5,0.2c0.1,0.2,0,0.4-0.2,0.5
		c-2.1,1.1-3.5,3.2-3.5,5.6c0,3.5,2.8,6.3,6.3,6.3c3.5,0,6.3-2.8,6.3-6.3s-2.8-6.3-6.3-6.3c-0.2,0-0.4-0.2-0.4-0.4S14.9,8,15.1,8
		c3.9,0,7.1,3.2,7.1,7.1S19.1,22.3,15.1,22.3z"/>
</g>
<g>
	<path class="st1" d="M22.6,23c-0.1,0-0.2,0-0.3-0.1l-1.4-1.4c-0.2-0.2-0.2-0.4,0-0.6c0.2-0.2,0.4-0.2,0.6,0l1.4,1.4
		c0.2,0.2,0.2,0.4,0,0.6C22.8,22.9,22.7,23,22.6,23z"/>
</g>
</svg>
