<svg width="14" height="14" viewBox="0 0 14 14" fill="none" xmlns="http://www.w3.org/2000/svg">
<path d="M9.44352 1.1665H4.55518C2.43185 1.1665 1.16602 2.43234 1.16602 4.55567V9.43817C1.16602 11.5673 2.43185 12.8332 4.55518 12.8332H9.43768C11.561 12.8332 12.8268 11.5673 12.8268 9.444V4.55567C12.8327 2.43234 11.5668 1.1665 9.44352 1.1665ZM4.47352 3.20817C4.47352 2.969 4.67185 2.77067 4.91102 2.77067C5.15018 2.77067 5.34852 2.969 5.34852 3.20817V5.48317C5.34852 5.72234 5.15018 5.92067 4.91102 5.92067C4.67185 5.92067 4.47352 5.72234 4.47352 5.48317V3.20817ZM5.69412 9.51435C5.50039 9.62399 5.34852 9.81303 5.34852 10.0356V10.7915C5.34852 11.0307 5.15018 11.229 4.91102 11.229C4.67185 11.229 4.47352 11.0307 4.47352 10.7915V10.0356C4.47352 9.81303 4.32158 9.62406 4.12802 9.51412C3.64733 9.24108 3.32435 8.72812 3.32435 8.13734C3.32435 7.26234 4.03602 6.54484 4.91102 6.54484C5.78602 6.54484 6.50352 7.2565 6.50352 8.13734C6.50352 8.72829 6.17646 9.24137 5.69412 9.51435ZM9.52518 10.7915C9.52518 11.0307 9.32685 11.229 9.08768 11.229C8.84852 11.229 8.65018 11.0307 8.65018 10.7915V8.5165C8.65018 8.27734 8.84852 8.079 9.08768 8.079C9.32685 8.079 9.52518 8.27734 9.52518 8.5165V10.7915ZM9.08768 7.449C8.21268 7.449 7.49518 6.73734 7.49518 5.8565C7.49518 5.26555 7.82224 4.75247 8.30458 4.47949C8.49831 4.36985 8.65018 4.18081 8.65018 3.95821V3.20817C8.65018 2.969 8.84852 2.77067 9.08768 2.77067C9.32685 2.77067 9.52518 2.969 9.52518 3.20817V3.96405C9.52518 4.18664 9.67712 4.37561 9.87067 4.48555C10.3514 4.75859 10.6743 5.27155 10.6743 5.86234C10.6743 6.73734 9.96268 7.449 9.08768 7.449Z" fill="#7B8290"/>
</svg>
