<svg width="16" height="16" viewBox="0 0 16 16" fill="none" xmlns="http://www.w3.org/2000/svg">
<path d="M8.13044 2H7.87021C7.55649 2 7.25562 2.12643 7.03379 2.35147C6.81196 2.57652 6.68733 2.88174 6.68733 3.2V3.308C6.68712 3.51844 6.63236 3.72511 6.52856 3.9073C6.42475 4.08949 6.27554 4.24078 6.0959 4.346L5.84158 4.496C5.66176 4.60132 5.45778 4.65677 5.25014 4.65677C5.0425 4.65677 4.83852 4.60132 4.6587 4.496L4.56999 4.448C4.29856 4.28916 3.97609 4.24607 3.67337 4.32818C3.37065 4.4103 3.11242 4.61092 2.95537 4.886L2.82525 5.114C2.66867 5.38936 2.6262 5.7165 2.70714 6.0236C2.78809 6.3307 2.98585 6.59267 3.257 6.752L3.34571 6.812C3.52449 6.91671 3.67314 7.06705 3.7769 7.2481C3.88066 7.42914 3.93591 7.63458 3.93715 7.844V8.15C3.93798 8.36145 3.88372 8.56937 3.77985 8.75271C3.67599 8.93604 3.52623 9.08827 3.34571 9.194L3.257 9.248C2.98585 9.40733 2.78809 9.6693 2.70714 9.9764C2.6262 10.2835 2.66867 10.6106 2.82525 10.886L2.95537 11.114C3.11242 11.3891 3.37065 11.5897 3.67337 11.6718C3.97609 11.7539 4.29856 11.7108 4.56999 11.552L4.6587 11.504C4.83852 11.3987 5.0425 11.3432 5.25014 11.3432C5.45778 11.3432 5.66176 11.3987 5.84158 11.504L6.0959 11.654C6.27554 11.7592 6.42475 11.9105 6.52856 12.0927C6.63236 12.2749 6.68712 12.4816 6.68733 12.692V12.8C6.68733 13.1183 6.81196 13.4235 7.03379 13.6485C7.25562 13.8736 7.55649 14 7.87021 14H8.13044C8.44416 14 8.74503 13.8736 8.96686 13.6485C9.18869 13.4235 9.31332 13.1183 9.31332 12.8V12.692C9.31353 12.4816 9.36829 12.2749 9.47209 12.0927C9.5759 11.9105 9.72511 11.7592 9.90475 11.654L10.1591 11.504C10.3389 11.3987 10.5429 11.3432 10.7505 11.3432C10.9581 11.3432 11.1621 11.3987 11.3419 11.504L11.4307 11.552C11.7021 11.7108 12.0246 11.7539 12.3273 11.6718C12.63 11.5897 12.8882 11.3891 13.0453 11.114L13.1754 10.88C13.332 10.6046 13.3745 10.2775 13.2935 9.9704C13.2126 9.6633 13.0148 9.40133 12.7437 9.242L12.6549 9.194C12.4744 9.08827 12.3247 8.93604 12.2208 8.75271C12.1169 8.56937 12.0627 8.36145 12.0635 8.15V7.85C12.0627 7.63855 12.1169 7.43063 12.2208 7.2473C12.3247 7.06396 12.4744 6.91173 12.6549 6.806L12.7437 6.752C13.0148 6.59267 13.2126 6.3307 13.2935 6.0236C13.3745 5.7165 13.332 5.38936 13.1754 5.114L13.0453 4.886C12.8882 4.61092 12.63 4.4103 12.3273 4.32818C12.0246 4.24607 11.7021 4.28916 11.4307 4.448L11.3419 4.496C11.1621 4.60132 10.9581 4.65677 10.7505 4.65677C10.5429 4.65677 10.3389 4.60132 10.1591 4.496L9.90475 4.346C9.72511 4.24078 9.5759 4.08949 9.47209 3.9073C9.36829 3.72511 9.31353 3.51844 9.31332 3.308V3.2C9.31332 2.88174 9.18869 2.57652 8.96686 2.35147C8.74503 2.12643 8.44416 2 8.13044 2Z" stroke="#757575" stroke-width="1.5" stroke-linecap="round" stroke-linejoin="round"/>
<path d="M8.00032 9.8C8.98025 9.8 9.77464 8.99411 9.77464 8C9.77464 7.00589 8.98025 6.2 8.00032 6.2C7.0204 6.2 6.22601 7.00589 6.22601 8C6.22601 8.99411 7.0204 9.8 8.00032 9.8Z" stroke="#757575" stroke-width="1.5" stroke-linecap="round" stroke-linejoin="round"/>
</svg>
