<svg width="63" height="54" viewBox="0 0 63 54" fill="none" xmlns="http://www.w3.org/2000/svg">
<path opacity="0.4" d="M14.2348 45.134H13.433C7.01802 45.134 3.81055 43.5304 3.81055 35.5123V27.4942C3.81055 21.0798 7.01802 17.8726 13.433 17.8726H26.2629C32.6778 17.8726 35.8853 21.0798 35.8853 27.4942V35.5123C35.8853 41.9268 32.6778 45.134 26.2629 45.134H25.461C24.9638 45.134 24.4827 45.3746 24.178 45.7755L21.7724 48.9827C20.714 50.3939 18.9819 50.3939 17.9234 48.9827L15.5178 45.7755C15.2612 45.4227 14.6839 45.134 14.2348 45.134Z" fill="url(#paint0_linear_257_11302)"/>
<path d="M13.4317 36.2817C13.1269 36.2817 12.8222 36.1694 12.5817 35.9289L9.3742 32.7217C8.90912 32.2566 8.90912 31.4869 9.3742 31.0218L12.5817 27.8146C13.0468 27.3496 13.8166 27.3496 14.2816 27.8146C14.7467 28.2797 14.7467 29.0494 14.2816 29.5144L11.9241 31.8718L14.2816 34.2291C14.7467 34.6941 14.7467 35.4638 14.2816 35.9289C14.0411 36.1694 13.7364 36.2817 13.4317 36.2817Z" fill="url(#paint1_linear_257_11302)"/>
<path d="M26.2613 36.2817C25.9566 36.2817 25.6519 36.1694 25.4113 35.9289C24.9462 35.4638 24.9462 34.6941 25.4113 34.2291L27.7688 31.8718L25.4113 29.5144C24.9462 29.0494 24.9462 28.2797 25.4113 27.8146C25.8764 27.3496 26.6462 27.3496 27.1113 27.8146L30.3187 31.0218C30.7838 31.4869 30.7838 32.2566 30.3187 32.7217L27.1113 35.9289C26.8707 36.1694 26.566 36.2817 26.2613 36.2817Z" fill="url(#paint2_linear_257_11302)"/>
<path d="M18.2448 36.8114C18.0844 36.8114 17.9241 36.7792 17.7637 36.7151C17.1543 36.4585 16.8656 35.7529 17.1382 35.1275L20.3457 27.6386C20.6023 27.0293 21.3079 26.7406 21.9334 27.0132C22.5428 27.2698 22.8315 27.9754 22.5589 28.6008L19.3514 36.0897C19.1589 36.5387 18.7099 36.8114 18.2448 36.8114Z" fill="url(#paint3_linear_257_11302)"/>
<path opacity="0.4" d="M50.919 3.93555H38.0173C32.4132 3.93555 29.0723 7.2762 29.0723 12.8799V25.7652C29.0723 31.3843 32.4132 34.725 38.0173 34.725H50.9036C56.5077 34.725 59.8486 31.3843 59.8486 25.7806V12.8799C59.864 7.2762 56.5231 3.93555 50.919 3.93555Z" fill="url(#paint4_linear_257_11302)"/>
<path d="M51.2728 12.88V25.7808C51.2728 26.766 50.4722 27.5666 49.4869 27.5666C48.4861 27.5666 47.6855 26.766 47.6855 25.7808V12.88C47.6855 11.8948 48.4861 11.0942 49.4869 11.0942C50.4722 11.0942 51.2728 11.8948 51.2728 12.88Z" fill="url(#paint5_linear_257_11302)"/>
<path d="M41.2513 20.7619V25.7805C41.2513 26.7658 40.4507 27.5663 39.45 27.5663C38.4646 27.5663 37.6641 26.7658 37.6641 25.7805V20.7619C37.6641 19.7766 38.4646 18.9761 39.45 18.9761C40.4507 18.9761 41.2513 19.7766 41.2513 20.7619Z" fill="url(#paint6_linear_257_11302)"/>
<defs>
<linearGradient id="paint0_linear_257_11302" x1="19.8479" y1="17.8726" x2="19.8479" y2="50.0411" gradientUnits="userSpaceOnUse">
<stop stop-color="#10B981"/>
<stop offset="1" stop-color="#5574FF"/>
</linearGradient>
<linearGradient id="paint1_linear_257_11302" x1="11.8279" y1="27.4658" x2="11.8279" y2="36.2817" gradientUnits="userSpaceOnUse">
<stop stop-color="#10B981"/>
<stop offset="1" stop-color="#5574FF"/>
</linearGradient>
<linearGradient id="paint2_linear_257_11302" x1="27.865" y1="27.4658" x2="27.865" y2="36.2817" gradientUnits="userSpaceOnUse">
<stop stop-color="#10B981"/>
<stop offset="1" stop-color="#5574FF"/>
</linearGradient>
<linearGradient id="paint3_linear_257_11302" x1="19.8485" y1="26.9102" x2="19.8485" y2="36.8114" gradientUnits="userSpaceOnUse">
<stop stop-color="#10B981"/>
<stop offset="1" stop-color="#5574FF"/>
</linearGradient>
<linearGradient id="paint4_linear_257_11302" x1="44.4605" y1="3.93555" x2="44.4605" y2="34.725" gradientUnits="userSpaceOnUse">
<stop stop-color="#10B981"/>
<stop offset="1" stop-color="#5574FF"/>
</linearGradient>
<linearGradient id="paint5_linear_257_11302" x1="49.4792" y1="11.0942" x2="49.4792" y2="27.5666" gradientUnits="userSpaceOnUse">
<stop stop-color="#10B981"/>
<stop offset="1" stop-color="#5574FF"/>
</linearGradient>
<linearGradient id="paint6_linear_257_11302" x1="39.4577" y1="18.9761" x2="39.4577" y2="27.5663" gradientUnits="userSpaceOnUse">
<stop stop-color="#10B981"/>
<stop offset="1" stop-color="#5574FF"/>
</linearGradient>
</defs>
</svg>
