<svg width="66" height="56" viewBox="0 0 66 56" fill="none" xmlns="http://www.w3.org/2000/svg">
<path opacity="0.4" d="M29.6759 32.8917C28.9642 33.5864 28.5575 34.5861 28.6592 35.6536C28.8117 37.4835 30.4892 38.8221 32.3192 38.8221H35.6405V41.279C35.6405 46.3622 32.2515 49.7509 27.1681 49.7509H11.9177C6.83428 49.7509 3.44531 46.3622 3.44531 41.279V29.4182C3.44531 24.8095 6.22427 21.5902 10.5452 21.0479C10.9858 20.9802 11.4433 20.9463 11.9177 20.9463H27.1681C27.6086 20.9463 28.0322 20.9632 28.4389 21.031C32.8107 21.5393 35.6405 24.7756 35.6405 29.4182V31.8751H32.1159C31.167 31.8751 30.3028 32.2479 29.6759 32.8917Z" fill="url(#paint0_linear_257_11297)"/>
<path d="M37.3357 33.6032V37.0938C37.3357 38.0257 36.5902 38.7881 35.6412 38.822H32.32C30.49 38.822 28.8125 37.4834 28.66 35.6535C28.5583 34.586 28.965 33.5863 29.6766 32.8916C30.3036 32.2477 31.1678 31.875 32.1167 31.875H35.6412C36.5902 31.9089 37.3357 32.6713 37.3357 33.6032Z" fill="url(#paint1_linear_257_11297)"/>
<path opacity="0.4" d="M54.5392 12.9824C54.2301 12.9824 53.9211 12.8686 53.6771 12.6246C53.2053 12.1529 53.2053 11.3721 53.6771 10.9004L57.0118 7.5658C54.1488 5.12588 50.4562 3.62939 46.4057 3.62939C37.4263 3.62939 30.1387 10.9166 30.1387 19.8956C30.1387 28.8745 37.4263 36.1617 46.4057 36.1617C55.3851 36.1617 62.6727 28.8745 62.6727 19.8956C62.6727 15.8453 61.1761 12.1529 58.7361 9.29002L55.4014 12.6246C55.1574 12.8686 54.8483 12.9824 54.5392 12.9824Z" fill="url(#paint2_linear_257_11297)"/>
<path d="M49.2507 19.6024L47.624 19.0331V15.422H47.7541C48.5837 15.422 49.2507 16.154 49.2507 17.0486C49.2507 17.7155 49.8038 18.2686 50.4707 18.2686C51.1377 18.2686 51.6908 17.7155 51.6908 17.0486C51.6908 14.8039 49.9339 12.9821 47.7541 12.9821H47.624V12.5754C47.624 11.9085 47.0709 11.3555 46.404 11.3555C45.737 11.3555 45.1839 11.9085 45.1839 12.5754V12.9821H44.696C42.7276 12.9821 41.1172 14.6412 41.1172 16.6908C41.1172 19.0656 42.4999 19.8301 43.5572 20.2043L45.1839 20.7736V24.3847H45.0538C44.2242 24.3847 43.5572 23.6527 43.5572 22.758C43.5572 22.0911 43.0042 21.5381 42.3372 21.5381C41.6703 21.5381 41.1172 22.0911 41.1172 22.758C41.1172 25.0028 42.874 26.8246 45.0538 26.8246H45.1839V27.2312C45.1839 27.8982 45.737 28.4512 46.404 28.4512C47.0709 28.4512 47.624 27.8982 47.624 27.2312V26.8246H48.112C50.0803 26.8246 51.6908 25.1654 51.6908 23.1159C51.6908 20.7248 50.3081 19.9603 49.2507 19.6024ZM44.3543 17.8782C43.8012 17.683 43.5572 17.5691 43.5572 16.6745C43.5572 15.9751 44.0778 15.4057 44.696 15.4057H45.1839V18.1547L44.3543 17.8782ZM48.112 24.3684H47.624V21.6194L48.4536 21.9122C49.0067 22.1074 49.2507 22.2213 49.2507 23.1159C49.2507 23.7991 48.7301 24.3684 48.112 24.3684Z" fill="url(#paint3_linear_257_11297)"/>
<path d="M63.7913 3.15758C63.6612 2.86479 63.4334 2.6208 63.1244 2.49067C62.978 2.42561 62.8153 2.39307 62.6526 2.39307H56.1458C55.4789 2.39307 54.9258 2.94612 54.9258 3.61303C54.9258 4.27994 55.4789 4.83299 56.1458 4.83299H59.7083L56.9917 7.54945C57.6099 8.08623 58.1792 8.65554 58.716 9.27366L61.4326 6.55721V10.1358C61.4326 10.8027 61.9857 11.3557 62.6526 11.3557C63.3196 11.3557 63.8726 10.8027 63.8726 10.1358V3.6293C63.8889 3.46664 63.8564 3.32024 63.7913 3.15758Z" fill="#16B48C"/>
<defs>
<linearGradient id="paint0_linear_257_11297" x1="19.5429" y1="20.9463" x2="19.5429" y2="49.7509" gradientUnits="userSpaceOnUse">
<stop stop-color="#10B981"/>
<stop offset="1" stop-color="#5574FF"/>
</linearGradient>
<linearGradient id="paint1_linear_257_11297" x1="32.9901" y1="31.875" x2="32.9901" y2="38.822" gradientUnits="userSpaceOnUse">
<stop stop-color="#10B981"/>
<stop offset="1" stop-color="#5574FF"/>
</linearGradient>
<linearGradient id="paint2_linear_257_11297" x1="46.4057" y1="3.62939" x2="46.4057" y2="36.1617" gradientUnits="userSpaceOnUse">
<stop stop-color="#10B981"/>
<stop offset="1" stop-color="#5574FF"/>
</linearGradient>
<linearGradient id="paint3_linear_257_11297" x1="46.404" y1="11.3555" x2="46.404" y2="28.4512" gradientUnits="userSpaceOnUse">
<stop stop-color="#10B981"/>
<stop offset="1" stop-color="#5574FF"/>
</linearGradient>
</defs>
</svg>
