<svg width="67" height="53" viewBox="0 0 67 53" fill="none" xmlns="http://www.w3.org/2000/svg">
<path d="M33.5201 39.672C32.2816 38.1464 30.3935 37.1797 28.2638 37.1797C26.6627 37.1797 25.1825 37.7386 24.0194 38.6751C22.4486 39.9137 21.4668 41.832 21.4668 43.9769C21.4668 46.1067 22.4335 47.9948 23.959 49.2334C25.1221 50.2001 26.6325 50.7741 28.2638 50.7741C29.9857 50.7741 31.5414 50.1246 32.7498 49.0824C34.1545 47.8287 35.0608 46.0161 35.0608 43.9769C35.0608 42.3456 34.4868 40.8351 33.5201 39.672ZM29.8195 44.3999C29.8195 44.7926 29.6081 45.1702 29.2758 45.3665L27.1461 46.6354C26.9648 46.7411 26.7684 46.8015 26.557 46.8015C26.1794 46.8015 25.8018 46.6052 25.5903 46.2577C25.2731 45.714 25.4392 45.0191 25.983 44.7019L27.5539 43.7654V41.8622C27.5539 41.2429 28.0674 40.7293 28.6867 40.7293C29.306 40.7293 29.8195 41.2429 29.8195 41.8622V44.3999Z" fill="url(#paint0_linear_257_11290)"/>
<path opacity="0.4" d="M33.5487 27.8292V39.747C33.5487 39.7319 33.5336 39.7167 33.5185 39.7016C33.4581 39.611 33.3825 39.5204 33.307 39.4448C33.2919 39.4297 33.2768 39.3996 33.2617 39.3845C32.0382 38.025 30.2408 37.1791 28.2621 37.1791C26.359 37.1791 24.622 37.9645 23.3834 39.2334C22.1901 40.4569 21.4651 42.1335 21.4651 43.9763C21.4651 45.2451 21.8276 46.4535 22.4469 47.4807C22.7792 48.0395 23.2022 48.5531 23.6855 48.976C23.7157 48.9911 23.7308 49.0063 23.7459 49.0214C23.8215 49.0969 23.897 49.1573 23.9876 49.2328C23.9876 49.2328 23.9876 49.2328 24.0027 49.2328C24.0178 49.2479 24.0329 49.263 24.048 49.263H12.1155C6.6175 49.263 3.33984 45.9853 3.33984 40.4871V27.8292C3.33984 27.0588 3.40027 26.3187 3.53621 25.6389C4.30653 21.4851 7.37271 19.0683 12.0551 19.0532H24.8334C29.5158 19.0683 32.582 21.4851 33.3523 25.6389C33.4883 26.3187 33.5487 27.0588 33.5487 27.8292Z" fill="url(#paint1_linear_257_11290)"/>
<path d="M33.5487 27.8292V27.9047H3.33984V27.8292C3.33984 27.0588 3.40027 26.3187 3.53621 25.6389H12.0551V19.0532H14.3207V25.6389H22.5678V19.0532H24.8334V25.6389H33.3523C33.4883 26.3187 33.5487 27.0588 33.5487 27.8292Z" fill="url(#paint2_linear_257_11290)"/>
<path opacity="0.4" d="M61.0512 15.5887V27.6347C61.0512 29.6071 59.9946 31.4388 58.2863 32.4426L47.8256 38.4832C46.1174 39.4694 44.0041 39.4694 42.2783 38.4832L31.8176 32.4426C30.1094 31.4564 29.0527 29.6247 29.0527 27.6347V15.5887C29.0527 13.6162 30.1094 11.7846 31.8176 10.7808L42.2783 4.74016C43.9865 3.75393 46.0998 3.75393 47.8256 4.74016L58.2863 10.7808C59.9946 11.7846 61.0512 13.5986 61.0512 15.5887Z" fill="url(#paint3_linear_257_11290)"/>
<path d="M45.0583 21.612C47.3245 21.612 49.1616 19.7748 49.1616 17.5086C49.1616 15.2424 47.3245 13.4053 45.0583 13.4053C42.7922 13.4053 40.9551 15.2424 40.9551 17.5086C40.9551 19.7748 42.7922 21.612 45.0583 21.612Z" fill="url(#paint4_linear_257_11290)"/>
<path d="M49.779 29.8183C51.2054 29.8183 52.0331 28.2334 51.2407 27.0534C50.0431 25.2747 47.7185 24.0771 45.0593 24.0771C42.4001 24.0771 40.0755 25.2747 38.878 27.0534C38.0855 28.2334 38.9132 29.8183 40.3397 29.8183H49.779Z" fill="#16B48C"/>
<defs>
<linearGradient id="paint0_linear_257_11290" x1="28.2638" y1="37.1797" x2="28.2638" y2="50.7741" gradientUnits="userSpaceOnUse">
<stop stop-color="#5574FF"/>
<stop offset="1" stop-color="#10B981"/>
</linearGradient>
<linearGradient id="paint1_linear_257_11290" x1="18.4443" y1="19.0532" x2="18.4443" y2="49.263" gradientUnits="userSpaceOnUse">
<stop stop-color="#5574FF"/>
<stop offset="1" stop-color="#10B981"/>
</linearGradient>
<linearGradient id="paint2_linear_257_11290" x1="18.4443" y1="19.0532" x2="18.4443" y2="27.9047" gradientUnits="userSpaceOnUse">
<stop stop-color="#5574FF"/>
<stop offset="1" stop-color="#10B981"/>
</linearGradient>
<linearGradient id="paint3_linear_257_11290" x1="45.052" y1="4.00049" x2="45.052" y2="39.2229" gradientUnits="userSpaceOnUse">
<stop stop-color="#10B981"/>
<stop offset="1" stop-color="#5574FF"/>
</linearGradient>
<linearGradient id="paint4_linear_257_11290" x1="45.0583" y1="13.4053" x2="45.0583" y2="21.612" gradientUnits="userSpaceOnUse">
<stop stop-color="#10B981"/>
<stop offset="1" stop-color="#5574FF"/>
</linearGradient>
</defs>
</svg>
