<svg width="18" height="16" viewBox="0 0 18 16" fill="none" xmlns="http://www.w3.org/2000/svg">
<path d="M12.7059 15.1132C12.3304 15.1132 11.8488 14.9999 11.2467 14.6665L9.12878 13.4865C8.9092 13.3665 8.4842 13.3665 8.2717 13.4865L6.1467 14.6665C4.89295 15.3666 4.15628 15.0866 3.82336 14.8599C3.49753 14.6332 2.98753 14.0532 3.32045 12.7199L3.82336 10.6732C3.88003 10.4599 3.7667 10.0932 3.5967 9.93322L1.84003 8.27988C0.961698 7.45322 1.03253 6.74655 1.15295 6.39988C1.27336 6.05322 1.65586 5.43988 2.8742 5.24655L5.13378 4.89322C5.34628 4.85988 5.65086 4.64655 5.74295 4.46655L6.9967 2.11322C7.56336 1.03988 8.30711 0.879883 8.6967 0.879883C9.08628 0.879883 9.83003 1.03988 10.3967 2.11322L11.6434 4.45988C11.7425 4.63988 12.0471 4.85322 12.2596 4.88655L14.5192 5.23988C15.7446 5.43322 16.1271 6.04655 16.2404 6.39322C16.3538 6.73988 16.4246 7.44655 15.5534 8.27322L13.7967 9.93322C13.6267 10.0932 13.5204 10.4532 13.57 10.6732L14.0729 12.7199C14.3988 14.0532 13.8959 14.6332 13.57 14.8599C13.3929 14.9799 13.1096 15.1132 12.7059 15.1132ZM8.6967 12.3932C9.04378 12.3932 9.39086 12.4732 9.66711 12.6266L11.785 13.8065C12.4013 14.1532 12.7909 14.1532 12.9396 14.0532C13.0884 13.9532 13.1946 13.5999 13.0388 12.9466L12.5359 10.8999C12.4013 10.3465 12.6209 9.63322 13.0459 9.22655L14.8025 7.57322C15.1496 7.24655 15.3054 6.92655 15.2346 6.70655C15.1567 6.48655 14.8309 6.30655 14.3492 6.23322L12.0896 5.87988C11.5442 5.79322 10.9492 5.37988 10.7013 4.91322L9.45461 2.56655C9.22795 2.13988 8.94461 1.88655 8.6967 1.88655C8.44878 1.88655 8.16545 2.13988 7.94586 2.56655L6.69211 4.91322C6.4442 5.37988 5.8492 5.79322 5.30378 5.87988L3.05128 6.23322C2.56961 6.30655 2.24378 6.48655 2.16586 6.70655C2.08795 6.92655 2.25086 7.25322 2.59795 7.57322L4.35461 9.22655C4.77961 9.62655 4.9992 10.3465 4.86461 10.8999L4.3617 12.9466C4.19878 13.6066 4.31211 13.9532 4.46086 14.0532C4.60961 14.1532 4.99211 14.1465 5.61545 13.8065L7.73337 12.6266C8.00253 12.4732 8.34961 12.3932 8.6967 12.3932Z" fill="#7B8290"/>
</svg>
