<svg width="206" height="335" viewBox="0 0 206 335" fill="none" xmlns="http://www.w3.org/2000/svg">
<g filter="url(#filter0_d_2004_2141)">
<path d="M29 124.005L45.8841 147.278C46.91 148.692 48.5013 149.589 50.2423 149.734L50.3138 149.74C52.3054 149.906 54.2489 149.069 55.4973 147.509L56.2127 146.614C57.047 145.571 57.5095 144.28 57.5269 142.945L58.5 68.5052C58.5 68.5052 62 30.0051 104 30.5052C146 31.0052 146.5 68.5052 146.5 68.5052L147.461 141.045C147.486 142.969 148.122 144.834 149.276 146.373L149.96 147.285C151.244 148.997 153.26 150.005 155.4 150.005C157.652 150.005 159.758 148.891 161.024 147.029L176 125.005H179.698C181.196 125.005 182.658 124.544 183.886 123.685C185.837 122.319 187 120.086 187 117.704V110.884C187 109.332 186.548 107.813 185.7 106.512C182.678 101.878 175.977 101.635 172.627 106.038L162 120.005L161.153 65.7962C161.052 59.3055 160.071 52.8124 156.956 47.1173C150.273 34.9003 134.521 14.3729 104 14.0052C74.6832 13.652 57.4029 31.7161 49.251 43.5333C44.9226 49.8078 43.4402 57.4245 43.3238 65.0462L42.5 119.005L33.2698 107.258C32.0966 105.764 30.7061 104.456 29.1448 103.375L28.7632 103.11C26.4847 101.533 23.481 101.482 21.1499 102.98C19.1867 104.242 18 106.416 18 108.75V116.106C18 117.962 18.7375 119.743 20.0503 121.055L20.4074 121.413C21.7577 122.763 23.5466 123.586 25.4507 123.732L29 124.005Z" fill="#4864E1"/>
<path d="M47 224.505L155 283.505" stroke="#4864E1" stroke-width="12" stroke-linecap="round"/>
<path d="M47 284.505L154 226.505" stroke="#4864E1" stroke-width="12" stroke-linecap="round"/>
<path d="M100.5 162.005V235.005" stroke="#4864E1" stroke-width="15" stroke-linecap="round"/>
<path d="M63 198.505H137" stroke="#4864E1" stroke-width="15" stroke-linecap="round"/>
<path d="M25.75 134.005V160.005H179.75V134.005" stroke="#4864E1" stroke-width="15" stroke-linecap="round"/>
<circle cx="48.5" cy="250.005" r="8.5" fill="#4864E1"/>
<circle cx="8.5" cy="8.5" r="8.5" transform="matrix(-1 0 0 1 162 240.505)" fill="#4864E1"/>
<circle cx="39.5" cy="304.005" r="8.5" fill="#4864E1"/>
<circle cx="8.5" cy="8.5" r="8.5" transform="matrix(-1 0 0 1 171 295.505)" fill="#4864E1"/>
</g>
<path d="M107.592 104.304V101.854C107.592 100.809 107.821 99.894 108.278 99.11C108.736 98.326 109.52 97.5093 110.63 96.66C111.676 95.8107 113.178 94.7653 115.138 93.524C117.817 91.76 120.006 89.996 121.704 88.232C123.403 86.4027 124.644 84.4427 125.428 82.352C126.147 80.2613 126.506 77.9747 126.506 75.492C126.506 70.2653 124.514 66.0513 120.528 62.85C116.543 59.6487 110.924 58.048 103.672 58.048C98.8376 58.048 94.3949 58.6687 90.3442 59.91C86.2282 61.086 82.3736 62.7193 78.7802 64.81L85.4442 77.844C88.6456 76.1453 91.6509 74.8713 94.4602 74.022C97.2696 73.1727 99.8829 72.748 102.3 72.748C104.26 72.748 105.861 73.14 107.102 73.924C108.278 74.708 108.866 75.7533 108.866 77.06C108.866 77.9093 108.736 78.7587 108.474 79.608C108.148 80.4573 107.462 81.4047 106.416 82.45C105.371 83.43 103.77 84.606 101.614 85.978C99.3276 87.4153 97.5636 88.8527 96.3222 90.29C95.0156 91.7273 94.1336 93.2627 93.6762 94.896C93.1535 96.464 92.8922 98.228 92.8922 100.188V104.304H107.592ZM100.928 130.176C103.607 130.176 105.926 129.457 107.886 128.02C109.846 126.583 110.826 124.263 110.826 121.062C110.826 117.665 109.846 115.28 107.886 113.908C105.926 112.536 103.607 111.85 100.928 111.85C98.1189 111.85 95.7342 112.536 93.7742 113.908C91.8142 115.28 90.8342 117.665 90.8342 121.062C90.8342 124.263 91.8142 126.583 93.7742 128.02C95.7342 129.457 98.1189 130.176 100.928 130.176Z" fill="#FF8030"/>
<defs>
<filter id="filter0_d_2004_2141" x="0" y="6.10352e-05" width="205.25" height="334.505" filterUnits="userSpaceOnUse" color-interpolation-filters="sRGB">
<feFlood flood-opacity="0" result="BackgroundImageFix"/>
<feColorMatrix in="SourceAlpha" type="matrix" values="0 0 0 0 0 0 0 0 0 0 0 0 0 0 0 0 0 0 127 0" result="hardAlpha"/>
<feOffset dy="4"/>
<feGaussianBlur stdDeviation="9"/>
<feComposite in2="hardAlpha" operator="out"/>
<feColorMatrix type="matrix" values="0 0 0 0 0.282353 0 0 0 0 0.392157 0 0 0 0 0.882353 0 0 0 0.3 0"/>
<feBlend mode="normal" in2="BackgroundImageFix" result="effect1_dropShadow_2004_2141"/>
<feBlend mode="normal" in="SourceGraphic" in2="effect1_dropShadow_2004_2141" result="shape"/>
</filter>
</defs>
</svg>
