<svg width="51" height="51" viewBox="0 0 51 51" fill="none" xmlns="http://www.w3.org/2000/svg">
<circle cx="25.5" cy="25.5" r="25.5" fill="#FFE6D6"/>
<path d="M18.7495 9.29199C18.7519 9.29199 18.7546 9.29236 18.7583 9.29395C18.7629 9.29598 18.7693 9.30008 18.7759 9.30664C18.7824 9.3132 18.7865 9.31963 18.7886 9.32422C18.7902 9.32793 18.7905 9.33061 18.7905 9.33301V14.333C18.7905 14.3354 18.7902 14.3381 18.7886 14.3418C18.7865 14.3464 18.7824 14.3528 18.7759 14.3594C18.7693 14.3659 18.7629 14.37 18.7583 14.3721C18.7546 14.3737 18.7519 14.374 18.7495 14.374C18.7471 14.374 18.7444 14.3737 18.7407 14.3721C18.7361 14.37 18.7297 14.3659 18.7231 14.3594C18.7166 14.3528 18.7125 14.3464 18.7104 14.3418C18.7089 14.3381 18.7085 14.3354 18.7085 14.333V9.33301C18.7085 9.33061 18.7089 9.32793 18.7104 9.32422C18.7125 9.31963 18.7166 9.3132 18.7231 9.30664C18.7297 9.30008 18.7361 9.29598 18.7407 9.29395C18.7444 9.29236 18.7471 9.29199 18.7495 9.29199Z" fill="#FF8030" stroke="#FF8030" stroke-width="2.41789"/>
<path d="M31.251 9.29199C31.2534 9.29199 31.256 9.29236 31.2598 9.29395C31.2644 9.29598 31.2708 9.30008 31.2773 9.30664C31.2839 9.3132 31.288 9.31963 31.29 9.32422C31.2916 9.32793 31.292 9.33061 31.292 9.33301V14.333C31.292 14.3354 31.2916 14.3381 31.29 14.3418C31.288 14.3464 31.2839 14.3528 31.2773 14.3594C31.2708 14.3659 31.2644 14.37 31.2598 14.3721C31.256 14.3737 31.2534 14.374 31.251 14.374C31.2486 14.374 31.2459 14.3737 31.2422 14.3721C31.2376 14.37 31.2312 14.3659 31.2246 14.3594C31.218 14.3528 31.2139 14.3464 31.2119 14.3418C31.2103 14.3381 31.21 14.3354 31.21 14.333V9.33301C31.21 9.33061 31.2103 9.32793 31.2119 9.32422C31.2139 9.31963 31.218 9.3132 31.2246 9.30664C31.2312 9.30008 31.2376 9.29598 31.2422 9.29395C31.2459 9.29236 31.2486 9.29199 31.251 9.29199Z" fill="#FF8030" stroke="#FF8030" stroke-width="2.41789"/>
<path d="M25.0005 28.042C25.1757 28.042 25.2592 28.0821 25.2856 28.0977C25.2876 28.1076 25.2915 28.1241 25.2915 28.1494C25.2915 28.1729 25.2894 28.1886 25.2876 28.1973C25.2864 28.2029 25.2843 28.2063 25.2837 28.208V28.209C25.2762 28.2155 25.1994 28.2744 25.0005 28.2744C24.8015 28.2744 24.7248 28.2155 24.7173 28.209L24.7163 28.208C24.7157 28.2062 24.7145 28.2026 24.7134 28.1973C24.7116 28.1886 24.7095 28.1729 24.7095 28.1494C24.7095 28.1242 24.7124 28.1076 24.7144 28.0977C24.74 28.0824 24.8236 28.042 25.0005 28.042Z" fill="#FF8030" stroke="#FF8030" stroke-width="2.41789"/>
<path d="M25.0005 32.4429C25.2636 32.443 25.4645 32.5306 25.5796 32.6245C25.6908 32.7153 25.6909 32.7778 25.6909 32.7837C25.6909 32.7883 25.692 32.8511 25.5796 32.9429C25.4645 33.0367 25.2636 33.1244 25.0005 33.1245C24.7371 33.1245 24.5355 33.0368 24.4204 32.9429C24.3081 32.8511 24.3091 32.7883 24.3091 32.7837C24.3091 32.7778 24.3093 32.7152 24.4204 32.6245C24.5355 32.5306 24.7371 32.4429 25.0005 32.4429Z" fill="#FF8030" stroke="#FF8030" stroke-width="2.41789"/>
<path d="M37.6158 13.5002C36.5158 12.6835 34.9324 13.4668 34.9324 14.8502V15.0168C34.9324 16.9668 33.5324 18.7668 31.5824 18.9668C29.3324 19.2002 27.4324 17.4335 27.4324 15.2335V13.5002C27.4324 12.5835 26.6824 11.8335 25.7658 11.8335H24.2324C23.3158 11.8335 22.5658 12.5835 22.5658 13.5002V15.2335C22.5658 16.5502 21.8824 17.7168 20.8491 18.3668C20.6991 18.4668 20.5324 18.5502 20.3658 18.6335C20.2158 18.7168 20.0491 18.7835 19.8658 18.8335C19.6658 18.9002 19.4491 18.9502 19.2158 18.9668C18.9491 19.0002 18.6824 19.0002 18.4158 18.9668C18.1824 18.9502 17.9658 18.9002 17.7658 18.8335C17.5991 18.7835 17.4324 18.7168 17.2658 18.6335C17.0991 18.5502 16.9324 18.4668 16.7824 18.3668C15.7324 17.6335 15.0658 16.3668 15.0658 15.0168V14.8502C15.0658 13.5668 13.6991 12.8002 12.6158 13.3502C12.5991 13.3668 12.5824 13.3668 12.5658 13.3835C12.4991 13.4168 12.4491 13.4502 12.3824 13.5002C12.3324 13.5502 12.2658 13.5835 12.2158 13.6335C11.7491 14.0002 11.3324 14.4168 10.9824 14.8668C10.7991 15.0668 10.6491 15.2835 10.5158 15.5002C10.4991 15.5168 10.4824 15.5335 10.4658 15.5668C10.3158 15.7835 10.1824 16.0335 10.0658 16.2668C10.0324 16.3002 10.0158 16.3168 10.0158 16.3502C9.91577 16.5502 9.81577 16.7502 9.7491 16.9668C9.6991 17.0502 9.68244 17.1168 9.6491 17.2002C9.5491 17.4502 9.48244 17.7002 9.41577 17.9502C9.3491 18.1835 9.2991 18.4335 9.26577 18.6835C9.23244 18.8668 9.21577 19.0502 9.1991 19.2502C9.18244 19.4835 9.16577 19.7168 9.16577 19.9502V34.5502C9.16577 39.0335 12.7991 42.6668 17.2824 42.6668H32.7158C37.1991 42.6668 40.8324 39.0335 40.8324 34.5502V19.9502C40.8324 17.3002 39.5658 14.9835 37.6158 13.5002ZM24.9991 36.4168C22.4158 36.4168 20.8324 35.1335 20.8324 33.0668C20.8324 31.9335 21.4158 30.9502 22.4324 30.3668C21.6991 29.8502 21.2158 29.0835 21.2158 28.0335C21.2158 25.8668 22.9491 24.7502 24.9991 24.7502C27.0491 24.7502 28.7658 25.8668 28.7658 28.0335C28.7658 29.0835 28.2991 29.8502 27.5491 30.3668C28.5824 30.9502 29.1658 31.9335 29.1658 33.0668C29.1658 35.1335 27.5658 36.4168 24.9991 36.4168Z" fill="#FFA267"/>
<rect x="18.3345" y="24.2129" width="12.5" height="13.6905" fill="#FFA267"/>
<path d="M21.7195 30.2337C21.7195 29.3948 21.6767 28.6714 21.5911 28.0636C21.5055 27.4473 21.3343 26.7111 21.0775 25.855L22.3616 25.4056C22.6355 26.2702 22.8153 27.0278 22.9009 27.6784C22.995 28.329 23.0421 29.1765 23.0421 30.2209V33.5723H21.7195V30.2337ZM29.6803 29.4119C29.0811 29.8913 28.5076 30.482 27.9597 31.1839C27.4118 31.8859 26.864 32.7205 26.3161 33.6878L25.1989 33.0715C25.49 32.5407 25.811 32.0228 26.162 31.5178C26.513 31.0041 26.8682 30.5633 27.2278 30.1952C27.1422 30.2209 27.0566 30.2337 26.971 30.2337C26.2433 30.2337 25.6826 30.0325 25.2888 29.6302C24.9036 29.2193 24.711 28.6714 24.711 27.9866C24.711 27.5243 24.8137 27.0963 25.0192 26.7025C25.2332 26.3087 25.52 25.9963 25.8795 25.7652C26.2476 25.5255 26.6499 25.4056 27.0865 25.4056C27.369 25.4056 27.6387 25.4399 27.8955 25.5083C28.1523 25.5768 28.4262 25.6881 28.7173 25.8422L28.2679 26.9465C27.8655 26.8095 27.4889 26.741 27.1379 26.741C26.8211 26.741 26.5558 26.8523 26.3418 27.0749C26.1363 27.2889 26.0336 27.55 26.0336 27.8582C26.0336 28.5516 26.4359 28.8983 27.2406 28.8983C27.4889 28.8983 27.7714 28.8598 28.0881 28.7827C28.4048 28.7057 28.7301 28.5858 29.064 28.4232L29.6803 29.4119Z" fill="#F5F6F8"/>
</svg>
