<svg width="20" height="17" viewBox="0 0 20 17" fill="none" xmlns="http://www.w3.org/2000/svg">
<path d="M0.512881 7.36656C0.557712 7.34414 0.602565 7.32284 0.646275 7.30266C1.40617 6.95063 2.17615 6.62102 2.94501 6.29141C2.98648 6.29141 3.05595 6.24321 3.09518 6.22751C3.15458 6.20172 3.21399 6.17706 3.27339 6.15127L3.61523 6.00441C3.84387 5.90687 4.07138 5.80933 4.30002 5.7118C4.75618 5.51672 5.21233 5.32165 5.66849 5.12545C6.58081 4.7353 7.49427 4.34404 8.40659 3.95389C9.31891 3.56374 10.2323 3.17247 11.1447 2.78232C12.057 2.39217 12.9704 2.0009 13.8827 1.61076C14.7951 1.22061 15.7085 0.829338 16.6208 0.43919C16.8237 0.351743 17.0434 0.221694 17.2608 0.183576C17.4435 0.151064 17.6217 0.0882816 17.8055 0.053527C18.154 -0.0126188 18.5385 -0.0395257 18.8725 0.105098C18.9879 0.155548 19.0944 0.226178 19.1829 0.314746C19.6066 0.734043 19.5472 1.42241 19.4575 2.01212C18.8332 6.12212 18.209 10.2333 17.5836 14.3433C17.4984 14.9072 17.3818 15.526 16.9369 15.8826C16.5603 16.1841 16.0246 16.2178 15.5594 16.09C15.0943 15.961 14.6841 15.6908 14.2817 15.4251C12.6129 14.3197 10.9429 13.2143 9.27408 12.1089C8.87732 11.8465 8.43574 11.5035 8.44022 11.027C8.44246 10.74 8.61393 10.4844 8.78877 10.2568C10.2391 8.36436 12.3316 7.06386 13.8883 5.25887C14.108 5.00437 14.2806 4.54472 13.9791 4.39785C13.7998 4.3104 13.5936 4.42924 13.4299 4.54247C11.3722 5.9719 9.31555 7.40244 7.25779 8.83186C6.58644 9.29824 5.88259 9.77808 5.07338 9.89244C4.34935 9.99558 3.62084 9.79378 2.92035 9.58749C2.33306 9.41484 1.74687 9.23771 1.16294 9.05496C0.852484 8.95855 0.531938 8.85428 0.292089 8.63567C0.0522414 8.41705 -0.0855966 8.04932 0.0589847 7.75783C0.149768 7.57509 0.325735 7.45962 0.510665 7.36544L0.512881 7.36656Z" fill="url(#paint0_linear_4743_37)"/>
<defs>
<linearGradient id="paint0_linear_4743_37" x1="9.76089" y1="0" x2="9.76089" y2="16.1603" gradientUnits="userSpaceOnUse">
<stop stop-color="#4864E1"/>
<stop offset="1" stop-color="#10B981"/>
</linearGradient>
</defs>
</svg>
