<svg width="40" height="40" viewBox="0 0 40 40" fill="none" xmlns="http://www.w3.org/2000/svg">
<circle cx="20" cy="20" r="20" fill="#4864E1"/>
<path fill-rule="evenodd" clip-rule="evenodd" d="M20 9.5C14.201 9.5 9.5 14.201 9.5 20C9.5 25.799 14.201 30.5 20 30.5C25.799 30.5 30.5 25.799 30.5 20C30.5 14.201 25.799 9.5 20 9.5ZM24.8668 16.6407C24.7085 18.3012 24.0252 22.3302 23.6772 24.1895C23.5302 24.9763 23.24 25.2402 22.9595 25.2657C22.3497 25.322 21.887 24.863 21.296 24.476C20.372 23.87 19.85 23.4927 18.953 22.9017C17.9165 22.2185 18.5885 21.8427 19.1795 21.2292C19.334 21.0688 22.0205 18.6252 22.073 18.4032C22.0798 18.3755 22.0857 18.272 22.0243 18.2172C21.9627 18.1625 21.872 18.1813 21.8068 18.1962C21.7137 18.2172 20.2378 19.193 17.378 21.1235C16.9587 21.4115 16.5792 21.5518 16.2395 21.5443C15.8645 21.536 15.1438 21.332 14.6075 21.158C13.9498 20.9443 13.427 20.831 13.4727 20.468C13.4967 20.279 13.757 20.0855 14.2542 19.8883C17.315 18.5547 19.3565 17.6757 20.3773 17.2505C23.2933 16.0377 23.8993 15.827 24.2938 15.8203C24.3808 15.8187 24.575 15.8405 24.701 15.9425C24.8075 16.0287 24.8367 16.145 24.8502 16.2267C24.8645 16.3085 24.8818 16.4945 24.8675 16.64L24.8668 16.6407Z" fill="#EBECF1"/>
</svg>
