<svg width="24" height="24" viewBox="0 0 24 24" fill="none" xmlns="http://www.w3.org/2000/svg">
<path d="M13.75 3V6.6C13.75 7.07739 13.9344 7.53523 14.2626 7.87279C14.5908 8.21036 15.0359 8.4 15.5 8.4H19M10.25 9.3H8.5M15.5 12.9H8.5M15.5 16.5H8.5M14.625 3H6.75C6.28587 3 5.84075 3.18964 5.51256 3.52721C5.18437 3.86477 5 4.32261 5 4.8V19.2C5 19.6774 5.18437 20.1352 5.51256 20.4728C5.84075 20.8104 6.28587 21 6.75 21H17.25C17.7141 21 18.1592 20.8104 18.4874 20.4728C18.8156 20.1352 19 19.6774 19 19.2V7.5L14.625 3Z" stroke="#757575" stroke-width="1.5" stroke-linecap="round" stroke-linejoin="round"/>
</svg>
