<svg width="12" height="12" viewBox="0 0 12 12" fill="none" xmlns="http://www.w3.org/2000/svg">
<path d="M5.99906 2.3252C3.60906 2.3252 1.66406 4.2702 1.66406 6.6602C1.66406 9.0502 3.60906 11.0002 5.99906 11.0002C8.38906 11.0002 10.3341 9.0552 10.3341 6.6652C10.3341 4.2752 8.38906 2.3252 5.99906 2.3252ZM6.37406 6.5002C6.37406 6.7052 6.20406 6.8752 5.99906 6.8752C5.79406 6.8752 5.62406 6.7052 5.62406 6.5002V4.0002C5.62406 3.7952 5.79406 3.6252 5.99906 3.6252C6.20406 3.6252 6.37406 3.7952 6.37406 4.0002V6.5002Z" fill="#7B8290"/>
<path d="M7.44531 1.725H4.55531C4.35531 1.725 4.19531 1.565 4.19531 1.365C4.19531 1.165 4.35531 1 4.55531 1H7.44531C7.64531 1 7.80531 1.16 7.80531 1.36C7.80531 1.56 7.64531 1.725 7.44531 1.725Z" fill="#7B8290"/>
</svg>
