<svg width="56" height="56" viewBox="0 0 56 56" fill="none" xmlns="http://www.w3.org/2000/svg">
<path d="M39.9146 7.14844C41.8887 7.14844 42.8933 8.74878 42.8933 10.7229V32.1697C42.8933 34.1438 41.8887 35.7442 39.9146 35.7442L7.74435 35.7442C5.77022 35.7442 4.76562 34.1438 4.76562 32.1697L4.76563 10.7229C4.76563 8.74878 5.77023 7.14844 7.74435 7.14844L39.9146 7.14844Z" fill="#FAFAFA"/>
<path d="M4.76563 10.7229L4.76562 32.1697C4.76562 34.1438 5.77022 35.7442 7.74435 35.7442L39.9146 35.7442C41.8887 35.7442 42.8933 34.1438 42.8933 32.1697V10.7229M4.76563 10.7229C4.76563 8.74878 5.77023 7.14844 7.74435 7.14844L39.9146 7.14844C41.8887 7.14844 42.8933 8.74878 42.8933 10.7229M4.76563 10.7229L42.8933 10.7229" stroke="#A6A6A6" stroke-width="0.595745"/>
<rect x="38.7227" y="14.2969" width="17.2766" height="29.7872" rx="1.78723" transform="rotate(90 38.7227 14.2969)" fill="#4864E1" fill-opacity="0.08" stroke="#4864E1" stroke-width="0.595745" stroke-linecap="round" stroke-dasharray="0.6 2.38"/>
<path d="M23.834 20.8516L23.8347 24.4255M25.6212 22.6389L22.0468 22.6389" stroke="#4864E1" stroke-width="0.595745" stroke-linecap="round"/>
<circle cx="7.74418" cy="8.93559" r="0.595745" fill="#DBDBDB"/>
<circle cx="9.53129" cy="8.93559" r="0.595745" fill="#DBDBDB"/>
<circle cx="11.3184" cy="8.93559" r="0.595745" fill="#DBDBDB"/>
<path d="M46.468 20.2539L51.2341 25.0199L51.234 45.8709C51.234 47.516 49.9004 48.8496 48.2553 48.8497H32.1701C30.525 48.8497 29.1914 47.516 29.1914 45.8709V23.2326C29.1914 21.5875 30.525 20.2539 32.1701 20.2539L46.468 20.2539Z" fill="#FAFAFA" stroke="#A6A6A6" stroke-width="0.595745"/>
<path d="M51.2338 25.0199L46.4678 20.2539V22.6369C46.4678 23.953 47.5347 25.0199 48.8508 25.0199H51.2338Z" fill="#DBDBDB" stroke="#A6A6A6" stroke-width="0.595745" stroke-linejoin="round"/>
<path d="M38.1271 36.9338C39.9144 38.1253 40.51 35.7423 42.2973 36.9338" stroke="#3B3B3B" stroke-width="0.714894" stroke-linecap="round"/>
<path d="M36.9365 32.168L38.1274 33.6358L36.9365 33.9552" stroke="#3B3B3B" stroke-width="0.714894" stroke-linecap="round" stroke-linejoin="round"/>
<path d="M43.4893 32.168L42.2972 33.6573L43.4893 33.9552" stroke="#3B3B3B" stroke-width="0.714894" stroke-linecap="round" stroke-linejoin="round"/>
<path d="M39.8162 51.4528L38.9444 46.1292L43.7314 48.5647C43.9546 48.6783 43.9465 48.9999 43.7179 49.1021L41.7486 49.983L40.3344 51.6007C40.1686 51.7903 39.8569 51.7014 39.8162 51.4528Z" fill="white"/>
<path d="M38.9444 46.1292L39.0794 45.8637C38.9794 45.8128 38.8592 45.8225 38.7686 45.8888C38.678 45.955 38.6323 46.0666 38.6504 46.1774L38.9444 46.1292ZM39.8162 51.4528L39.5222 51.5009L39.5222 51.5009L39.8162 51.4528ZM43.7314 48.5647L43.8664 48.2992V48.2992L43.7314 48.5647ZM40.3344 51.6007L40.1101 51.4046L40.1101 51.4046L40.3344 51.6007ZM41.7486 49.983L41.627 49.7111L41.5674 49.7377L41.5244 49.7869L41.7486 49.983ZM43.7179 49.1021L43.5963 48.8302L43.5963 48.8302L43.7179 49.1021ZM38.9444 46.1292L38.6504 46.1774L39.5222 51.5009L39.8162 51.4528L40.1101 51.4046L39.2383 46.0811L38.9444 46.1292ZM43.7314 48.5647L43.8664 48.2992L39.0794 45.8637L38.9444 46.1292L38.8093 46.3947L43.5963 48.8302L43.7314 48.5647ZM40.3344 51.6007L40.5586 51.7968L41.9729 50.179L41.7486 49.983L41.5244 49.7869L40.1101 51.4046L40.3344 51.6007ZM41.7486 49.983L41.8703 50.2549L43.8396 49.374L43.7179 49.1021L43.5963 48.8302L41.627 49.7111L41.7486 49.983ZM43.7314 48.5647L43.5963 48.8302L43.5963 48.8302L43.7179 49.1021L43.8396 49.374C44.2968 49.1695 44.3129 48.5264 43.8664 48.2992L43.7314 48.5647ZM39.8162 51.4528L39.5222 51.5009C39.6036 51.9981 40.2271 52.176 40.5586 51.7968L40.3344 51.6007L40.1101 51.4046L40.1101 51.4046L39.8162 51.4528Z" fill="#4864E1"/>
</svg>
