<svg width="20" height="20" viewBox="0 0 20 20" fill="none" xmlns="http://www.w3.org/2000/svg">
<path d="M8.67978 16.7105H4.49557C4.07681 16.7105 3.6752 16.5442 3.37909 16.2481C3.08298 15.952 2.91663 15.5503 2.91663 15.1316V4.07895C2.91663 3.66018 3.08298 3.25857 3.37909 2.96246C3.6752 2.66635 4.07681 2.5 4.49557 2.5H15.5482C15.967 2.5 16.3686 2.66635 16.6647 2.96246C16.9608 3.25857 17.1272 3.66018 17.1272 4.07895V11.9737L14.6798 9.52632C14.3827 9.23514 13.9827 9.07297 13.5667 9.07504C13.1507 9.07711 12.7524 9.24325 12.4582 9.53737L5.28505 16.7105M11.6008 15.1316L13.9693 17.5M13.9693 17.5V13.1579M13.9693 17.5L16.3377 15.1316M9.23242 7.23684C9.23242 8.10887 8.5255 8.81579 7.65347 8.81579C6.78144 8.81579 6.07452 8.10887 6.07452 7.23684C6.07452 6.36481 6.78144 5.65789 7.65347 5.65789C8.5255 5.65789 9.23242 6.36481 9.23242 7.23684Z" stroke="#4864E1" stroke-width="1.5" stroke-linecap="round" stroke-linejoin="round"/>
</svg>
