<svg width="16" height="16" viewBox="0 0 16 16" fill="none" xmlns="http://www.w3.org/2000/svg">
<g clip-path="url(#clip0_5478_9120)">
<path d="M10.4 13.3996V12.1996C10.4 11.5631 10.1471 10.9526 9.69706 10.5026C9.24697 10.0525 8.63652 9.79961 8 9.79961H4.4C3.76348 9.79961 3.15303 10.0525 2.70294 10.5026C2.25286 10.9526 2 11.5631 2 12.1996V13.3996M14 13.3995V12.1995C13.9996 11.6678 13.8226 11.1512 13.4968 10.7309C13.171 10.3107 12.7149 10.0105 12.2 9.87754M10.4 2.67754C10.9162 2.80972 11.3738 3.10996 11.7006 3.53093C12.0273 3.95189 12.2047 4.46964 12.2047 5.00254C12.2047 5.53544 12.0273 6.05319 11.7006 6.47415C11.3738 6.89512 10.9162 7.19536 10.4 7.32754M8.6 4.99961C8.6 6.32509 7.52548 7.39961 6.2 7.39961C4.87452 7.39961 3.8 6.32509 3.8 4.99961C3.8 3.67413 4.87452 2.59961 6.2 2.59961C7.52548 2.59961 8.6 3.67413 8.6 4.99961Z" stroke="#757575" stroke-width="1.5" stroke-linecap="round" stroke-linejoin="round"/>
</g>
<defs>
<clipPath id="clip0_5478_9120">
<rect width="16" height="16" fill="white"/>
</clipPath>
</defs>
</svg>
