<svg width="21" height="21" viewBox="0 0 21 21" fill="none" xmlns="http://www.w3.org/2000/svg">
<rect width="20.1171" height="20.1171" transform="translate(0.820312 0.31543)" fill="white"/>
<path d="M10.879 11.0027C8.22191 11.0027 6.05933 8.84014 6.05933 6.183C6.05933 3.52587 8.22191 1.36328 10.879 1.36328C13.5362 1.36328 15.6988 3.52587 15.6988 6.183C15.6988 8.84014 13.5362 11.0027 10.879 11.0027ZM10.879 2.6206C8.91763 2.6206 7.31665 4.22159 7.31665 6.183C7.31665 8.14442 8.91763 9.74541 10.879 9.74541C12.8405 9.74541 14.4415 8.14442 14.4415 6.183C14.4415 4.22159 12.8405 2.6206 10.879 2.6206Z" fill="#949CA7"/>
<path d="M3.67871 19.3848C3.33504 19.3848 3.05005 19.0998 3.05005 18.7562C3.05005 15.177 6.56218 12.26 10.879 12.26C11.2226 12.26 11.5076 12.545 11.5076 12.8887C11.5076 13.2323 11.2226 13.5173 10.879 13.5173C7.2579 13.5173 4.30737 15.8643 4.30737 18.7562C4.30737 19.0998 4.02238 19.3848 3.67871 19.3848Z" fill="#949CA7"/>
<path d="M16.0758 18.8819C14.2485 18.8819 12.7649 17.3983 12.7649 15.571C12.7649 13.7437 14.2485 12.26 16.0758 12.26C17.9031 12.26 19.3868 13.7437 19.3868 15.571C19.3868 17.3983 17.9031 18.8819 16.0758 18.8819ZM16.0758 13.5173C14.9443 13.5173 14.0222 14.4394 14.0222 15.571C14.0222 16.7025 14.9443 17.6246 16.0758 17.6246C17.2074 17.6246 18.1295 16.7025 18.1295 15.571C18.1295 14.4394 17.2074 13.5173 16.0758 13.5173Z" fill="#949CA7"/>
<path d="M19.2612 19.3847C19.1019 19.3847 18.9426 19.3261 18.8169 19.2003L17.9787 18.3621C17.7356 18.119 17.7356 17.7167 17.9787 17.4736C18.2218 17.2305 18.6242 17.2305 18.8673 17.4736L19.7055 18.3118C19.9485 18.5549 19.9485 18.9573 19.7055 19.2003C19.5797 19.3261 19.4204 19.3847 19.2612 19.3847Z" fill="#949CA7"/>
</svg>
