<svg width="14" height="14" viewBox="0 0 14 14" fill="none" xmlns="http://www.w3.org/2000/svg">
<path d="M11.3806 3.41234L7.91562 1.4115C7.34979 1.08484 6.64979 1.08484 6.07812 1.4115L2.61896 3.41234C2.05312 3.739 1.70312 4.34567 1.70312 5.00484V8.99484C1.70312 9.64817 2.05312 10.2548 2.61896 10.5873L6.08396 12.5882C6.64979 12.9148 7.34979 12.9148 7.92146 12.5882L11.3865 10.5873C11.9523 10.2607 12.3023 9.654 12.3023 8.99484V5.00484C12.2965 4.34567 11.9465 3.74484 11.3806 3.41234ZM6.99979 4.2815C7.75229 4.2815 8.35896 4.88817 8.35896 5.64067C8.35896 6.39317 7.75229 6.99984 6.99979 6.99984C6.24729 6.99984 5.64062 6.39317 5.64062 5.64067C5.64062 4.894 6.24729 4.2815 6.99979 4.2815ZM8.56313 9.71817H5.43646C4.96396 9.71817 4.68979 9.19317 4.95229 8.80234C5.34896 8.21317 6.11896 7.8165 6.99979 7.8165C7.88062 7.8165 8.65062 8.21317 9.04729 8.80234C9.30979 9.18734 9.02979 9.71817 8.56313 9.71817Z" fill="#7B8290"/>
</svg>
