<svg width="16" height="16" viewBox="0 0 16 16" fill="none" xmlns="http://www.w3.org/2000/svg">
<path d="M7.99994 9.33325C4.65994 9.33325 1.93994 11.5733 1.93994 14.3333C1.93994 14.5199 2.08661 14.6666 2.27327 14.6666H13.7266C13.9133 14.6666 14.0599 14.5199 14.0599 14.3333C14.0599 11.5733 11.3399 9.33325 7.99994 9.33325Z" fill="#1B213C"/>
<path d="M11.1467 6.89992L10.5067 6.25992C10.8401 5.75992 11.0334 5.15992 11.0334 4.51325C11.0334 2.75325 9.60675 1.33325 7.85341 1.33325C6.10008 1.33325 4.66675 2.75992 4.66675 4.51325C4.66675 6.26659 6.09342 7.69325 7.84675 7.69325C8.49342 7.69325 9.09342 7.49992 9.59342 7.16659L10.2334 7.80659C10.3601 7.93325 10.5267 7.99325 10.6867 7.99325C10.8534 7.99325 11.0201 7.93325 11.1401 7.80659C11.3934 7.55992 11.3934 7.15325 11.1467 6.89992Z" fill="#1B213C"/>
</svg>
