<svg width="17" height="16" viewBox="0 0 17 16" fill="none" xmlns="http://www.w3.org/2000/svg">
<path d="M8.61849 8.49967C6.50516 8.49967 4.78516 6.77967 4.78516 4.66634C4.78516 2.55301 6.50516 0.833008 8.61849 0.833008C10.7318 0.833008 12.4518 2.55301 12.4518 4.66634C12.4518 6.77967 10.7318 8.49967 8.61849 8.49967ZM8.61849 1.83301C7.05849 1.83301 5.78516 3.10634 5.78516 4.66634C5.78516 6.22634 7.05849 7.49967 8.61849 7.49967C10.1785 7.49967 11.4518 6.22634 11.4518 4.66634C11.4518 3.10634 10.1785 1.83301 8.61849 1.83301Z" fill="#484B5B"/>
<path d="M2.89063 15.1667C2.61729 15.1667 2.39062 14.94 2.39062 14.6667C2.39062 11.82 5.18398 9.5 8.61731 9.5C8.89064 9.5 9.11731 9.72667 9.11731 10C9.11731 10.2733 8.89064 10.5 8.61731 10.5C5.73731 10.5 3.39063 12.3667 3.39063 14.6667C3.39063 14.94 3.16396 15.1667 2.89063 15.1667Z" fill="#484B5B"/>
<path d="M12.7525 14.7667C11.2991 14.7667 10.1191 13.5867 10.1191 12.1333C10.1191 10.68 11.2991 9.5 12.7525 9.5C14.2058 9.5 15.3858 10.68 15.3858 12.1333C15.3858 13.5867 14.2058 14.7667 12.7525 14.7667ZM12.7525 10.5C11.8525 10.5 11.1191 11.2333 11.1191 12.1333C11.1191 13.0333 11.8525 13.7667 12.7525 13.7667C13.6525 13.7667 14.3858 13.0333 14.3858 12.1333C14.3858 11.2333 13.6525 10.5 12.7525 10.5Z" fill="#484B5B"/>
<path d="M15.2842 15.1665C15.1575 15.1665 15.0308 15.1198 14.9308 15.0198L14.2641 14.3532C14.0708 14.1598 14.0708 13.8398 14.2641 13.6465C14.4575 13.4531 14.7775 13.4531 14.9708 13.6465L15.6375 14.3131C15.8308 14.5065 15.8308 14.8265 15.6375 15.0198C15.5375 15.1198 15.4108 15.1665 15.2842 15.1665Z" fill="#484B5B"/>
</svg>
