<svg width="24" height="24" viewBox="0 0 24 24" fill="none" xmlns="http://www.w3.org/2000/svg"><path d="M8.597 3.318 C 7.664 3.488,6.856 3.909,6.204 4.564 C 5.503 5.269,5.109 6.106,4.994 7.133 C 4.890 8.072,5.140 9.098,5.668 9.893 C 6.752 11.525,8.774 12.224,10.667 11.621 C 11.989 11.200,13.072 10.085,13.457 8.749 C 14.036 6.739,13.100 4.635,11.220 3.718 C 10.587 3.409,10.185 3.315,9.420 3.298 C 9.068 3.291,8.698 3.300,8.597 3.318 M15.454 3.402 C 15.112 3.473,14.880 3.762,14.880 4.117 C 14.880 4.505,15.064 4.706,15.580 4.880 C 16.504 5.192,17.146 5.832,17.447 6.740 C 17.526 6.977,17.540 7.102,17.540 7.560 C 17.540 8.018,17.526 8.143,17.447 8.380 C 17.146 9.288,16.504 9.928,15.580 10.240 C 15.063 10.415,14.880 10.615,14.880 11.004 C 14.880 11.419,15.182 11.720,15.598 11.720 C 16.033 11.720,16.872 11.345,17.420 10.906 C 17.956 10.477,18.348 9.973,18.656 9.315 C 18.941 8.709,19.016 8.341,19.016 7.560 C 19.016 6.779,18.941 6.411,18.656 5.805 C 18.348 5.148,17.956 4.643,17.422 4.215 C 16.795 3.713,15.845 3.320,15.454 3.402 M9.990 4.825 C 10.911 5.017,11.750 5.807,12.047 6.760 C 12.125 7.012,12.140 7.143,12.137 7.580 C 12.135 8.032,12.120 8.143,12.028 8.423 C 11.798 9.119,11.247 9.742,10.564 10.081 C 9.865 10.428,8.909 10.457,8.187 10.152 C 7.448 9.841,6.810 9.157,6.577 8.425 C 6.160 7.119,6.731 5.734,7.960 5.067 C 8.554 4.745,9.222 4.665,9.990 4.825 M6.100 13.964 C 5.479 14.030,4.712 14.309,4.168 14.669 C 3.882 14.858,3.366 15.347,3.132 15.650 C 2.761 16.132,2.461 16.814,2.340 17.450 C 2.256 17.897,2.253 20.151,2.336 20.312 C 2.401 20.435,2.578 20.609,2.707 20.675 C 2.831 20.738,3.183 20.731,3.316 20.662 C 3.459 20.588,3.673 20.345,3.698 20.229 C 3.708 20.180,3.724 19.609,3.734 18.960 C 3.752 17.632,3.768 17.530,4.047 16.960 C 4.183 16.683,4.280 16.553,4.577 16.259 C 4.976 15.862,5.281 15.676,5.800 15.514 L 6.100 15.420 9.300 15.420 L 12.500 15.420 12.800 15.514 C 13.319 15.676,13.624 15.862,14.023 16.259 C 14.320 16.553,14.417 16.683,14.553 16.960 C 14.832 17.530,14.848 17.632,14.866 18.960 C 14.876 19.609,14.892 20.180,14.902 20.229 C 14.927 20.345,15.141 20.588,15.284 20.662 C 15.427 20.736,15.772 20.737,15.912 20.664 C 16.035 20.599,16.209 20.422,16.275 20.293 C 16.348 20.151,16.335 17.849,16.260 17.450 C 16.139 16.814,15.839 16.132,15.468 15.650 C 15.234 15.347,14.718 14.858,14.432 14.669 C 13.861 14.291,13.132 14.033,12.437 13.962 C 11.953 13.912,6.576 13.914,6.100 13.964 M18.080 14.087 C 17.813 14.162,17.559 14.502,17.560 14.785 C 17.561 15.141,17.790 15.390,18.253 15.539 C 18.753 15.700,19.057 15.889,19.441 16.276 C 19.711 16.548,19.818 16.691,19.950 16.960 C 20.232 17.534,20.248 17.632,20.266 18.960 C 20.276 19.609,20.292 20.180,20.302 20.229 C 20.327 20.345,20.541 20.588,20.684 20.662 C 20.828 20.737,21.172 20.737,21.316 20.662 C 21.459 20.588,21.672 20.347,21.703 20.223 C 21.716 20.171,21.719 19.528,21.709 18.794 C 21.693 17.570,21.684 17.434,21.603 17.140 C 21.399 16.405,20.972 15.695,20.407 15.152 C 19.887 14.653,19.385 14.352,18.728 14.145 C 18.371 14.032,18.297 14.026,18.080 14.087 " stroke="none" fill-rule="evenodd" fill="black"></path></svg>