<svg width="24" height="24" viewBox="0 0 24 24" fill="none" xmlns="http://www.w3.org/2000/svg">
<g clip-path="url(#clip0_7280_84265)">
<path d="M7.2 5.66667V4.33333C7.2 3.97971 7.3475 3.64057 7.61005 3.39052C7.8726 3.14048 8.2287 3 8.6 3H11.4C11.7713 3 12.1274 3.14048 12.3899 3.39052C12.6525 3.64057 12.8 3.97971 12.8 4.33333V5.66667M7.2 5.66667V16M7.2 5.66667H4.4C3.6268 5.66667 3 6.26362 3 7V14.6667C3 15.403 3.6268 16 4.4 16H7.2M7.2 5.66667H12.8M7.2 16H12M12.8 5.66667H15.6C16.3732 5.66667 17 6.26362 17 7V9M12.8 5.66667V9M18.75 16.1994H14.25M17.0625 18.5993H14.25M17.5179 13.9996C17.5179 13.6965 17.405 13.4059 17.204 13.1916C17.0031 12.9772 16.7306 12.8568 16.4464 12.8568M16.4464 12.8568C16.1623 12.8568 15.8897 12.9772 15.6888 13.1916C15.4879 13.4059 15.375 13.6965 15.375 13.9996M16.4464 12.8568C16.8409 12.8568 17.1607 12.5158 17.1607 12.095C17.1607 11.6742 16.8409 11.3332 16.4464 11.3332C16.0519 11.3332 15.7321 11.6742 15.7321 12.095C15.7321 12.5158 16.0519 12.8568 16.4464 12.8568ZM13.125 20.9991C13.1873 20.9991 19.875 20.9991 19.875 20.9991C20.1734 20.9991 20.4595 20.8908 20.6705 20.6658C20.8815 20.4407 21 20.1174 21 19.7992V10.1999C21 9.88167 20.8815 9.57647 20.6705 9.35144C20.4595 9.12642 20.1734 9 19.875 9H13.125C12.8266 9 12.5405 9.12642 12.3295 9.35144C12.1185 9.57647 12 9.88167 12 10.1999V19.7992C12 20.1174 12.0311 20.3658 12.3436 20.6991C12.6561 21.0324 13.0627 20.9991 13.125 20.9991Z" stroke="#757575" stroke-width="1.5" stroke-linecap="round" stroke-linejoin="round"/>
</g>
<defs>
<clipPath id="clip0_7280_84265">
<rect width="24" height="24" fill="white"/>
</clipPath>
</defs>
</svg>
