<svg width="16" height="16" viewBox="0 0 16 16" fill="none" xmlns="http://www.w3.org/2000/svg">
<g clip-path="url(#clip0_5478_9039)">
<path d="M4.8 3.77778V2.88889C4.8 2.65314 4.89833 2.42705 5.07337 2.26035C5.2484 2.09365 5.4858 2 5.73333 2H7.6C7.84754 2 8.08493 2.09365 8.25997 2.26035C8.435 2.42705 8.53333 2.65314 8.53333 2.88889V3.77778M4.8 3.77778V10.6667M4.8 3.77778H2.93333C2.41787 3.77778 2 4.17575 2 4.66667V9.77778C2 10.2687 2.41787 10.6667 2.93333 10.6667H4.8M4.8 3.77778H8.53333M4.8 10.6667H8M8.53333 3.77778H10.4C10.9155 3.77778 11.3333 4.17575 11.3333 4.66667V6M8.53333 3.77778V6M12.5 10.7996H9.5M11.375 12.3995H9.5M11.6786 9.33308C11.6786 9.13102 11.6033 8.93724 11.4694 8.79437C11.3354 8.6515 11.1537 8.57123 10.9643 8.57123M10.9643 8.57123C10.7748 8.57123 10.5932 8.6515 10.4592 8.79437C10.3253 8.93724 10.25 9.13102 10.25 9.33308M10.9643 8.57123C11.2273 8.57123 11.4405 8.34384 11.4405 8.06333C11.4405 7.78283 11.2273 7.55544 10.9643 7.55544C10.7013 7.55544 10.4881 7.78283 10.4881 8.06333C10.4881 8.34384 10.7013 8.57123 10.9643 8.57123ZM8.75 13.9994C8.79155 13.9994 13.25 13.9994 13.25 13.9994C13.4489 13.9994 13.6397 13.9272 13.7803 13.7772C13.921 13.6272 14 13.4116 14 13.1994V6.79994C14 6.58778 13.921 6.38431 13.7803 6.2343C13.6397 6.08428 13.4489 6 13.25 6H8.75C8.55109 6 8.36032 6.08428 8.21967 6.2343C8.07902 6.38431 8 6.58778 8 6.79994V13.1994C8 13.4116 8.02071 13.5772 8.22904 13.7994C8.43738 14.0216 8.70846 13.9994 8.75 13.9994Z" stroke="#757575" stroke-width="1.5" stroke-linecap="round" stroke-linejoin="round"/>
</g>
<defs>
<clipPath id="clip0_5478_9039">
<rect width="16" height="16" fill="white"/>
</clipPath>
</defs>
</svg>
