<svg width="16" height="16" viewBox="0 0 16 16" fill="none" xmlns="http://www.w3.org/2000/svg">
<g clip-path="url(#clip0_5478_3668)">
<path d="M3.26089 9.18418C3.1488 9.18456 3.03889 9.15313 2.94395 9.09353C2.849 9.03394 2.77292 8.94863 2.72453 8.84751C2.67615 8.74639 2.65744 8.63362 2.6706 8.5223C2.68375 8.41098 2.72822 8.30567 2.79885 8.21862L8.66329 2.17646C8.70728 2.12569 8.76723 2.09137 8.83329 2.07916C8.89935 2.06694 8.9676 2.07755 9.02684 2.10923C9.08608 2.14092 9.13279 2.1918 9.1593 2.25354C9.18581 2.31527 9.19054 2.38418 9.17273 2.44895L8.03538 6.01501C8.00184 6.10477 7.99058 6.20132 8.00256 6.29639C8.01453 6.39146 8.04939 6.4822 8.10415 6.56083C8.1589 6.63947 8.23191 6.70365 8.31692 6.74786C8.40192 6.79208 8.49639 6.81502 8.59221 6.81471H12.7388C12.8509 6.81432 12.9608 6.84576 13.0557 6.90535C13.1507 6.96495 13.2268 7.05026 13.2751 7.15137C13.3235 7.25249 13.3422 7.36526 13.3291 7.47658C13.3159 7.58791 13.2715 7.69321 13.2008 7.78027L7.33638 13.8224C7.29239 13.8732 7.23245 13.9075 7.16639 13.9197C7.10032 13.9319 7.03207 13.9213 6.97283 13.8897C6.91359 13.858 6.86688 13.8071 6.84037 13.7453C6.81387 13.6836 6.80913 13.6147 6.82695 13.5499L7.96429 9.98388C7.99783 9.89412 8.0091 9.79756 7.99712 9.7025C7.98514 9.60743 7.95028 9.51669 7.89553 9.43805C7.84077 9.35942 7.76776 9.29524 7.68276 9.25102C7.59775 9.2068 7.50329 9.18387 7.40747 9.18418H3.26089Z" stroke="#757575" stroke-width="1.5" stroke-linecap="round" stroke-linejoin="round"/>
</g>
<defs>
<clipPath id="clip0_5478_3668">
<rect width="16" height="16" fill="white"/>
</clipPath>
</defs>
</svg>
